solid
facet normal -1 -0 0
outer loop
vertex -5 -0.1 0
vertex -5 0.1 0
vertex -5 -0.1 -0.2
endloop
endfacet
facet normal 0 1 0
outer loop
vertex -5 0.1 -0.2
vertex -5 0.1 0
vertex 5 0.1 0
endloop
endfacet
facet normal 0 1 -0
outer loop
vertex 5 0.1 -0.2
vertex -5 0.1 -0.2
vertex 5 0.1 0
endloop
endfacet
facet normal 1 0 -0
outer loop
vertex 5 0.1 -0.2
vertex 5 0.1 0
vertex 5 -0.1 0
endloop
endfacet
facet normal 1 0 0
outer loop
vertex 5 -0.1 -0.2
vertex 5 0.1 -0.2
vertex 5 -0.1 0
endloop
endfacet
facet normal 0 -1 0
outer loop
vertex 5 -0.1 -0.2
vertex 5 -0.1 0
vertex -5 -0.1 0
endloop
endfacet
facet normal 0 0 -1
outer loop
vertex 5 0.1 -0.2
vertex 5 -0.1 -0.2
vertex -5 -0.1 -0.2
endloop
endfacet
facet normal 0 -1 0
outer loop
vertex -5 -0.1 -0.2
vertex 5 -0.1 -0.2
vertex -5 -0.1 0
endloop
endfacet
facet normal -0 0 -1
outer loop
vertex -5 0.1 -0.2
vertex 5 0.1 -0.2
vertex -5 -0.1 -0.2
endloop
endfacet
facet normal 0 0 1
outer loop
vertex 5 0.1 0
vertex -5 0.1 0
vertex -5 -0.1 0
endloop
endfacet
facet normal -1 0 0
outer loop
vertex -5 0.1 0
vertex -5 0.1 -0.2
vertex -5 -0.1 -0.2
endloop
endfacet
facet normal 0 -0 1
outer loop
vertex 5 -0.1 0
vertex 5 0.1 0
vertex -5 -0.1 0
endloop
endfacet
endsolid
