solid CATIA STL
  facet normal  9.999999e-001  -0.000000e+000  0.000000e+000
    outer loop
      vertex  7.500000e-001  1.579296e-002  2.550651e-002
      vertex  7.500000e-001 -1.579296e-002  2.550651e-002
      vertex  7.500000e-001 -1.807904e-002  2.394052e-002
    endloop
  endfacet
  facet normal  9.999999e-001  0.000000e+000  0.000000e+000
    outer loop
      vertex  7.500000e-001  1.579296e-002  2.550651e-002
      vertex  7.500000e-001 -1.807904e-002  2.394052e-002
      vertex  7.500000e-001  1.807904e-002  2.394052e-002
    endloop
  endfacet
  facet normal  1.000000e+000  -0.000000e+000  0.000000e+000
    outer loop
      vertex  7.500000e-001  1.807904e-002  2.394052e-002
      vertex  7.500000e-001 -1.807904e-002  2.394052e-002
      vertex  7.500000e-001 -2.021087e-002  2.217027e-002
    endloop
  endfacet
  facet normal  1.000000e+000  0.000000e+000  0.000000e+000
    outer loop
      vertex  7.500000e-001  1.807904e-002  2.394052e-002
      vertex  7.500000e-001 -2.021087e-002  2.217027e-002
      vertex  7.500000e-001  2.021087e-002  2.217027e-002
    endloop
  endfacet
  facet normal  1.000000e+000  -0.000000e+000  0.000000e+000
    outer loop
      vertex  7.500000e-001  2.021087e-002  2.217027e-002
      vertex  7.500000e-001 -2.021087e-002  2.217027e-002
      vertex  7.500000e-001 -2.217027e-002  2.021087e-002
    endloop
  endfacet
  facet normal  1.000000e+000  0.000000e+000  0.000000e+000
    outer loop
      vertex  7.500000e-001  2.021087e-002  2.217027e-002
      vertex  7.500000e-001 -2.217027e-002  2.021087e-002
      vertex  7.500000e-001  2.217027e-002  2.021087e-002
    endloop
  endfacet
  facet normal  1.000000e+000  -0.000000e+000  0.000000e+000
    outer loop
      vertex  7.500000e-001  2.217027e-002  2.021087e-002
      vertex  7.500000e-001 -2.217027e-002  2.021087e-002
      vertex  7.500000e-001 -2.394052e-002  1.807904e-002
    endloop
  endfacet
  facet normal  1.000000e+000  0.000000e+000  0.000000e+000
    outer loop
      vertex  7.500000e-001  2.217027e-002  2.021087e-002
      vertex  7.500000e-001 -2.394052e-002  1.807904e-002
      vertex  7.500000e-001  2.394052e-002  1.807904e-002
    endloop
  endfacet
  facet normal  9.999999e-001  -0.000000e+000  0.000000e+000
    outer loop
      vertex  7.500000e-001  2.394052e-002  1.807904e-002
      vertex  7.500000e-001 -2.394052e-002  1.807904e-002
      vertex  7.500000e-001 -2.550651e-002  1.579296e-002
    endloop
  endfacet
  facet normal  1.000000e+000  0.000000e+000  0.000000e+000
    outer loop
      vertex  7.500000e-001  2.394052e-002  1.807904e-002
      vertex  7.500000e-001 -2.550651e-002  1.579296e-002
      vertex  7.500000e-001  2.550651e-002  1.579296e-002
    endloop
  endfacet
  facet normal  1.000000e+000  -0.000000e+000  0.000000e+000
    outer loop
      vertex  7.500000e-001  2.550651e-002  1.579296e-002
      vertex  7.500000e-001 -2.550651e-002  1.579296e-002
      vertex  7.500000e-001 -2.685490e-002  1.337215e-002
    endloop
  endfacet
  facet normal  1.000000e+000  0.000000e+000  0.000000e+000
    outer loop
      vertex  7.500000e-001  2.550651e-002  1.579296e-002
      vertex  7.500000e-001 -2.685490e-002  1.337215e-002
      vertex  7.500000e-001  2.685490e-002  1.337215e-002
    endloop
  endfacet
  facet normal  1.000000e+000  -0.000000e+000  0.000000e+000
    outer loop
      vertex  7.500000e-001  2.685490e-002  1.337215e-002
      vertex  7.500000e-001 -2.685490e-002  1.337215e-002
      vertex  7.500000e-001 -2.797417e-002  1.083725e-002
    endloop
  endfacet
  facet normal  1.000000e+000  0.000000e+000  0.000000e+000
    outer loop
      vertex  7.500000e-001  2.685490e-002  1.337215e-002
      vertex  7.500000e-001 -2.797417e-002  1.083725e-002
      vertex  7.500000e-001  2.797417e-002  1.083725e-002
    endloop
  endfacet
  facet normal  1.000000e+000  0.000000e+000  0.000000e+000
    outer loop
      vertex  7.500000e-001  2.797417e-002 -1.083725e-002
      vertex  7.500000e-001 -2.685490e-002 -1.337215e-002
      vertex  7.500000e-001  2.685490e-002 -1.337215e-002
    endloop
  endfacet
  facet normal  1.000000e+000  -0.000000e+000  0.000000e+000
    outer loop
      vertex  7.500000e-001  2.685490e-002 -1.337215e-002
      vertex  7.500000e-001 -2.685490e-002 -1.337215e-002
      vertex  7.500000e-001 -2.550651e-002 -1.579296e-002
    endloop
  endfacet
  facet normal  1.000000e+000  0.000000e+000  0.000000e+000
    outer loop
      vertex  7.500000e-001  2.685490e-002 -1.337215e-002
      vertex  7.500000e-001 -2.550651e-002 -1.579296e-002
      vertex  7.500000e-001  2.550651e-002 -1.579296e-002
    endloop
  endfacet
  facet normal  1.000000e+000  -0.000000e+000  0.000000e+000
    outer loop
      vertex  7.500000e-001  2.550651e-002 -1.579296e-002
      vertex  7.500000e-001 -2.550651e-002 -1.579296e-002
      vertex  7.500000e-001 -2.394052e-002 -1.807904e-002
    endloop
  endfacet
  facet normal  9.999999e-001  0.000000e+000  0.000000e+000
    outer loop
      vertex  7.500000e-001  2.550651e-002 -1.579296e-002
      vertex  7.500000e-001 -2.394052e-002 -1.807904e-002
      vertex  7.500000e-001  2.394052e-002 -1.807904e-002
    endloop
  endfacet
  facet normal  1.000000e+000  -0.000000e+000  0.000000e+000
    outer loop
      vertex  7.500000e-001  2.394052e-002 -1.807904e-002
      vertex  7.500000e-001 -2.394052e-002 -1.807904e-002
      vertex  7.500000e-001 -2.217027e-002 -2.021087e-002
    endloop
  endfacet
  facet normal  1.000000e+000  0.000000e+000  0.000000e+000
    outer loop
      vertex  7.500000e-001  2.394052e-002 -1.807904e-002
      vertex  7.500000e-001 -2.217027e-002 -2.021087e-002
      vertex  7.500000e-001  2.217027e-002 -2.021087e-002
    endloop
  endfacet
  facet normal  1.000000e+000  -0.000000e+000  0.000000e+000
    outer loop
      vertex  7.500000e-001  2.217027e-002 -2.021087e-002
      vertex  7.500000e-001 -2.217027e-002 -2.021087e-002
      vertex  7.500000e-001 -2.021087e-002 -2.217027e-002
    endloop
  endfacet
  facet normal  1.000000e+000  0.000000e+000  0.000000e+000
    outer loop
      vertex  7.500000e-001  2.217027e-002 -2.021087e-002
      vertex  7.500000e-001 -2.021087e-002 -2.217027e-002
      vertex  7.500000e-001  2.021087e-002 -2.217027e-002
    endloop
  endfacet
  facet normal  1.000000e+000  -0.000000e+000  0.000000e+000
    outer loop
      vertex  7.500000e-001  2.021087e-002 -2.217027e-002
      vertex  7.500000e-001 -2.021087e-002 -2.217027e-002
      vertex  7.500000e-001 -1.807904e-002 -2.394052e-002
    endloop
  endfacet
  facet normal  1.000000e+000  0.000000e+000  0.000000e+000
    outer loop
      vertex  7.500000e-001  2.021087e-002 -2.217027e-002
      vertex  7.500000e-001 -1.807904e-002 -2.394052e-002
      vertex  7.500000e-001  1.807904e-002 -2.394052e-002
    endloop
  endfacet
  facet normal  9.999999e-001  -0.000000e+000  0.000000e+000
    outer loop
      vertex  7.500000e-001  1.807904e-002 -2.394052e-002
      vertex  7.500000e-001 -1.807904e-002 -2.394052e-002
      vertex  7.500000e-001 -1.579296e-002 -2.550651e-002
    endloop
  endfacet
  facet normal  9.999999e-001  0.000000e+000  0.000000e+000
    outer loop
      vertex  7.500000e-001  1.807904e-002 -2.394052e-002
      vertex  7.500000e-001 -1.579296e-002 -2.550651e-002
      vertex  7.500000e-001  1.579296e-002 -2.550651e-002
    endloop
  endfacet
  facet normal  1.000000e+000  -0.000000e+000  0.000000e+000
    outer loop
      vertex  7.500000e-001  1.579296e-002 -2.550651e-002
      vertex  7.500000e-001 -1.579296e-002 -2.550651e-002
      vertex  7.500000e-001 -1.337215e-002 -2.685490e-002
    endloop
  endfacet
  facet normal  1.000000e+000  0.000000e+000  0.000000e+000
    outer loop
      vertex  7.500000e-001  1.579296e-002 -2.550651e-002
      vertex  7.500000e-001 -1.337215e-002 -2.685490e-002
      vertex  7.500000e-001  1.337215e-002 -2.685490e-002
    endloop
  endfacet
  facet normal  1.000000e+000  -0.000000e+000  0.000000e+000
    outer loop
      vertex  7.500000e-001  1.337215e-002 -2.685490e-002
      vertex  7.500000e-001 -1.337215e-002 -2.685490e-002
      vertex  7.500000e-001 -1.083725e-002 -2.797417e-002
    endloop
  endfacet
  facet normal  1.000000e+000  -0.000000e+000  0.000000e+000
    outer loop
      vertex  7.500000e-001  1.337215e-002 -2.685490e-002
      vertex  7.500000e-001 -1.083725e-002 -2.797417e-002
      vertex  7.500000e-001 -8.209890e-003 -2.885477e-002
    endloop
  endfacet
  facet normal  1.000000e+000  0.000000e+000  0.000000e+000
    outer loop
      vertex  7.500000e-001  1.337215e-002 -2.685490e-002
      vertex  7.500000e-001 -8.209890e-003 -2.885477e-002
      vertex  7.500000e-001  1.083725e-002 -2.797417e-002
    endloop
  endfacet
  facet normal  1.000000e+000  -0.000000e+000  0.000000e+000
    outer loop
      vertex  7.500000e-001  1.083725e-002 -2.797417e-002
      vertex  7.500000e-001 -8.209890e-003 -2.885477e-002
      vertex  7.500000e-001 -5.512486e-003 -2.948919e-002
    endloop
  endfacet
  facet normal  1.000000e+000  -0.000000e+000  0.000000e+000
    outer loop
      vertex  7.500000e-001  1.083725e-002 -2.797417e-002
      vertex  7.500000e-001 -5.512486e-003 -2.948919e-002
      vertex  7.500000e-001 -2.768051e-003 -2.987202e-002
    endloop
  endfacet
  facet normal  1.000000e+000  0.000000e+000  -0.000000e+000
    outer loop
      vertex  7.500000e-001 -2.768051e-003 -2.987202e-002
      vertex  7.500000e-001 -3.215608e-017 -3.000000e-002
      vertex  7.500000e-001  1.083725e-002 -2.797417e-002
    endloop
  endfacet
  facet normal  1.000000e+000  0.000000e+000  0.000000e+000
    outer loop
      vertex  7.500000e-001  8.209890e-003 -2.885477e-002
      vertex  7.500000e-001  1.083725e-002 -2.797417e-002
      vertex  7.500000e-001 -3.215608e-017 -3.000000e-002
    endloop
  endfacet
  facet normal  1.000000e+000  0.000000e+000  0.000000e+000
    outer loop
      vertex  7.500000e-001  8.209890e-003 -2.885477e-002
      vertex  7.500000e-001 -3.215608e-017 -3.000000e-002
      vertex  7.500000e-001  2.768051e-003 -2.987202e-002
    endloop
  endfacet
  facet normal  1.000000e+000  0.000000e+000  0.000000e+000
    outer loop
      vertex  7.500000e-001  8.209890e-003 -2.885477e-002
      vertex  7.500000e-001  2.768051e-003 -2.987202e-002
      vertex  7.500000e-001  5.512486e-003 -2.948919e-002
    endloop
  endfacet
  facet normal  1.000000e+000  0.000000e+000  0.000000e+000
    outer loop
      vertex  7.500000e-001  1.337215e-002  2.685490e-002
      vertex  7.500000e-001  1.083725e-002  2.797417e-002
      vertex  7.500000e-001  8.209890e-003  2.885477e-002
    endloop
  endfacet
  facet normal  1.000000e+000  0.000000e+000  0.000000e+000
    outer loop
      vertex  7.500000e-001  1.337215e-002  2.685490e-002
      vertex  7.500000e-001  8.209890e-003  2.885477e-002
      vertex  7.500000e-001  5.512486e-003  2.948919e-002
    endloop
  endfacet
  facet normal  1.000000e+000  0.000000e+000  0.000000e+000
    outer loop
      vertex  7.500000e-001  1.337215e-002  2.685490e-002
      vertex  7.500000e-001  5.512486e-003  2.948919e-002
      vertex  7.500000e-001  2.768051e-003  2.987202e-002
    endloop
  endfacet
  facet normal  9.999999e-001  0.000000e+000  0.000000e+000
    outer loop
      vertex  7.500000e-001  1.337215e-002  2.685490e-002
      vertex  7.500000e-001  2.768051e-003  2.987202e-002
      vertex  7.500000e-001  8.498248e-018  3.000000e-002
    endloop
  endfacet
  facet normal  1.000000e+000  0.000000e+000  0.000000e+000
    outer loop
      vertex  7.500000e-001  1.337215e-002  2.685490e-002
      vertex  7.500000e-001  8.498248e-018  3.000000e-002
      vertex  7.500000e-001 -2.768051e-003  2.987202e-002
    endloop
  endfacet
  facet normal  1.000000e+000  0.000000e+000  0.000000e+000
    outer loop
      vertex  7.500000e-001  1.337215e-002  2.685490e-002
      vertex  7.500000e-001 -2.768051e-003  2.987202e-002
      vertex  7.500000e-001 -5.512486e-003  2.948919e-002
    endloop
  endfacet
  facet normal  1.000000e+000  0.000000e+000  0.000000e+000
    outer loop
      vertex  7.500000e-001  1.337215e-002  2.685490e-002
      vertex  7.500000e-001 -5.512486e-003  2.948919e-002
      vertex  7.500000e-001 -8.209890e-003  2.885477e-002
    endloop
  endfacet
  facet normal  1.000000e+000  0.000000e+000  0.000000e+000
    outer loop
      vertex  7.500000e-001  1.337215e-002  2.685490e-002
      vertex  7.500000e-001 -8.209890e-003  2.885477e-002
      vertex  7.500000e-001 -1.083725e-002  2.797417e-002
    endloop
  endfacet
  facet normal  1.000000e+000  0.000000e+000  0.000000e+000
    outer loop
      vertex  7.500000e-001  1.337215e-002  2.685490e-002
      vertex  7.500000e-001 -1.083725e-002  2.797417e-002
      vertex  7.500000e-001 -1.337215e-002  2.685490e-002
    endloop
  endfacet
  facet normal  1.000000e+000  -0.000000e+000  0.000000e+000
    outer loop
      vertex  7.500000e-001  1.337215e-002  2.685490e-002
      vertex  7.500000e-001 -1.337215e-002  2.685490e-002
      vertex  7.500000e-001 -1.579296e-002  2.550651e-002
    endloop
  endfacet
  facet normal  1.000000e+000  0.000000e+000  0.000000e+000
    outer loop
      vertex  7.500000e-001  1.337215e-002  2.685490e-002
      vertex  7.500000e-001 -1.579296e-002  2.550651e-002
      vertex  7.500000e-001  1.579296e-002  2.550651e-002
    endloop
  endfacet
  facet normal  9.999999e-001  -0.000000e+000  0.000000e+000
    outer loop
      vertex  7.500000e-001  2.797417e-002  1.083725e-002
      vertex  7.500000e-001 -2.797417e-002  1.083725e-002
      vertex  7.500000e-001  2.885477e-002  8.209890e-003
    endloop
  endfacet
  facet normal  1.000000e+000  0.000000e+000  0.000000e+000
    outer loop
      vertex  7.500000e-001  2.885477e-002  8.209890e-003
      vertex  7.500000e-001 -2.797417e-002  1.083725e-002
      vertex  7.500000e-001 -2.885477e-002  8.209890e-003
    endloop
  endfacet
  facet normal  1.000000e+000  -0.000000e+000  0.000000e+000
    outer loop
      vertex  7.500000e-001  2.885477e-002  8.209890e-003
      vertex  7.500000e-001 -2.885477e-002  8.209890e-003
      vertex  7.500000e-001  2.948919e-002  5.512486e-003
    endloop
  endfacet
  facet normal  1.000000e+000  0.000000e+000  0.000000e+000
    outer loop
      vertex  7.500000e-001  2.948919e-002  5.512486e-003
      vertex  7.500000e-001 -2.885477e-002  8.209890e-003
      vertex  7.500000e-001 -2.948919e-002  5.512486e-003
    endloop
  endfacet
  facet normal  1.000000e+000  -0.000000e+000  0.000000e+000
    outer loop
      vertex  7.500000e-001  2.948919e-002  5.512486e-003
      vertex  7.500000e-001 -2.948919e-002  5.512486e-003
      vertex  7.500000e-001  2.987202e-002  2.768051e-003
    endloop
  endfacet
  facet normal  1.000000e+000  0.000000e+000  0.000000e+000
    outer loop
      vertex  7.500000e-001  2.987202e-002  2.768051e-003
      vertex  7.500000e-001 -2.948919e-002  5.512486e-003
      vertex  7.500000e-001 -2.987202e-002  2.768051e-003
    endloop
  endfacet
  facet normal  1.000000e+000  -0.000000e+000  0.000000e+000
    outer loop
      vertex  7.500000e-001  2.987202e-002  2.768051e-003
      vertex  7.500000e-001 -2.987202e-002  2.768051e-003
      vertex  7.500000e-001  3.000000e-002  0.000000e+000
    endloop
  endfacet
  facet normal  9.999999e-001  0.000000e+000  0.000000e+000
    outer loop
      vertex  7.500000e-001  3.000000e-002  0.000000e+000
      vertex  7.500000e-001 -2.987202e-002  2.768051e-003
      vertex  7.500000e-001 -3.000000e-002  1.699650e-017
    endloop
  endfacet
  facet normal  9.999999e-001  0.000000e+000  0.000000e+000
    outer loop
      vertex  7.500000e-001  3.000000e-002  0.000000e+000
      vertex  7.500000e-001 -3.000000e-002  1.699650e-017
      vertex  7.500000e-001  2.987202e-002 -2.768051e-003
    endloop
  endfacet
  facet normal  1.000000e+000  0.000000e+000  0.000000e+000
    outer loop
      vertex  7.500000e-001  2.987202e-002 -2.768051e-003
      vertex  7.500000e-001 -3.000000e-002  1.699650e-017
      vertex  7.500000e-001 -2.987202e-002 -2.768051e-003
    endloop
  endfacet
  facet normal  1.000000e+000  -0.000000e+000  0.000000e+000
    outer loop
      vertex  7.500000e-001  2.987202e-002 -2.768051e-003
      vertex  7.500000e-001 -2.987202e-002 -2.768051e-003
      vertex  7.500000e-001  2.948919e-002 -5.512486e-003
    endloop
  endfacet
  facet normal  1.000000e+000  0.000000e+000  0.000000e+000
    outer loop
      vertex  7.500000e-001  2.948919e-002 -5.512486e-003
      vertex  7.500000e-001 -2.987202e-002 -2.768051e-003
      vertex  7.500000e-001 -2.948919e-002 -5.512486e-003
    endloop
  endfacet
  facet normal  1.000000e+000  -0.000000e+000  0.000000e+000
    outer loop
      vertex  7.500000e-001  2.948919e-002 -5.512486e-003
      vertex  7.500000e-001 -2.948919e-002 -5.512486e-003
      vertex  7.500000e-001  2.885477e-002 -8.209890e-003
    endloop
  endfacet
  facet normal  1.000000e+000  0.000000e+000  0.000000e+000
    outer loop
      vertex  7.500000e-001  2.885477e-002 -8.209890e-003
      vertex  7.500000e-001 -2.948919e-002 -5.512486e-003
      vertex  7.500000e-001 -2.885477e-002 -8.209890e-003
    endloop
  endfacet
  facet normal  1.000000e+000  -0.000000e+000  0.000000e+000
    outer loop
      vertex  7.500000e-001  2.885477e-002 -8.209890e-003
      vertex  7.500000e-001 -2.885477e-002 -8.209890e-003
      vertex  7.500000e-001  2.797417e-002 -1.083725e-002
    endloop
  endfacet
  facet normal  9.999999e-001  0.000000e+000  0.000000e+000
    outer loop
      vertex  7.500000e-001  2.797417e-002 -1.083725e-002
      vertex  7.500000e-001 -2.885477e-002 -8.209890e-003
      vertex  7.500000e-001 -2.797417e-002 -1.083725e-002
    endloop
  endfacet
  facet normal  1.000000e+000  -0.000000e+000  0.000000e+000
    outer loop
      vertex  7.500000e-001  2.797417e-002 -1.083725e-002
      vertex  7.500000e-001 -2.797417e-002 -1.083725e-002
      vertex  7.500000e-001 -2.685490e-002 -1.337215e-002
    endloop
  endfacet
  facet normal -9.999999e-001  0.000000e+000  -0.000000e+000
    outer loop
      vertex  0.000000e+000 -1.807904e-002  2.394052e-002
      vertex  0.000000e+000 -1.579296e-002  2.550651e-002
      vertex  0.000000e+000  1.579296e-002  2.550651e-002
    endloop
  endfacet
  facet normal -9.999999e-001  0.000000e+000  0.000000e+000
    outer loop
      vertex  0.000000e+000  1.807904e-002  2.394052e-002
      vertex  0.000000e+000 -1.807904e-002  2.394052e-002
      vertex  0.000000e+000  1.579296e-002  2.550651e-002
    endloop
  endfacet
  facet normal -1.000000e+000  0.000000e+000  -0.000000e+000
    outer loop
      vertex  0.000000e+000 -2.021087e-002  2.217027e-002
      vertex  0.000000e+000 -1.807904e-002  2.394052e-002
      vertex  0.000000e+000  1.807904e-002  2.394052e-002
    endloop
  endfacet
  facet normal -1.000000e+000  0.000000e+000  0.000000e+000
    outer loop
      vertex  0.000000e+000  2.021087e-002  2.217027e-002
      vertex  0.000000e+000 -2.021087e-002  2.217027e-002
      vertex  0.000000e+000  1.807904e-002  2.394052e-002
    endloop
  endfacet
  facet normal -1.000000e+000  0.000000e+000  -0.000000e+000
    outer loop
      vertex  0.000000e+000 -2.217027e-002  2.021087e-002
      vertex  0.000000e+000 -2.021087e-002  2.217027e-002
      vertex  0.000000e+000  2.021087e-002  2.217027e-002
    endloop
  endfacet
  facet normal -1.000000e+000  0.000000e+000  0.000000e+000
    outer loop
      vertex  0.000000e+000  2.217027e-002  2.021087e-002
      vertex  0.000000e+000 -2.217027e-002  2.021087e-002
      vertex  0.000000e+000  2.021087e-002  2.217027e-002
    endloop
  endfacet
  facet normal -1.000000e+000  0.000000e+000  -0.000000e+000
    outer loop
      vertex  0.000000e+000 -2.394052e-002  1.807904e-002
      vertex  0.000000e+000 -2.217027e-002  2.021087e-002
      vertex  0.000000e+000  2.217027e-002  2.021087e-002
    endloop
  endfacet
  facet normal -1.000000e+000  0.000000e+000  0.000000e+000
    outer loop
      vertex  0.000000e+000  2.394052e-002  1.807904e-002
      vertex  0.000000e+000 -2.394052e-002  1.807904e-002
      vertex  0.000000e+000  2.217027e-002  2.021087e-002
    endloop
  endfacet
  facet normal -9.999999e-001  0.000000e+000  -0.000000e+000
    outer loop
      vertex  0.000000e+000 -2.550651e-002  1.579296e-002
      vertex  0.000000e+000 -2.394052e-002  1.807904e-002
      vertex  0.000000e+000  2.394052e-002  1.807904e-002
    endloop
  endfacet
  facet normal -1.000000e+000  0.000000e+000  0.000000e+000
    outer loop
      vertex  0.000000e+000  2.550651e-002  1.579296e-002
      vertex  0.000000e+000 -2.550651e-002  1.579296e-002
      vertex  0.000000e+000  2.394052e-002  1.807904e-002
    endloop
  endfacet
  facet normal -1.000000e+000  0.000000e+000  -0.000000e+000
    outer loop
      vertex  0.000000e+000 -2.685490e-002  1.337215e-002
      vertex  0.000000e+000 -2.550651e-002  1.579296e-002
      vertex  0.000000e+000  2.550651e-002  1.579296e-002
    endloop
  endfacet
  facet normal -1.000000e+000  0.000000e+000  0.000000e+000
    outer loop
      vertex  0.000000e+000  2.685490e-002  1.337215e-002
      vertex  0.000000e+000 -2.685490e-002  1.337215e-002
      vertex  0.000000e+000  2.550651e-002  1.579296e-002
    endloop
  endfacet
  facet normal -1.000000e+000  0.000000e+000  -0.000000e+000
    outer loop
      vertex  0.000000e+000 -2.797417e-002  1.083725e-002
      vertex  0.000000e+000 -2.685490e-002  1.337215e-002
      vertex  0.000000e+000  2.685490e-002  1.337215e-002
    endloop
  endfacet
  facet normal -1.000000e+000  0.000000e+000  0.000000e+000
    outer loop
      vertex  0.000000e+000  2.797417e-002  1.083725e-002
      vertex  0.000000e+000 -2.797417e-002  1.083725e-002
      vertex  0.000000e+000  2.685490e-002  1.337215e-002
    endloop
  endfacet
  facet normal -1.000000e+000  0.000000e+000  0.000000e+000
    outer loop
      vertex  0.000000e+000  2.685490e-002 -1.337215e-002
      vertex  0.000000e+000 -2.685490e-002 -1.337215e-002
      vertex  0.000000e+000  2.797417e-002 -1.083725e-002
    endloop
  endfacet
  facet normal -1.000000e+000  0.000000e+000  0.000000e+000
    outer loop
      vertex  0.000000e+000 -2.550651e-002 -1.579296e-002
      vertex  0.000000e+000 -2.685490e-002 -1.337215e-002
      vertex  0.000000e+000  2.685490e-002 -1.337215e-002
    endloop
  endfacet
  facet normal -1.000000e+000  0.000000e+000  0.000000e+000
    outer loop
      vertex  0.000000e+000  2.550651e-002 -1.579296e-002
      vertex  0.000000e+000 -2.550651e-002 -1.579296e-002
      vertex  0.000000e+000  2.685490e-002 -1.337215e-002
    endloop
  endfacet
  facet normal -1.000000e+000  0.000000e+000  0.000000e+000
    outer loop
      vertex  0.000000e+000 -2.394052e-002 -1.807904e-002
      vertex  0.000000e+000 -2.550651e-002 -1.579296e-002
      vertex  0.000000e+000  2.550651e-002 -1.579296e-002
    endloop
  endfacet
  facet normal -9.999999e-001  0.000000e+000  0.000000e+000
    outer loop
      vertex  0.000000e+000  2.394052e-002 -1.807904e-002
      vertex  0.000000e+000 -2.394052e-002 -1.807904e-002
      vertex  0.000000e+000  2.550651e-002 -1.579296e-002
    endloop
  endfacet
  facet normal -1.000000e+000  0.000000e+000  0.000000e+000
    outer loop
      vertex  0.000000e+000 -2.217027e-002 -2.021087e-002
      vertex  0.000000e+000 -2.394052e-002 -1.807904e-002
      vertex  0.000000e+000  2.394052e-002 -1.807904e-002
    endloop
  endfacet
  facet normal -1.000000e+000  0.000000e+000  0.000000e+000
    outer loop
      vertex  0.000000e+000  2.217027e-002 -2.021087e-002
      vertex  0.000000e+000 -2.217027e-002 -2.021087e-002
      vertex  0.000000e+000  2.394052e-002 -1.807904e-002
    endloop
  endfacet
  facet normal -1.000000e+000  0.000000e+000  0.000000e+000
    outer loop
      vertex  0.000000e+000 -2.021087e-002 -2.217027e-002
      vertex  0.000000e+000 -2.217027e-002 -2.021087e-002
      vertex  0.000000e+000  2.217027e-002 -2.021087e-002
    endloop
  endfacet
  facet normal -1.000000e+000  0.000000e+000  0.000000e+000
    outer loop
      vertex  0.000000e+000  2.021087e-002 -2.217027e-002
      vertex  0.000000e+000 -2.021087e-002 -2.217027e-002
      vertex  0.000000e+000  2.217027e-002 -2.021087e-002
    endloop
  endfacet
  facet normal -1.000000e+000  0.000000e+000  0.000000e+000
    outer loop
      vertex  0.000000e+000 -1.807904e-002 -2.394052e-002
      vertex  0.000000e+000 -2.021087e-002 -2.217027e-002
      vertex  0.000000e+000  2.021087e-002 -2.217027e-002
    endloop
  endfacet
  facet normal -1.000000e+000  0.000000e+000  0.000000e+000
    outer loop
      vertex  0.000000e+000  1.807904e-002 -2.394052e-002
      vertex  0.000000e+000 -1.807904e-002 -2.394052e-002
      vertex  0.000000e+000  2.021087e-002 -2.217027e-002
    endloop
  endfacet
  facet normal -9.999999e-001  0.000000e+000  0.000000e+000
    outer loop
      vertex  0.000000e+000 -1.579296e-002 -2.550651e-002
      vertex  0.000000e+000 -1.807904e-002 -2.394052e-002
      vertex  0.000000e+000  1.807904e-002 -2.394052e-002
    endloop
  endfacet
  facet normal -9.999999e-001  0.000000e+000  0.000000e+000
    outer loop
      vertex  0.000000e+000  1.579296e-002 -2.550651e-002
      vertex  0.000000e+000 -1.579296e-002 -2.550651e-002
      vertex  0.000000e+000  1.807904e-002 -2.394052e-002
    endloop
  endfacet
  facet normal -1.000000e+000  0.000000e+000  0.000000e+000
    outer loop
      vertex  0.000000e+000 -1.337215e-002 -2.685490e-002
      vertex  0.000000e+000 -1.579296e-002 -2.550651e-002
      vertex  0.000000e+000  1.579296e-002 -2.550651e-002
    endloop
  endfacet
  facet normal -1.000000e+000  0.000000e+000  0.000000e+000
    outer loop
      vertex  0.000000e+000  1.337215e-002 -2.685490e-002
      vertex  0.000000e+000 -1.337215e-002 -2.685490e-002
      vertex  0.000000e+000  1.579296e-002 -2.550651e-002
    endloop
  endfacet
  facet normal -1.000000e+000  0.000000e+000  0.000000e+000
    outer loop
      vertex  0.000000e+000 -1.083725e-002 -2.797417e-002
      vertex  0.000000e+000 -1.337215e-002 -2.685490e-002
      vertex  0.000000e+000  1.337215e-002 -2.685490e-002
    endloop
  endfacet
  facet normal -1.000000e+000  0.000000e+000  0.000000e+000
    outer loop
      vertex  0.000000e+000 -8.209890e-003 -2.885477e-002
      vertex  0.000000e+000 -1.083725e-002 -2.797417e-002
      vertex  0.000000e+000  1.337215e-002 -2.685490e-002
    endloop
  endfacet
  facet normal -1.000000e+000  0.000000e+000  0.000000e+000
    outer loop
      vertex  0.000000e+000  1.083725e-002 -2.797417e-002
      vertex  0.000000e+000 -8.209890e-003 -2.885477e-002
      vertex  0.000000e+000  1.337215e-002 -2.685490e-002
    endloop
  endfacet
  facet normal -1.000000e+000  0.000000e+000  0.000000e+000
    outer loop
      vertex  0.000000e+000 -5.512486e-003 -2.948919e-002
      vertex  0.000000e+000 -8.209890e-003 -2.885477e-002
      vertex  0.000000e+000  1.083725e-002 -2.797417e-002
    endloop
  endfacet
  facet normal -1.000000e+000  0.000000e+000  0.000000e+000
    outer loop
      vertex  0.000000e+000 -2.768051e-003 -2.987202e-002
      vertex  0.000000e+000 -5.512486e-003 -2.948919e-002
      vertex  0.000000e+000  1.083725e-002 -2.797417e-002
    endloop
  endfacet
  facet normal -1.000000e+000  0.000000e+000  0.000000e+000
    outer loop
      vertex  0.000000e+000  1.083725e-002 -2.797417e-002
      vertex  0.000000e+000 -3.215608e-017 -3.000000e-002
      vertex  0.000000e+000 -2.768051e-003 -2.987202e-002
    endloop
  endfacet
  facet normal -1.000000e+000  0.000000e+000  0.000000e+000
    outer loop
      vertex  0.000000e+000 -3.215608e-017 -3.000000e-002
      vertex  0.000000e+000  1.083725e-002 -2.797417e-002
      vertex  0.000000e+000  8.209890e-003 -2.885477e-002
    endloop
  endfacet
  facet normal -1.000000e+000  0.000000e+000  0.000000e+000
    outer loop
      vertex  0.000000e+000  2.768051e-003 -2.987202e-002
      vertex  0.000000e+000 -3.215608e-017 -3.000000e-002
      vertex  0.000000e+000  8.209890e-003 -2.885477e-002
    endloop
  endfacet
  facet normal -1.000000e+000  0.000000e+000  0.000000e+000
    outer loop
      vertex  0.000000e+000  5.512486e-003 -2.948919e-002
      vertex  0.000000e+000  2.768051e-003 -2.987202e-002
      vertex  0.000000e+000  8.209890e-003 -2.885477e-002
    endloop
  endfacet
  facet normal -1.000000e+000  0.000000e+000  0.000000e+000
    outer loop
      vertex  0.000000e+000  1.337215e-002  2.685490e-002
      vertex  0.000000e+000  1.579296e-002  2.550651e-002
      vertex  0.000000e+000 -1.579296e-002  2.550651e-002
    endloop
  endfacet
  facet normal -1.000000e+000  0.000000e+000  0.000000e+000
    outer loop
      vertex  0.000000e+000  1.337215e-002  2.685490e-002
      vertex  0.000000e+000 -1.579296e-002  2.550651e-002
      vertex  0.000000e+000 -1.337215e-002  2.685490e-002
    endloop
  endfacet
  facet normal -1.000000e+000  0.000000e+000  0.000000e+000
    outer loop
      vertex  0.000000e+000  1.337215e-002  2.685490e-002
      vertex  0.000000e+000 -1.337215e-002  2.685490e-002
      vertex  0.000000e+000 -1.083725e-002  2.797417e-002
    endloop
  endfacet
  facet normal -1.000000e+000  0.000000e+000  0.000000e+000
    outer loop
      vertex  0.000000e+000  1.337215e-002  2.685490e-002
      vertex  0.000000e+000 -1.083725e-002  2.797417e-002
      vertex  0.000000e+000 -8.209890e-003  2.885477e-002
    endloop
  endfacet
  facet normal -1.000000e+000  0.000000e+000  0.000000e+000
    outer loop
      vertex  0.000000e+000  1.337215e-002  2.685490e-002
      vertex  0.000000e+000 -8.209890e-003  2.885477e-002
      vertex  0.000000e+000 -5.512486e-003  2.948919e-002
    endloop
  endfacet
  facet normal -1.000000e+000  0.000000e+000  0.000000e+000
    outer loop
      vertex  0.000000e+000  1.337215e-002  2.685490e-002
      vertex  0.000000e+000 -5.512486e-003  2.948919e-002
      vertex  0.000000e+000 -2.768051e-003  2.987202e-002
    endloop
  endfacet
  facet normal -1.000000e+000  0.000000e+000  0.000000e+000
    outer loop
      vertex  0.000000e+000  1.337215e-002  2.685490e-002
      vertex  0.000000e+000 -2.768051e-003  2.987202e-002
      vertex  0.000000e+000  8.498248e-018  3.000000e-002
    endloop
  endfacet
  facet normal -9.999999e-001  0.000000e+000  0.000000e+000
    outer loop
      vertex  0.000000e+000  1.337215e-002  2.685490e-002
      vertex  0.000000e+000  8.498248e-018  3.000000e-002
      vertex  0.000000e+000  2.768051e-003  2.987202e-002
    endloop
  endfacet
  facet normal -1.000000e+000  0.000000e+000  0.000000e+000
    outer loop
      vertex  0.000000e+000  1.337215e-002  2.685490e-002
      vertex  0.000000e+000  2.768051e-003  2.987202e-002
      vertex  0.000000e+000  5.512486e-003  2.948919e-002
    endloop
  endfacet
  facet normal -1.000000e+000  0.000000e+000  0.000000e+000
    outer loop
      vertex  0.000000e+000  1.337215e-002  2.685490e-002
      vertex  0.000000e+000  5.512486e-003  2.948919e-002
      vertex  0.000000e+000  8.209890e-003  2.885477e-002
    endloop
  endfacet
  facet normal -1.000000e+000  0.000000e+000  0.000000e+000
    outer loop
      vertex  0.000000e+000  1.337215e-002  2.685490e-002
      vertex  0.000000e+000  8.209890e-003  2.885477e-002
      vertex  0.000000e+000  1.083725e-002  2.797417e-002
    endloop
  endfacet
  facet normal -9.999999e-001  -0.000000e+000  0.000000e+000
    outer loop
      vertex  0.000000e+000 -2.797417e-002  1.083725e-002
      vertex  0.000000e+000  2.797417e-002  1.083725e-002
      vertex  0.000000e+000 -2.885477e-002  8.209890e-003
    endloop
  endfacet
  facet normal -1.000000e+000  0.000000e+000  0.000000e+000
    outer loop
      vertex  0.000000e+000 -2.885477e-002  8.209890e-003
      vertex  0.000000e+000  2.797417e-002  1.083725e-002
      vertex  0.000000e+000  2.885477e-002  8.209890e-003
    endloop
  endfacet
  facet normal -1.000000e+000  -0.000000e+000  0.000000e+000
    outer loop
      vertex  0.000000e+000 -2.885477e-002  8.209890e-003
      vertex  0.000000e+000  2.885477e-002  8.209890e-003
      vertex  0.000000e+000 -2.948919e-002  5.512486e-003
    endloop
  endfacet
  facet normal -1.000000e+000  0.000000e+000  0.000000e+000
    outer loop
      vertex  0.000000e+000 -2.948919e-002  5.512486e-003
      vertex  0.000000e+000  2.885477e-002  8.209890e-003
      vertex  0.000000e+000  2.948919e-002  5.512486e-003
    endloop
  endfacet
  facet normal -1.000000e+000  -0.000000e+000  0.000000e+000
    outer loop
      vertex  0.000000e+000 -2.948919e-002  5.512486e-003
      vertex  0.000000e+000  2.948919e-002  5.512486e-003
      vertex  0.000000e+000 -2.987202e-002  2.768051e-003
    endloop
  endfacet
  facet normal -1.000000e+000  0.000000e+000  0.000000e+000
    outer loop
      vertex  0.000000e+000 -2.987202e-002  2.768051e-003
      vertex  0.000000e+000  2.948919e-002  5.512486e-003
      vertex  0.000000e+000  2.987202e-002  2.768051e-003
    endloop
  endfacet
  facet normal -1.000000e+000  -0.000000e+000  0.000000e+000
    outer loop
      vertex  0.000000e+000 -2.987202e-002  2.768051e-003
      vertex  0.000000e+000  2.987202e-002  2.768051e-003
      vertex  0.000000e+000 -3.000000e-002  1.699650e-017
    endloop
  endfacet
  facet normal -9.999999e-001  0.000000e+000  0.000000e+000
    outer loop
      vertex  0.000000e+000 -3.000000e-002  1.699650e-017
      vertex  0.000000e+000  2.987202e-002  2.768051e-003
      vertex  0.000000e+000  3.000000e-002  0.000000e+000
    endloop
  endfacet
  facet normal -9.999999e-001  -0.000000e+000  0.000000e+000
    outer loop
      vertex  0.000000e+000 -3.000000e-002  1.699650e-017
      vertex  0.000000e+000  3.000000e-002  0.000000e+000
      vertex  0.000000e+000 -2.987202e-002 -2.768051e-003
    endloop
  endfacet
  facet normal -1.000000e+000  0.000000e+000  0.000000e+000
    outer loop
      vertex  0.000000e+000 -2.987202e-002 -2.768051e-003
      vertex  0.000000e+000  3.000000e-002  0.000000e+000
      vertex  0.000000e+000  2.987202e-002 -2.768051e-003
    endloop
  endfacet
  facet normal -1.000000e+000  -0.000000e+000  0.000000e+000
    outer loop
      vertex  0.000000e+000 -2.987202e-002 -2.768051e-003
      vertex  0.000000e+000  2.987202e-002 -2.768051e-003
      vertex  0.000000e+000 -2.948919e-002 -5.512486e-003
    endloop
  endfacet
  facet normal -1.000000e+000  0.000000e+000  0.000000e+000
    outer loop
      vertex  0.000000e+000 -2.948919e-002 -5.512486e-003
      vertex  0.000000e+000  2.987202e-002 -2.768051e-003
      vertex  0.000000e+000  2.948919e-002 -5.512486e-003
    endloop
  endfacet
  facet normal -1.000000e+000  -0.000000e+000  0.000000e+000
    outer loop
      vertex  0.000000e+000 -2.948919e-002 -5.512486e-003
      vertex  0.000000e+000  2.948919e-002 -5.512486e-003
      vertex  0.000000e+000 -2.885477e-002 -8.209890e-003
    endloop
  endfacet
  facet normal -1.000000e+000  0.000000e+000  0.000000e+000
    outer loop
      vertex  0.000000e+000 -2.885477e-002 -8.209890e-003
      vertex  0.000000e+000  2.948919e-002 -5.512486e-003
      vertex  0.000000e+000  2.885477e-002 -8.209890e-003
    endloop
  endfacet
  facet normal -1.000000e+000  -0.000000e+000  0.000000e+000
    outer loop
      vertex  0.000000e+000 -2.885477e-002 -8.209890e-003
      vertex  0.000000e+000  2.885477e-002 -8.209890e-003
      vertex  0.000000e+000 -2.797417e-002 -1.083725e-002
    endloop
  endfacet
  facet normal -9.999999e-001  0.000000e+000  0.000000e+000
    outer loop
      vertex  0.000000e+000 -2.797417e-002 -1.083725e-002
      vertex  0.000000e+000  2.885477e-002 -8.209890e-003
      vertex  0.000000e+000  2.797417e-002 -1.083725e-002
    endloop
  endfacet
  facet normal -1.000000e+000  -0.000000e+000  0.000000e+000
    outer loop
      vertex  0.000000e+000 -2.797417e-002 -1.083725e-002
      vertex  0.000000e+000  2.797417e-002 -1.083725e-002
      vertex  0.000000e+000 -2.685490e-002 -1.337215e-002
    endloop
  endfacet
  facet normal  0.000000e+000  9.989330e-001 -4.618353e-002
    outer loop
      vertex  0.000000e+000  3.000000e-002  0.000000e+000
      vertex  7.500000e-001  3.000000e-002  0.000000e+000
      vertex  0.000000e+000  2.987202e-002 -2.768051e-003
    endloop
  endfacet
  facet normal  0.000000e+000  9.989330e-001 -4.618353e-002
    outer loop
      vertex  0.000000e+000  2.987202e-002 -2.768051e-003
      vertex  7.500000e-001  3.000000e-002  0.000000e+000
      vertex  7.500000e-001  2.987202e-002 -2.768051e-003
    endloop
  endfacet
  facet normal  0.000000e+000  9.904104e-001 -1.381560e-001
    outer loop
      vertex  0.000000e+000  2.987202e-002 -2.768051e-003
      vertex  7.500000e-001  2.987202e-002 -2.768051e-003
      vertex  0.000000e+000  2.948919e-002 -5.512486e-003
    endloop
  endfacet
  facet normal  0.000000e+000  9.904104e-001 -1.381560e-001
    outer loop
      vertex  0.000000e+000  2.948919e-002 -5.512486e-003
      vertex  7.500000e-001  2.987202e-002 -2.768051e-003
      vertex  7.500000e-001  2.948919e-002 -5.512486e-003
    endloop
  endfacet
  facet normal  0.000000e+000  9.734380e-001 -2.289508e-001
    outer loop
      vertex  0.000000e+000  2.948919e-002 -5.512486e-003
      vertex  7.500000e-001  2.948919e-002 -5.512486e-003
      vertex  0.000000e+000  2.885477e-002 -8.209890e-003
    endloop
  endfacet
  facet normal  0.000000e+000  9.734380e-001 -2.289508e-001
    outer loop
      vertex  0.000000e+000  2.885477e-002 -8.209890e-003
      vertex  7.500000e-001  2.948919e-002 -5.512486e-003
      vertex  7.500000e-001  2.885477e-002 -8.209890e-003
    endloop
  endfacet
  facet normal  0.000000e+000  9.481605e-001 -3.177915e-001
    outer loop
      vertex  0.000000e+000  2.885477e-002 -8.209890e-003
      vertex  7.500000e-001  2.885477e-002 -8.209890e-003
      vertex  0.000000e+000  2.797417e-002 -1.083725e-002
    endloop
  endfacet
  facet normal  0.000000e+000  9.481605e-001 -3.177915e-001
    outer loop
      vertex  0.000000e+000  2.797417e-002 -1.083725e-002
      vertex  7.500000e-001  2.885477e-002 -8.209890e-003
      vertex  7.500000e-001  2.797417e-002 -1.083725e-002
    endloop
  endfacet
  facet normal  0.000000e+000  9.147940e-001 -4.039208e-001
    outer loop
      vertex  0.000000e+000  2.797417e-002 -1.083725e-002
      vertex  7.500000e-001  2.797417e-002 -1.083725e-002
      vertex  0.000000e+000  2.685490e-002 -1.337215e-002
    endloop
  endfacet
  facet normal  0.000000e+000  9.147940e-001 -4.039208e-001
    outer loop
      vertex  0.000000e+000  2.685490e-002 -1.337215e-002
      vertex  7.500000e-001  2.797417e-002 -1.083725e-002
      vertex  7.500000e-001  2.685490e-002 -1.337215e-002
    endloop
  endfacet
  facet normal  0.000000e+000  8.736222e-001 -4.866048e-001
    outer loop
      vertex  0.000000e+000  2.685490e-002 -1.337215e-002
      vertex  7.500000e-001  2.685490e-002 -1.337215e-002
      vertex  0.000000e+000  2.550651e-002 -1.579296e-002
    endloop
  endfacet
  facet normal  0.000000e+000  8.736222e-001 -4.866048e-001
    outer loop
      vertex  0.000000e+000  2.550651e-002 -1.579296e-002
      vertex  7.500000e-001  2.685490e-002 -1.337215e-002
      vertex  7.500000e-001  2.550651e-002 -1.579296e-002
    endloop
  endfacet
  facet normal  0.000000e+000  8.249977e-001 -5.651361e-001
    outer loop
      vertex  0.000000e+000  2.550651e-002 -1.579296e-002
      vertex  7.500000e-001  2.550651e-002 -1.579296e-002
      vertex  0.000000e+000  2.394052e-002 -1.807904e-002
    endloop
  endfacet
  facet normal  0.000000e+000  8.249977e-001 -5.651361e-001
    outer loop
      vertex  0.000000e+000  2.394052e-002 -1.807904e-002
      vertex  7.500000e-001  2.550651e-002 -1.579296e-002
      vertex  7.500000e-001  2.394052e-002 -1.807904e-002
    endloop
  endfacet
  facet normal  0.000000e+000  7.693342e-001 -6.388466e-001
    outer loop
      vertex  0.000000e+000  2.394052e-002 -1.807904e-002
      vertex  7.500000e-001  2.394052e-002 -1.807904e-002
      vertex  0.000000e+000  2.217027e-002 -2.021087e-002
    endloop
  endfacet
  facet normal  0.000000e+000  7.693342e-001 -6.388466e-001
    outer loop
      vertex  0.000000e+000  2.217027e-002 -2.021087e-002
      vertex  7.500000e-001  2.394052e-002 -1.807904e-002
      vertex  7.500000e-001  2.217027e-002 -2.021087e-002
    endloop
  endfacet
  facet normal  0.000000e+000  7.071068e-001 -7.071068e-001
    outer loop
      vertex  0.000000e+000  2.217027e-002 -2.021087e-002
      vertex  7.500000e-001  2.217027e-002 -2.021087e-002
      vertex  0.000000e+000  2.021087e-002 -2.217027e-002
    endloop
  endfacet
  facet normal  0.000000e+000  7.071068e-001 -7.071068e-001
    outer loop
      vertex  0.000000e+000  2.021087e-002 -2.217027e-002
      vertex  7.500000e-001  2.217027e-002 -2.021087e-002
      vertex  7.500000e-001  2.021087e-002 -2.217027e-002
    endloop
  endfacet
  facet normal  0.000000e+000  6.388466e-001 -7.693342e-001
    outer loop
      vertex  0.000000e+000  2.021087e-002 -2.217027e-002
      vertex  7.500000e-001  2.021087e-002 -2.217027e-002
      vertex  0.000000e+000  1.807904e-002 -2.394052e-002
    endloop
  endfacet
  facet normal  0.000000e+000  6.388466e-001 -7.693342e-001
    outer loop
      vertex  0.000000e+000  1.807904e-002 -2.394052e-002
      vertex  7.500000e-001  2.021087e-002 -2.217027e-002
      vertex  7.500000e-001  1.807904e-002 -2.394052e-002
    endloop
  endfacet
  facet normal  0.000000e+000  5.651361e-001 -8.249977e-001
    outer loop
      vertex  0.000000e+000  1.807904e-002 -2.394052e-002
      vertex  7.500000e-001  1.807904e-002 -2.394052e-002
      vertex  0.000000e+000  1.579296e-002 -2.550651e-002
    endloop
  endfacet
  facet normal  0.000000e+000  5.651361e-001 -8.249977e-001
    outer loop
      vertex  0.000000e+000  1.579296e-002 -2.550651e-002
      vertex  7.500000e-001  1.807904e-002 -2.394052e-002
      vertex  7.500000e-001  1.579296e-002 -2.550651e-002
    endloop
  endfacet
  facet normal  0.000000e+000  4.866048e-001 -8.736222e-001
    outer loop
      vertex  0.000000e+000  1.579296e-002 -2.550651e-002
      vertex  7.500000e-001  1.579296e-002 -2.550651e-002
      vertex  0.000000e+000  1.337215e-002 -2.685490e-002
    endloop
  endfacet
  facet normal  0.000000e+000  4.866048e-001 -8.736222e-001
    outer loop
      vertex  0.000000e+000  1.337215e-002 -2.685490e-002
      vertex  7.500000e-001  1.579296e-002 -2.550651e-002
      vertex  7.500000e-001  1.337215e-002 -2.685490e-002
    endloop
  endfacet
  facet normal  0.000000e+000  4.039208e-001 -9.147940e-001
    outer loop
      vertex  0.000000e+000  1.337215e-002 -2.685490e-002
      vertex  7.500000e-001  1.337215e-002 -2.685490e-002
      vertex  0.000000e+000  1.083725e-002 -2.797417e-002
    endloop
  endfacet
  facet normal  0.000000e+000  4.039208e-001 -9.147940e-001
    outer loop
      vertex  0.000000e+000  1.083725e-002 -2.797417e-002
      vertex  7.500000e-001  1.337215e-002 -2.685490e-002
      vertex  7.500000e-001  1.083725e-002 -2.797417e-002
    endloop
  endfacet
  facet normal  0.000000e+000  3.177915e-001 -9.481605e-001
    outer loop
      vertex  0.000000e+000  1.083725e-002 -2.797417e-002
      vertex  7.500000e-001  1.083725e-002 -2.797417e-002
      vertex  0.000000e+000  8.209890e-003 -2.885477e-002
    endloop
  endfacet
  facet normal  0.000000e+000  3.177915e-001 -9.481605e-001
    outer loop
      vertex  0.000000e+000  8.209890e-003 -2.885477e-002
      vertex  7.500000e-001  1.083725e-002 -2.797417e-002
      vertex  7.500000e-001  8.209890e-003 -2.885477e-002
    endloop
  endfacet
  facet normal  0.000000e+000  2.289508e-001 -9.734380e-001
    outer loop
      vertex  0.000000e+000  8.209890e-003 -2.885477e-002
      vertex  7.500000e-001  8.209890e-003 -2.885477e-002
      vertex  0.000000e+000  5.512486e-003 -2.948919e-002
    endloop
  endfacet
  facet normal  0.000000e+000  2.289508e-001 -9.734380e-001
    outer loop
      vertex  0.000000e+000  5.512486e-003 -2.948919e-002
      vertex  7.500000e-001  8.209890e-003 -2.885477e-002
      vertex  7.500000e-001  5.512486e-003 -2.948919e-002
    endloop
  endfacet
  facet normal  0.000000e+000  1.381560e-001 -9.904104e-001
    outer loop
      vertex  0.000000e+000  5.512486e-003 -2.948919e-002
      vertex  7.500000e-001  5.512486e-003 -2.948919e-002
      vertex  0.000000e+000  2.768051e-003 -2.987202e-002
    endloop
  endfacet
  facet normal  0.000000e+000  1.381560e-001 -9.904104e-001
    outer loop
      vertex  0.000000e+000  2.768051e-003 -2.987202e-002
      vertex  7.500000e-001  5.512486e-003 -2.948919e-002
      vertex  7.500000e-001  2.768051e-003 -2.987202e-002
    endloop
  endfacet
  facet normal  0.000000e+000  4.618353e-002 -9.989330e-001
    outer loop
      vertex  0.000000e+000  2.768051e-003 -2.987202e-002
      vertex  7.500000e-001  2.768051e-003 -2.987202e-002
      vertex  0.000000e+000 -3.215608e-017 -3.000000e-002
    endloop
  endfacet
  facet normal  0.000000e+000  4.618353e-002 -9.989330e-001
    outer loop
      vertex  0.000000e+000 -3.215608e-017 -3.000000e-002
      vertex  7.500000e-001  2.768051e-003 -2.987202e-002
      vertex  7.500000e-001 -3.215608e-017 -3.000000e-002
    endloop
  endfacet
  facet normal  -0.000000e+000 -4.618353e-002 -9.989330e-001
    outer loop
      vertex  0.000000e+000 -3.215608e-017 -3.000000e-002
      vertex  7.500000e-001 -3.215608e-017 -3.000000e-002
      vertex  0.000000e+000 -2.768051e-003 -2.987202e-002
    endloop
  endfacet
  facet normal  0.000000e+000 -4.618353e-002 -9.989330e-001
    outer loop
      vertex  0.000000e+000 -2.768051e-003 -2.987202e-002
      vertex  7.500000e-001 -3.215608e-017 -3.000000e-002
      vertex  7.500000e-001 -2.768051e-003 -2.987202e-002
    endloop
  endfacet
  facet normal  -0.000000e+000 -1.381560e-001 -9.904104e-001
    outer loop
      vertex  0.000000e+000 -2.768051e-003 -2.987202e-002
      vertex  7.500000e-001 -2.768051e-003 -2.987202e-002
      vertex  0.000000e+000 -5.512486e-003 -2.948919e-002
    endloop
  endfacet
  facet normal  0.000000e+000 -1.381560e-001 -9.904104e-001
    outer loop
      vertex  0.000000e+000 -5.512486e-003 -2.948919e-002
      vertex  7.500000e-001 -2.768051e-003 -2.987202e-002
      vertex  7.500000e-001 -5.512486e-003 -2.948919e-002
    endloop
  endfacet
  facet normal  -0.000000e+000 -2.289508e-001 -9.734380e-001
    outer loop
      vertex  0.000000e+000 -5.512486e-003 -2.948919e-002
      vertex  7.500000e-001 -5.512486e-003 -2.948919e-002
      vertex  0.000000e+000 -8.209890e-003 -2.885477e-002
    endloop
  endfacet
  facet normal  0.000000e+000 -2.289508e-001 -9.734380e-001
    outer loop
      vertex  0.000000e+000 -8.209890e-003 -2.885477e-002
      vertex  7.500000e-001 -5.512486e-003 -2.948919e-002
      vertex  7.500000e-001 -8.209890e-003 -2.885477e-002
    endloop
  endfacet
  facet normal  -0.000000e+000 -3.177915e-001 -9.481605e-001
    outer loop
      vertex  0.000000e+000 -8.209890e-003 -2.885477e-002
      vertex  7.500000e-001 -8.209890e-003 -2.885477e-002
      vertex  0.000000e+000 -1.083725e-002 -2.797417e-002
    endloop
  endfacet
  facet normal  0.000000e+000 -3.177915e-001 -9.481605e-001
    outer loop
      vertex  0.000000e+000 -1.083725e-002 -2.797417e-002
      vertex  7.500000e-001 -8.209890e-003 -2.885477e-002
      vertex  7.500000e-001 -1.083725e-002 -2.797417e-002
    endloop
  endfacet
  facet normal  -0.000000e+000 -4.039208e-001 -9.147940e-001
    outer loop
      vertex  0.000000e+000 -1.083725e-002 -2.797417e-002
      vertex  7.500000e-001 -1.083725e-002 -2.797417e-002
      vertex  0.000000e+000 -1.337215e-002 -2.685490e-002
    endloop
  endfacet
  facet normal  0.000000e+000 -4.039208e-001 -9.147940e-001
    outer loop
      vertex  0.000000e+000 -1.337215e-002 -2.685490e-002
      vertex  7.500000e-001 -1.083725e-002 -2.797417e-002
      vertex  7.500000e-001 -1.337215e-002 -2.685490e-002
    endloop
  endfacet
  facet normal  -0.000000e+000 -4.866048e-001 -8.736222e-001
    outer loop
      vertex  0.000000e+000 -1.337215e-002 -2.685490e-002
      vertex  7.500000e-001 -1.337215e-002 -2.685490e-002
      vertex  0.000000e+000 -1.579296e-002 -2.550651e-002
    endloop
  endfacet
  facet normal  0.000000e+000 -4.866048e-001 -8.736222e-001
    outer loop
      vertex  0.000000e+000 -1.579296e-002 -2.550651e-002
      vertex  7.500000e-001 -1.337215e-002 -2.685490e-002
      vertex  7.500000e-001 -1.579296e-002 -2.550651e-002
    endloop
  endfacet
  facet normal  -0.000000e+000 -5.651361e-001 -8.249977e-001
    outer loop
      vertex  0.000000e+000 -1.579296e-002 -2.550651e-002
      vertex  7.500000e-001 -1.579296e-002 -2.550651e-002
      vertex  0.000000e+000 -1.807904e-002 -2.394052e-002
    endloop
  endfacet
  facet normal  0.000000e+000 -5.651361e-001 -8.249977e-001
    outer loop
      vertex  0.000000e+000 -1.807904e-002 -2.394052e-002
      vertex  7.500000e-001 -1.579296e-002 -2.550651e-002
      vertex  7.500000e-001 -1.807904e-002 -2.394052e-002
    endloop
  endfacet
  facet normal  -0.000000e+000 -6.388466e-001 -7.693342e-001
    outer loop
      vertex  0.000000e+000 -1.807904e-002 -2.394052e-002
      vertex  7.500000e-001 -1.807904e-002 -2.394052e-002
      vertex  0.000000e+000 -2.021087e-002 -2.217027e-002
    endloop
  endfacet
  facet normal  0.000000e+000 -6.388466e-001 -7.693342e-001
    outer loop
      vertex  0.000000e+000 -2.021087e-002 -2.217027e-002
      vertex  7.500000e-001 -1.807904e-002 -2.394052e-002
      vertex  7.500000e-001 -2.021087e-002 -2.217027e-002
    endloop
  endfacet
  facet normal  -0.000000e+000 -7.071068e-001 -7.071068e-001
    outer loop
      vertex  0.000000e+000 -2.021087e-002 -2.217027e-002
      vertex  7.500000e-001 -2.021087e-002 -2.217027e-002
      vertex  0.000000e+000 -2.217027e-002 -2.021087e-002
    endloop
  endfacet
  facet normal  0.000000e+000 -7.071068e-001 -7.071068e-001
    outer loop
      vertex  0.000000e+000 -2.217027e-002 -2.021087e-002
      vertex  7.500000e-001 -2.021087e-002 -2.217027e-002
      vertex  7.500000e-001 -2.217027e-002 -2.021087e-002
    endloop
  endfacet
  facet normal  -0.000000e+000 -7.693342e-001 -6.388466e-001
    outer loop
      vertex  0.000000e+000 -2.217027e-002 -2.021087e-002
      vertex  7.500000e-001 -2.217027e-002 -2.021087e-002
      vertex  0.000000e+000 -2.394052e-002 -1.807904e-002
    endloop
  endfacet
  facet normal  0.000000e+000 -7.693342e-001 -6.388466e-001
    outer loop
      vertex  0.000000e+000 -2.394052e-002 -1.807904e-002
      vertex  7.500000e-001 -2.217027e-002 -2.021087e-002
      vertex  7.500000e-001 -2.394052e-002 -1.807904e-002
    endloop
  endfacet
  facet normal  -0.000000e+000 -8.249977e-001 -5.651361e-001
    outer loop
      vertex  0.000000e+000 -2.394052e-002 -1.807904e-002
      vertex  7.500000e-001 -2.394052e-002 -1.807904e-002
      vertex  0.000000e+000 -2.550651e-002 -1.579296e-002
    endloop
  endfacet
  facet normal  0.000000e+000 -8.249977e-001 -5.651361e-001
    outer loop
      vertex  0.000000e+000 -2.550651e-002 -1.579296e-002
      vertex  7.500000e-001 -2.394052e-002 -1.807904e-002
      vertex  7.500000e-001 -2.550651e-002 -1.579296e-002
    endloop
  endfacet
  facet normal  -0.000000e+000 -8.736222e-001 -4.866048e-001
    outer loop
      vertex  0.000000e+000 -2.550651e-002 -1.579296e-002
      vertex  7.500000e-001 -2.550651e-002 -1.579296e-002
      vertex  0.000000e+000 -2.685490e-002 -1.337215e-002
    endloop
  endfacet
  facet normal  0.000000e+000 -8.736222e-001 -4.866048e-001
    outer loop
      vertex  0.000000e+000 -2.685490e-002 -1.337215e-002
      vertex  7.500000e-001 -2.550651e-002 -1.579296e-002
      vertex  7.500000e-001 -2.685490e-002 -1.337215e-002
    endloop
  endfacet
  facet normal  -0.000000e+000 -9.147940e-001 -4.039208e-001
    outer loop
      vertex  0.000000e+000 -2.685490e-002 -1.337215e-002
      vertex  7.500000e-001 -2.685490e-002 -1.337215e-002
      vertex  0.000000e+000 -2.797417e-002 -1.083725e-002
    endloop
  endfacet
  facet normal  0.000000e+000 -9.147940e-001 -4.039208e-001
    outer loop
      vertex  0.000000e+000 -2.797417e-002 -1.083725e-002
      vertex  7.500000e-001 -2.685490e-002 -1.337215e-002
      vertex  7.500000e-001 -2.797417e-002 -1.083725e-002
    endloop
  endfacet
  facet normal  -0.000000e+000 -9.481605e-001 -3.177915e-001
    outer loop
      vertex  0.000000e+000 -2.797417e-002 -1.083725e-002
      vertex  7.500000e-001 -2.797417e-002 -1.083725e-002
      vertex  0.000000e+000 -2.885477e-002 -8.209890e-003
    endloop
  endfacet
  facet normal  0.000000e+000 -9.481605e-001 -3.177915e-001
    outer loop
      vertex  0.000000e+000 -2.885477e-002 -8.209890e-003
      vertex  7.500000e-001 -2.797417e-002 -1.083725e-002
      vertex  7.500000e-001 -2.885477e-002 -8.209890e-003
    endloop
  endfacet
  facet normal  -0.000000e+000 -9.734380e-001 -2.289508e-001
    outer loop
      vertex  0.000000e+000 -2.885477e-002 -8.209890e-003
      vertex  7.500000e-001 -2.885477e-002 -8.209890e-003
      vertex  0.000000e+000 -2.948919e-002 -5.512486e-003
    endloop
  endfacet
  facet normal  0.000000e+000 -9.734380e-001 -2.289508e-001
    outer loop
      vertex  0.000000e+000 -2.948919e-002 -5.512486e-003
      vertex  7.500000e-001 -2.885477e-002 -8.209890e-003
      vertex  7.500000e-001 -2.948919e-002 -5.512486e-003
    endloop
  endfacet
  facet normal  -0.000000e+000 -9.904104e-001 -1.381560e-001
    outer loop
      vertex  0.000000e+000 -2.948919e-002 -5.512486e-003
      vertex  7.500000e-001 -2.948919e-002 -5.512486e-003
      vertex  0.000000e+000 -2.987202e-002 -2.768051e-003
    endloop
  endfacet
  facet normal  0.000000e+000 -9.904104e-001 -1.381560e-001
    outer loop
      vertex  0.000000e+000 -2.987202e-002 -2.768051e-003
      vertex  7.500000e-001 -2.948919e-002 -5.512486e-003
      vertex  7.500000e-001 -2.987202e-002 -2.768051e-003
    endloop
  endfacet
  facet normal  -0.000000e+000 -9.989330e-001 -4.618353e-002
    outer loop
      vertex  0.000000e+000 -2.987202e-002 -2.768051e-003
      vertex  7.500000e-001 -2.987202e-002 -2.768051e-003
      vertex  0.000000e+000 -3.000000e-002  1.699650e-017
    endloop
  endfacet
  facet normal  0.000000e+000 -9.989330e-001 -4.618353e-002
    outer loop
      vertex  0.000000e+000 -3.000000e-002  1.699650e-017
      vertex  7.500000e-001 -2.987202e-002 -2.768051e-003
      vertex  7.500000e-001 -3.000000e-002  1.699650e-017
    endloop
  endfacet
  facet normal  0.000000e+000 -9.989330e-001  4.618353e-002
    outer loop
      vertex  0.000000e+000 -3.000000e-002  1.699650e-017
      vertex  7.500000e-001 -3.000000e-002  1.699650e-017
      vertex  0.000000e+000 -2.987202e-002  2.768051e-003
    endloop
  endfacet
  facet normal  0.000000e+000 -9.989330e-001  4.618353e-002
    outer loop
      vertex  0.000000e+000 -2.987202e-002  2.768051e-003
      vertex  7.500000e-001 -3.000000e-002  1.699650e-017
      vertex  7.500000e-001 -2.987202e-002  2.768051e-003
    endloop
  endfacet
  facet normal  0.000000e+000 -9.904104e-001  1.381560e-001
    outer loop
      vertex  0.000000e+000 -2.987202e-002  2.768051e-003
      vertex  7.500000e-001 -2.987202e-002  2.768051e-003
      vertex  0.000000e+000 -2.948919e-002  5.512486e-003
    endloop
  endfacet
  facet normal  0.000000e+000 -9.904104e-001  1.381560e-001
    outer loop
      vertex  0.000000e+000 -2.948919e-002  5.512486e-003
      vertex  7.500000e-001 -2.987202e-002  2.768051e-003
      vertex  7.500000e-001 -2.948919e-002  5.512486e-003
    endloop
  endfacet
  facet normal  0.000000e+000 -9.734380e-001  2.289508e-001
    outer loop
      vertex  0.000000e+000 -2.948919e-002  5.512486e-003
      vertex  7.500000e-001 -2.948919e-002  5.512486e-003
      vertex  0.000000e+000 -2.885477e-002  8.209890e-003
    endloop
  endfacet
  facet normal  0.000000e+000 -9.734380e-001  2.289508e-001
    outer loop
      vertex  0.000000e+000 -2.885477e-002  8.209890e-003
      vertex  7.500000e-001 -2.948919e-002  5.512486e-003
      vertex  7.500000e-001 -2.885477e-002  8.209890e-003
    endloop
  endfacet
  facet normal  0.000000e+000 -9.481605e-001  3.177915e-001
    outer loop
      vertex  0.000000e+000 -2.885477e-002  8.209890e-003
      vertex  7.500000e-001 -2.885477e-002  8.209890e-003
      vertex  0.000000e+000 -2.797417e-002  1.083725e-002
    endloop
  endfacet
  facet normal  0.000000e+000 -9.481605e-001  3.177915e-001
    outer loop
      vertex  0.000000e+000 -2.797417e-002  1.083725e-002
      vertex  7.500000e-001 -2.885477e-002  8.209890e-003
      vertex  7.500000e-001 -2.797417e-002  1.083725e-002
    endloop
  endfacet
  facet normal  0.000000e+000 -9.147940e-001  4.039208e-001
    outer loop
      vertex  0.000000e+000 -2.797417e-002  1.083725e-002
      vertex  7.500000e-001 -2.797417e-002  1.083725e-002
      vertex  0.000000e+000 -2.685490e-002  1.337215e-002
    endloop
  endfacet
  facet normal  0.000000e+000 -9.147940e-001  4.039208e-001
    outer loop
      vertex  0.000000e+000 -2.685490e-002  1.337215e-002
      vertex  7.500000e-001 -2.797417e-002  1.083725e-002
      vertex  7.500000e-001 -2.685490e-002  1.337215e-002
    endloop
  endfacet
  facet normal  0.000000e+000 -8.736222e-001  4.866048e-001
    outer loop
      vertex  0.000000e+000 -2.685490e-002  1.337215e-002
      vertex  7.500000e-001 -2.685490e-002  1.337215e-002
      vertex  0.000000e+000 -2.550651e-002  1.579296e-002
    endloop
  endfacet
  facet normal  0.000000e+000 -8.736222e-001  4.866048e-001
    outer loop
      vertex  0.000000e+000 -2.550651e-002  1.579296e-002
      vertex  7.500000e-001 -2.685490e-002  1.337215e-002
      vertex  7.500000e-001 -2.550651e-002  1.579296e-002
    endloop
  endfacet
  facet normal  0.000000e+000 -8.249977e-001  5.651361e-001
    outer loop
      vertex  0.000000e+000 -2.550651e-002  1.579296e-002
      vertex  7.500000e-001 -2.550651e-002  1.579296e-002
      vertex  0.000000e+000 -2.394052e-002  1.807904e-002
    endloop
  endfacet
  facet normal  0.000000e+000 -8.249977e-001  5.651361e-001
    outer loop
      vertex  0.000000e+000 -2.394052e-002  1.807904e-002
      vertex  7.500000e-001 -2.550651e-002  1.579296e-002
      vertex  7.500000e-001 -2.394052e-002  1.807904e-002
    endloop
  endfacet
  facet normal  0.000000e+000 -7.693342e-001  6.388466e-001
    outer loop
      vertex  0.000000e+000 -2.394052e-002  1.807904e-002
      vertex  7.500000e-001 -2.394052e-002  1.807904e-002
      vertex  0.000000e+000 -2.217027e-002  2.021087e-002
    endloop
  endfacet
  facet normal  0.000000e+000 -7.693342e-001  6.388466e-001
    outer loop
      vertex  0.000000e+000 -2.217027e-002  2.021087e-002
      vertex  7.500000e-001 -2.394052e-002  1.807904e-002
      vertex  7.500000e-001 -2.217027e-002  2.021087e-002
    endloop
  endfacet
  facet normal  0.000000e+000 -7.071068e-001  7.071068e-001
    outer loop
      vertex  0.000000e+000 -2.217027e-002  2.021087e-002
      vertex  7.500000e-001 -2.217027e-002  2.021087e-002
      vertex  0.000000e+000 -2.021087e-002  2.217027e-002
    endloop
  endfacet
  facet normal  0.000000e+000 -7.071068e-001  7.071068e-001
    outer loop
      vertex  0.000000e+000 -2.021087e-002  2.217027e-002
      vertex  7.500000e-001 -2.217027e-002  2.021087e-002
      vertex  7.500000e-001 -2.021087e-002  2.217027e-002
    endloop
  endfacet
  facet normal  0.000000e+000 -6.388466e-001  7.693342e-001
    outer loop
      vertex  0.000000e+000 -2.021087e-002  2.217027e-002
      vertex  7.500000e-001 -2.021087e-002  2.217027e-002
      vertex  0.000000e+000 -1.807904e-002  2.394052e-002
    endloop
  endfacet
  facet normal  0.000000e+000 -6.388466e-001  7.693342e-001
    outer loop
      vertex  0.000000e+000 -1.807904e-002  2.394052e-002
      vertex  7.500000e-001 -2.021087e-002  2.217027e-002
      vertex  7.500000e-001 -1.807904e-002  2.394052e-002
    endloop
  endfacet
  facet normal  0.000000e+000 -5.651361e-001  8.249977e-001
    outer loop
      vertex  0.000000e+000 -1.807904e-002  2.394052e-002
      vertex  7.500000e-001 -1.807904e-002  2.394052e-002
      vertex  0.000000e+000 -1.579296e-002  2.550651e-002
    endloop
  endfacet
  facet normal  0.000000e+000 -5.651361e-001  8.249977e-001
    outer loop
      vertex  0.000000e+000 -1.579296e-002  2.550651e-002
      vertex  7.500000e-001 -1.807904e-002  2.394052e-002
      vertex  7.500000e-001 -1.579296e-002  2.550651e-002
    endloop
  endfacet
  facet normal  0.000000e+000 -4.866048e-001  8.736222e-001
    outer loop
      vertex  0.000000e+000 -1.579296e-002  2.550651e-002
      vertex  7.500000e-001 -1.579296e-002  2.550651e-002
      vertex  0.000000e+000 -1.337215e-002  2.685490e-002
    endloop
  endfacet
  facet normal  0.000000e+000 -4.866048e-001  8.736222e-001
    outer loop
      vertex  0.000000e+000 -1.337215e-002  2.685490e-002
      vertex  7.500000e-001 -1.579296e-002  2.550651e-002
      vertex  7.500000e-001 -1.337215e-002  2.685490e-002
    endloop
  endfacet
  facet normal  0.000000e+000 -4.039208e-001  9.147940e-001
    outer loop
      vertex  0.000000e+000 -1.337215e-002  2.685490e-002
      vertex  7.500000e-001 -1.337215e-002  2.685490e-002
      vertex  0.000000e+000 -1.083725e-002  2.797417e-002
    endloop
  endfacet
  facet normal  0.000000e+000 -4.039208e-001  9.147940e-001
    outer loop
      vertex  0.000000e+000 -1.083725e-002  2.797417e-002
      vertex  7.500000e-001 -1.337215e-002  2.685490e-002
      vertex  7.500000e-001 -1.083725e-002  2.797417e-002
    endloop
  endfacet
  facet normal  0.000000e+000 -3.177915e-001  9.481605e-001
    outer loop
      vertex  0.000000e+000 -1.083725e-002  2.797417e-002
      vertex  7.500000e-001 -1.083725e-002  2.797417e-002
      vertex  0.000000e+000 -8.209890e-003  2.885477e-002
    endloop
  endfacet
  facet normal  0.000000e+000 -3.177915e-001  9.481605e-001
    outer loop
      vertex  0.000000e+000 -8.209890e-003  2.885477e-002
      vertex  7.500000e-001 -1.083725e-002  2.797417e-002
      vertex  7.500000e-001 -8.209890e-003  2.885477e-002
    endloop
  endfacet
  facet normal  0.000000e+000 -2.289508e-001  9.734380e-001
    outer loop
      vertex  0.000000e+000 -8.209890e-003  2.885477e-002
      vertex  7.500000e-001 -8.209890e-003  2.885477e-002
      vertex  0.000000e+000 -5.512486e-003  2.948919e-002
    endloop
  endfacet
  facet normal  0.000000e+000 -2.289508e-001  9.734380e-001
    outer loop
      vertex  0.000000e+000 -5.512486e-003  2.948919e-002
      vertex  7.500000e-001 -8.209890e-003  2.885477e-002
      vertex  7.500000e-001 -5.512486e-003  2.948919e-002
    endloop
  endfacet
  facet normal  0.000000e+000 -1.381560e-001  9.904104e-001
    outer loop
      vertex  0.000000e+000 -5.512486e-003  2.948919e-002
      vertex  7.500000e-001 -5.512486e-003  2.948919e-002
      vertex  0.000000e+000 -2.768051e-003  2.987202e-002
    endloop
  endfacet
  facet normal  0.000000e+000 -1.381560e-001  9.904104e-001
    outer loop
      vertex  0.000000e+000 -2.768051e-003  2.987202e-002
      vertex  7.500000e-001 -5.512486e-003  2.948919e-002
      vertex  7.500000e-001 -2.768051e-003  2.987202e-002
    endloop
  endfacet
  facet normal  0.000000e+000 -4.618353e-002  9.989330e-001
    outer loop
      vertex  0.000000e+000 -2.768051e-003  2.987202e-002
      vertex  7.500000e-001 -2.768051e-003  2.987202e-002
      vertex  0.000000e+000  8.498248e-018  3.000000e-002
    endloop
  endfacet
  facet normal  0.000000e+000 -4.618353e-002  9.989330e-001
    outer loop
      vertex  0.000000e+000  8.498248e-018  3.000000e-002
      vertex  7.500000e-001 -2.768051e-003  2.987202e-002
      vertex  7.500000e-001  8.498248e-018  3.000000e-002
    endloop
  endfacet
  facet normal  0.000000e+000  4.618353e-002  9.989330e-001
    outer loop
      vertex  0.000000e+000  8.498248e-018  3.000000e-002
      vertex  7.500000e-001  8.498248e-018  3.000000e-002
      vertex  0.000000e+000  2.768051e-003  2.987202e-002
    endloop
  endfacet
  facet normal  -0.000000e+000  4.618353e-002  9.989330e-001
    outer loop
      vertex  0.000000e+000  2.768051e-003  2.987202e-002
      vertex  7.500000e-001  8.498248e-018  3.000000e-002
      vertex  7.500000e-001  2.768051e-003  2.987202e-002
    endloop
  endfacet
  facet normal  0.000000e+000  1.381560e-001  9.904104e-001
    outer loop
      vertex  0.000000e+000  2.768051e-003  2.987202e-002
      vertex  7.500000e-001  2.768051e-003  2.987202e-002
      vertex  0.000000e+000  5.512486e-003  2.948919e-002
    endloop
  endfacet
  facet normal  -0.000000e+000  1.381560e-001  9.904104e-001
    outer loop
      vertex  0.000000e+000  5.512486e-003  2.948919e-002
      vertex  7.500000e-001  2.768051e-003  2.987202e-002
      vertex  7.500000e-001  5.512486e-003  2.948919e-002
    endloop
  endfacet
  facet normal  0.000000e+000  2.289508e-001  9.734380e-001
    outer loop
      vertex  0.000000e+000  5.512486e-003  2.948919e-002
      vertex  7.500000e-001  5.512486e-003  2.948919e-002
      vertex  0.000000e+000  8.209890e-003  2.885477e-002
    endloop
  endfacet
  facet normal  -0.000000e+000  2.289508e-001  9.734380e-001
    outer loop
      vertex  0.000000e+000  8.209890e-003  2.885477e-002
      vertex  7.500000e-001  5.512486e-003  2.948919e-002
      vertex  7.500000e-001  8.209890e-003  2.885477e-002
    endloop
  endfacet
  facet normal  0.000000e+000  3.177915e-001  9.481605e-001
    outer loop
      vertex  0.000000e+000  8.209890e-003  2.885477e-002
      vertex  7.500000e-001  8.209890e-003  2.885477e-002
      vertex  0.000000e+000  1.083725e-002  2.797417e-002
    endloop
  endfacet
  facet normal  -0.000000e+000  3.177915e-001  9.481605e-001
    outer loop
      vertex  0.000000e+000  1.083725e-002  2.797417e-002
      vertex  7.500000e-001  8.209890e-003  2.885477e-002
      vertex  7.500000e-001  1.083725e-002  2.797417e-002
    endloop
  endfacet
  facet normal  0.000000e+000  4.039208e-001  9.147940e-001
    outer loop
      vertex  0.000000e+000  1.083725e-002  2.797417e-002
      vertex  7.500000e-001  1.083725e-002  2.797417e-002
      vertex  0.000000e+000  1.337215e-002  2.685490e-002
    endloop
  endfacet
  facet normal  -0.000000e+000  4.039208e-001  9.147940e-001
    outer loop
      vertex  0.000000e+000  1.337215e-002  2.685490e-002
      vertex  7.500000e-001  1.083725e-002  2.797417e-002
      vertex  7.500000e-001  1.337215e-002  2.685490e-002
    endloop
  endfacet
  facet normal  0.000000e+000  4.866048e-001  8.736222e-001
    outer loop
      vertex  0.000000e+000  1.337215e-002  2.685490e-002
      vertex  7.500000e-001  1.337215e-002  2.685490e-002
      vertex  0.000000e+000  1.579296e-002  2.550651e-002
    endloop
  endfacet
  facet normal  -0.000000e+000  4.866048e-001  8.736222e-001
    outer loop
      vertex  0.000000e+000  1.579296e-002  2.550651e-002
      vertex  7.500000e-001  1.337215e-002  2.685490e-002
      vertex  7.500000e-001  1.579296e-002  2.550651e-002
    endloop
  endfacet
  facet normal  0.000000e+000  5.651361e-001  8.249977e-001
    outer loop
      vertex  0.000000e+000  1.579296e-002  2.550651e-002
      vertex  7.500000e-001  1.579296e-002  2.550651e-002
      vertex  0.000000e+000  1.807904e-002  2.394052e-002
    endloop
  endfacet
  facet normal  -0.000000e+000  5.651361e-001  8.249977e-001
    outer loop
      vertex  0.000000e+000  1.807904e-002  2.394052e-002
      vertex  7.500000e-001  1.579296e-002  2.550651e-002
      vertex  7.500000e-001  1.807904e-002  2.394052e-002
    endloop
  endfacet
  facet normal  0.000000e+000  6.388466e-001  7.693342e-001
    outer loop
      vertex  0.000000e+000  1.807904e-002  2.394052e-002
      vertex  7.500000e-001  1.807904e-002  2.394052e-002
      vertex  0.000000e+000  2.021087e-002  2.217027e-002
    endloop
  endfacet
  facet normal  -0.000000e+000  6.388466e-001  7.693342e-001
    outer loop
      vertex  0.000000e+000  2.021087e-002  2.217027e-002
      vertex  7.500000e-001  1.807904e-002  2.394052e-002
      vertex  7.500000e-001  2.021087e-002  2.217027e-002
    endloop
  endfacet
  facet normal  0.000000e+000  7.071068e-001  7.071068e-001
    outer loop
      vertex  0.000000e+000  2.021087e-002  2.217027e-002
      vertex  7.500000e-001  2.021087e-002  2.217027e-002
      vertex  0.000000e+000  2.217027e-002  2.021087e-002
    endloop
  endfacet
  facet normal  -0.000000e+000  7.071068e-001  7.071068e-001
    outer loop
      vertex  0.000000e+000  2.217027e-002  2.021087e-002
      vertex  7.500000e-001  2.021087e-002  2.217027e-002
      vertex  7.500000e-001  2.217027e-002  2.021087e-002
    endloop
  endfacet
  facet normal  0.000000e+000  7.693342e-001  6.388466e-001
    outer loop
      vertex  0.000000e+000  2.217027e-002  2.021087e-002
      vertex  7.500000e-001  2.217027e-002  2.021087e-002
      vertex  0.000000e+000  2.394052e-002  1.807904e-002
    endloop
  endfacet
  facet normal  -0.000000e+000  7.693342e-001  6.388466e-001
    outer loop
      vertex  0.000000e+000  2.394052e-002  1.807904e-002
      vertex  7.500000e-001  2.217027e-002  2.021087e-002
      vertex  7.500000e-001  2.394052e-002  1.807904e-002
    endloop
  endfacet
  facet normal  0.000000e+000  8.249977e-001  5.651361e-001
    outer loop
      vertex  0.000000e+000  2.394052e-002  1.807904e-002
      vertex  7.500000e-001  2.394052e-002  1.807904e-002
      vertex  0.000000e+000  2.550651e-002  1.579296e-002
    endloop
  endfacet
  facet normal  -0.000000e+000  8.249977e-001  5.651361e-001
    outer loop
      vertex  0.000000e+000  2.550651e-002  1.579296e-002
      vertex  7.500000e-001  2.394052e-002  1.807904e-002
      vertex  7.500000e-001  2.550651e-002  1.579296e-002
    endloop
  endfacet
  facet normal  0.000000e+000  8.736222e-001  4.866048e-001
    outer loop
      vertex  0.000000e+000  2.550651e-002  1.579296e-002
      vertex  7.500000e-001  2.550651e-002  1.579296e-002
      vertex  0.000000e+000  2.685490e-002  1.337215e-002
    endloop
  endfacet
  facet normal  -0.000000e+000  8.736222e-001  4.866048e-001
    outer loop
      vertex  0.000000e+000  2.685490e-002  1.337215e-002
      vertex  7.500000e-001  2.550651e-002  1.579296e-002
      vertex  7.500000e-001  2.685490e-002  1.337215e-002
    endloop
  endfacet
  facet normal  0.000000e+000  9.147940e-001  4.039208e-001
    outer loop
      vertex  0.000000e+000  2.685490e-002  1.337215e-002
      vertex  7.500000e-001  2.685490e-002  1.337215e-002
      vertex  0.000000e+000  2.797417e-002  1.083725e-002
    endloop
  endfacet
  facet normal  -0.000000e+000  9.147940e-001  4.039208e-001
    outer loop
      vertex  0.000000e+000  2.797417e-002  1.083725e-002
      vertex  7.500000e-001  2.685490e-002  1.337215e-002
      vertex  7.500000e-001  2.797417e-002  1.083725e-002
    endloop
  endfacet
  facet normal  0.000000e+000  9.481605e-001  3.177915e-001
    outer loop
      vertex  0.000000e+000  2.797417e-002  1.083725e-002
      vertex  7.500000e-001  2.797417e-002  1.083725e-002
      vertex  0.000000e+000  2.885477e-002  8.209890e-003
    endloop
  endfacet
  facet normal  -0.000000e+000  9.481605e-001  3.177915e-001
    outer loop
      vertex  0.000000e+000  2.885477e-002  8.209890e-003
      vertex  7.500000e-001  2.797417e-002  1.083725e-002
      vertex  7.500000e-001  2.885477e-002  8.209890e-003
    endloop
  endfacet
  facet normal  0.000000e+000  9.734380e-001  2.289508e-001
    outer loop
      vertex  0.000000e+000  2.885477e-002  8.209890e-003
      vertex  7.500000e-001  2.885477e-002  8.209890e-003
      vertex  0.000000e+000  2.948919e-002  5.512486e-003
    endloop
  endfacet
  facet normal  -0.000000e+000  9.734380e-001  2.289508e-001
    outer loop
      vertex  0.000000e+000  2.948919e-002  5.512486e-003
      vertex  7.500000e-001  2.885477e-002  8.209890e-003
      vertex  7.500000e-001  2.948919e-002  5.512486e-003
    endloop
  endfacet
  facet normal  0.000000e+000  9.904104e-001  1.381560e-001
    outer loop
      vertex  0.000000e+000  2.948919e-002  5.512486e-003
      vertex  7.500000e-001  2.948919e-002  5.512486e-003
      vertex  0.000000e+000  2.987202e-002  2.768051e-003
    endloop
  endfacet
  facet normal  -0.000000e+000  9.904104e-001  1.381560e-001
    outer loop
      vertex  0.000000e+000  2.987202e-002  2.768051e-003
      vertex  7.500000e-001  2.948919e-002  5.512486e-003
      vertex  7.500000e-001  2.987202e-002  2.768051e-003
    endloop
  endfacet
  facet normal  0.000000e+000  9.989330e-001  4.618353e-002
    outer loop
      vertex  0.000000e+000  2.987202e-002  2.768051e-003
      vertex  7.500000e-001  2.987202e-002  2.768051e-003
      vertex  0.000000e+000  3.000000e-002  0.000000e+000
    endloop
  endfacet
  facet normal  -0.000000e+000  9.989330e-001  4.618353e-002
    outer loop
      vertex  0.000000e+000  3.000000e-002  0.000000e+000
      vertex  7.500000e-001  2.987202e-002  2.768051e-003
      vertex  7.500000e-001  3.000000e-002  0.000000e+000
    endloop
  endfacet
endsolid CATIA STL
