solid
facet normal 1 0 0
outer loop
vertex 375 -11.4805 27.7164
vertex 375 11.4805 27.7164
vertex 375 8.49825e-15 30
endloop
endfacet
facet normal 0 -0.555571 -0.831469
outer loop
vertex -375 -21.2132 -21.2132
vertex 375 -11.4805 -27.7164
vertex 375 -21.2132 -21.2132
endloop
endfacet
facet normal -1 0 0
outer loop
vertex -375 -21.2132 -21.2132
vertex -375 27.7164 -11.4805
vertex -375 21.2132 -21.2132
endloop
endfacet
facet normal 1 -0 0
outer loop
vertex 375 21.2132 21.2132
vertex 375 -21.2132 21.2132
vertex 375 27.7164 11.4805
endloop
endfacet
facet normal -1 -0 0
outer loop
vertex -375 -11.4805 27.7164
vertex -375 11.4805 27.7164
vertex -375 -21.2132 21.2132
endloop
endfacet
facet normal 0 -0.980785 0.19509
outer loop
vertex -375 -27.7164 11.4805
vertex 375 -30 1.69965e-14
vertex 375 -27.7164 11.4805
endloop
endfacet
facet normal -1 -0 0
outer loop
vertex -375 -11.4805 -27.7164
vertex -375 11.4805 -27.7164
vertex -375 -3.21561e-14 -30
endloop
endfacet
facet normal -1 -0 0
outer loop
vertex -375 -27.7164 11.4805
vertex -375 27.7164 11.4805
vertex -375 -30 1.69965e-14
endloop
endfacet
facet normal 1 0 0
outer loop
vertex 375 30 0
vertex 375 -30 1.69965e-14
vertex 375 27.7164 -11.4805
endloop
endfacet
facet normal 1 0 0
outer loop
vertex 375 30 0
vertex 375 -27.7164 11.4805
vertex 375 -30 1.69965e-14
endloop
endfacet
facet normal 1 -0 0
outer loop
vertex 375 21.2132 -21.2132
vertex 375 -21.2132 -21.2132
vertex 375 11.4805 -27.7164
endloop
endfacet
facet normal 0 0.555571 -0.831469
outer loop
vertex -375 11.4805 -27.7164
vertex 375 21.2132 -21.2132
vertex 375 11.4805 -27.7164
endloop
endfacet
facet normal 0 0.831469 -0.555571
outer loop
vertex -375 21.2132 -21.2132
vertex 375 27.7164 -11.4805
vertex 375 21.2132 -21.2132
endloop
endfacet
facet normal 1 0 0
outer loop
vertex 375 11.4805 -27.7164
vertex 375 -21.2132 -21.2132
vertex 375 -11.4805 -27.7164
endloop
endfacet
facet normal 0 -0.555571 0.831469
outer loop
vertex -375 -21.2132 21.2132
vertex 375 -21.2132 21.2132
vertex -375 -11.4805 27.7164
endloop
endfacet
facet normal 0 -0.980785 0.19509
outer loop
vertex -375 -30 1.69965e-14
vertex 375 -30 1.69965e-14
vertex -375 -27.7164 11.4805
endloop
endfacet
facet normal -0 -0.980785 -0.19509
outer loop
vertex -375 -27.7164 -11.4805
vertex 375 -27.7164 -11.4805
vertex -375 -30 1.69965e-14
endloop
endfacet
facet normal 0 -0.980785 -0.19509
outer loop
vertex -375 -30 1.69965e-14
vertex 375 -27.7164 -11.4805
vertex 375 -30 1.69965e-14
endloop
endfacet
facet normal -1 0 -0
outer loop
vertex -375 -27.7164 11.4805
vertex -375 21.2132 21.2132
vertex -375 27.7164 11.4805
endloop
endfacet
facet normal 0 -0.555571 0.831469
outer loop
vertex -375 -11.4805 27.7164
vertex 375 -21.2132 21.2132
vertex 375 -11.4805 27.7164
endloop
endfacet
facet normal 1 0 0
outer loop
vertex 375 21.2132 21.2132
vertex 375 -11.4805 27.7164
vertex 375 -21.2132 21.2132
endloop
endfacet
facet normal 0 0.19509 0.980785
outer loop
vertex -375 8.49825e-15 30
vertex 375 8.49825e-15 30
vertex -375 11.4805 27.7164
endloop
endfacet
facet normal -0 -0.19509 -0.980785
outer loop
vertex -375 -3.21561e-14 -30
vertex 375 -3.21561e-14 -30
vertex -375 -11.4805 -27.7164
endloop
endfacet
facet normal -1 -0 0
outer loop
vertex -375 -30 1.69965e-14
vertex -375 30 0
vertex -375 -27.7164 -11.4805
endloop
endfacet
facet normal 0 0.19509 0.980785
outer loop
vertex -375 11.4805 27.7164
vertex 375 8.49825e-15 30
vertex 375 11.4805 27.7164
endloop
endfacet
facet normal 0 0.19509 -0.980785
outer loop
vertex -375 11.4805 -27.7164
vertex 375 11.4805 -27.7164
vertex -375 -3.21561e-14 -30
endloop
endfacet
facet normal 0 -0.831469 0.555571
outer loop
vertex -375 -27.7164 11.4805
vertex 375 -27.7164 11.4805
vertex -375 -21.2132 21.2132
endloop
endfacet
facet normal 1 0 0
outer loop
vertex 375 27.7164 11.4805
vertex 375 -21.2132 21.2132
vertex 375 -27.7164 11.4805
endloop
endfacet
facet normal 0 -0.831469 0.555571
outer loop
vertex -375 -21.2132 21.2132
vertex 375 -27.7164 11.4805
vertex 375 -21.2132 21.2132
endloop
endfacet
facet normal 1 -0 0
outer loop
vertex 375 27.7164 11.4805
vertex 375 -27.7164 11.4805
vertex 375 30 0
endloop
endfacet
facet normal -1 -0 0
outer loop
vertex -375 -21.2132 21.2132
vertex -375 21.2132 21.2132
vertex -375 -27.7164 11.4805
endloop
endfacet
facet normal -1 0 -0
outer loop
vertex -375 -21.2132 21.2132
vertex -375 11.4805 27.7164
vertex -375 21.2132 21.2132
endloop
endfacet
facet normal 0 -0.19509 0.980785
outer loop
vertex -375 -11.4805 27.7164
vertex 375 -11.4805 27.7164
vertex -375 8.49825e-15 30
endloop
endfacet
facet normal -1 0 0
outer loop
vertex -375 -27.7164 -11.4805
vertex -375 30 0
vertex -375 27.7164 -11.4805
endloop
endfacet
facet normal -1 -0 0
outer loop
vertex -375 -21.2132 -21.2132
vertex -375 21.2132 -21.2132
vertex -375 -11.4805 -27.7164
endloop
endfacet
facet normal 0 0.980785 -0.19509
outer loop
vertex -375 27.7164 -11.4805
vertex 375 30 0
vertex 375 27.7164 -11.4805
endloop
endfacet
facet normal 0 0.831469 0.555571
outer loop
vertex -375 27.7164 11.4805
vertex 375 21.2132 21.2132
vertex 375 27.7164 11.4805
endloop
endfacet
facet normal -1 0 -0
outer loop
vertex -375 -30 1.69965e-14
vertex -375 27.7164 11.4805
vertex -375 30 0
endloop
endfacet
facet normal 0 0.831469 -0.555571
outer loop
vertex -375 27.7164 -11.4805
vertex 375 27.7164 -11.4805
vertex -375 21.2132 -21.2132
endloop
endfacet
facet normal 1 -0 0
outer loop
vertex 375 11.4805 27.7164
vertex 375 -11.4805 27.7164
vertex 375 21.2132 21.2132
endloop
endfacet
facet normal 1 0 0
outer loop
vertex 375 21.2132 -21.2132
vertex 375 -27.7164 -11.4805
vertex 375 -21.2132 -21.2132
endloop
endfacet
facet normal -1 -0 0
outer loop
vertex -375 -27.7164 -11.4805
vertex -375 27.7164 -11.4805
vertex -375 -21.2132 -21.2132
endloop
endfacet
facet normal -1 0 -0
outer loop
vertex -375 8.49825e-15 30
vertex -375 11.4805 27.7164
vertex -375 -11.4805 27.7164
endloop
endfacet
facet normal -0 -0.555571 -0.831469
outer loop
vertex -375 -11.4805 -27.7164
vertex 375 -11.4805 -27.7164
vertex -375 -21.2132 -21.2132
endloop
endfacet
facet normal 0 0.555571 -0.831469
outer loop
vertex -375 21.2132 -21.2132
vertex 375 21.2132 -21.2132
vertex -375 11.4805 -27.7164
endloop
endfacet
facet normal 0 0.831469 0.555571
outer loop
vertex -375 21.2132 21.2132
vertex 375 21.2132 21.2132
vertex -375 27.7164 11.4805
endloop
endfacet
facet normal 0 -0.19509 -0.980785
outer loop
vertex -375 -11.4805 -27.7164
vertex 375 -3.21561e-14 -30
vertex 375 -11.4805 -27.7164
endloop
endfacet
facet normal 0 0.19509 -0.980785
outer loop
vertex -375 -3.21561e-14 -30
vertex 375 11.4805 -27.7164
vertex 375 -3.21561e-14 -30
endloop
endfacet
facet normal -0 -0.831469 -0.555571
outer loop
vertex -375 -21.2132 -21.2132
vertex 375 -21.2132 -21.2132
vertex -375 -27.7164 -11.4805
endloop
endfacet
facet normal 1 -0 0
outer loop
vertex 375 27.7164 -11.4805
vertex 375 -27.7164 -11.4805
vertex 375 21.2132 -21.2132
endloop
endfacet
facet normal 1 -0 0
outer loop
vertex 375 11.4805 -27.7164
vertex 375 -11.4805 -27.7164
vertex 375 -3.21561e-14 -30
endloop
endfacet
facet normal 0 0.555571 0.831469
outer loop
vertex -375 21.2132 21.2132
vertex 375 11.4805 27.7164
vertex 375 21.2132 21.2132
endloop
endfacet
facet normal 1 0 0
outer loop
vertex 375 27.7164 -11.4805
vertex 375 -30 1.69965e-14
vertex 375 -27.7164 -11.4805
endloop
endfacet
facet normal 0 -0.831469 -0.555571
outer loop
vertex -375 -27.7164 -11.4805
vertex 375 -21.2132 -21.2132
vertex 375 -27.7164 -11.4805
endloop
endfacet
facet normal 0 0.555571 0.831469
outer loop
vertex -375 11.4805 27.7164
vertex 375 11.4805 27.7164
vertex -375 21.2132 21.2132
endloop
endfacet
facet normal 0 -0.19509 0.980785
outer loop
vertex -375 8.49825e-15 30
vertex 375 -11.4805 27.7164
vertex 375 8.49825e-15 30
endloop
endfacet
facet normal -1 0 0
outer loop
vertex -375 -11.4805 -27.7164
vertex -375 21.2132 -21.2132
vertex -375 11.4805 -27.7164
endloop
endfacet
facet normal 0 0.980785 0.19509
outer loop
vertex -375 30 0
vertex 375 27.7164 11.4805
vertex 375 30 0
endloop
endfacet
facet normal 0 0.980785 -0.19509
outer loop
vertex -375 30 0
vertex 375 30 0
vertex -375 27.7164 -11.4805
endloop
endfacet
facet normal 0 0.980785 0.19509
outer loop
vertex -375 27.7164 11.4805
vertex 375 27.7164 11.4805
vertex -375 30 0
endloop
endfacet
endsolid
