solid
facet normal 0 -1 -0
outer loop
vertex 0.000361623 0.00205086 0
vertex 0.000361623 0.00205086 0.0833
vertex -0.000361622 0.00205086 0
endloop
endfacet
facet normal 0 -0.499999 0.866026
outer loop
vertex 4.34521e-19 0.000712257 -0.00195691
vertex 0.0833 0.000712257 -0.00195691
vertex 3.54225e-19 0.00133861 -0.00159529
endloop
endfacet
facet normal 0.866026 0 -0.499999
outer loop
vertex -0.00195691 -1.58153e-19 0.000712257
vertex -0.00195691 0.0833 0.000712257
vertex -0.00159529 -2.9723e-19 0.00133861
endloop
endfacet
facet normal -0.642785 0.766046 0
outer loop
vertex 0.00104125 -0.00180349 0
vertex 0.00104125 -0.00180349 0.0833
vertex 0.00159529 -0.00133861 0
endloop
endfacet
facet normal 0.642785 0 -0.766046
outer loop
vertex -0.00159529 -2.9723e-19 0.00133861
vertex -0.00159529 0.0833 0.00133861
vertex -0.00104125 -4.00457e-19 0.00180349
endloop
endfacet
facet normal 0.642785 0.766046 0
outer loop
vertex -0.00159529 -0.00133861 0
vertex -0.00159529 -0.00133861 0.0833
vertex -0.00104125 -0.00180349 0
endloop
endfacet
facet normal -0.847545 0.120596 -0.51684
outer loop
vertex 0 0.09996 2.21956e-17
vertex -2.54881e-10 0.07497 -0.005831
vertex -0.00147255 0.0833 -0.00147255
endloop
endfacet
facet normal -0.51684 0.847545 0.120596
outer loop
vertex 0 0 0.09996
vertex -0.00147255 0.00147255 0.0833
vertex -0.005831 -5.09762e-10 0.07497
endloop
endfacet
facet normal 0.866026 0 0.499999
outer loop
vertex -0.00159529 0.0833 -0.00133861
vertex -0.00195691 0.0833 -0.000712257
vertex -0.00195691 1.58153e-19 -0.000712257
endloop
endfacet
facet normal -0.847545 0.120596 0.51684
outer loop
vertex 0 0.09996 2.21956e-17
vertex -0.00147255 0.0833 0.00147255
vertex 6.9534e-11 0.07497 0.005831
endloop
endfacet
facet normal -0.342024 0.939691 0
outer loop
vertex 0.000361622 -0.00205086 0.0833
vertex 0.00104125 -0.00180349 0.0833
vertex 0.00104125 -0.00180349 0
endloop
endfacet
facet normal -0.984807 0.17365 0
outer loop
vertex 0.00195691 -0.000712257 0
vertex 0.00195691 -0.000712257 0.0833
vertex 0.0020825 3.64116e-10 0
endloop
endfacet
facet normal 0 -0.17365 0.984807
outer loop
vertex 0.0833 0 -0.0020825
vertex 0.0833 0.000712257 -0.00195691
vertex 4.34521e-19 0.000712257 -0.00195691
endloop
endfacet
facet normal 0 0.939691 -0.342024
outer loop
vertex 0.0833 -0.00180349 0.00104125
vertex 0.0833 -0.00205086 0.000361622
vertex -8.02963e-20 -0.00205086 0.000361622
endloop
endfacet
facet normal 0.866026 -0.499999 0
outer loop
vertex -0.00159529 0.00133861 0
vertex -0.00159529 0.00133861 0.0833
vertex -0.00195691 0.000712257 0
endloop
endfacet
facet normal 0.847545 -0.51684 0.120596
outer loop
vertex 0 0 0.09996
vertex 6.9534e-11 -0.005831 0.07497
vertex 0.00147255 -0.00147255 0.0833
endloop
endfacet
facet normal -0 -0.939691 -0.342024
outer loop
vertex -8.02963e-20 0.00205086 0.000361622
vertex 0.0833 0.00205086 0.000361622
vertex -2.31204e-19 0.00180349 0.00104125
endloop
endfacet
facet normal -0.984807 -3.85581e-17 0.17365
outer loop
vertex 0.0020825 0 0
vertex 0.0020825 0.0833 1.84963e-17
vertex 0.00195691 1.58153e-19 -0.000712257
endloop
endfacet
facet normal 0.51684 0.847545 0.120596
outer loop
vertex 0 0 0.09996
vertex 0.005831 0 0.07497
vertex 0.00147255 0.00147255 0.0833
endloop
endfacet
facet normal -0.866026 0.499999 0
outer loop
vertex 0.00159529 -0.00133861 0
vertex 0.00159529 -0.00133861 0.0833
vertex 0.00195691 -0.000712257 0
endloop
endfacet
facet normal -0.642785 -0 -0.766046
outer loop
vertex 0.00104125 -4.00457e-19 0.00180349
vertex 0.00104125 0.0833 0.00180349
vertex 0.00159529 -2.9723e-19 0.00133861
endloop
endfacet
facet normal 0.847545 0.120596 0.51684
outer loop
vertex 0 0.09996 2.21956e-17
vertex 6.9534e-11 0.07497 0.005831
vertex 0.00147255 0.0833 0.00147255
endloop
endfacet
facet normal -0.642785 0 0.766046
outer loop
vertex 0.00159529 2.9723e-19 -0.00133861
vertex 0.00159529 0.0833 -0.00133861
vertex 0.00104125 4.00457e-19 -0.00180349
endloop
endfacet
facet normal 0.342024 0 0.939691
outer loop
vertex -0.000361622 4.55383e-19 -0.00205086
vertex -0.000361622 0.0833 -0.00205086
vertex -0.00104125 4.00457e-19 -0.00180349
endloop
endfacet
facet normal 0.120596 0.847545 0.51684
outer loop
vertex 0.09996 0 2.21956e-17
vertex 0.0833 0.00147255 0.00147255
vertex 0.07497 -5.09762e-10 0.005831
endloop
endfacet
facet normal 0.984807 0 -0.17365
outer loop
vertex -0.0020825 0.0833 1.82058e-10
vertex -0.00195691 0.0833 0.000712257
vertex -0.00195691 -1.58153e-19 0.000712257
endloop
endfacet
facet normal -0.51684 -0.847546 0.120596
outer loop
vertex 0 0 0.09996
vertex -0.005831 -5.09762e-10 0.07497
vertex -0.00147255 -0.00147255 0.0833
endloop
endfacet
facet normal 0.642785 0 0.766046
outer loop
vertex -0.00104125 0.0833 -0.00180349
vertex -0.00159529 0.0833 -0.00133861
vertex -0.00159529 2.9723e-19 -0.00133861
endloop
endfacet
facet normal 0 0.939691 0.342024
outer loop
vertex 8.02963e-20 -0.00205086 -0.000361622
vertex 0.0833 -0.00205086 -0.000361622
vertex 2.31204e-19 -0.00180349 -0.00104125
endloop
endfacet
facet normal 0 0.766046 0.642785
outer loop
vertex 2.31204e-19 -0.00180349 -0.00104125
vertex 0.0833 -0.00180349 -0.00104125
vertex 3.54225e-19 -0.00133861 -0.00159529
endloop
endfacet
facet normal 0 0.17365 -0.984807
outer loop
vertex 0.0833 -1.82058e-10 0.0020825
vertex 0.0833 -0.000712257 0.00195691
vertex -4.34521e-19 -0.000712257 0.00195691
endloop
endfacet
facet normal 0.342024 -0.939691 0
outer loop
vertex -0.000361622 0.00205086 0
vertex -0.000361622 0.00205086 0.0833
vertex -0.00104125 0.00180349 0
endloop
endfacet
facet normal 0.120596 0.847545 -0.51684
outer loop
vertex 0.09996 0 2.21956e-17
vertex 0.07497 0 -0.005831
vertex 0.0833 0.00147255 -0.00147255
endloop
endfacet
facet normal 0 -0.499999 -0.866026
outer loop
vertex 0.0833 0.00133861 0.00159529
vertex 0.0833 0.000712257 0.00195691
vertex -4.34521e-19 0.000712257 0.00195691
endloop
endfacet
facet normal -0.342024 0.939691 0
outer loop
vertex 0.000361622 -0.00205086 0
vertex 0.000361622 -0.00205086 0.0833
vertex 0.00104125 -0.00180349 0
endloop
endfacet
facet normal -0.866026 0.499999 0
outer loop
vertex 0.00159529 -0.00133861 0.0833
vertex 0.00195691 -0.000712257 0.0833
vertex 0.00195691 -0.000712257 0
endloop
endfacet
facet normal 0 -0.939691 -0.342024
outer loop
vertex 0.0833 0.00205086 0.000361622
vertex 0.0833 0.00180349 0.00104125
vertex -2.31204e-19 0.00180349 0.00104125
endloop
endfacet
facet normal -0.342025 -0.939691 0
outer loop
vertex 0.00104125 0.00180349 0.0833
vertex 0.000361623 0.00205086 0.0833
vertex 0.000361623 0.00205086 0
endloop
endfacet
facet normal -0.342025 0 0.939691
outer loop
vertex 0.00104125 0.0833 -0.00180349
vertex 0.000361623 0.0833 -0.00205086
vertex 0.000361623 4.55383e-19 -0.00205086
endloop
endfacet
facet normal 0 0 -1
outer loop
vertex -0.000361622 -4.55383e-19 0.00205086
vertex -0.000361622 0.0833 0.00205086
vertex 0.000361622 -4.55383e-19 0.00205086
endloop
endfacet
facet normal -0.984807 0 0.17365
outer loop
vertex 0.0020825 0.0833 1.84963e-17
vertex 0.00195691 0.0833 -0.000712257
vertex 0.00195691 1.58153e-19 -0.000712257
endloop
endfacet
facet normal 0 1 0
outer loop
vertex -0.000361622 -0.00205086 0
vertex -0.000361622 -0.00205086 0.0833
vertex 0.000361622 -0.00205086 0
endloop
endfacet
facet normal -0.642785 -0.766046 0
outer loop
vertex 0.00159529 0.00133861 0.0833
vertex 0.00104125 0.00180349 0.0833
vertex 0.00104125 0.00180349 0
endloop
endfacet
facet normal 0.866026 0.499999 0
outer loop
vertex -0.00195691 -0.000712257 0.0833
vertex -0.00159529 -0.00133861 0.0833
vertex -0.00159529 -0.00133861 0
endloop
endfacet
facet normal 0.342024 0 -0.939691
outer loop
vertex -0.00104125 -4.00457e-19 0.00180349
vertex -0.00104125 0.0833 0.00180349
vertex -0.000361622 -4.55383e-19 0.00205086
endloop
endfacet
facet normal -0.642785 0.766046 0
outer loop
vertex 0.00104125 -0.00180349 0.0833
vertex 0.00159529 -0.00133861 0.0833
vertex 0.00159529 -0.00133861 0
endloop
endfacet
facet normal 0 1 0
outer loop
vertex 0.0833 -0.00205086 0.000361622
vertex 0.0833 -0.00205086 -0.000361622
vertex 8.02963e-20 -0.00205086 -0.000361622
endloop
endfacet
facet normal -0.984807 -0.17365 0
outer loop
vertex 0.0020825 0 0
vertex 0.0020825 0 0.0833
vertex 0.00195691 0.000712257 0
endloop
endfacet
facet normal 0.984807 0.17365 0
outer loop
vertex -0.0020825 -1.82058e-10 0
vertex -0.0020825 -1.82058e-10 0.0833
vertex -0.00195691 -0.000712257 0
endloop
endfacet
facet normal 0 0.766046 -0.642785
outer loop
vertex 0.0833 -0.00133861 0.00159529
vertex 0.0833 -0.00180349 0.00104125
vertex -2.31204e-19 -0.00180349 0.00104125
endloop
endfacet
facet normal 0.51684 0.120596 -0.847545
outer loop
vertex 0 0.09996 2.21956e-17
vertex 0.005831 0.07497 1.66467e-17
vertex 0.00147255 0.0833 -0.00147255
endloop
endfacet
facet normal 0 -0.939691 0.342025
outer loop
vertex 0.0833 0.00180349 -0.00104125
vertex 0.0833 0.00205086 -0.000361623
vertex 8.02963e-20 0.00205086 -0.000361623
endloop
endfacet
facet normal 0 0 1
outer loop
vertex 0.000361623 0.0833 -0.00205086
vertex -0.000361622 0.0833 -0.00205086
vertex -0.000361622 4.55383e-19 -0.00205086
endloop
endfacet
facet normal 0 0.499999 0.866026
outer loop
vertex 3.54225e-19 -0.00133861 -0.00159529
vertex 0.0833 -0.00133861 -0.00159529
vertex 4.34521e-19 -0.000712257 -0.00195691
endloop
endfacet
facet normal 0.984807 0 0.17365
outer loop
vertex -0.00195691 1.58153e-19 -0.000712257
vertex -0.00195691 0.0833 -0.000712257
vertex -0.0020825 -4.0425e-26 1.82058e-10
endloop
endfacet
facet normal 0 -0.499999 0.866026
outer loop
vertex 0.0833 0.000712257 -0.00195691
vertex 0.0833 0.00133861 -0.00159529
vertex 3.54225e-19 0.00133861 -0.00159529
endloop
endfacet
facet normal -0.866026 -0 -0.499999
outer loop
vertex 0.00159529 -2.9723e-19 0.00133861
vertex 0.00159529 0.0833 0.00133861
vertex 0.00195691 -1.58153e-19 0.000712257
endloop
endfacet
facet normal 0 -0.766046 -0.642785
outer loop
vertex 0.0833 0.00180349 0.00104125
vertex 0.0833 0.00133861 0.00159529
vertex -3.54225e-19 0.00133861 0.00159529
endloop
endfacet
facet normal 0 0.17365 -0.984807
outer loop
vertex -4.62408e-19 -1.82058e-10 0.0020825
vertex 0.0833 -1.82058e-10 0.0020825
vertex -4.34521e-19 -0.000712257 0.00195691
endloop
endfacet
facet normal 0 0.17365 0.984807
outer loop
vertex 4.34521e-19 -0.000712257 -0.00195691
vertex 0.0833 -0.000712257 -0.00195691
vertex 4.62408e-19 3.64116e-10 -0.0020825
endloop
endfacet
facet normal -0.984807 0.17365 0
outer loop
vertex 0.00195691 -0.000712257 0.0833
vertex 0.0020825 3.64116e-10 0.0833
vertex 0.0020825 3.64116e-10 0
endloop
endfacet
facet normal 0 -1 0
outer loop
vertex 8.02963e-20 0.00205086 -0.000361623
vertex 0.0833 0.00205086 -0.000361623
vertex -8.02963e-20 0.00205086 0.000361622
endloop
endfacet
facet normal -0.984807 0 -0.17365
outer loop
vertex 0.00195691 0.0833 0.000712257
vertex 0.0020825 0.0833 -3.64116e-10
vertex 0.0020825 8.085e-26 -3.64116e-10
endloop
endfacet
facet normal 0.866026 -0.499999 0
outer loop
vertex -0.00159529 0.00133861 0.0833
vertex -0.00195691 0.000712257 0.0833
vertex -0.00195691 0.000712257 0
endloop
endfacet
facet normal -0.342025 0 0.939691
outer loop
vertex 0.00104125 4.00457e-19 -0.00180349
vertex 0.00104125 0.0833 -0.00180349
vertex 0.000361623 4.55383e-19 -0.00205086
endloop
endfacet
facet normal 0 1 0
outer loop
vertex -8.02963e-20 -0.00205086 0.000361622
vertex 0.0833 -0.00205086 0.000361622
vertex 8.02963e-20 -0.00205086 -0.000361622
endloop
endfacet
facet normal -0 -0.766046 -0.642785
outer loop
vertex -2.31204e-19 0.00180349 0.00104125
vertex 0.0833 0.00180349 0.00104125
vertex -3.54225e-19 0.00133861 0.00159529
endloop
endfacet
facet normal -0.866026 -0.499999 0
outer loop
vertex 0.00195691 0.000712257 0.0833
vertex 0.00159529 0.00133861 0.0833
vertex 0.00159529 0.00133861 0
endloop
endfacet
facet normal -0.866026 0 0.499999
outer loop
vertex 0.00195691 0.0833 -0.000712257
vertex 0.00159529 0.0833 -0.00133861
vertex 0.00159529 2.9723e-19 -0.00133861
endloop
endfacet
facet normal -0.866026 0 -0.499999
outer loop
vertex 0.00159529 0.0833 0.00133861
vertex 0.00195691 0.0833 0.000712257
vertex 0.00195691 -1.58153e-19 0.000712257
endloop
endfacet
facet normal 0.342024 0 -0.939691
outer loop
vertex -0.00104125 0.0833 0.00180349
vertex -0.000361622 0.0833 0.00205086
vertex -0.000361622 -4.55383e-19 0.00205086
endloop
endfacet
facet normal -0.642785 0 0.766046
outer loop
vertex 0.00159529 0.0833 -0.00133861
vertex 0.00104125 0.0833 -0.00180349
vertex 0.00104125 4.00457e-19 -0.00180349
endloop
endfacet
facet normal -0.847545 0.51684 0.120596
outer loop
vertex 0 0 0.09996
vertex -2.54881e-10 0.005831 0.07497
vertex -0.00147255 0.00147255 0.0833
endloop
endfacet
facet normal -0.866026 0 0.499999
outer loop
vertex 0.00195691 1.58153e-19 -0.000712257
vertex 0.00195691 0.0833 -0.000712257
vertex 0.00159529 2.9723e-19 -0.00133861
endloop
endfacet
facet normal 0 -0.939691 0.342025
outer loop
vertex 2.31204e-19 0.00180349 -0.00104125
vertex 0.0833 0.00180349 -0.00104125
vertex 8.02963e-20 0.00205086 -0.000361623
endloop
endfacet
facet normal 0.866026 0 -0.499999
outer loop
vertex -0.00195691 0.0833 0.000712257
vertex -0.00159529 0.0833 0.00133861
vertex -0.00159529 -2.9723e-19 0.00133861
endloop
endfacet
facet normal 0.642785 0 -0.766046
outer loop
vertex -0.00159529 0.0833 0.00133861
vertex -0.00104125 0.0833 0.00180349
vertex -0.00104125 -4.00457e-19 0.00180349
endloop
endfacet
facet normal 0.984807 0 0.17365
outer loop
vertex -0.00195691 0.0833 -0.000712257
vertex -0.0020825 0.0833 1.82058e-10
vertex -0.0020825 -4.0425e-26 1.82058e-10
endloop
endfacet
facet normal 0 0.17365 0.984807
outer loop
vertex 0.0833 -0.000712257 -0.00195691
vertex 0.0833 3.64116e-10 -0.0020825
vertex 4.62408e-19 3.64116e-10 -0.0020825
endloop
endfacet
facet normal 0.847545 0.51684 0.120596
outer loop
vertex 0 0 0.09996
vertex 0.00147255 0.00147255 0.0833
vertex -2.54881e-10 0.005831 0.07497
endloop
endfacet
facet normal 0.984807 -0.17365 0
outer loop
vertex -0.00195691 0.000712257 0
vertex -0.00195691 0.000712257 0.0833
vertex -0.0020825 -1.82058e-10 0
endloop
endfacet
facet normal 0 -0.766046 0.642785
outer loop
vertex 0.0833 0.00133861 -0.00159529
vertex 0.0833 0.00180349 -0.00104125
vertex 2.31204e-19 0.00180349 -0.00104125
endloop
endfacet
facet normal 0.984807 0 -0.17365
outer loop
vertex -0.0020825 -4.0425e-26 1.82058e-10
vertex -0.0020825 0.0833 1.82058e-10
vertex -0.00195691 -1.58153e-19 0.000712257
endloop
endfacet
facet normal -0.51684 0.120596 0.847546
outer loop
vertex 0 0.09996 2.21956e-17
vertex -0.005831 0.07497 5.09762e-10
vertex -0.00147255 0.0833 0.00147255
endloop
endfacet
facet normal -0 -1 0
outer loop
vertex 0.000361623 0.00205086 0.0833
vertex -0.000361622 0.00205086 0.0833
vertex -0.000361622 0.00205086 0
endloop
endfacet
facet normal -0 -0.499999 -0.866026
outer loop
vertex -3.54225e-19 0.00133861 0.00159529
vertex 0.0833 0.00133861 0.00159529
vertex -4.34521e-19 0.000712257 0.00195691
endloop
endfacet
facet normal 0.866026 0 0.499999
outer loop
vertex -0.00159529 2.9723e-19 -0.00133861
vertex -0.00159529 0.0833 -0.00133861
vertex -0.00195691 1.58153e-19 -0.000712257
endloop
endfacet
facet normal -0.847545 -0.51684 0.120596
outer loop
vertex 0 0 0.09996
vertex -0.00147255 -0.00147255 0.0833
vertex 6.9534e-11 -0.005831 0.07497
endloop
endfacet
facet normal -0 -0.17365 -0.984807
outer loop
vertex -4.34521e-19 0.000712257 0.00195691
vertex 0.0833 0.000712257 0.00195691
vertex -4.62408e-19 -1.82058e-10 0.0020825
endloop
endfacet
facet normal 0.642785 0 0.766046
outer loop
vertex -0.00104125 4.00457e-19 -0.00180349
vertex -0.00104125 0.0833 -0.00180349
vertex -0.00159529 2.9723e-19 -0.00133861
endloop
endfacet
facet normal 0.642785 -0.766046 0
outer loop
vertex -0.00104125 0.00180349 0.0833
vertex -0.00159529 0.00133861 0.0833
vertex -0.00159529 0.00133861 0
endloop
endfacet
facet normal 0.342024 0.939691 0
outer loop
vertex -0.00104125 -0.00180349 0.0833
vertex -0.000361622 -0.00205086 0.0833
vertex -0.000361622 -0.00205086 0
endloop
endfacet
facet normal 0 -0.766046 0.642785
outer loop
vertex 3.54225e-19 0.00133861 -0.00159529
vertex 0.0833 0.00133861 -0.00159529
vertex 2.31204e-19 0.00180349 -0.00104125
endloop
endfacet
facet normal -0.984807 -0.17365 0
outer loop
vertex 0.0020825 0 0.0833
vertex 0.00195691 0.000712257 0.0833
vertex 0.00195691 0.000712257 0
endloop
endfacet
facet normal -0.642785 0 -0.766046
outer loop
vertex 0.00104125 0.0833 0.00180349
vertex 0.00159529 0.0833 0.00133861
vertex 0.00159529 -2.9723e-19 0.00133861
endloop
endfacet
facet normal -0.642785 -0.766046 -0
outer loop
vertex 0.00159529 0.00133861 0
vertex 0.00159529 0.00133861 0.0833
vertex 0.00104125 0.00180349 0
endloop
endfacet
facet normal 0 0.499999 -0.866026
outer loop
vertex -4.34521e-19 -0.000712257 0.00195691
vertex 0.0833 -0.000712257 0.00195691
vertex -3.54225e-19 -0.00133861 0.00159529
endloop
endfacet
facet normal 0.120596 0.51684 -0.847545
outer loop
vertex 0.09996 0 2.21956e-17
vertex 0.0833 0.00147255 -0.00147255
vertex 0.07497 0.005831 2.54881e-10
endloop
endfacet
facet normal 0.120596 -0.51684 -0.847545
outer loop
vertex 0.09996 0 2.21956e-17
vertex 0.07497 -0.005831 -6.95339e-11
vertex 0.0833 -0.00147255 -0.00147255
endloop
endfacet
facet normal -0 1 0
outer loop
vertex -0.000361622 -0.00205086 0.0833
vertex 0.000361622 -0.00205086 0.0833
vertex 0.000361622 -0.00205086 0
endloop
endfacet
facet normal 0.342024 -0.939691 0
outer loop
vertex -0.000361622 0.00205086 0.0833
vertex -0.00104125 0.00180349 0.0833
vertex -0.00104125 0.00180349 0
endloop
endfacet
facet normal 0.984807 0.17365 0
outer loop
vertex -0.0020825 -1.82058e-10 0.0833
vertex -0.00195691 -0.000712257 0.0833
vertex -0.00195691 -0.000712257 0
endloop
endfacet
facet normal 0 0.766046 -0.642785
outer loop
vertex -3.54225e-19 -0.00133861 0.00159529
vertex 0.0833 -0.00133861 0.00159529
vertex -2.31204e-19 -0.00180349 0.00104125
endloop
endfacet
facet normal 0.120596 -0.51684 0.847545
outer loop
vertex 0.09996 0 2.21956e-17
vertex 0.0833 -0.00147255 0.00147255
vertex 0.07497 -0.005831 -6.95339e-11
endloop
endfacet
facet normal 0.120596 0.51684 0.847545
outer loop
vertex 0.09996 0 2.21956e-17
vertex 0.07497 0.005831 2.54881e-10
vertex 0.0833 0.00147255 0.00147255
endloop
endfacet
facet normal 0 0.939691 -0.342024
outer loop
vertex -2.31204e-19 -0.00180349 0.00104125
vertex 0.0833 -0.00180349 0.00104125
vertex -8.02963e-20 -0.00205086 0.000361622
endloop
endfacet
facet normal 0 -1 0
outer loop
vertex 0.0833 0.00205086 -0.000361623
vertex 0.0833 0.00205086 0.000361622
vertex -8.02963e-20 0.00205086 0.000361622
endloop
endfacet
facet normal 0 0 1
outer loop
vertex 0.000361623 4.55383e-19 -0.00205086
vertex 0.000361623 0.0833 -0.00205086
vertex -0.000361622 4.55383e-19 -0.00205086
endloop
endfacet
facet normal 0 0.766046 0.642785
outer loop
vertex 0.0833 -0.00180349 -0.00104125
vertex 0.0833 -0.00133861 -0.00159529
vertex 3.54225e-19 -0.00133861 -0.00159529
endloop
endfacet
facet normal 0.120596 -0.847546 0.51684
outer loop
vertex 0.09996 0 2.21956e-17
vertex 0.07497 -5.09762e-10 0.005831
vertex 0.0833 -0.00147255 0.00147255
endloop
endfacet
facet normal 0 0 -1
outer loop
vertex -0.000361622 0.0833 0.00205086
vertex 0.000361622 0.0833 0.00205086
vertex 0.000361622 -4.55383e-19 0.00205086
endloop
endfacet
facet normal 0.984807 -0.17365 0
outer loop
vertex -0.00195691 0.000712257 0.0833
vertex -0.0020825 -1.82058e-10 0.0833
vertex -0.0020825 -1.82058e-10 0
endloop
endfacet
facet normal -0.984807 -0 -0.17365
outer loop
vertex 0.00195691 -1.58153e-19 0.000712257
vertex 0.00195691 0.0833 0.000712257
vertex 0.0020825 8.085e-26 -3.64116e-10
endloop
endfacet
facet normal -0.342024 -0 -0.939691
outer loop
vertex 0.000361622 -4.55383e-19 0.00205086
vertex 0.000361622 0.0833 0.00205086
vertex 0.00104125 -4.00457e-19 0.00180349
endloop
endfacet
facet normal -0.51684 0.120596 -0.847545
outer loop
vertex 0 0.09996 2.21956e-17
vertex -0.00147255 0.0833 -0.00147255
vertex -0.005831 0.07497 5.09762e-10
endloop
endfacet
facet normal 0.342024 0 0.939691
outer loop
vertex -0.000361622 0.0833 -0.00205086
vertex -0.00104125 0.0833 -0.00180349
vertex -0.00104125 4.00457e-19 -0.00180349
endloop
endfacet
facet normal 0.51684 0.120596 0.847545
outer loop
vertex 0 0.09996 2.21956e-17
vertex 0.00147255 0.0833 0.00147255
vertex 0.005831 0.07497 -1.01953e-09
endloop
endfacet
facet normal 0 -0.17365 0.984807
outer loop
vertex 4.62408e-19 0 -0.0020825
vertex 0.0833 0 -0.0020825
vertex 4.34521e-19 0.000712257 -0.00195691
endloop
endfacet
facet normal 0.342024 0.939691 0
outer loop
vertex -0.00104125 -0.00180349 0
vertex -0.00104125 -0.00180349 0.0833
vertex -0.000361622 -0.00205086 0
endloop
endfacet
facet normal 0 0.939691 0.342024
outer loop
vertex 0.0833 -0.00205086 -0.000361622
vertex 0.0833 -0.00180349 -0.00104125
vertex 2.31204e-19 -0.00180349 -0.00104125
endloop
endfacet
facet normal 0 -0.17365 -0.984807
outer loop
vertex 0.0833 0.000712257 0.00195691
vertex 0.0833 -1.82058e-10 0.0020825
vertex -4.62408e-19 -1.82058e-10 0.0020825
endloop
endfacet
facet normal 0.847545 0.120596 -0.51684
outer loop
vertex 0 0.09996 2.21956e-17
vertex 0.00147255 0.0833 -0.00147255
vertex -2.54881e-10 0.07497 -0.005831
endloop
endfacet
facet normal 0.120596 -0.847545 -0.51684
outer loop
vertex 0.09996 0 2.21956e-17
vertex 0.0833 -0.00147255 -0.00147255
vertex 0.07497 1.01953e-09 -0.005831
endloop
endfacet
facet normal -0.342024 0 -0.939691
outer loop
vertex 0.000361622 0.0833 0.00205086
vertex 0.00104125 0.0833 0.00180349
vertex 0.00104125 -4.00457e-19 0.00180349
endloop
endfacet
facet normal 0.51684 -0.847545 0.120596
outer loop
vertex 0 0 0.09996
vertex 0.00147255 -0.00147255 0.0833
vertex 0.005831 1.01953e-09 0.07497
endloop
endfacet
facet normal -0.866026 -0.499999 -0
outer loop
vertex 0.00195691 0.000712257 0
vertex 0.00195691 0.000712257 0.0833
vertex 0.00159529 0.00133861 0
endloop
endfacet
facet normal 0.866026 0.499999 0
outer loop
vertex -0.00195691 -0.000712257 0
vertex -0.00195691 -0.000712257 0.0833
vertex -0.00159529 -0.00133861 0
endloop
endfacet
facet normal 0.642785 0.766046 0
outer loop
vertex -0.00159529 -0.00133861 0.0833
vertex -0.00104125 -0.00180349 0.0833
vertex -0.00104125 -0.00180349 0
endloop
endfacet
facet normal 0 0.499999 0.866026
outer loop
vertex 0.0833 -0.00133861 -0.00159529
vertex 0.0833 -0.000712257 -0.00195691
vertex 4.34521e-19 -0.000712257 -0.00195691
endloop
endfacet
facet normal 0 0.499999 -0.866026
outer loop
vertex 0.0833 -0.000712257 0.00195691
vertex 0.0833 -0.00133861 0.00159529
vertex -3.54225e-19 -0.00133861 0.00159529
endloop
endfacet
facet normal 0.642785 -0.766046 0
outer loop
vertex -0.00104125 0.00180349 0
vertex -0.00104125 0.00180349 0.0833
vertex -0.00159529 0.00133861 0
endloop
endfacet
facet normal -0.342025 -0.939691 -0
outer loop
vertex 0.00104125 0.00180349 0
vertex 0.00104125 0.00180349 0.0833
vertex 0.000361623 0.00205086 0
endloop
endfacet
endsolid
