solid barra_y
   facet normal 9.951847e-01 -6.629262e-17 -9.801714e-02
      outer loop
         vertex 2.500000e-01 5.000000e+00 0.000000e+00
         vertex 2.500000e-01 -1.530758e-17 0.000000e+00
         vertex 2.451963e-01 4.336809e-19 -4.877258e-02
      endloop
   endfacet
   facet normal 9.951847e-01 -6.629262e-17 -9.801714e-02
      outer loop
         vertex 2.500000e-01 5.000000e+00 0.000000e+00
         vertex 2.451963e-01 4.336809e-19 -4.877258e-02
         vertex 2.451963e-01 5.000000e+00 -4.877258e-02
      endloop
   endfacet
   facet normal 9.569403e-01 -6.414788e-17 -2.902847e-01
      outer loop
         vertex 2.451963e-01 5.000000e+00 -4.877258e-02
         vertex 2.451963e-01 4.336809e-19 -4.877258e-02
         vertex 2.309699e-01 8.673617e-19 -9.567086e-02
      endloop
   endfacet
   facet normal 9.569403e-01 -6.414788e-17 -2.902847e-01
      outer loop
         vertex 2.451963e-01 5.000000e+00 -4.877258e-02
         vertex 2.309699e-01 8.673617e-19 -9.567086e-02
         vertex 2.309699e-01 5.000000e+00 -9.567086e-02
      endloop
   endfacet
   facet normal 8.819213e-01 -6.005615e-17 -4.713967e-01
      outer loop
         vertex 2.309699e-01 5.000000e+00 -9.567086e-02
         vertex 2.309699e-01 8.673617e-19 -9.567086e-02
         vertex 2.078674e-01 1.734723e-18 -1.388926e-01
      endloop
   endfacet
   facet normal 8.819213e-01 -6.005615e-17 -4.713967e-01
      outer loop
         vertex 2.309699e-01 5.000000e+00 -9.567086e-02
         vertex 2.078674e-01 1.734723e-18 -1.388926e-01
         vertex 2.078674e-01 5.000000e+00 -1.388926e-01
      endloop
   endfacet
   facet normal 7.730105e-01 -5.149284e-17 -6.343933e-01
      outer loop
         vertex 2.078674e-01 5.000000e+00 -1.388926e-01
         vertex 2.078674e-01 1.734723e-18 -1.388926e-01
         vertex 1.767767e-01 2.168404e-18 -1.767767e-01
      endloop
   endfacet
   facet normal 7.730105e-01 -5.149284e-17 -6.343933e-01
      outer loop
         vertex 2.078674e-01 5.000000e+00 -1.388926e-01
         vertex 1.767767e-01 2.168404e-18 -1.767767e-01
         vertex 1.767767e-01 5.000000e+00 -1.767767e-01
      endloop
   endfacet
   facet normal 6.343933e-01 -4.225908e-17 -7.730105e-01
      outer loop
         vertex 1.767767e-01 5.000000e+00 -1.767767e-01
         vertex 1.767767e-01 2.168404e-18 -1.767767e-01
         vertex 1.388926e-01 2.168404e-18 -2.078674e-01
      endloop
   endfacet
   facet normal 6.343933e-01 -4.225908e-17 -7.730105e-01
      outer loop
         vertex 1.767767e-01 5.000000e+00 -1.767767e-01
         vertex 1.388926e-01 2.168404e-18 -2.078674e-01
         vertex 1.388926e-01 5.000000e+00 -2.078674e-01
      endloop
   endfacet
   facet normal 4.713967e-01 -3.140133e-17 -8.819213e-01
      outer loop
         vertex 1.388926e-01 5.000000e+00 -2.078674e-01
         vertex 1.388926e-01 2.168404e-18 -2.078674e-01
         vertex 9.567086e-02 2.602085e-18 -2.309699e-01
      endloop
   endfacet
   facet normal 4.713967e-01 -3.140133e-17 -8.819213e-01
      outer loop
         vertex 1.388926e-01 5.000000e+00 -2.078674e-01
         vertex 9.567086e-02 2.602085e-18 -2.309699e-01
         vertex 9.567086e-02 5.000000e+00 -2.309699e-01
      endloop
   endfacet
   facet normal 2.902847e-01 -1.933684e-17 -9.569403e-01
      outer loop
         vertex 9.567086e-02 5.000000e+00 -2.309699e-01
         vertex 9.567086e-02 2.602085e-18 -2.309699e-01
         vertex 4.877258e-02 2.602085e-18 -2.451963e-01
      endloop
   endfacet
   facet normal 2.902847e-01 -1.933684e-17 -9.569403e-01
      outer loop
         vertex 9.567086e-02 5.000000e+00 -2.309699e-01
         vertex 4.877258e-02 2.602085e-18 -2.451963e-01
         vertex 4.877258e-02 5.000000e+00 -2.451963e-01
      endloop
   endfacet
   facet normal 9.801714e-02 -6.393227e-18 -9.951847e-01
      outer loop
         vertex 4.877258e-02 5.000000e+00 -2.451963e-01
         vertex 4.877258e-02 2.602085e-18 -2.451963e-01
         vertex 2.356107e-17 3.035766e-18 -2.500000e-01
      endloop
   endfacet
   facet normal 9.801714e-02 -6.393227e-18 -9.951847e-01
      outer loop
         vertex 4.877258e-02 5.000000e+00 -2.451963e-01
         vertex 2.356107e-17 3.035766e-18 -2.500000e-01
         vertex 3.490860e-16 5.000000e+00 -2.500000e-01
      endloop
   endfacet
   facet normal -9.801714e-02 6.381404e-18 -9.951847e-01
      outer loop
         vertex 3.490860e-16 5.000000e+00 -2.500000e-01
         vertex 2.356107e-17 3.035766e-18 -2.500000e-01
         vertex -4.877258e-02 3.035766e-18 -2.451963e-01
      endloop
   endfacet
   facet normal -9.801714e-02 6.381404e-18 -9.951847e-01
      outer loop
         vertex 3.490860e-16 5.000000e+00 -2.500000e-01
         vertex -4.877258e-02 3.035766e-18 -2.451963e-01
         vertex -4.877258e-02 5.000000e+00 -2.451963e-01
      endloop
   endfacet
   facet normal -2.902847e-01 1.893399e-17 -9.569403e-01
      outer loop
         vertex -4.877258e-02 5.000000e+00 -2.451963e-01
         vertex -4.877258e-02 3.035766e-18 -2.451963e-01
         vertex -9.567086e-02 3.035766e-18 -2.309699e-01
      endloop
   endfacet
   facet normal -2.902847e-01 1.893399e-17 -9.569403e-01
      outer loop
         vertex -4.877258e-02 5.000000e+00 -2.451963e-01
         vertex -9.567086e-02 3.035766e-18 -2.309699e-01
         vertex -9.567086e-02 5.000000e+00 -2.309699e-01
      endloop
   endfacet
   facet normal -4.713967e-01 3.140133e-17 -8.819213e-01
      outer loop
         vertex -9.567086e-02 5.000000e+00 -2.309699e-01
         vertex -9.567086e-02 3.035766e-18 -2.309699e-01
         vertex -1.388926e-01 2.602085e-18 -2.078674e-01
      endloop
   endfacet
   facet normal -4.713967e-01 3.140133e-17 -8.819213e-01
      outer loop
         vertex -9.567086e-02 5.000000e+00 -2.309699e-01
         vertex -1.388926e-01 2.602085e-18 -2.078674e-01
         vertex -1.388926e-01 5.000000e+00 -2.078674e-01
      endloop
   endfacet
   facet normal -6.343933e-01 3.873749e-17 -7.730105e-01
      outer loop
         vertex -1.388926e-01 5.000000e+00 -2.078674e-01
         vertex -1.388926e-01 2.602085e-18 -2.078674e-01
         vertex -1.767767e-01 2.602085e-18 -1.767767e-01
      endloop
   endfacet
   facet normal -6.343933e-01 3.873749e-17 -7.730105e-01
      outer loop
         vertex -1.388926e-01 5.000000e+00 -2.078674e-01
         vertex -1.767767e-01 2.602085e-18 -1.767767e-01
         vertex -1.767767e-01 5.000000e+00 -1.767767e-01
      endloop
   endfacet
   facet normal -7.730105e-01 5.149284e-17 -6.343933e-01
      outer loop
         vertex -1.767767e-01 5.000000e+00 -1.767767e-01
         vertex -1.767767e-01 2.602085e-18 -1.767767e-01
         vertex -2.078674e-01 2.168404e-18 -1.388926e-01
      endloop
   endfacet
   facet normal -7.730105e-01 5.149284e-17 -6.343933e-01
      outer loop
         vertex -1.767767e-01 5.000000e+00 -1.767767e-01
         vertex -2.078674e-01 2.168404e-18 -1.388926e-01
         vertex -2.078674e-01 5.000000e+00 -1.388926e-01
      endloop
   endfacet
   facet normal -8.819213e-01 5.385211e-17 -4.713967e-01
      outer loop
         vertex -2.078674e-01 5.000000e+00 -1.388926e-01
         vertex -2.078674e-01 2.168404e-18 -1.388926e-01
         vertex -2.309699e-01 1.301043e-18 -9.567086e-02
      endloop
   endfacet
   facet normal -8.819213e-01 5.385211e-17 -4.713967e-01
      outer loop
         vertex -2.078674e-01 5.000000e+00 -1.388926e-01
         vertex -2.309699e-01 1.301043e-18 -9.567086e-02
         vertex -2.309699e-01 5.000000e+00 -9.567086e-02
      endloop
   endfacet
   facet normal -9.569403e-01 6.374503e-17 -2.902847e-01
      outer loop
         vertex -2.309699e-01 5.000000e+00 -9.567086e-02
         vertex -2.309699e-01 1.301043e-18 -9.567086e-02
         vertex -2.451963e-01 8.673617e-19 -4.877258e-02
      endloop
   endfacet
   facet normal -9.569403e-01 6.374503e-17 -2.902847e-01
      outer loop
         vertex -2.309699e-01 5.000000e+00 -9.567086e-02
         vertex -2.451963e-01 8.673617e-19 -4.877258e-02
         vertex -2.451963e-01 5.000000e+00 -4.877258e-02
      endloop
   endfacet
   facet normal -9.951847e-01 6.629262e-17 -9.801714e-02
      outer loop
         vertex -2.451963e-01 5.000000e+00 -4.877258e-02
         vertex -2.451963e-01 8.673617e-19 -4.877258e-02
         vertex -2.500000e-01 0.000000e+00 -4.343924e-17
      endloop
   endfacet
   facet normal -9.951847e-01 6.629262e-17 -9.801714e-02
      outer loop
         vertex -2.451963e-01 5.000000e+00 -4.877258e-02
         vertex -2.500000e-01 0.000000e+00 -4.343924e-17
         vertex -2.500000e-01 5.000000e+00 -4.673589e-17
      endloop
   endfacet
   facet normal 6.123032e-17 -1.000000e+00 0.000000e+00
      outer loop
         vertex 2.451963e-01 1.799981e-17 4.877258e-02
         vertex 2.309699e-01 2.000032e-17 9.567086e-02
         vertex 2.078674e-01 2.123222e-17 1.388926e-01
      endloop
   endfacet
   facet normal 6.123032e-17 -1.000000e+00 0.000000e+00
      outer loop
         vertex 2.451963e-01 1.799981e-17 4.877258e-02
         vertex 2.078674e-01 2.123222e-17 1.388926e-01
         vertex 1.767767e-01 2.164819e-17 1.767767e-01
      endloop
   endfacet
   facet normal 6.123032e-17 -1.000000e+00 0.000000e+00
      outer loop
         vertex 2.451963e-01 1.799981e-17 4.877258e-02
         vertex 1.767767e-01 2.164819e-17 1.767767e-01
         vertex 1.388926e-01 2.123222e-17 2.078674e-01
      endloop
   endfacet
   facet normal 6.123032e-17 -1.000000e+00 0.000000e+00
      outer loop
         vertex 2.451963e-01 1.799981e-17 4.877258e-02
         vertex 1.388926e-01 2.123222e-17 2.078674e-01
         vertex 9.567086e-02 2.000032e-17 2.309699e-01
      endloop
   endfacet
   facet normal 6.123032e-17 -1.000000e+00 0.000000e+00
      outer loop
         vertex 2.451963e-01 1.799981e-17 4.877258e-02
         vertex 9.567086e-02 2.000032e-17 2.309699e-01
         vertex 4.877258e-02 1.799981e-17 2.451963e-01
      endloop
   endfacet
   facet normal 6.123032e-17 -1.000000e+00 0.000000e+00
      outer loop
         vertex 2.451963e-01 1.799981e-17 4.877258e-02
         vertex 4.877258e-02 1.799981e-17 2.451963e-01
         vertex -1.205972e-16 1.530758e-17 2.500000e-01
      endloop
   endfacet
   facet normal 6.123032e-17 -1.000000e+00 0.000000e+00
      outer loop
         vertex 2.451963e-01 1.799981e-17 4.877258e-02
         vertex -1.205972e-16 1.530758e-17 2.500000e-01
         vertex -4.877258e-02 1.202709e-17 2.451963e-01
      endloop
   endfacet
   facet normal 6.123032e-17 -1.000000e+00 0.000000e+00
      outer loop
         vertex 2.451963e-01 1.799981e-17 4.877258e-02
         vertex -4.877258e-02 1.202709e-17 2.451963e-01
         vertex -9.567086e-02 8.284402e-18 2.309699e-01
      endloop
   endfacet
   facet normal 6.123032e-17 -1.000000e+00 0.000000e+00
      outer loop
         vertex 2.451963e-01 1.799981e-17 4.877258e-02
         vertex -9.567086e-02 8.284402e-18 2.309699e-01
         vertex -1.388926e-01 4.223352e-18 2.078674e-01
      endloop
   endfacet
   facet normal 6.123032e-17 -1.000000e+00 0.000000e+00
      outer loop
         vertex 2.451963e-01 1.799981e-17 4.877258e-02
         vertex -1.388926e-01 4.223352e-18 2.078674e-01
         vertex -1.767767e-01 -8.497414e-33 1.767767e-01
      endloop
   endfacet
   facet normal 6.123032e-17 -1.000000e+00 0.000000e+00
      outer loop
         vertex 2.451963e-01 1.799981e-17 4.877258e-02
         vertex -1.767767e-01 -8.497414e-33 1.767767e-01
         vertex -2.078674e-01 -4.223352e-18 1.388926e-01
      endloop
   endfacet
   facet normal 6.123032e-17 -1.000000e+00 0.000000e+00
      outer loop
         vertex 2.451963e-01 1.799981e-17 4.877258e-02
         vertex -2.078674e-01 -4.223352e-18 1.388926e-01
         vertex -2.309699e-01 -8.284402e-18 9.567086e-02
      endloop
   endfacet
   facet normal 6.123032e-17 -1.000000e+00 0.000000e+00
      outer loop
         vertex 2.451963e-01 1.799981e-17 4.877258e-02
         vertex -2.309699e-01 -8.284402e-18 9.567086e-02
         vertex -2.451963e-01 -1.202709e-17 4.877258e-02
      endloop
   endfacet
   facet normal 6.123032e-17 -1.000000e+00 0.000000e+00
      outer loop
         vertex 2.451963e-01 1.799981e-17 4.877258e-02
         vertex -2.451963e-01 -1.202709e-17 4.877258e-02
         vertex -2.500000e-01 -1.530758e-17 -6.509956e-17
      endloop
   endfacet
   facet normal 6.123032e-17 -1.000000e+00 0.000000e+00
      outer loop
         vertex 2.451963e-01 1.799981e-17 4.877258e-02
         vertex -2.500000e-01 -1.530758e-17 -6.509956e-17
         vertex -2.451963e-01 -1.799981e-17 -4.877258e-02
      endloop
   endfacet
   facet normal 6.123032e-17 -1.000000e+00 0.000000e+00
      outer loop
         vertex 2.451963e-01 1.799981e-17 4.877258e-02
         vertex -2.451963e-01 -1.799981e-17 -4.877258e-02
         vertex -2.309699e-01 -2.000032e-17 -9.567086e-02
      endloop
   endfacet
   facet normal 6.123032e-17 -1.000000e+00 0.000000e+00
      outer loop
         vertex 2.451963e-01 1.799981e-17 4.877258e-02
         vertex -2.309699e-01 -2.000032e-17 -9.567086e-02
         vertex -2.078674e-01 -2.123222e-17 -1.388926e-01
      endloop
   endfacet
   facet normal 6.123032e-17 -1.000000e+00 0.000000e+00
      outer loop
         vertex 2.451963e-01 1.799981e-17 4.877258e-02
         vertex -2.078674e-01 -2.123222e-17 -1.388926e-01
         vertex -1.767767e-01 -2.164819e-17 -1.767767e-01
      endloop
   endfacet
   facet normal 6.123032e-17 -1.000000e+00 0.000000e+00
      outer loop
         vertex 2.451963e-01 1.799981e-17 4.877258e-02
         vertex -1.767767e-01 -2.164819e-17 -1.767767e-01
         vertex -1.388926e-01 -2.123222e-17 -2.078674e-01
      endloop
   endfacet
   facet normal 6.123032e-17 -1.000000e+00 0.000000e+00
      outer loop
         vertex 2.451963e-01 1.799981e-17 4.877258e-02
         vertex -1.388926e-01 -2.123222e-17 -2.078674e-01
         vertex -9.567086e-02 -2.000032e-17 -2.309699e-01
      endloop
   endfacet
   facet normal 6.123032e-17 -1.000000e+00 0.000000e+00
      outer loop
         vertex 2.451963e-01 1.799981e-17 4.877258e-02
         vertex -9.567086e-02 -2.000032e-17 -2.309699e-01
         vertex -4.877258e-02 -1.799981e-17 -2.451963e-01
      endloop
   endfacet
   facet normal 6.123032e-17 -1.000000e+00 0.000000e+00
      outer loop
         vertex 2.451963e-01 1.799981e-17 4.877258e-02
         vertex -4.877258e-02 -1.799981e-17 -2.451963e-01
         vertex -7.081873e-17 -1.530758e-17 -2.500000e-01
      endloop
   endfacet
   facet normal 6.123032e-17 -1.000000e+00 0.000000e+00
      outer loop
         vertex 2.451963e-01 1.799981e-17 4.877258e-02
         vertex -7.081873e-17 -1.530758e-17 -2.500000e-01
         vertex 4.877258e-02 -1.202709e-17 -2.451963e-01
      endloop
   endfacet
   facet normal 6.123032e-17 -1.000000e+00 0.000000e+00
      outer loop
         vertex 2.451963e-01 1.799981e-17 4.877258e-02
         vertex 4.877258e-02 -1.202709e-17 -2.451963e-01
         vertex 9.567086e-02 -8.284402e-18 -2.309699e-01
      endloop
   endfacet
   facet normal 6.123032e-17 -1.000000e+00 0.000000e+00
      outer loop
         vertex 2.451963e-01 1.799981e-17 4.877258e-02
         vertex 9.567086e-02 -8.284402e-18 -2.309699e-01
         vertex 1.388926e-01 -4.223352e-18 -2.078674e-01
      endloop
   endfacet
   facet normal 6.123032e-17 -1.000000e+00 0.000000e+00
      outer loop
         vertex 2.451963e-01 1.799981e-17 4.877258e-02
         vertex 1.388926e-01 -4.223352e-18 -2.078674e-01
         vertex 1.767767e-01 -1.699483e-33 -1.767767e-01
      endloop
   endfacet
   facet normal 6.123032e-17 -1.000000e+00 0.000000e+00
      outer loop
         vertex 2.451963e-01 1.799981e-17 4.877258e-02
         vertex 1.767767e-01 -1.699483e-33 -1.767767e-01
         vertex 2.078674e-01 4.223352e-18 -1.388926e-01
      endloop
   endfacet
   facet normal 6.123032e-17 -1.000000e+00 0.000000e+00
      outer loop
         vertex 2.451963e-01 1.799981e-17 4.877258e-02
         vertex 2.078674e-01 4.223352e-18 -1.388926e-01
         vertex 2.309699e-01 8.284402e-18 -9.567086e-02
      endloop
   endfacet
   facet normal 6.123032e-17 -1.000000e+00 0.000000e+00
      outer loop
         vertex 2.451963e-01 1.799981e-17 4.877258e-02
         vertex 2.309699e-01 8.284402e-18 -9.567086e-02
         vertex 2.451963e-01 1.202709e-17 -4.877258e-02
      endloop
   endfacet
   facet normal 6.123032e-17 -1.000000e+00 0.000000e+00
      outer loop
         vertex 2.451963e-01 1.799981e-17 4.877258e-02
         vertex 2.451963e-01 1.202709e-17 -4.877258e-02
         vertex 2.500000e-01 1.530758e-17 -4.306316e-17
      endloop
   endfacet
   facet normal -9.951847e-01 6.076823e-17 9.801714e-02
      outer loop
         vertex -2.500000e-01 5.000000e+00 0.000000e+00
         vertex -2.500000e-01 1.530758e-17 0.000000e+00
         vertex -2.451963e-01 -4.336809e-19 4.877258e-02
      endloop
   endfacet
   facet normal -9.951847e-01 6.076823e-17 9.801714e-02
      outer loop
         vertex -2.500000e-01 5.000000e+00 0.000000e+00
         vertex -2.451963e-01 -4.336809e-19 4.877258e-02
         vertex -2.451963e-01 5.000000e+00 4.877258e-02
      endloop
   endfacet
   facet normal -9.569403e-01 5.843295e-17 2.902847e-01
      outer loop
         vertex -2.451963e-01 5.000000e+00 4.877258e-02
         vertex -2.451963e-01 -4.336809e-19 4.877258e-02
         vertex -2.309699e-01 -8.673617e-19 9.567086e-02
      endloop
   endfacet
   facet normal -9.569403e-01 5.843295e-17 2.902847e-01
      outer loop
         vertex -2.451963e-01 5.000000e+00 4.877258e-02
         vertex -2.309699e-01 -8.673617e-19 9.567086e-02
         vertex -2.309699e-01 5.000000e+00 9.567086e-02
      endloop
   endfacet
   facet normal -8.819213e-01 5.385211e-17 4.713967e-01
      outer loop
         vertex -2.309699e-01 5.000000e+00 9.567086e-02
         vertex -2.309699e-01 -8.673617e-19 9.567086e-02
         vertex -2.078674e-01 -1.734723e-18 1.388926e-01
      endloop
   endfacet
   facet normal -8.819213e-01 5.385211e-17 4.713967e-01
      outer loop
         vertex -2.309699e-01 5.000000e+00 9.567086e-02
         vertex -2.078674e-01 -1.734723e-18 1.388926e-01
         vertex -2.078674e-01 5.000000e+00 1.388926e-01
      endloop
   endfacet
   facet normal -7.730105e-01 4.720177e-17 6.343933e-01
      outer loop
         vertex -2.078674e-01 5.000000e+00 1.388926e-01
         vertex -2.078674e-01 -1.734723e-18 1.388926e-01
         vertex -1.767767e-01 -2.168404e-18 1.767767e-01
      endloop
   endfacet
   facet normal -7.730105e-01 4.720177e-17 6.343933e-01
      outer loop
         vertex -2.078674e-01 5.000000e+00 1.388926e-01
         vertex -1.767767e-01 -2.168404e-18 1.767767e-01
         vertex -1.767767e-01 5.000000e+00 1.767767e-01
      endloop
   endfacet
   facet normal -6.343933e-01 3.873749e-17 7.730105e-01
      outer loop
         vertex -1.767767e-01 5.000000e+00 1.767767e-01
         vertex -1.767767e-01 -2.168404e-18 1.767767e-01
         vertex -1.388926e-01 -2.168404e-18 2.078674e-01
      endloop
   endfacet
   facet normal -6.343933e-01 3.873749e-17 7.730105e-01
      outer loop
         vertex -1.767767e-01 5.000000e+00 1.767767e-01
         vertex -1.388926e-01 -2.168404e-18 2.078674e-01
         vertex -1.388926e-01 5.000000e+00 2.078674e-01
      endloop
   endfacet
   facet normal -4.713967e-01 2.878455e-17 8.819213e-01
      outer loop
         vertex -1.388926e-01 5.000000e+00 2.078674e-01
         vertex -1.388926e-01 -2.168404e-18 2.078674e-01
         vertex -9.567086e-02 -2.602085e-18 2.309699e-01
      endloop
   endfacet
   facet normal -4.713967e-01 2.878455e-17 8.819213e-01
      outer loop
         vertex -1.388926e-01 5.000000e+00 2.078674e-01
         vertex -9.567086e-02 -2.602085e-18 2.309699e-01
         vertex -9.567086e-02 5.000000e+00 2.309699e-01
      endloop
   endfacet
   facet normal -2.902847e-01 1.772544e-17 9.569403e-01
      outer loop
         vertex -9.567086e-02 5.000000e+00 2.309699e-01
         vertex -9.567086e-02 -2.602085e-18 2.309699e-01
         vertex -4.877258e-02 -2.602085e-18 2.451963e-01
      endloop
   endfacet
   facet normal -2.902847e-01 1.772544e-17 9.569403e-01
      outer loop
         vertex -9.567086e-02 5.000000e+00 2.309699e-01
         vertex -4.877258e-02 -2.602085e-18 2.451963e-01
         vertex -4.877258e-02 5.000000e+00 2.451963e-01
      endloop
   endfacet
   facet normal -9.801714e-02 5.985149e-18 9.951847e-01
      outer loop
         vertex -4.877258e-02 5.000000e+00 2.451963e-01
         vertex -4.877258e-02 -2.602085e-18 2.451963e-01
         vertex -2.356107e-17 -3.035766e-18 2.500000e-01
      endloop
   endfacet
   facet normal -9.801714e-02 5.985149e-18 9.951847e-01
      outer loop
         vertex -4.877258e-02 5.000000e+00 2.451963e-01
         vertex -2.356107e-17 -3.035766e-18 2.500000e-01
         vertex 2.818858e-16 5.000000e+00 2.500000e-01
      endloop
   endfacet
   facet normal 9.801714e-02 -5.987805e-18 9.951847e-01
      outer loop
         vertex 2.818858e-16 5.000000e+00 2.500000e-01
         vertex -2.356107e-17 -3.035766e-18 2.500000e-01
         vertex 4.877258e-02 -3.035766e-18 2.451963e-01
      endloop
   endfacet
   facet normal 9.801714e-02 -5.987805e-18 9.951847e-01
      outer loop
         vertex 2.818858e-16 5.000000e+00 2.500000e-01
         vertex 4.877258e-02 -3.035766e-18 2.451963e-01
         vertex 4.877258e-02 5.000000e+00 2.451963e-01
      endloop
   endfacet
   facet normal 2.902847e-01 -1.772544e-17 9.569403e-01
      outer loop
         vertex 4.877258e-02 5.000000e+00 2.451963e-01
         vertex 4.877258e-02 -3.035766e-18 2.451963e-01
         vertex 9.567086e-02 -3.035766e-18 2.309699e-01
      endloop
   endfacet
   facet normal 2.902847e-01 -1.772544e-17 9.569403e-01
      outer loop
         vertex 4.877258e-02 5.000000e+00 2.451963e-01
         vertex 9.567086e-02 -3.035766e-18 2.309699e-01
         vertex 9.567086e-02 5.000000e+00 2.309699e-01
      endloop
   endfacet
   facet normal 4.713967e-01 -2.878455e-17 8.819213e-01
      outer loop
         vertex 9.567086e-02 5.000000e+00 2.309699e-01
         vertex 9.567086e-02 -3.035766e-18 2.309699e-01
         vertex 1.388926e-01 -2.602085e-18 2.078674e-01
      endloop
   endfacet
   facet normal 4.713967e-01 -2.878455e-17 8.819213e-01
      outer loop
         vertex 9.567086e-02 5.000000e+00 2.309699e-01
         vertex 1.388926e-01 -2.602085e-18 2.078674e-01
         vertex 1.388926e-01 5.000000e+00 2.078674e-01
      endloop
   endfacet
   facet normal 6.343933e-01 -3.873749e-17 7.730105e-01
      outer loop
         vertex 1.388926e-01 5.000000e+00 2.078674e-01
         vertex 1.388926e-01 -2.602085e-18 2.078674e-01
         vertex 1.767767e-01 -2.602085e-18 1.767767e-01
      endloop
   endfacet
   facet normal 6.343933e-01 -3.873749e-17 7.730105e-01
      outer loop
         vertex 1.388926e-01 5.000000e+00 2.078674e-01
         vertex 1.767767e-01 -2.602085e-18 1.767767e-01
         vertex 1.767767e-01 5.000000e+00 1.767767e-01
      endloop
   endfacet
   facet normal 7.730105e-01 -4.720177e-17 6.343933e-01
      outer loop
         vertex 1.767767e-01 5.000000e+00 1.767767e-01
         vertex 1.767767e-01 -2.602085e-18 1.767767e-01
         vertex 2.078674e-01 -2.168404e-18 1.388926e-01
      endloop
   endfacet
   facet normal 7.730105e-01 -4.720177e-17 6.343933e-01
      outer loop
         vertex 1.767767e-01 5.000000e+00 1.767767e-01
         vertex 2.078674e-01 -2.168404e-18 1.388926e-01
         vertex 2.078674e-01 5.000000e+00 1.388926e-01
      endloop
   endfacet
   facet normal 8.819213e-01 -5.385211e-17 4.713967e-01
      outer loop
         vertex 2.078674e-01 5.000000e+00 1.388926e-01
         vertex 2.078674e-01 -2.168404e-18 1.388926e-01
         vertex 2.309699e-01 -1.301043e-18 9.567086e-02
      endloop
   endfacet
   facet normal 8.819213e-01 -5.385211e-17 4.713967e-01
      outer loop
         vertex 2.078674e-01 5.000000e+00 1.388926e-01
         vertex 2.309699e-01 -1.301043e-18 9.567086e-02
         vertex 2.309699e-01 5.000000e+00 9.567086e-02
      endloop
   endfacet
   facet normal 9.569403e-01 -5.843295e-17 2.902847e-01
      outer loop
         vertex 2.309699e-01 5.000000e+00 9.567086e-02
         vertex 2.309699e-01 -1.301043e-18 9.567086e-02
         vertex 2.451963e-01 -8.673617e-19 4.877258e-02
      endloop
   endfacet
   facet normal 9.569403e-01 -5.843295e-17 2.902847e-01
      outer loop
         vertex 2.309699e-01 5.000000e+00 9.567086e-02
         vertex 2.451963e-01 -8.673617e-19 4.877258e-02
         vertex 2.451963e-01 5.000000e+00 4.877258e-02
      endloop
   endfacet
   facet normal 9.951847e-01 -6.076823e-17 9.801714e-02
      outer loop
         vertex 2.451963e-01 5.000000e+00 4.877258e-02
         vertex 2.451963e-01 -8.673617e-19 4.877258e-02
         vertex 2.500000e-01 0.000000e+00 4.343585e-17
      endloop
   endfacet
   facet normal 9.951847e-01 -6.076823e-17 9.801714e-02
      outer loop
         vertex 2.451963e-01 5.000000e+00 4.877258e-02
         vertex 2.500000e-01 0.000000e+00 4.343585e-17
         vertex 2.500000e-01 5.000000e+00 4.355782e-17
      endloop
   endfacet
   facet normal 6.123032e-17 1.000000e+00 0.000000e+00
      outer loop
         vertex -2.451963e-01 5.000000e+00 4.877258e-02
         vertex -2.309699e-01 5.000000e+00 9.567086e-02
         vertex -2.078674e-01 5.000000e+00 1.388926e-01
      endloop
   endfacet
   facet normal 6.123032e-17 1.000000e+00 0.000000e+00
      outer loop
         vertex -2.451963e-01 5.000000e+00 4.877258e-02
         vertex -2.078674e-01 5.000000e+00 1.388926e-01
         vertex -1.767767e-01 5.000000e+00 1.767767e-01
      endloop
   endfacet
   facet normal 6.123032e-17 1.000000e+00 0.000000e+00
      outer loop
         vertex -2.451963e-01 5.000000e+00 4.877258e-02
         vertex -1.767767e-01 5.000000e+00 1.767767e-01
         vertex -1.388926e-01 5.000000e+00 2.078674e-01
      endloop
   endfacet
   facet normal 6.123032e-17 1.000000e+00 0.000000e+00
      outer loop
         vertex -2.451963e-01 5.000000e+00 4.877258e-02
         vertex -1.388926e-01 5.000000e+00 2.078674e-01
         vertex -9.567086e-02 5.000000e+00 2.309699e-01
      endloop
   endfacet
   facet normal 6.123032e-17 1.000000e+00 0.000000e+00
      outer loop
         vertex -2.451963e-01 5.000000e+00 4.877258e-02
         vertex -9.567086e-02 5.000000e+00 2.309699e-01
         vertex -4.877258e-02 5.000000e+00 2.451963e-01
      endloop
   endfacet
   facet normal 6.123032e-17 1.000000e+00 0.000000e+00
      outer loop
         vertex -2.451963e-01 5.000000e+00 4.877258e-02
         vertex -4.877258e-02 5.000000e+00 2.451963e-01
         vertex 2.908440e-16 5.000000e+00 2.500000e-01
      endloop
   endfacet
   facet normal 6.123032e-17 1.000000e+00 0.000000e+00
      outer loop
         vertex -2.451963e-01 5.000000e+00 4.877258e-02
         vertex 2.908440e-16 5.000000e+00 2.500000e-01
         vertex 4.877258e-02 5.000000e+00 2.451963e-01
      endloop
   endfacet
   facet normal 6.123032e-17 1.000000e+00 0.000000e+00
      outer loop
         vertex -2.451963e-01 5.000000e+00 4.877258e-02
         vertex 4.877258e-02 5.000000e+00 2.451963e-01
         vertex 9.567086e-02 5.000000e+00 2.309699e-01
      endloop
   endfacet
   facet normal 6.123032e-17 1.000000e+00 0.000000e+00
      outer loop
         vertex -2.451963e-01 5.000000e+00 4.877258e-02
         vertex 9.567086e-02 5.000000e+00 2.309699e-01
         vertex 1.388926e-01 5.000000e+00 2.078674e-01
      endloop
   endfacet
   facet normal 6.123032e-17 1.000000e+00 0.000000e+00
      outer loop
         vertex -2.451963e-01 5.000000e+00 4.877258e-02
         vertex 1.388926e-01 5.000000e+00 2.078674e-01
         vertex 1.767767e-01 5.000000e+00 1.767767e-01
      endloop
   endfacet
   facet normal 6.123032e-17 1.000000e+00 0.000000e+00
      outer loop
         vertex -2.451963e-01 5.000000e+00 4.877258e-02
         vertex 1.767767e-01 5.000000e+00 1.767767e-01
         vertex 2.078674e-01 5.000000e+00 1.388926e-01
      endloop
   endfacet
   facet normal 6.123032e-17 1.000000e+00 0.000000e+00
      outer loop
         vertex -2.451963e-01 5.000000e+00 4.877258e-02
         vertex 2.078674e-01 5.000000e+00 1.388926e-01
         vertex 2.309699e-01 5.000000e+00 9.567086e-02
      endloop
   endfacet
   facet normal 6.123032e-17 1.000000e+00 0.000000e+00
      outer loop
         vertex -2.451963e-01 5.000000e+00 4.877258e-02
         vertex 2.309699e-01 5.000000e+00 9.567086e-02
         vertex 2.451963e-01 5.000000e+00 4.877258e-02
      endloop
   endfacet
   facet normal 6.123032e-17 1.000000e+00 0.000000e+00
      outer loop
         vertex -2.451963e-01 5.000000e+00 4.877258e-02
         vertex 2.451963e-01 5.000000e+00 4.877258e-02
         vertex 2.500000e-01 5.000000e+00 3.061516e-17
      endloop
   endfacet
   facet normal 6.123032e-17 1.000000e+00 0.000000e+00
      outer loop
         vertex -2.451963e-01 5.000000e+00 4.877258e-02
         vertex 2.500000e-01 5.000000e+00 3.061516e-17
         vertex 2.451963e-01 5.000000e+00 -4.877258e-02
      endloop
   endfacet
   facet normal 6.123032e-17 1.000000e+00 0.000000e+00
      outer loop
         vertex -2.451963e-01 5.000000e+00 4.877258e-02
         vertex 2.451963e-01 5.000000e+00 -4.877258e-02
         vertex 2.309699e-01 5.000000e+00 -9.567086e-02
      endloop
   endfacet
   facet normal 6.123032e-17 1.000000e+00 0.000000e+00
      outer loop
         vertex -2.451963e-01 5.000000e+00 4.877258e-02
         vertex 2.309699e-01 5.000000e+00 -9.567086e-02
         vertex 2.078674e-01 5.000000e+00 -1.388926e-01
      endloop
   endfacet
   facet normal 6.123032e-17 1.000000e+00 0.000000e+00
      outer loop
         vertex -2.451963e-01 5.000000e+00 4.877258e-02
         vertex 2.078674e-01 5.000000e+00 -1.388926e-01
         vertex 1.767767e-01 5.000000e+00 -1.767767e-01
      endloop
   endfacet
   facet normal 6.123032e-17 1.000000e+00 0.000000e+00
      outer loop
         vertex -2.451963e-01 5.000000e+00 4.877258e-02
         vertex 1.767767e-01 5.000000e+00 -1.767767e-01
         vertex 1.388926e-01 5.000000e+00 -2.078674e-01
      endloop
   endfacet
   facet normal 6.123032e-17 1.000000e+00 0.000000e+00
      outer loop
         vertex -2.451963e-01 5.000000e+00 4.877258e-02
         vertex 1.388926e-01 5.000000e+00 -2.078674e-01
         vertex 9.567086e-02 5.000000e+00 -2.309699e-01
      endloop
   endfacet
   facet normal 6.123032e-17 1.000000e+00 0.000000e+00
      outer loop
         vertex -2.451963e-01 5.000000e+00 4.877258e-02
         vertex 9.567086e-02 5.000000e+00 -2.309699e-01
         vertex 4.877258e-02 5.000000e+00 -2.451963e-01
      endloop
   endfacet
   facet normal 6.123032e-17 1.000000e+00 0.000000e+00
      outer loop
         vertex -2.451963e-01 5.000000e+00 4.877258e-02
         vertex 4.877258e-02 5.000000e+00 -2.451963e-01
         vertex 3.214592e-16 5.000000e+00 -2.500000e-01
      endloop
   endfacet
   facet normal 6.123032e-17 1.000000e+00 0.000000e+00
      outer loop
         vertex -2.451963e-01 5.000000e+00 4.877258e-02
         vertex 3.214592e-16 5.000000e+00 -2.500000e-01
         vertex -4.877258e-02 5.000000e+00 -2.451963e-01
      endloop
   endfacet
   facet normal 6.123032e-17 1.000000e+00 0.000000e+00
      outer loop
         vertex -2.451963e-01 5.000000e+00 4.877258e-02
         vertex -4.877258e-02 5.000000e+00 -2.451963e-01
         vertex -9.567086e-02 5.000000e+00 -2.309699e-01
      endloop
   endfacet
   facet normal 6.123032e-17 1.000000e+00 0.000000e+00
      outer loop
         vertex -2.451963e-01 5.000000e+00 4.877258e-02
         vertex -9.567086e-02 5.000000e+00 -2.309699e-01
         vertex -1.388926e-01 5.000000e+00 -2.078674e-01
      endloop
   endfacet
   facet normal 6.123032e-17 1.000000e+00 0.000000e+00
      outer loop
         vertex -2.451963e-01 5.000000e+00 4.877258e-02
         vertex -1.388926e-01 5.000000e+00 -2.078674e-01
         vertex -1.767767e-01 5.000000e+00 -1.767767e-01
      endloop
   endfacet
   facet normal 6.123032e-17 1.000000e+00 0.000000e+00
      outer loop
         vertex -2.451963e-01 5.000000e+00 4.877258e-02
         vertex -1.767767e-01 5.000000e+00 -1.767767e-01
         vertex -2.078674e-01 5.000000e+00 -1.388926e-01
      endloop
   endfacet
   facet normal 6.123032e-17 1.000000e+00 0.000000e+00
      outer loop
         vertex -2.451963e-01 5.000000e+00 4.877258e-02
         vertex -2.078674e-01 5.000000e+00 -1.388926e-01
         vertex -2.309699e-01 5.000000e+00 -9.567086e-02
      endloop
   endfacet
   facet normal 6.123032e-17 1.000000e+00 0.000000e+00
      outer loop
         vertex -2.451963e-01 5.000000e+00 4.877258e-02
         vertex -2.309699e-01 5.000000e+00 -9.567086e-02
         vertex -2.451963e-01 5.000000e+00 -4.877258e-02
      endloop
   endfacet
   facet normal 6.123032e-17 1.000000e+00 0.000000e+00
      outer loop
         vertex -2.451963e-01 5.000000e+00 4.877258e-02
         vertex -2.451963e-01 5.000000e+00 -4.877258e-02
         vertex -2.500000e-01 5.000000e+00 -3.061516e-17
      endloop
   endfacet
endsolid
