solid cylinder_y
   facet normal 9.801714e-02 -0.000000e+00 -9.951847e-01
      outer loop
         vertex -5.551115e-17 -1.000000e-01 -1.000000e+00
         vertex -5.551115e-17 1.000000e-01 -1.000000e+00
         vertex 1.950903e-01 1.000000e-01 -9.807853e-01
      endloop
   endfacet
   facet normal 9.801714e-02 -0.000000e+00 -9.951847e-01
      outer loop
         vertex -5.551115e-17 -1.000000e-01 -1.000000e+00
         vertex 1.950903e-01 1.000000e-01 -9.807853e-01
         vertex 1.950903e-01 -1.000000e-01 -9.807853e-01
      endloop
   endfacet
   facet normal 2.902847e-01 -0.000000e+00 -9.569403e-01
      outer loop
         vertex 1.950903e-01 -1.000000e-01 -9.807853e-01
         vertex 1.950903e-01 1.000000e-01 -9.807853e-01
         vertex 3.826834e-01 1.000000e-01 -9.238795e-01
      endloop
   endfacet
   facet normal 2.902847e-01 -0.000000e+00 -9.569403e-01
      outer loop
         vertex 1.950903e-01 -1.000000e-01 -9.807853e-01
         vertex 3.826834e-01 1.000000e-01 -9.238795e-01
         vertex 3.826834e-01 -1.000000e-01 -9.238795e-01
      endloop
   endfacet
   facet normal 4.713967e-01 -0.000000e+00 -8.819213e-01
      outer loop
         vertex 3.826834e-01 -1.000000e-01 -9.238795e-01
         vertex 3.826834e-01 1.000000e-01 -9.238795e-01
         vertex 5.555702e-01 1.000000e-01 -8.314696e-01
      endloop
   endfacet
   facet normal 4.713967e-01 -0.000000e+00 -8.819213e-01
      outer loop
         vertex 3.826834e-01 -1.000000e-01 -9.238795e-01
         vertex 5.555702e-01 1.000000e-01 -8.314696e-01
         vertex 5.555702e-01 -1.000000e-01 -8.314696e-01
      endloop
   endfacet
   facet normal 6.343933e-01 -0.000000e+00 -7.730105e-01
      outer loop
         vertex 5.555702e-01 -1.000000e-01 -8.314696e-01
         vertex 5.555702e-01 1.000000e-01 -8.314696e-01
         vertex 7.071068e-01 1.000000e-01 -7.071068e-01
      endloop
   endfacet
   facet normal 6.343933e-01 -0.000000e+00 -7.730105e-01
      outer loop
         vertex 5.555702e-01 -1.000000e-01 -8.314696e-01
         vertex 7.071068e-01 1.000000e-01 -7.071068e-01
         vertex 7.071068e-01 -1.000000e-01 -7.071068e-01
      endloop
   endfacet
   facet normal 7.730105e-01 -0.000000e+00 -6.343933e-01
      outer loop
         vertex 7.071068e-01 -1.000000e-01 -7.071068e-01
         vertex 7.071068e-01 1.000000e-01 -7.071068e-01
         vertex 8.314696e-01 1.000000e-01 -5.555702e-01
      endloop
   endfacet
   facet normal 7.730105e-01 -0.000000e+00 -6.343933e-01
      outer loop
         vertex 7.071068e-01 -1.000000e-01 -7.071068e-01
         vertex 8.314696e-01 1.000000e-01 -5.555702e-01
         vertex 8.314696e-01 -1.000000e-01 -5.555702e-01
      endloop
   endfacet
   facet normal 8.819213e-01 4.895646e-16 -4.713967e-01
      outer loop
         vertex 8.314696e-01 -1.000000e-01 -5.555702e-01
         vertex 8.314696e-01 1.000000e-01 -5.555702e-01
         vertex 9.238795e-01 1.000000e-01 -3.826834e-01
      endloop
   endfacet
   facet normal 8.819213e-01 4.895646e-16 -4.713967e-01
      outer loop
         vertex 8.314696e-01 -1.000000e-01 -5.555702e-01
         vertex 9.238795e-01 1.000000e-01 -3.826834e-01
         vertex 9.238795e-01 -1.000000e-01 -3.826834e-01
      endloop
   endfacet
   facet normal 9.569403e-01 5.312086e-16 -2.902847e-01
      outer loop
         vertex 9.238795e-01 -1.000000e-01 -3.826834e-01
         vertex 9.238795e-01 1.000000e-01 -3.826834e-01
         vertex 9.807853e-01 1.000000e-01 -1.950903e-01
      endloop
   endfacet
   facet normal 9.569403e-01 5.312086e-16 -2.902847e-01
      outer loop
         vertex 9.238795e-01 -1.000000e-01 -3.826834e-01
         vertex 9.807853e-01 1.000000e-01 -1.950903e-01
         vertex 9.807853e-01 -1.000000e-01 -1.950903e-01
      endloop
   endfacet
   facet normal 9.951847e-01 5.524385e-16 -9.801714e-02
      outer loop
         vertex 9.807853e-01 -1.000000e-01 -1.950903e-01
         vertex 9.807853e-01 1.000000e-01 -1.950903e-01
         vertex 1.000000e+00 1.000000e-01 -2.241995e-16
      endloop
   endfacet
   facet normal 9.951847e-01 5.524385e-16 -9.801714e-02
      outer loop
         vertex 9.807853e-01 -1.000000e-01 -1.950903e-01
         vertex 1.000000e+00 1.000000e-01 -2.241995e-16
         vertex 1.000000e+00 -1.000000e-01 -2.208926e-16
      endloop
   endfacet
   facet normal 9.951847e-01 5.540591e-16 9.801714e-02
      outer loop
         vertex 1.000000e+00 -1.000000e-01 -2.208926e-16
         vertex 1.000000e+00 1.000000e-01 -2.241995e-16
         vertex 9.807853e-01 1.000000e-01 1.950903e-01
      endloop
   endfacet
   facet normal 9.951847e-01 5.540591e-16 9.801714e-02
      outer loop
         vertex 1.000000e+00 -1.000000e-01 -2.208926e-16
         vertex 9.807853e-01 1.000000e-01 1.950903e-01
         vertex 9.807853e-01 -1.000000e-01 1.950903e-01
      endloop
   endfacet
   facet normal 9.569403e-01 0.000000e+00 2.902847e-01
      outer loop
         vertex 9.807853e-01 -1.000000e-01 1.950903e-01
         vertex 9.807853e-01 1.000000e-01 1.950903e-01
         vertex 9.238795e-01 1.000000e-01 3.826834e-01
      endloop
   endfacet
   facet normal 9.569403e-01 0.000000e+00 2.902847e-01
      outer loop
         vertex 9.807853e-01 -1.000000e-01 1.950903e-01
         vertex 9.238795e-01 1.000000e-01 3.826834e-01
         vertex 9.238795e-01 -1.000000e-01 3.826834e-01
      endloop
   endfacet
   facet normal 8.819213e-01 0.000000e+00 4.713967e-01
      outer loop
         vertex 9.238795e-01 -1.000000e-01 3.826834e-01
         vertex 9.238795e-01 1.000000e-01 3.826834e-01
         vertex 8.314696e-01 1.000000e-01 5.555702e-01
      endloop
   endfacet
   facet normal 8.819213e-01 0.000000e+00 4.713967e-01
      outer loop
         vertex 9.238795e-01 -1.000000e-01 3.826834e-01
         vertex 8.314696e-01 1.000000e-01 5.555702e-01
         vertex 8.314696e-01 -1.000000e-01 5.555702e-01
      endloop
   endfacet
   facet normal 7.730105e-01 4.291070e-16 6.343933e-01
      outer loop
         vertex 8.314696e-01 -1.000000e-01 5.555702e-01
         vertex 8.314696e-01 1.000000e-01 5.555702e-01
         vertex 7.071068e-01 1.000000e-01 7.071068e-01
      endloop
   endfacet
   facet normal 7.730105e-01 4.291070e-16 6.343933e-01
      outer loop
         vertex 8.314696e-01 -1.000000e-01 5.555702e-01
         vertex 7.071068e-01 1.000000e-01 7.071068e-01
         vertex 7.071068e-01 -1.000000e-01 7.071068e-01
      endloop
   endfacet
   facet normal 6.343933e-01 0.000000e+00 7.730105e-01
      outer loop
         vertex 7.071068e-01 -1.000000e-01 7.071068e-01
         vertex 7.071068e-01 1.000000e-01 7.071068e-01
         vertex 5.555702e-01 1.000000e-01 8.314696e-01
      endloop
   endfacet
   facet normal 6.343933e-01 0.000000e+00 7.730105e-01
      outer loop
         vertex 7.071068e-01 -1.000000e-01 7.071068e-01
         vertex 5.555702e-01 1.000000e-01 8.314696e-01
         vertex 5.555702e-01 -1.000000e-01 8.314696e-01
      endloop
   endfacet
   facet normal 4.713967e-01 0.000000e+00 8.819213e-01
      outer loop
         vertex 5.555702e-01 -1.000000e-01 8.314696e-01
         vertex 5.555702e-01 1.000000e-01 8.314696e-01
         vertex 3.826834e-01 1.000000e-01 9.238795e-01
      endloop
   endfacet
   facet normal 4.713967e-01 0.000000e+00 8.819213e-01
      outer loop
         vertex 5.555702e-01 -1.000000e-01 8.314696e-01
         vertex 3.826834e-01 1.000000e-01 9.238795e-01
         vertex 3.826834e-01 -1.000000e-01 9.238795e-01
      endloop
   endfacet
   facet normal 2.902847e-01 0.000000e+00 9.569403e-01
      outer loop
         vertex 3.826834e-01 -1.000000e-01 9.238795e-01
         vertex 3.826834e-01 1.000000e-01 9.238795e-01
         vertex 1.950903e-01 1.000000e-01 9.807853e-01
      endloop
   endfacet
   facet normal 2.902847e-01 0.000000e+00 9.569403e-01
      outer loop
         vertex 3.826834e-01 -1.000000e-01 9.238795e-01
         vertex 1.950903e-01 1.000000e-01 9.807853e-01
         vertex 1.950903e-01 -1.000000e-01 9.807853e-01
      endloop
   endfacet
   facet normal 9.801714e-02 2.720522e-17 9.951847e-01
      outer loop
         vertex 1.950903e-01 -1.000000e-01 9.807853e-01
         vertex 1.950903e-01 1.000000e-01 9.807853e-01
         vertex 3.684661e-16 1.000000e-01 1.000000e+00
      endloop
   endfacet
   facet normal 9.801714e-02 2.720522e-17 9.951847e-01
      outer loop
         vertex 1.950903e-01 -1.000000e-01 9.807853e-01
         vertex 3.684661e-16 1.000000e-01 1.000000e+00
         vertex 4.010735e-16 -1.000000e-01 1.000000e+00
      endloop
   endfacet
   facet normal -7.499090e-33 1.000000e+00 -1.836910e-16
      outer loop
         vertex -1.950903e-01 1.000000e-01 -9.807853e-01
         vertex -3.826834e-01 1.000000e-01 -9.238795e-01
         vertex -5.555702e-01 1.000000e-01 -8.314696e-01
      endloop
   endfacet
   facet normal -7.499090e-33 1.000000e+00 -1.836910e-16
      outer loop
         vertex -1.950903e-01 1.000000e-01 -9.807853e-01
         vertex -5.555702e-01 1.000000e-01 -8.314696e-01
         vertex -7.071068e-01 1.000000e-01 -7.071068e-01
      endloop
   endfacet
   facet normal -7.499090e-33 1.000000e+00 -1.836910e-16
      outer loop
         vertex -1.950903e-01 1.000000e-01 -9.807853e-01
         vertex -7.071068e-01 1.000000e-01 -7.071068e-01
         vertex -8.314696e-01 1.000000e-01 -5.555702e-01
      endloop
   endfacet
   facet normal -7.499090e-33 1.000000e+00 -1.836910e-16
      outer loop
         vertex -1.950903e-01 1.000000e-01 -9.807853e-01
         vertex -8.314696e-01 1.000000e-01 -5.555702e-01
         vertex -9.238795e-01 1.000000e-01 -3.826834e-01
      endloop
   endfacet
   facet normal -7.499090e-33 1.000000e+00 -1.836910e-16
      outer loop
         vertex -1.950903e-01 1.000000e-01 -9.807853e-01
         vertex -9.238795e-01 1.000000e-01 -3.826834e-01
         vertex -9.807853e-01 1.000000e-01 -1.950903e-01
      endloop
   endfacet
   facet normal -7.499090e-33 1.000000e+00 -1.836910e-16
      outer loop
         vertex -1.950903e-01 1.000000e-01 -9.807853e-01
         vertex -9.807853e-01 1.000000e-01 -1.950903e-01
         vertex -1.000000e+00 1.000000e-01 4.508844e-16
      endloop
   endfacet
   facet normal -7.499090e-33 1.000000e+00 -1.836910e-16
      outer loop
         vertex -1.950903e-01 1.000000e-01 -9.807853e-01
         vertex -1.000000e+00 1.000000e-01 4.508844e-16
         vertex -9.807853e-01 1.000000e-01 1.950903e-01
      endloop
   endfacet
   facet normal -7.499090e-33 1.000000e+00 -1.836910e-16
      outer loop
         vertex -1.950903e-01 1.000000e-01 -9.807853e-01
         vertex -9.807853e-01 1.000000e-01 1.950903e-01
         vertex -9.238795e-01 1.000000e-01 3.826834e-01
      endloop
   endfacet
   facet normal -7.499090e-33 1.000000e+00 -1.836910e-16
      outer loop
         vertex -1.950903e-01 1.000000e-01 -9.807853e-01
         vertex -9.238795e-01 1.000000e-01 3.826834e-01
         vertex -8.314696e-01 1.000000e-01 5.555702e-01
      endloop
   endfacet
   facet normal -7.499090e-33 1.000000e+00 -1.836910e-16
      outer loop
         vertex -1.950903e-01 1.000000e-01 -9.807853e-01
         vertex -8.314696e-01 1.000000e-01 5.555702e-01
         vertex -7.071068e-01 1.000000e-01 7.071068e-01
      endloop
   endfacet
   facet normal -7.499090e-33 1.000000e+00 -1.836910e-16
      outer loop
         vertex -1.950903e-01 1.000000e-01 -9.807853e-01
         vertex -7.071068e-01 1.000000e-01 7.071068e-01
         vertex -5.555702e-01 1.000000e-01 8.314696e-01
      endloop
   endfacet
   facet normal -7.499090e-33 1.000000e+00 -1.836910e-16
      outer loop
         vertex -1.950903e-01 1.000000e-01 -9.807853e-01
         vertex -5.555702e-01 1.000000e-01 8.314696e-01
         vertex -3.826834e-01 1.000000e-01 9.238795e-01
      endloop
   endfacet
   facet normal -7.499090e-33 1.000000e+00 -1.836910e-16
      outer loop
         vertex -1.950903e-01 1.000000e-01 -9.807853e-01
         vertex -3.826834e-01 1.000000e-01 9.238795e-01
         vertex -1.950903e-01 1.000000e-01 9.807853e-01
      endloop
   endfacet
   facet normal -7.499090e-33 1.000000e+00 -1.836910e-16
      outer loop
         vertex -1.950903e-01 1.000000e-01 -9.807853e-01
         vertex -1.950903e-01 1.000000e-01 9.807853e-01
         vertex 3.559436e-16 1.000000e-01 1.000000e+00
      endloop
   endfacet
   facet normal -7.499090e-33 1.000000e+00 -1.836910e-16
      outer loop
         vertex -1.950903e-01 1.000000e-01 -9.807853e-01
         vertex 3.559436e-16 1.000000e-01 1.000000e+00
         vertex 1.950903e-01 1.000000e-01 9.807853e-01
      endloop
   endfacet
   facet normal -7.499090e-33 1.000000e+00 -1.836910e-16
      outer loop
         vertex -1.950903e-01 1.000000e-01 -9.807853e-01
         vertex 1.950903e-01 1.000000e-01 9.807853e-01
         vertex 3.826834e-01 1.000000e-01 9.238795e-01
      endloop
   endfacet
   facet normal -7.499090e-33 1.000000e+00 -1.836910e-16
      outer loop
         vertex -1.950903e-01 1.000000e-01 -9.807853e-01
         vertex 3.826834e-01 1.000000e-01 9.238795e-01
         vertex 5.555702e-01 1.000000e-01 8.314696e-01
      endloop
   endfacet
   facet normal -7.499090e-33 1.000000e+00 -1.836910e-16
      outer loop
         vertex -1.950903e-01 1.000000e-01 -9.807853e-01
         vertex 5.555702e-01 1.000000e-01 8.314696e-01
         vertex 7.071068e-01 1.000000e-01 7.071068e-01
      endloop
   endfacet
   facet normal -7.499090e-33 1.000000e+00 -1.836910e-16
      outer loop
         vertex -1.950903e-01 1.000000e-01 -9.807853e-01
         vertex 7.071068e-01 1.000000e-01 7.071068e-01
         vertex 8.314696e-01 1.000000e-01 5.555702e-01
      endloop
   endfacet
   facet normal -7.499090e-33 1.000000e+00 -1.836910e-16
      outer loop
         vertex -1.950903e-01 1.000000e-01 -9.807853e-01
         vertex 8.314696e-01 1.000000e-01 5.555702e-01
         vertex 9.238795e-01 1.000000e-01 3.826834e-01
      endloop
   endfacet
   facet normal -7.499090e-33 1.000000e+00 -1.836910e-16
      outer loop
         vertex -1.950903e-01 1.000000e-01 -9.807853e-01
         vertex 9.238795e-01 1.000000e-01 3.826834e-01
         vertex 9.807853e-01 1.000000e-01 1.950903e-01
      endloop
   endfacet
   facet normal -7.499090e-33 1.000000e+00 -1.836910e-16
      outer loop
         vertex -1.950903e-01 1.000000e-01 -9.807853e-01
         vertex 9.807853e-01 1.000000e-01 1.950903e-01
         vertex 1.000000e+00 1.000000e-01 2.059632e-16
      endloop
   endfacet
   facet normal -7.499090e-33 1.000000e+00 -1.836910e-16
      outer loop
         vertex -1.950903e-01 1.000000e-01 -9.807853e-01
         vertex 1.000000e+00 1.000000e-01 2.059632e-16
         vertex 9.807853e-01 1.000000e-01 -1.950903e-01
      endloop
   endfacet
   facet normal -7.499090e-33 1.000000e+00 -1.836910e-16
      outer loop
         vertex -1.950903e-01 1.000000e-01 -9.807853e-01
         vertex 9.807853e-01 1.000000e-01 -1.950903e-01
         vertex 9.238795e-01 1.000000e-01 -3.826834e-01
      endloop
   endfacet
   facet normal -7.499090e-33 1.000000e+00 -1.836910e-16
      outer loop
         vertex -1.950903e-01 1.000000e-01 -9.807853e-01
         vertex 9.238795e-01 1.000000e-01 -3.826834e-01
         vertex 8.314696e-01 1.000000e-01 -5.555702e-01
      endloop
   endfacet
   facet normal -7.499090e-33 1.000000e+00 -1.836910e-16
      outer loop
         vertex -1.950903e-01 1.000000e-01 -9.807853e-01
         vertex 8.314696e-01 1.000000e-01 -5.555702e-01
         vertex 7.071068e-01 1.000000e-01 -7.071068e-01
      endloop
   endfacet
   facet normal -7.499090e-33 1.000000e+00 -1.836910e-16
      outer loop
         vertex -1.950903e-01 1.000000e-01 -9.807853e-01
         vertex 7.071068e-01 1.000000e-01 -7.071068e-01
         vertex 5.555702e-01 1.000000e-01 -8.314696e-01
      endloop
   endfacet
   facet normal -7.499090e-33 1.000000e+00 -1.836910e-16
      outer loop
         vertex -1.950903e-01 1.000000e-01 -9.807853e-01
         vertex 5.555702e-01 1.000000e-01 -8.314696e-01
         vertex 3.826834e-01 1.000000e-01 -9.238795e-01
      endloop
   endfacet
   facet normal -7.499090e-33 1.000000e+00 -1.836910e-16
      outer loop
         vertex -1.950903e-01 1.000000e-01 -9.807853e-01
         vertex 3.826834e-01 1.000000e-01 -9.238795e-01
         vertex 1.950903e-01 1.000000e-01 -9.807853e-01
      endloop
   endfacet
   facet normal -7.499090e-33 1.000000e+00 -1.836910e-16
      outer loop
         vertex -1.950903e-01 1.000000e-01 -9.807853e-01
         vertex 1.950903e-01 1.000000e-01 -9.807853e-01
         vertex 2.220446e-16 1.000000e-01 -1.000000e+00
      endloop
   endfacet
   facet normal -9.801714e-02 -0.000000e+00 9.951847e-01
      outer loop
         vertex 5.551115e-17 -1.000000e-01 1.000000e+00
         vertex 5.551115e-17 1.000000e-01 1.000000e+00
         vertex -1.950903e-01 1.000000e-01 9.807853e-01
      endloop
   endfacet
   facet normal -9.801714e-02 -0.000000e+00 9.951847e-01
      outer loop
         vertex 5.551115e-17 -1.000000e-01 1.000000e+00
         vertex -1.950903e-01 1.000000e-01 9.807853e-01
         vertex -1.950903e-01 -1.000000e-01 9.807853e-01
      endloop
   endfacet
   facet normal -2.902847e-01 -0.000000e+00 9.569403e-01
      outer loop
         vertex -1.950903e-01 -1.000000e-01 9.807853e-01
         vertex -1.950903e-01 1.000000e-01 9.807853e-01
         vertex -3.826834e-01 1.000000e-01 9.238795e-01
      endloop
   endfacet
   facet normal -2.902847e-01 -0.000000e+00 9.569403e-01
      outer loop
         vertex -1.950903e-01 -1.000000e-01 9.807853e-01
         vertex -3.826834e-01 1.000000e-01 9.238795e-01
         vertex -3.826834e-01 -1.000000e-01 9.238795e-01
      endloop
   endfacet
   facet normal -4.713967e-01 -0.000000e+00 8.819213e-01
      outer loop
         vertex -3.826834e-01 -1.000000e-01 9.238795e-01
         vertex -3.826834e-01 1.000000e-01 9.238795e-01
         vertex -5.555702e-01 1.000000e-01 8.314696e-01
      endloop
   endfacet
   facet normal -4.713967e-01 -0.000000e+00 8.819213e-01
      outer loop
         vertex -3.826834e-01 -1.000000e-01 9.238795e-01
         vertex -5.555702e-01 1.000000e-01 8.314696e-01
         vertex -5.555702e-01 -1.000000e-01 8.314696e-01
      endloop
   endfacet
   facet normal -6.343933e-01 -0.000000e+00 7.730105e-01
      outer loop
         vertex -5.555702e-01 -1.000000e-01 8.314696e-01
         vertex -5.555702e-01 1.000000e-01 8.314696e-01
         vertex -7.071068e-01 1.000000e-01 7.071068e-01
      endloop
   endfacet
   facet normal -6.343933e-01 -0.000000e+00 7.730105e-01
      outer loop
         vertex -5.555702e-01 -1.000000e-01 8.314696e-01
         vertex -7.071068e-01 1.000000e-01 7.071068e-01
         vertex -7.071068e-01 -1.000000e-01 7.071068e-01
      endloop
   endfacet
   facet normal -7.730105e-01 -0.000000e+00 6.343933e-01
      outer loop
         vertex -7.071068e-01 -1.000000e-01 7.071068e-01
         vertex -7.071068e-01 1.000000e-01 7.071068e-01
         vertex -8.314696e-01 1.000000e-01 5.555702e-01
      endloop
   endfacet
   facet normal -7.730105e-01 -0.000000e+00 6.343933e-01
      outer loop
         vertex -7.071068e-01 -1.000000e-01 7.071068e-01
         vertex -8.314696e-01 1.000000e-01 5.555702e-01
         vertex -8.314696e-01 -1.000000e-01 5.555702e-01
      endloop
   endfacet
   facet normal -8.819213e-01 -0.000000e+00 4.713967e-01
      outer loop
         vertex -8.314696e-01 -1.000000e-01 5.555702e-01
         vertex -8.314696e-01 1.000000e-01 5.555702e-01
         vertex -9.238795e-01 1.000000e-01 3.826834e-01
      endloop
   endfacet
   facet normal -8.819213e-01 -0.000000e+00 4.713967e-01
      outer loop
         vertex -8.314696e-01 -1.000000e-01 5.555702e-01
         vertex -9.238795e-01 1.000000e-01 3.826834e-01
         vertex -9.238795e-01 -1.000000e-01 3.826834e-01
      endloop
   endfacet
   facet normal -9.569403e-01 -0.000000e+00 2.902847e-01
      outer loop
         vertex -9.238795e-01 -1.000000e-01 3.826834e-01
         vertex -9.238795e-01 1.000000e-01 3.826834e-01
         vertex -9.807853e-01 1.000000e-01 1.950903e-01
      endloop
   endfacet
   facet normal -9.569403e-01 -0.000000e+00 2.902847e-01
      outer loop
         vertex -9.238795e-01 -1.000000e-01 3.826834e-01
         vertex -9.807853e-01 1.000000e-01 1.950903e-01
         vertex -9.807853e-01 -1.000000e-01 1.950903e-01
      endloop
   endfacet
   facet normal -9.951847e-01 -0.000000e+00 9.801714e-02
      outer loop
         vertex -9.807853e-01 -1.000000e-01 1.950903e-01
         vertex -9.807853e-01 1.000000e-01 1.950903e-01
         vertex -1.000000e+00 1.000000e-01 2.175994e-16
      endloop
   endfacet
   facet normal -9.951847e-01 -0.000000e+00 9.801714e-02
      outer loop
         vertex -9.807853e-01 -1.000000e-01 1.950903e-01
         vertex -1.000000e+00 1.000000e-01 2.175994e-16
         vertex -1.000000e+00 -1.000000e-01 2.208926e-16
      endloop
   endfacet
   facet normal -9.951847e-01 -1.613982e-18 -9.801714e-02
      outer loop
         vertex -1.000000e+00 -1.000000e-01 2.208926e-16
         vertex -1.000000e+00 1.000000e-01 2.175994e-16
         vertex -9.807853e-01 1.000000e-01 -1.950903e-01
      endloop
   endfacet
   facet normal -9.951847e-01 -1.613982e-18 -9.801714e-02
      outer loop
         vertex -1.000000e+00 -1.000000e-01 2.208926e-16
         vertex -9.807853e-01 1.000000e-01 -1.950903e-01
         vertex -9.807853e-01 -1.000000e-01 -1.950903e-01
      endloop
   endfacet
   facet normal -9.569403e-01 -0.000000e+00 -2.902847e-01
      outer loop
         vertex -9.807853e-01 -1.000000e-01 -1.950903e-01
         vertex -9.807853e-01 1.000000e-01 -1.950903e-01
         vertex -9.238795e-01 1.000000e-01 -3.826834e-01
      endloop
   endfacet
   facet normal -9.569403e-01 -0.000000e+00 -2.902847e-01
      outer loop
         vertex -9.807853e-01 -1.000000e-01 -1.950903e-01
         vertex -9.238795e-01 1.000000e-01 -3.826834e-01
         vertex -9.238795e-01 -1.000000e-01 -3.826834e-01
      endloop
   endfacet
   facet normal -8.819213e-01 -4.895646e-16 -4.713967e-01
      outer loop
         vertex -9.238795e-01 -1.000000e-01 -3.826834e-01
         vertex -9.238795e-01 1.000000e-01 -3.826834e-01
         vertex -8.314696e-01 1.000000e-01 -5.555702e-01
      endloop
   endfacet
   facet normal -8.819213e-01 -4.895646e-16 -4.713967e-01
      outer loop
         vertex -9.238795e-01 -1.000000e-01 -3.826834e-01
         vertex -8.314696e-01 1.000000e-01 -5.555702e-01
         vertex -8.314696e-01 -1.000000e-01 -5.555702e-01
      endloop
   endfacet
   facet normal -7.730105e-01 -0.000000e+00 -6.343933e-01
      outer loop
         vertex -8.314696e-01 -1.000000e-01 -5.555702e-01
         vertex -8.314696e-01 1.000000e-01 -5.555702e-01
         vertex -7.071068e-01 1.000000e-01 -7.071068e-01
      endloop
   endfacet
   facet normal -7.730105e-01 -0.000000e+00 -6.343933e-01
      outer loop
         vertex -8.314696e-01 -1.000000e-01 -5.555702e-01
         vertex -7.071068e-01 1.000000e-01 -7.071068e-01
         vertex -7.071068e-01 -1.000000e-01 -7.071068e-01
      endloop
   endfacet
   facet normal -6.343933e-01 -0.000000e+00 -7.730105e-01
      outer loop
         vertex -7.071068e-01 -1.000000e-01 -7.071068e-01
         vertex -7.071068e-01 1.000000e-01 -7.071068e-01
         vertex -5.555702e-01 1.000000e-01 -8.314696e-01
      endloop
   endfacet
   facet normal -6.343933e-01 -0.000000e+00 -7.730105e-01
      outer loop
         vertex -7.071068e-01 -1.000000e-01 -7.071068e-01
         vertex -5.555702e-01 1.000000e-01 -8.314696e-01
         vertex -5.555702e-01 -1.000000e-01 -8.314696e-01
      endloop
   endfacet
   facet normal -4.713967e-01 -2.616778e-16 -8.819213e-01
      outer loop
         vertex -5.555702e-01 -1.000000e-01 -8.314696e-01
         vertex -5.555702e-01 1.000000e-01 -8.314696e-01
         vertex -3.826834e-01 1.000000e-01 -9.238795e-01
      endloop
   endfacet
   facet normal -4.713967e-01 -2.616778e-16 -8.819213e-01
      outer loop
         vertex -5.555702e-01 -1.000000e-01 -8.314696e-01
         vertex -3.826834e-01 1.000000e-01 -9.238795e-01
         vertex -3.826834e-01 -1.000000e-01 -9.238795e-01
      endloop
   endfacet
   facet normal -2.902847e-01 -8.057018e-17 -9.569403e-01
      outer loop
         vertex -3.826834e-01 -1.000000e-01 -9.238795e-01
         vertex -3.826834e-01 1.000000e-01 -9.238795e-01
         vertex -1.950903e-01 1.000000e-01 -9.807853e-01
      endloop
   endfacet
   facet normal -2.902847e-01 -8.057018e-17 -9.569403e-01
      outer loop
         vertex -3.826834e-01 -1.000000e-01 -9.238795e-01
         vertex -1.950903e-01 1.000000e-01 -9.807853e-01
         vertex -1.950903e-01 -1.000000e-01 -9.807853e-01
      endloop
   endfacet
   facet normal -9.801714e-02 -1.360261e-17 -9.951847e-01
      outer loop
         vertex -1.950903e-01 -1.000000e-01 -9.807853e-01
         vertex -1.950903e-01 1.000000e-01 -9.807853e-01
         vertex -4.336402e-16 1.000000e-01 -1.000000e+00
      endloop
   endfacet
   facet normal -9.801714e-02 -1.360261e-17 -9.951847e-01
      outer loop
         vertex -1.950903e-01 -1.000000e-01 -9.807853e-01
         vertex -4.336402e-16 1.000000e-01 -1.000000e+00
         vertex -4.010735e-16 -1.000000e-01 -1.000000e+00
      endloop
   endfacet
   facet normal 0.000000e+00 -1.000000e+00 6.123032e-17
      outer loop
         vertex -1.950903e-01 -1.000000e-01 9.807853e-01
         vertex -3.826834e-01 -1.000000e-01 9.238795e-01
         vertex -5.555702e-01 -1.000000e-01 8.314696e-01
      endloop
   endfacet
   facet normal 0.000000e+00 -1.000000e+00 6.123032e-17
      outer loop
         vertex -1.950903e-01 -1.000000e-01 9.807853e-01
         vertex -5.555702e-01 -1.000000e-01 8.314696e-01
         vertex -7.071068e-01 -1.000000e-01 7.071068e-01
      endloop
   endfacet
   facet normal 0.000000e+00 -1.000000e+00 6.123032e-17
      outer loop
         vertex -1.950903e-01 -1.000000e-01 9.807853e-01
         vertex -7.071068e-01 -1.000000e-01 7.071068e-01
         vertex -8.314696e-01 -1.000000e-01 5.555702e-01
      endloop
   endfacet
   facet normal 0.000000e+00 -1.000000e+00 6.123032e-17
      outer loop
         vertex -1.950903e-01 -1.000000e-01 9.807853e-01
         vertex -8.314696e-01 -1.000000e-01 5.555702e-01
         vertex -9.238795e-01 -1.000000e-01 3.826834e-01
      endloop
   endfacet
   facet normal 0.000000e+00 -1.000000e+00 6.123032e-17
      outer loop
         vertex -1.950903e-01 -1.000000e-01 9.807853e-01
         vertex -9.238795e-01 -1.000000e-01 3.826834e-01
         vertex -9.807853e-01 -1.000000e-01 1.950903e-01
      endloop
   endfacet
   facet normal 0.000000e+00 -1.000000e+00 6.123032e-17
      outer loop
         vertex -1.950903e-01 -1.000000e-01 9.807853e-01
         vertex -9.807853e-01 -1.000000e-01 1.950903e-01
         vertex -1.000000e+00 -1.000000e-01 1.167415e-16
      endloop
   endfacet
   facet normal 0.000000e+00 -1.000000e+00 6.123032e-17
      outer loop
         vertex -1.950903e-01 -1.000000e-01 9.807853e-01
         vertex -1.000000e+00 -1.000000e-01 1.167415e-16
         vertex -9.807853e-01 -1.000000e-01 -1.950903e-01
      endloop
   endfacet
   facet normal 0.000000e+00 -1.000000e+00 6.123032e-17
      outer loop
         vertex -1.950903e-01 -1.000000e-01 9.807853e-01
         vertex -9.807853e-01 -1.000000e-01 -1.950903e-01
         vertex -9.238795e-01 -1.000000e-01 -3.826834e-01
      endloop
   endfacet
   facet normal 0.000000e+00 -1.000000e+00 6.123032e-17
      outer loop
         vertex -1.950903e-01 -1.000000e-01 9.807853e-01
         vertex -9.238795e-01 -1.000000e-01 -3.826834e-01
         vertex -8.314696e-01 -1.000000e-01 -5.555702e-01
      endloop
   endfacet
   facet normal 0.000000e+00 -1.000000e+00 6.123032e-17
      outer loop
         vertex -1.950903e-01 -1.000000e-01 9.807853e-01
         vertex -8.314696e-01 -1.000000e-01 -5.555702e-01
         vertex -7.071068e-01 -1.000000e-01 -7.071068e-01
      endloop
   endfacet
   facet normal 0.000000e+00 -1.000000e+00 6.123032e-17
      outer loop
         vertex -1.950903e-01 -1.000000e-01 9.807853e-01
         vertex -7.071068e-01 -1.000000e-01 -7.071068e-01
         vertex -5.555702e-01 -1.000000e-01 -8.314696e-01
      endloop
   endfacet
   facet normal 0.000000e+00 -1.000000e+00 6.123032e-17
      outer loop
         vertex -1.950903e-01 -1.000000e-01 9.807853e-01
         vertex -5.555702e-01 -1.000000e-01 -8.314696e-01
         vertex -3.826834e-01 -1.000000e-01 -9.238795e-01
      endloop
   endfacet
   facet normal 0.000000e+00 -1.000000e+00 6.123032e-17
      outer loop
         vertex -1.950903e-01 -1.000000e-01 9.807853e-01
         vertex -3.826834e-01 -1.000000e-01 -9.238795e-01
         vertex -1.950903e-01 -1.000000e-01 -9.807853e-01
      endloop
   endfacet
   facet normal 0.000000e+00 -1.000000e+00 6.123032e-17
      outer loop
         vertex -1.950903e-01 -1.000000e-01 9.807853e-01
         vertex -1.950903e-01 -1.000000e-01 -9.807853e-01
         vertex -1.779718e-16 -1.000000e-01 -1.000000e+00
      endloop
   endfacet
   facet normal 0.000000e+00 -1.000000e+00 6.123032e-17
      outer loop
         vertex -1.950903e-01 -1.000000e-01 9.807853e-01
         vertex -1.779718e-16 -1.000000e-01 -1.000000e+00
         vertex 1.950903e-01 -1.000000e-01 -9.807853e-01
      endloop
   endfacet
   facet normal 0.000000e+00 -1.000000e+00 6.123032e-17
      outer loop
         vertex -1.950903e-01 -1.000000e-01 9.807853e-01
         vertex 1.950903e-01 -1.000000e-01 -9.807853e-01
         vertex 3.826834e-01 -1.000000e-01 -9.238795e-01
      endloop
   endfacet
   facet normal 0.000000e+00 -1.000000e+00 6.123032e-17
      outer loop
         vertex -1.950903e-01 -1.000000e-01 9.807853e-01
         vertex 3.826834e-01 -1.000000e-01 -9.238795e-01
         vertex 5.555702e-01 -1.000000e-01 -8.314696e-01
      endloop
   endfacet
   facet normal 0.000000e+00 -1.000000e+00 6.123032e-17
      outer loop
         vertex -1.950903e-01 -1.000000e-01 9.807853e-01
         vertex 5.555702e-01 -1.000000e-01 -8.314696e-01
         vertex 7.071068e-01 -1.000000e-01 -7.071068e-01
      endloop
   endfacet
   facet normal 0.000000e+00 -1.000000e+00 6.123032e-17
      outer loop
         vertex -1.950903e-01 -1.000000e-01 9.807853e-01
         vertex 7.071068e-01 -1.000000e-01 -7.071068e-01
         vertex 8.314696e-01 -1.000000e-01 -5.555702e-01
      endloop
   endfacet
   facet normal 0.000000e+00 -1.000000e+00 6.123032e-17
      outer loop
         vertex -1.950903e-01 -1.000000e-01 9.807853e-01
         vertex 8.314696e-01 -1.000000e-01 -5.555702e-01
         vertex 9.238795e-01 -1.000000e-01 -3.826834e-01
      endloop
   endfacet
   facet normal 0.000000e+00 -1.000000e+00 6.123032e-17
      outer loop
         vertex -1.950903e-01 -1.000000e-01 9.807853e-01
         vertex 9.238795e-01 -1.000000e-01 -3.826834e-01
         vertex 9.807853e-01 -1.000000e-01 -1.950903e-01
      endloop
   endfacet
   facet normal 0.000000e+00 -1.000000e+00 6.123032e-17
      outer loop
         vertex -1.950903e-01 -1.000000e-01 9.807853e-01
         vertex 9.807853e-01 -1.000000e-01 -1.950903e-01
         vertex 1.000000e+00 -1.000000e-01 -1.167415e-16
      endloop
   endfacet
   facet normal 0.000000e+00 -1.000000e+00 6.123032e-17
      outer loop
         vertex -1.950903e-01 -1.000000e-01 9.807853e-01
         vertex 1.000000e+00 -1.000000e-01 -1.167415e-16
         vertex 9.807853e-01 -1.000000e-01 1.950903e-01
      endloop
   endfacet
   facet normal 0.000000e+00 -1.000000e+00 6.123032e-17
      outer loop
         vertex -1.950903e-01 -1.000000e-01 9.807853e-01
         vertex 9.807853e-01 -1.000000e-01 1.950903e-01
         vertex 9.238795e-01 -1.000000e-01 3.826834e-01
      endloop
   endfacet
   facet normal 0.000000e+00 -1.000000e+00 6.123032e-17
      outer loop
         vertex -1.950903e-01 -1.000000e-01 9.807853e-01
         vertex 9.238795e-01 -1.000000e-01 3.826834e-01
         vertex 8.314696e-01 -1.000000e-01 5.555702e-01
      endloop
   endfacet
   facet normal 0.000000e+00 -1.000000e+00 6.123032e-17
      outer loop
         vertex -1.950903e-01 -1.000000e-01 9.807853e-01
         vertex 8.314696e-01 -1.000000e-01 5.555702e-01
         vertex 7.071068e-01 -1.000000e-01 7.071068e-01
      endloop
   endfacet
   facet normal 0.000000e+00 -1.000000e+00 6.123032e-17
      outer loop
         vertex -1.950903e-01 -1.000000e-01 9.807853e-01
         vertex 7.071068e-01 -1.000000e-01 7.071068e-01
         vertex 5.555702e-01 -1.000000e-01 8.314696e-01
      endloop
   endfacet
   facet normal 0.000000e+00 -1.000000e+00 6.123032e-17
      outer loop
         vertex -1.950903e-01 -1.000000e-01 9.807853e-01
         vertex 5.555702e-01 -1.000000e-01 8.314696e-01
         vertex 3.826834e-01 -1.000000e-01 9.238795e-01
      endloop
   endfacet
   facet normal 0.000000e+00 -1.000000e+00 6.123032e-17
      outer loop
         vertex -1.950903e-01 -1.000000e-01 9.807853e-01
         vertex 3.826834e-01 -1.000000e-01 9.238795e-01
         vertex 1.950903e-01 -1.000000e-01 9.807853e-01
      endloop
   endfacet
   facet normal 0.000000e+00 -1.000000e+00 6.123032e-17
      outer loop
         vertex -1.950903e-01 -1.000000e-01 9.807853e-01
         vertex 1.950903e-01 -1.000000e-01 9.807853e-01
         vertex 1.779718e-16 -1.000000e-01 1.000000e+00
      endloop
   endfacet
endsolid
