solid
facet normal 0.986285 -0.0245997 -0.163208
outer loop
vertex 28.5317 -39.8914 -174.776
vertex 28.5317 -13.3969 -178.769
vertex 30 -26.5939 -167.907
endloop
endfacet
facet normal -0 -0.997204 -0.0747289
outer loop
vertex -20 -197.766 -29.8085
vertex 0 -197.766 -29.8085
vertex -20 -200 2.44921e-14
endloop
endfacet
facet normal 0.45298 -0.386816 -0.803233
outer loop
vertex 17.6336 -97.1352 -168.243
vertex 9.27051 -72.5318 -184.808
vertex 17.6336 -70.975 -180.841
endloop
endfacet
facet normal -1 0 0
outer loop
vertex -20 200 0
vertex -20 15 25.9808
vertex -20 5.20944 29.5442
endloop
endfacet
facet normal 0.156007 -0.962991 0.219797
outer loop
vertex 9.27051 -189.712 58.5183
vertex 0 -197.766 29.8085
vertex 9.27051 -196.314 29.5896
endloop
endfacet
facet normal 0.156007 -0.984994 0.073814
outer loop
vertex 0 -197.766 29.8085
vertex 0 -200 2.44921e-14
vertex 9.27051 -196.314 29.5896
endloop
endfacet
facet normal -1 0 -0
outer loop
vertex -20 -197.766 29.8085
vertex -20 -165.248 112.664
vertex -20 -146.61 136.035
endloop
endfacet
facet normal -1 0 0
outer loop
vertex -20 -197.766 -29.8085
vertex -20 -180.194 -86.7768
vertex -20 -191.115 -58.951
endloop
endfacet
facet normal -0 -0.781831 -0.623491
outer loop
vertex -20 -146.61 -136.035
vertex 0 -146.61 -136.035
vertex -20 -165.248 -112.664
endloop
endfacet
facet normal 0.452984 0.829891 0.325708
outer loop
vertex 9.27051 189.712 58.5183
vertex 9.27051 178.871 86.1397
vertex 17.6336 185.64 57.2622
endloop
endfacet
facet normal 0.986501 0.0922479 0.135303
outer loop
vertex 28.5317 111.773 140.159
vertex 28.5317 89.6352 155.253
vertex 30 99.9235 137.533
endloop
endfacet
facet normal 0.706118 0.30723 0.637971
outer loop
vertex 24.2705 93.8168 162.495
vertex 17.6336 70.975 180.841
vertex 24.2705 68.5502 174.663
endloop
endfacet
facet normal 0 -0.433882 -0.90097
outer loop
vertex -20 -100 -173.205
vertex 0 -73.0682 -186.175
vertex 0 -100 -173.205
endloop
endfacet
facet normal 1 -0 0
outer loop
vertex 30 99.9235 -137.533
vertex 30 -99.9235 -137.533
vertex 30 77.1784 -151.471
endloop
endfacet
facet normal 0 -0.680174 0.733051
outer loop
vertex -20 -146.61 136.035
vertex 0 -146.61 136.035
vertex -20 -124.698 156.366
endloop
endfacet
facet normal 0.452984 -0.132875 -0.881561
outer loop
vertex 17.6336 -43.2293 -189.4
vertex 9.27051 -14.8363 -197.977
vertex 17.6336 -14.5178 -193.727
endloop
endfacet
facet normal 0.156008 0.855422 -0.493878
outer loop
vertex 9.27051 164.035 -111.837
vertex 0 180.194 -86.7768
vertex 9.27051 178.871 -86.1397
endloop
endfacet
facet normal 0.452982 0.829893 0.325708
outer loop
vertex 17.6336 185.64 57.2622
vertex 9.27051 178.871 86.1397
vertex 17.6336 175.032 84.2908
endloop
endfacet
facet normal 0.706118 0.398883 0.585055
outer loop
vertex 17.6336 121.126 151.887
vertex 17.6336 97.1352 168.243
vertex 24.2705 116.988 146.698
endloop
endfacet
facet normal 0.89049 0.309481 0.33354
outer loop
vertex 24.2705 137.545 127.623
vertex 24.2705 116.988 146.698
vertex 28.5317 131.415 121.935
endloop
endfacet
facet normal 1 0 0
outer loop
vertex 30 137.533 99.9235
vertex 30 -120.208 120.208
vertex 30 -137.533 99.9235
endloop
endfacet
facet normal 0.89049 0.355736 0.283689
outer loop
vertex 28.5317 148.12 100.987
vertex 24.2705 137.545 127.623
vertex 28.5317 131.415 121.935
endloop
endfacet
facet normal -1 0 0
outer loop
vertex -20 200 0
vertex -20 28.1908 -10.2606
vertex -20 30 1.69965e-14
endloop
endfacet
facet normal -1 -0 0
outer loop
vertex 5 -5.20944 29.5442
vertex 5 5.20944 29.5442
vertex 5 -15 25.9808
endloop
endfacet
facet normal 0 0.984808 0.173648
outer loop
vertex -20 -28.1908 -10.2606
vertex 5 -30 0
vertex 5 -28.1908 -10.2606
endloop
endfacet
facet normal 0.706118 -0.553611 -0.441489
outer loop
vertex 17.6336 -160.514 -109.436
vertex 17.6336 -142.41 -132.137
vertex 24.2705 -155.03 -105.698
endloop
endfacet
facet normal 0.890492 0.134114 -0.434785
outer loop
vertex 24.2705 41.7524 -182.929
vertex 24.2705 68.5502 -174.663
vertex 28.5317 39.8914 -174.776
endloop
endfacet
facet normal 1 0 0
outer loop
vertex 30 167.907 26.5939
vertex 30 -161.68 52.5329
vertex 30 -167.907 26.5939
endloop
endfacet
facet normal 1.83024e-16 0.997204 0.0747289
outer loop
vertex -20 200 0
vertex 0 197.766 29.8085
vertex 0 200 -4.89843e-14
endloop
endfacet
facet normal 0.706116 -0.105537 0.700187
outer loop
vertex 17.6336 -14.5178 193.727
vertex 17.6336 -43.2293 189.4
vertex 24.2705 -14.0219 187.109
endloop
endfacet
facet normal 0 0.56332 0.826239
outer loop
vertex -20 124.698 156.366
vertex 0 100 173.205
vertex 0 124.698 156.366
endloop
endfacet
facet normal -1 -0 0
outer loop
vertex -20 5.20944 -29.5442
vertex -20 100 -173.205
vertex -20 73.0682 -186.175
endloop
endfacet
facet normal -1 0 -0
outer loop
vertex -20 -197.766 29.8085
vertex -20 -180.194 86.7768
vertex -20 -165.248 112.664
endloop
endfacet
facet normal 0.70612 0.706112 -0.0529148
outer loop
vertex 17.6336 192.101 -28.9545
vertex 17.6336 194.27 0
vertex 24.2705 185.538 -27.9653
endloop
endfacet
facet normal 0.452984 -0.829892 0.325707
outer loop
vertex 17.6336 -175.032 84.2908
vertex 9.27051 -189.712 58.5183
vertex 17.6336 -185.64 57.2622
endloop
endfacet
facet normal 0.987873 0.154785 0.0121819
outer loop
vertex 30 170 -5.05184e-14
vertex 28.5317 177.268 26.7189
vertex 30 167.907 26.5939
endloop
endfacet
facet normal 0 -0.930874 0.365341
outer loop
vertex -20 -180.194 86.7768
vertex 0 -191.115 58.951
vertex 0 -180.194 86.7768
endloop
endfacet
facet normal 0 0 1
outer loop
vertex -20 -14.946 199.441
vertex 0 -14.946 199.441
vertex -20 14.946 199.441
endloop
endfacet
facet normal 0.452982 0.869167 0.198383
outer loop
vertex 9.27051 196.314 29.5896
vertex 9.27051 189.712 58.5183
vertex 17.6336 192.101 28.9545
endloop
endfacet
facet normal 0.70612 -0.481625 -0.519069
outer loop
vertex 17.6336 -142.41 -132.137
vertex 17.6336 -121.126 -151.887
vertex 24.2705 -137.545 -127.623
endloop
endfacet
facet normal 0.452982 -0.829892 0.325709
outer loop
vertex 9.27051 -178.871 86.1397
vertex 9.27051 -189.712 58.5183
vertex 17.6336 -175.032 84.2908
endloop
endfacet
facet normal 0.70612 -0.553609 -0.441488
outer loop
vertex 24.2705 -155.03 -105.698
vertex 17.6336 -142.41 -132.137
vertex 24.2705 -137.545 -127.623
endloop
endfacet
facet normal 0.452982 0.386815 0.803232
outer loop
vertex 9.27051 99.2659 171.934
vertex 9.27051 72.5318 184.808
vertex 17.6336 97.1352 168.243
endloop
endfacet
facet normal 0.156008 -0.147218 0.976723
outer loop
vertex 0 -14.946 199.441
vertex 0 -44.5042 194.986
vertex 9.27051 -14.8363 197.977
endloop
endfacet
facet normal 1 0 0
outer loop
vertex 30 151.471 -77.1784
vertex 30 -161.68 -52.5329
vertex 30 -151.471 -77.1784
endloop
endfacet
facet normal 0.890491 0.394042 -0.227501
outer loop
vertex 24.2705 155.03 -105.698
vertex 24.2705 169.052 -81.4112
vertex 28.5317 148.12 -100.987
endloop
endfacet
facet normal 0.890491 -0.423548 -0.16623
outer loop
vertex 24.2705 -179.298 -55.306
vertex 24.2705 -169.052 -81.4112
vertex 28.5317 -171.306 -52.8409
endloop
endfacet
facet normal 0.452984 0.697016 0.555855
outer loop
vertex 9.27051 164.035 111.837
vertex 9.27051 145.534 135.036
vertex 17.6336 160.514 109.436
endloop
endfacet
facet normal 0.89049 -0.197418 -0.409943
outer loop
vertex 28.5317 -89.6352 -155.253
vertex 24.2705 -68.5502 -174.663
vertex 28.5317 -65.4949 -166.878
endloop
endfacet
facet normal 0.706117 -0.105536 -0.700187
outer loop
vertex 24.2705 -41.7524 -182.929
vertex 17.6336 -14.5178 -193.727
vertex 24.2705 -14.0219 -187.109
endloop
endfacet
facet normal 0.156012 0.671845 0.724075
outer loop
vertex 0 146.61 136.035
vertex 0 124.698 156.366
vertex 9.27051 145.534 135.036
endloop
endfacet
facet normal 0.890491 -0.394042 -0.227502
outer loop
vertex 28.5317 -161.517 -77.7826
vertex 24.2705 -155.03 -105.698
vertex 28.5317 -148.12 -100.987
endloop
endfacet
facet normal 0.986781 0.126705 0.101043
outer loop
vertex 28.5317 148.12 100.987
vertex 28.5317 131.415 121.935
vertex 30 137.533 99.9235
endloop
endfacet
facet normal 0.156012 -0.671845 -0.724075
outer loop
vertex 0 -146.61 -136.035
vertex 0 -124.698 -156.366
vertex 9.27051 -145.534 -135.036
endloop
endfacet
facet normal -1 0 0
outer loop
vertex -20 -197.766 -29.8085
vertex -20 -14.946 -199.441
vertex -20 -44.5042 -194.986
endloop
endfacet
facet normal 0.890491 -0.256312 -0.375939
outer loop
vertex 28.5317 -111.773 -140.159
vertex 24.2705 -93.8168 -162.495
vertex 28.5317 -89.6352 -155.253
endloop
endfacet
facet normal 0.156008 -0.772257 0.615858
outer loop
vertex 9.27051 -145.534 135.036
vertex 0 -165.248 112.664
vertex 9.27051 -164.035 111.837
endloop
endfacet
facet normal 0.156009 -0.147218 0.976723
outer loop
vertex 9.27051 -14.8363 197.977
vertex 0 -44.5042 194.986
vertex 9.27051 -44.1775 193.554
endloop
endfacet
facet normal -1 -0 0
outer loop
vertex -20 -197.766 29.8085
vertex -20 -5.20944 29.5442
vertex -20 -200 2.44921e-14
endloop
endfacet
facet normal 0.706118 -0.30723 0.637971
outer loop
vertex 17.6336 -70.975 180.841
vertex 17.6336 -97.1352 168.243
vertex 24.2705 -68.5502 174.663
endloop
endfacet
facet normal 0.70612 0.690339 -0.157565
outer loop
vertex 24.2705 179.298 -55.306
vertex 17.6336 192.101 -28.9545
vertex 24.2705 185.538 -27.9653
endloop
endfacet
facet normal -1 0 -0
outer loop
vertex -20 5.20944 29.5442
vertex -20 14.946 199.441
vertex -20 44.5042 194.986
endloop
endfacet
facet normal 0 0.930874 0.365341
outer loop
vertex -20 180.194 86.7768
vertex 0 180.194 86.7768
vertex -20 191.115 58.951
endloop
endfacet
facet normal 0.706114 -0.105538 -0.700189
outer loop
vertex 17.6336 -43.2293 -189.4
vertex 17.6336 -14.5178 -193.727
vertex 24.2705 -41.7524 -182.929
endloop
endfacet
facet normal 0.45298 0.606388 0.653531
outer loop
vertex 17.6336 142.41 132.137
vertex 9.27051 123.782 155.218
vertex 17.6336 121.126 151.887
endloop
endfacet
facet normal 0.706117 0.659148 0.258696
outer loop
vertex 24.2705 179.298 55.306
vertex 17.6336 175.032 84.2908
vertex 24.2705 169.052 81.4112
endloop
endfacet
facet normal 0.890491 -0.443593 0.101247
outer loop
vertex 24.2705 -179.298 55.306
vertex 24.2705 -185.538 27.9653
vertex 28.5317 -171.306 52.8409
endloop
endfacet
facet normal 0.706118 -0.30723 0.637971
outer loop
vertex 24.2705 -68.5502 174.663
vertex 17.6336 -97.1352 168.243
vertex 24.2705 -93.8168 162.495
endloop
endfacet
facet normal 0.452982 0.772078 -0.445761
outer loop
vertex 17.6336 160.514 -109.436
vertex 9.27051 178.871 -86.1397
vertex 17.6336 175.032 -84.2908
endloop
endfacet
facet normal 0.45298 0.26278 -0.851913
outer loop
vertex 17.6336 43.2293 -189.4
vertex 9.27051 72.5318 -184.808
vertex 17.6336 70.975 -180.841
endloop
endfacet
facet normal 0 0.680174 -0.733051
outer loop
vertex -20 124.698 -156.366
vertex 0 146.61 -136.035
vertex 0 124.698 -156.366
endloop
endfacet
facet normal -0 -0.149043 -0.988831
outer loop
vertex -20 -14.946 -199.441
vertex 0 -14.946 -199.441
vertex -20 -44.5042 -194.986
endloop
endfacet
facet normal 0.987158 0.148702 -0.0583609
outer loop
vertex 28.5317 161.517 -77.7826
vertex 28.5317 171.306 -52.8409
vertex 30 161.68 -52.5329
endloop
endfacet
facet normal 0 0.866026 -0.5
outer loop
vertex -20 180.194 -86.7768
vertex 0 180.194 -86.7768
vertex -20 165.248 -112.664
endloop
endfacet
facet normal 0.156009 0.147218 -0.976723
outer loop
vertex 9.27051 14.8363 -197.977
vertex 0 44.5042 -194.986
vertex 9.27051 44.1775 -193.554
endloop
endfacet
facet normal 0.890492 -0.134113 -0.434785
outer loop
vertex 28.5317 -65.4949 -166.878
vertex 24.2705 -41.7524 -182.929
vertex 28.5317 -39.8914 -174.776
endloop
endfacet
facet normal 0.987621 0.156423 -0.0117223
outer loop
vertex 28.5317 177.268 -26.7189
vertex 28.5317 179.27 0
vertex 30 170 -5.05184e-14
endloop
endfacet
facet normal 0.452975 -0.697022 -0.555855
outer loop
vertex 17.6336 -160.514 -109.436
vertex 9.27051 -145.534 -135.036
vertex 17.6336 -142.41 -132.137
endloop
endfacet
facet normal 0 0.974928 0.222521
outer loop
vertex -20 197.766 29.8085
vertex 0 191.115 58.951
vertex 0 197.766 29.8085
endloop
endfacet
facet normal 0.156008 0.147218 -0.976723
outer loop
vertex 0 14.946 -199.441
vertex 0 44.5042 -194.986
vertex 9.27051 14.8363 -197.977
endloop
endfacet
facet normal -1 0 -0
outer loop
vertex 5 -28.1908 10.2606
vertex 5 22.9813 19.2836
vertex 5 28.1908 10.2606
endloop
endfacet
facet normal 0.452982 -0.889027 -0.0666221
outer loop
vertex 17.6336 -194.27 1.7053e-13
vertex 9.27051 -196.314 -29.5896
vertex 17.6336 -192.101 -28.9545
endloop
endfacet
facet normal -1 -0 0
outer loop
vertex 5 -22.9813 -19.2836
vertex 5 22.9813 -19.2836
vertex 5 -15 -25.9808
endloop
endfacet
facet normal 1 0 0
outer loop
vertex 30 167.907 -26.5939
vertex 30 -170 6.2479e-09
vertex 30 -167.907 -26.5939
endloop
endfacet
facet normal 0 0.680174 -0.733051
outer loop
vertex -20 146.61 -136.035
vertex 0 146.61 -136.035
vertex -20 124.698 -156.366
endloop
endfacet
facet normal 0 -0 1
outer loop
vertex -20 5.20944 -29.5442
vertex 5 -5.20944 -29.5442
vertex 5 5.20944 -29.5442
endloop
endfacet
facet normal 0.988812 -0.0779401 -0.127187
outer loop
vertex 28.5317 -89.6352 -155.253
vertex 30 -77.1784 -151.471
vertex 30 -99.9235 -137.533
endloop
endfacet
facet normal -1 0 0
outer loop
vertex -20 5.20944 -29.5442
vertex -20 197.766 -29.8085
vertex -20 191.115 -58.951
endloop
endfacet
facet normal 0.452984 0.132875 -0.881561
outer loop
vertex 9.27051 14.8363 -197.977
vertex 9.27051 44.1775 -193.554
vertex 17.6336 14.5178 -193.727
endloop
endfacet
facet normal -1 0 0
outer loop
vertex -20 -197.766 -29.8085
vertex -20 -73.0682 -186.175
vertex -20 -100 -173.205
endloop
endfacet
facet normal 0.156007 0.984994 -0.0738139
outer loop
vertex 9.27051 196.314 -29.5896
vertex 0 200 -4.89843e-14
vertex 9.27051 198.532 0
endloop
endfacet
facet normal 0.986781 -0.126705 0.101043
outer loop
vertex 28.5317 -131.415 121.935
vertex 28.5317 -148.12 100.987
vertex 30 -137.533 99.9235
endloop
endfacet
facet normal 0.98888 0.0569122 0.137398
outer loop
vertex 28.5317 65.4949 166.878
vertex 30 52.5329 161.68
vertex 30 77.1784 151.471
endloop
endfacet
facet normal 0 -0.56332 -0.826239
outer loop
vertex -20 -124.698 -156.366
vertex 0 -100 -173.205
vertex 0 -124.698 -156.366
endloop
endfacet
facet normal 0.452982 -0.889027 0.0666223
outer loop
vertex 9.27051 -196.314 29.5896
vertex 9.27051 -198.532 1.7053e-13
vertex 17.6336 -192.101 28.9545
endloop
endfacet
facet normal 0.986501 -0.0922479 -0.135303
outer loop
vertex 28.5317 -111.773 -140.159
vertex 28.5317 -89.6352 -155.253
vertex 30 -99.9235 -137.533
endloop
endfacet
facet normal 0.452982 -0.502211 0.736608
outer loop
vertex 9.27051 -99.2659 171.934
vertex 9.27051 -123.782 155.218
vertex 17.6336 -97.1352 168.243
endloop
endfacet
facet normal 0.452975 0.69702 -0.555857
outer loop
vertex 9.27051 145.534 -135.036
vertex 9.27051 164.035 -111.837
vertex 17.6336 142.41 -132.137
endloop
endfacet
facet normal 0.452986 -0.262779 -0.85191
outer loop
vertex 17.6336 -70.975 -180.841
vertex 9.27051 -44.1775 -193.554
vertex 17.6336 -43.2293 -189.4
endloop
endfacet
facet normal 0.89049 0.443594 0.101247
outer loop
vertex 24.2705 185.538 27.9653
vertex 24.2705 179.298 55.306
vertex 28.5317 177.268 26.7189
endloop
endfacet
facet normal 0.706117 0.398884 -0.585055
outer loop
vertex 17.6336 97.1352 -168.243
vertex 17.6336 121.126 -151.887
vertex 24.2705 93.8168 -162.495
endloop
endfacet
facet normal 1 -0 0
outer loop
vertex 30 151.471 77.1784
vertex 30 -151.471 77.1784
vertex 30 161.68 52.5329
endloop
endfacet
facet normal 0.452984 0 -0.891519
outer loop
vertex 17.6336 -14.5178 -193.727
vertex 9.27051 14.8363 -197.977
vertex 17.6336 14.5178 -193.727
endloop
endfacet
facet normal 0.890492 -0.309479 0.333538
outer loop
vertex 24.2705 -116.988 146.698
vertex 24.2705 -137.545 127.623
vertex 28.5317 -111.773 140.159
endloop
endfacet
facet normal 0 0.930874 -0.365341
outer loop
vertex -20 191.115 -58.951
vertex 0 191.115 -58.951
vertex -20 180.194 -86.7768
endloop
endfacet
facet normal 0 0.642788 0.766044
outer loop
vertex -20 -15 -25.9808
vertex 5 -22.9813 -19.2836
vertex 5 -15 -25.9808
endloop
endfacet
facet normal 0.988812 0.0779401 -0.127187
outer loop
vertex 28.5317 89.6352 -155.253
vertex 30 99.9235 -137.533
vertex 30 77.1784 -151.471
endloop
endfacet
facet normal 0.890492 -0.256311 -0.375938
outer loop
vertex 24.2705 -116.988 -146.698
vertex 24.2705 -93.8168 -162.495
vertex 28.5317 -111.773 -140.159
endloop
endfacet
facet normal 0.706117 -0 0.708096
outer loop
vertex 17.6336 14.5178 193.727
vertex 17.6336 -14.5178 193.727
vertex 24.2705 14.0219 187.109
endloop
endfacet
facet normal 0.986401 -0.0713125 0.148082
outer loop
vertex 28.5317 -65.4949 166.878
vertex 28.5317 -89.6352 155.253
vertex 30 -77.1784 151.471
endloop
endfacet
facet normal 0.452979 -0.502211 0.736609
outer loop
vertex 17.6336 -97.1352 168.243
vertex 9.27051 -123.782 155.218
vertex 17.6336 -121.126 151.887
endloop
endfacet
facet normal 0 0.56332 -0.826239
outer loop
vertex -20 100 -173.205
vertex 0 124.698 -156.366
vertex 0 100 -173.205
endloop
endfacet
facet normal 0.988605 0.114467 -0.0977634
outer loop
vertex 28.5317 131.415 -121.935
vertex 30 137.533 -99.9235
vertex 30 120.208 -120.208
endloop
endfacet
facet normal 0.706118 -0.30723 -0.637971
outer loop
vertex 24.2705 -93.8168 -162.495
vertex 17.6336 -70.975 -180.841
vertex 24.2705 -68.5502 -174.663
endloop
endfacet
facet normal 1 0 0
outer loop
vertex 30 52.5329 161.68
vertex 30 -26.5939 167.907
vertex 30 -52.5329 161.68
endloop
endfacet
facet normal 0.45298 -0.386815 0.803233
outer loop
vertex 9.27051 -72.5318 184.808
vertex 9.27051 -99.2659 171.934
vertex 17.6336 -70.975 180.841
endloop
endfacet
facet normal 0.70612 0.481626 -0.519068
outer loop
vertex 24.2705 116.988 -146.698
vertex 17.6336 142.41 -132.137
vertex 24.2705 137.545 -127.623
endloop
endfacet
facet normal 0.706117 -0.613228 -0.354048
outer loop
vertex 17.6336 -175.032 -84.2908
vertex 17.6336 -160.514 -109.436
vertex 24.2705 -169.052 -81.4112
endloop
endfacet
facet normal 0.706117 -0.690342 -0.157566
outer loop
vertex 24.2705 -185.538 -27.9653
vertex 17.6336 -185.64 -57.2622
vertex 24.2705 -179.298 -55.306
endloop
endfacet
facet normal 0 0.34202 -0.939693
outer loop
vertex -20 -15 25.9808
vertex 5 -5.20944 29.5442
vertex 5 -15 25.9808
endloop
endfacet
facet normal 0.986401 0.0713125 -0.148082
outer loop
vertex 28.5317 65.4949 -166.878
vertex 28.5317 89.6352 -155.253
vertex 30 77.1784 -151.471
endloop
endfacet
facet normal 0.98738 -0.154399 -0.0352408
outer loop
vertex 28.5317 -177.268 -26.7189
vertex 28.5317 -171.306 -52.8409
vertex 30 -167.907 -26.5939
endloop
endfacet
facet normal 1 -0 0
outer loop
vertex 30 26.5939 -167.907
vertex 30 -26.5939 -167.907
vertex 30 -2.15755e-14 -170
endloop
endfacet
facet normal 0.452983 0.889026 -0.066622
outer loop
vertex 17.6336 192.101 -28.9545
vertex 9.27051 198.532 0
vertex 17.6336 194.27 0
endloop
endfacet
facet normal -0 -0.984808 -0.173648
outer loop
vertex -20 30 1.69965e-14
vertex 5 30 1.69965e-14
vertex -20 28.1908 10.2606
endloop
endfacet
facet normal 0.890491 0.256311 -0.375939
outer loop
vertex 24.2705 93.8168 -162.495
vertex 24.2705 116.988 -146.698
vertex 28.5317 89.6352 -155.253
endloop
endfacet
facet normal 0.890491 0.443593 -0.101247
outer loop
vertex 24.2705 179.298 -55.306
vertex 24.2705 185.538 -27.9653
vertex 28.5317 171.306 -52.8409
endloop
endfacet
facet normal 0.452984 0.772077 0.44576
outer loop
vertex 17.6336 175.032 84.2908
vertex 9.27051 164.035 111.837
vertex 17.6336 160.514 109.436
endloop
endfacet
facet normal 0.156007 0.984994 0.073814
outer loop
vertex 0 200 -4.89843e-14
vertex 0 197.766 29.8085
vertex 9.27051 198.532 0
endloop
endfacet
facet normal 0.156007 0.428569 -0.889938
outer loop
vertex 0 73.0682 -186.175
vertex 0 100 -173.205
vertex 9.27051 72.5318 -184.808
endloop
endfacet
facet normal -1 0 -0
outer loop
vertex -20 -197.766 -29.8085
vertex -20 -22.9813 -19.2836
vertex -20 -15 -25.9808
endloop
endfacet
facet normal 0.156008 -0 0.987756
outer loop
vertex 0 14.946 199.441
vertex 0 -14.946 199.441
vertex 9.27051 14.8363 197.977
endloop
endfacet
facet normal 0.706118 0.30723 0.637971
outer loop
vertex 17.6336 97.1352 168.243
vertex 17.6336 70.975 180.841
vertex 24.2705 93.8168 162.495
endloop
endfacet
facet normal 0.890491 0.256312 0.375939
outer loop
vertex 28.5317 111.773 140.159
vertex 24.2705 93.8168 162.495
vertex 28.5317 89.6352 155.253
endloop
endfacet
facet normal 0.706117 0.659148 -0.258695
outer loop
vertex 17.6336 175.032 -84.2908
vertex 17.6336 185.64 -57.2622
vertex 24.2705 169.052 -81.4112
endloop
endfacet
facet normal 0.890491 0.423549 -0.166229
outer loop
vertex 28.5317 161.517 -77.7826
vertex 24.2705 179.298 -55.306
vertex 28.5317 171.306 -52.8409
endloop
endfacet
facet normal 0.89049 -0.134114 0.434788
outer loop
vertex 28.5317 -39.8914 174.776
vertex 24.2705 -68.5502 174.663
vertex 28.5317 -65.4949 166.878
endloop
endfacet
facet normal 0.156009 -0.556423 -0.816122
outer loop
vertex 9.27051 -123.782 -155.218
vertex 0 -100 -173.205
vertex 9.27051 -99.2659 -171.934
endloop
endfacet
facet normal -0 0 -1
outer loop
vertex -20 5.20944 29.5442
vertex 5 5.20944 29.5442
vertex -20 -5.20944 29.5442
endloop
endfacet
facet normal 0.156007 -0.984994 -0.0738139
outer loop
vertex 9.27051 -198.532 1.7053e-13
vertex 0 -197.766 -29.8085
vertex 9.27051 -196.314 -29.5896
endloop
endfacet
facet normal 0.987158 -0.148702 0.0583609
outer loop
vertex 28.5317 -161.517 77.7826
vertex 28.5317 -171.306 52.8409
vertex 30 -161.68 52.5329
endloop
endfacet
facet normal 0.89049 -0.197418 0.409943
outer loop
vertex 24.2705 -68.5502 174.663
vertex 24.2705 -93.8168 162.495
vertex 28.5317 -65.4949 166.878
endloop
endfacet
facet normal 0.15601 -0.96299 0.219796
outer loop
vertex 0 -191.115 58.951
vertex 0 -197.766 29.8085
vertex 9.27051 -189.712 58.5183
endloop
endfacet
facet normal 0.890492 -0.453726 0.034002
outer loop
vertex 28.5317 -177.268 26.7189
vertex 24.2705 -187.634 1.56319e-13
vertex 28.5317 -179.27 1.7053e-13
endloop
endfacet
facet normal 0.988947 -0.0116334 0.147815
outer loop
vertex 28.5317 -13.3969 178.769
vertex 30 -26.5939 167.907
vertex 30 3.12389e-09 170
endloop
endfacet
facet normal 0.987873 -0.154785 -0.0121819
outer loop
vertex 30 -170 6.2479e-09
vertex 28.5317 -177.268 -26.7189
vertex 30 -167.907 -26.5939
endloop
endfacet
facet normal 0.156009 0.428569 0.889938
outer loop
vertex 0 100 173.205
vertex 0 73.0682 186.175
vertex 9.27051 99.2659 171.934
endloop
endfacet
facet normal 0.706118 -0.398884 0.585055
outer loop
vertex 24.2705 -93.8168 162.495
vertex 17.6336 -121.126 151.887
vertex 24.2705 -116.988 146.698
endloop
endfacet
facet normal 0.156012 -0.671845 0.724075
outer loop
vertex 9.27051 -123.782 155.218
vertex 0 -146.61 136.035
vertex 9.27051 -145.534 135.036
endloop
endfacet
facet normal 0.89049 0.355735 -0.28369
outer loop
vertex 24.2705 137.545 -127.623
vertex 24.2705 155.03 -105.698
vertex 28.5317 131.415 -121.935
endloop
endfacet
facet normal 0 0.781831 0.623491
outer loop
vertex -20 165.248 112.664
vertex 0 146.61 136.035
vertex 0 165.248 112.664
endloop
endfacet
facet normal 0.156012 -0.772257 -0.615857
outer loop
vertex 9.27051 -164.035 -111.837
vertex 0 -146.61 -136.035
vertex 9.27051 -145.534 -135.036
endloop
endfacet
facet normal 0.890492 0 0.454999
outer loop
vertex 28.5317 13.3969 178.769
vertex 24.2705 -14.0219 187.109
vertex 28.5317 -13.3969 178.769
endloop
endfacet
facet normal 0.89049 0.394043 -0.227502
outer loop
vertex 28.5317 148.12 -100.987
vertex 24.2705 169.052 -81.4112
vertex 28.5317 161.517 -77.7826
endloop
endfacet
facet normal -1 0 0
outer loop
vertex -20 -200 2.44921e-14
vertex -20 -5.20944 29.5442
vertex -20 -15 25.9808
endloop
endfacet
facet normal 0.156012 -0.556423 0.816121
outer loop
vertex 9.27051 -99.2659 171.934
vertex 0 -124.698 156.366
vertex 9.27051 -123.782 155.218
endloop
endfacet
facet normal 0.156009 0.291148 -0.943872
outer loop
vertex 0 44.5042 -194.986
vertex 0 73.0682 -186.175
vertex 9.27051 44.1775 -193.554
endloop
endfacet
facet normal 0.156007 0.42857 0.889938
outer loop
vertex 9.27051 99.2659 171.934
vertex 0 73.0682 186.175
vertex 9.27051 72.5318 184.808
endloop
endfacet
facet normal 0 0.997204 0.0747289
outer loop
vertex -20 197.766 29.8085
vertex 0 197.766 29.8085
vertex -20 200 0
endloop
endfacet
facet normal -1 0 0
outer loop
vertex -20 5.20944 29.5442
vertex -20 -5.20944 29.5442
vertex -20 -14.946 199.441
endloop
endfacet
facet normal 0.156008 0.919476 0.360867
outer loop
vertex 9.27051 189.712 58.5183
vertex 0 180.194 86.7768
vertex 9.27051 178.871 86.1397
endloop
endfacet
facet normal 0 0.433882 -0.90097
outer loop
vertex -20 73.0682 -186.175
vertex 0 100 -173.205
vertex 0 73.0682 -186.175
endloop
endfacet
facet normal 0.89049 -0.443594 -0.101247
outer loop
vertex 24.2705 -185.538 -27.9653
vertex 24.2705 -179.298 -55.306
vertex 28.5317 -177.268 -26.7189
endloop
endfacet
facet normal 0.890492 -0.0678139 -0.449917
outer loop
vertex 28.5317 -39.8914 -174.776
vertex 24.2705 -14.0219 -187.109
vertex 28.5317 -13.3969 -178.769
endloop
endfacet
facet normal 0.890491 0.355735 0.283689
outer loop
vertex 24.2705 155.03 105.698
vertex 24.2705 137.545 127.623
vertex 28.5317 148.12 100.987
endloop
endfacet
facet normal -1 0 0
outer loop
vertex -20 197.766 -29.8085
vertex -20 15 -25.9808
vertex -20 22.9813 -19.2836
endloop
endfacet
facet normal 0.9881 0.149564 -0.0359072
outer loop
vertex 28.5317 171.306 -52.8409
vertex 30 167.907 -26.5939
vertex 30 161.68 -52.5329
endloop
endfacet
facet normal 0.706118 -0.30723 -0.637971
outer loop
vertex 17.6336 -97.1352 -168.243
vertex 17.6336 -70.975 -180.841
vertex 24.2705 -93.8168 -162.495
endloop
endfacet
facet normal 0.156012 0.556422 0.816122
outer loop
vertex 0 124.698 156.366
vertex 0 100 173.205
vertex 9.27051 123.782 155.218
endloop
endfacet
facet normal -1 -0 0
outer loop
vertex 5 -22.9813 19.2836
vertex 5 22.9813 19.2836
vertex 5 -28.1908 10.2606
endloop
endfacet
facet normal 0.706117 -0.659148 0.258695
outer loop
vertex 17.6336 -175.032 84.2908
vertex 17.6336 -185.64 57.2622
vertex 24.2705 -169.052 81.4112
endloop
endfacet
facet normal 0.89049 0.394043 0.227502
outer loop
vertex 24.2705 169.052 81.4112
vertex 24.2705 155.03 105.698
vertex 28.5317 161.517 77.7826
endloop
endfacet
facet normal 0.988605 -0.114467 -0.0977634
outer loop
vertex 28.5317 -131.415 -121.935
vertex 30 -120.208 -120.208
vertex 30 -137.533 -99.9235
endloop
endfacet
facet normal 0 0.866026 -0.5
outer loop
vertex -20 165.248 -112.664
vertex 0 180.194 -86.7768
vertex 0 165.248 -112.664
endloop
endfacet
facet normal 0 -0 -1
outer loop
vertex -20 -14.946 -199.441
vertex 0 14.946 -199.441
vertex 0 -14.946 -199.441
endloop
endfacet
facet normal 0.986401 0.0713125 0.148082
outer loop
vertex 28.5317 89.6352 155.253
vertex 28.5317 65.4949 166.878
vertex 30 77.1784 151.471
endloop
endfacet
facet normal 0.89049 0.45373 0.0340023
outer loop
vertex 28.5317 179.27 0
vertex 24.2705 185.538 27.9653
vertex 28.5317 177.268 26.7189
endloop
endfacet
facet normal 0.706113 -0.706119 0.0529185
outer loop
vertex 24.2705 -185.538 27.9653
vertex 17.6336 -194.27 1.7053e-13
vertex 24.2705 -187.634 1.56319e-13
endloop
endfacet
facet normal 0.706118 -0.613227 -0.354048
outer loop
vertex 24.2705 -169.052 -81.4112
vertex 17.6336 -160.514 -109.436
vertex 24.2705 -155.03 -105.698
endloop
endfacet
facet normal 0.156008 0.772258 0.615857
outer loop
vertex 0 165.248 112.664
vertex 0 146.61 136.035
vertex 9.27051 164.035 111.837
endloop
endfacet
facet normal 1 0 0
outer loop
vertex 30 77.1784 151.471
vertex 30 -52.5329 161.68
vertex 30 -77.1784 151.471
endloop
endfacet
facet normal -1 0 0
outer loop
vertex -20 5.20944 29.5442
vertex -20 -14.946 199.441
vertex -20 14.946 199.441
endloop
endfacet
facet normal 0.890492 -0.134114 0.434785
outer loop
vertex 24.2705 -41.7524 182.929
vertex 24.2705 -68.5502 174.663
vertex 28.5317 -39.8914 174.776
endloop
endfacet
facet normal 0.986501 0.0922479 -0.135303
outer loop
vertex 28.5317 89.6352 -155.253
vertex 28.5317 111.773 -140.159
vertex 30 99.9235 -137.533
endloop
endfacet
facet normal 0 -0.984808 0.173648
outer loop
vertex -20 28.1908 -10.2606
vertex 5 28.1908 -10.2606
vertex -20 30 1.69965e-14
endloop
endfacet
facet normal 0.706117 -0.398884 0.585055
outer loop
vertex 17.6336 -97.1352 168.243
vertex 17.6336 -121.126 151.887
vertex 24.2705 -93.8168 162.495
endloop
endfacet
facet normal 0.452982 0.772079 0.44576
outer loop
vertex 9.27051 178.871 86.1397
vertex 9.27051 164.035 111.837
vertex 17.6336 175.032 84.2908
endloop
endfacet
facet normal 0 0.930874 0.365341
outer loop
vertex -20 191.115 58.951
vertex 0 180.194 86.7768
vertex 0 191.115 58.951
endloop
endfacet
facet normal 0.452984 0.772078 -0.445759
outer loop
vertex 9.27051 164.035 -111.837
vertex 9.27051 178.871 -86.1397
vertex 17.6336 160.514 -109.436
endloop
endfacet
facet normal -1 -0 0
outer loop
vertex 5 -28.1908 -10.2606
vertex 5 28.1908 -10.2606
vertex 5 -22.9813 -19.2836
endloop
endfacet
facet normal 0.156007 0.962991 -0.219797
outer loop
vertex 9.27051 189.712 -58.5183
vertex 0 197.766 -29.8085
vertex 9.27051 196.314 -29.5896
endloop
endfacet
facet normal -1 0 -0
outer loop
vertex -20 -197.766 29.8085
vertex -20 -146.61 136.035
vertex -20 -124.698 156.366
endloop
endfacet
facet normal -1 0 -0
outer loop
vertex -20 -197.766 -29.8085
vertex -20 -15 -25.9808
vertex -20 -5.20944 -29.5442
endloop
endfacet
facet normal 0.986781 -0.126705 -0.101043
outer loop
vertex 28.5317 -148.12 -100.987
vertex 28.5317 -131.415 -121.935
vertex 30 -137.533 -99.9235
endloop
endfacet
facet normal -1 0 0
outer loop
vertex -20 -197.766 -29.8085
vertex -20 -5.20944 -29.5442
vertex -20 -14.946 -199.441
endloop
endfacet
facet normal -1 0 -0
outer loop
vertex -20 -197.766 29.8085
vertex -20 -14.946 199.441
vertex -20 -5.20944 29.5442
endloop
endfacet
facet normal 0.156009 0.855422 0.493878
outer loop
vertex 9.27051 178.871 86.1397
vertex 0 165.248 112.664
vertex 9.27051 164.035 111.837
endloop
endfacet
facet normal 0 0.781831 0.623491
outer loop
vertex -20 146.61 136.035
vertex 0 146.61 136.035
vertex -20 165.248 112.664
endloop
endfacet
facet normal 0 -0.149043 0.988831
outer loop
vertex -20 -14.946 199.441
vertex 0 -44.5042 194.986
vertex 0 -14.946 199.441
endloop
endfacet
facet normal 0.706114 -0.208715 0.67664
outer loop
vertex 17.6336 -43.2293 189.4
vertex 17.6336 -70.975 180.841
vertex 24.2705 -41.7524 182.929
endloop
endfacet
facet normal 0.452982 -0.386815 0.803232
outer loop
vertex 17.6336 -70.975 180.841
vertex 9.27051 -99.2659 171.934
vertex 17.6336 -97.1352 168.243
endloop
endfacet
facet normal 0 0.930874 -0.365341
outer loop
vertex -20 180.194 -86.7768
vertex 0 191.115 -58.951
vertex 0 180.194 -86.7768
endloop
endfacet
facet normal 0.890492 -0.453726 -0.0340035
outer loop
vertex 24.2705 -187.634 1.56319e-13
vertex 24.2705 -185.538 -27.9653
vertex 28.5317 -179.27 1.7053e-13
endloop
endfacet
facet normal 0.70612 0.706112 0.052918
outer loop
vertex 24.2705 187.634 0
vertex 17.6336 192.101 28.9545
vertex 24.2705 185.538 27.9653
endloop
endfacet
facet normal 0.987621 0.156423 0.0117223
outer loop
vertex 28.5317 179.27 0
vertex 28.5317 177.268 26.7189
vertex 30 170 -5.05184e-14
endloop
endfacet
facet normal 0.890491 0.355735 -0.283689
outer loop
vertex 28.5317 131.415 -121.935
vertex 24.2705 155.03 -105.698
vertex 28.5317 148.12 -100.987
endloop
endfacet
facet normal 0.89049 0.134114 -0.434788
outer loop
vertex 28.5317 39.8914 -174.776
vertex 24.2705 68.5502 -174.663
vertex 28.5317 65.4949 -166.878
endloop
endfacet
facet normal 1 -0 0
outer loop
vertex 30 161.68 -52.5329
vertex 30 -161.68 -52.5329
vertex 30 151.471 -77.1784
endloop
endfacet
facet normal -0 -0.433882 -0.90097
outer loop
vertex -20 -73.0682 -186.175
vertex 0 -73.0682 -186.175
vertex -20 -100 -173.205
endloop
endfacet
facet normal 0.706114 -0.105537 0.70019
outer loop
vertex 24.2705 -14.0219 187.109
vertex 17.6336 -43.2293 189.4
vertex 24.2705 -41.7524 182.929
endloop
endfacet
facet normal 0.890492 0.067814 -0.449917
outer loop
vertex 28.5317 13.3969 -178.769
vertex 24.2705 41.7524 -182.929
vertex 28.5317 39.8914 -174.776
endloop
endfacet
facet normal 0.15601 0.96299 0.219797
outer loop
vertex 9.27051 196.314 29.5896
vertex 0 191.115 58.951
vertex 9.27051 189.712 58.5183
endloop
endfacet
facet normal 0.45298 -0.26278 0.851913
outer loop
vertex 17.6336 -43.2293 189.4
vertex 9.27051 -72.5318 184.808
vertex 17.6336 -70.975 180.841
endloop
endfacet
facet normal 0 0.34202 0.939693
outer loop
vertex -20 -15 -25.9808
vertex 5 -15 -25.9808
vertex -20 -5.20944 -29.5442
endloop
endfacet
facet normal 0.156009 0.556423 0.816122
outer loop
vertex 9.27051 123.782 155.218
vertex 0 100 173.205
vertex 9.27051 99.2659 171.934
endloop
endfacet
facet normal 1 0 0
outer loop
vertex 30 137.533 -99.9235
vertex 30 -151.471 -77.1784
vertex 30 -137.533 -99.9235
endloop
endfacet
facet normal 0.156008 -0.919476 0.360868
outer loop
vertex 0 -180.194 86.7768
vertex 0 -191.115 58.951
vertex 9.27051 -178.871 86.1397
endloop
endfacet
facet normal 0 -0.34202 -0.939693
outer loop
vertex -20 5.20944 29.5442
vertex 5 15 25.9808
vertex 5 5.20944 29.5442
endloop
endfacet
facet normal -0 -0.680174 -0.733051
outer loop
vertex -20 -124.698 -156.366
vertex 0 -124.698 -156.366
vertex -20 -146.61 -136.035
endloop
endfacet
facet normal 0.156007 -0.984994 0.0738139
outer loop
vertex 9.27051 -196.314 29.5896
vertex 0 -200 2.44921e-14
vertex 9.27051 -198.532 1.7053e-13
endloop
endfacet
facet normal 0.452975 -0.69702 0.555857
outer loop
vertex 9.27051 -145.534 135.036
vertex 9.27051 -164.035 111.837
vertex 17.6336 -142.41 132.137
endloop
endfacet
facet normal 0 0.642788 -0.766044
outer loop
vertex -20 -22.9813 19.2836
vertex 5 -15 25.9808
vertex 5 -22.9813 19.2836
endloop
endfacet
facet normal 0.452984 -0.772078 0.445759
outer loop
vertex 9.27051 -164.035 111.837
vertex 9.27051 -178.871 86.1397
vertex 17.6336 -160.514 109.436
endloop
endfacet
facet normal 0.89049 0.134115 0.434787
outer loop
vertex 24.2705 68.5502 174.663
vertex 24.2705 41.7524 182.929
vertex 28.5317 65.4949 166.878
endloop
endfacet
facet normal 0.890492 0.453726 0.0340035
outer loop
vertex 24.2705 187.634 0
vertex 24.2705 185.538 27.9653
vertex 28.5317 179.27 0
endloop
endfacet
facet normal 0 -0.433882 0.90097
outer loop
vertex -20 -73.0682 186.175
vertex 0 -100 173.205
vertex 0 -73.0682 186.175
endloop
endfacet
facet normal -1 -0 0
outer loop
vertex -20 5.20944 -29.5442
vertex -20 124.698 -156.366
vertex -20 100 -173.205
endloop
endfacet
facet normal 0.706114 0.105537 -0.70019
outer loop
vertex 24.2705 14.0219 -187.109
vertex 17.6336 43.2293 -189.4
vertex 24.2705 41.7524 -182.929
endloop
endfacet
facet normal 0.890491 -0.394042 0.227501
outer loop
vertex 24.2705 -155.03 105.698
vertex 24.2705 -169.052 81.4112
vertex 28.5317 -148.12 100.987
endloop
endfacet
facet normal 0.890492 -0.067814 -0.449917
outer loop
vertex 24.2705 -41.7524 -182.929
vertex 24.2705 -14.0219 -187.109
vertex 28.5317 -39.8914 -174.776
endloop
endfacet
facet normal 0.156009 0.855422 -0.493878
outer loop
vertex 0 165.248 -112.664
vertex 0 180.194 -86.7768
vertex 9.27051 164.035 -111.837
endloop
endfacet
facet normal 0 0.781831 -0.623491
outer loop
vertex -20 146.61 -136.035
vertex 0 165.248 -112.664
vertex 0 146.61 -136.035
endloop
endfacet
facet normal 0.890491 0.443593 0.101247
outer loop
vertex 28.5317 177.268 26.7189
vertex 24.2705 179.298 55.306
vertex 28.5317 171.306 52.8409
endloop
endfacet
facet normal 0.452982 -0.869167 0.198383
outer loop
vertex 17.6336 -185.64 57.2622
vertex 9.27051 -196.314 29.5896
vertex 17.6336 -192.101 28.9545
endloop
endfacet
facet normal 0.98872 0.0972693 -0.113888
outer loop
vertex 28.5317 111.773 -140.159
vertex 30 120.208 -120.208
vertex 30 99.9235 -137.533
endloop
endfacet
facet normal 0 -0.294757 0.955572
outer loop
vertex -20 -44.5042 194.986
vertex 0 -73.0682 186.175
vertex 0 -44.5042 194.986
endloop
endfacet
facet normal -1 0 0
outer loop
vertex -20 197.766 -29.8085
vertex -20 22.9813 -19.2836
vertex -20 28.1908 -10.2606
endloop
endfacet
facet normal 0 -0.56332 0.826239
outer loop
vertex -20 -124.698 156.366
vertex 0 -124.698 156.366
vertex -20 -100 173.205
endloop
endfacet
facet normal 0.452975 0.606391 0.653532
outer loop
vertex 9.27051 145.534 135.036
vertex 9.27051 123.782 155.218
vertex 17.6336 142.41 132.137
endloop
endfacet
facet normal 0.706118 0.398884 -0.585055
outer loop
vertex 24.2705 93.8168 -162.495
vertex 17.6336 121.126 -151.887
vertex 24.2705 116.988 -146.698
endloop
endfacet
facet normal 0.452982 -0.869167 -0.198383
outer loop
vertex 9.27051 -196.314 -29.5896
vertex 9.27051 -189.712 -58.5183
vertex 17.6336 -192.101 -28.9545
endloop
endfacet
facet normal 0.986328 0.048573 0.15747
outer loop
vertex 28.5317 65.4949 166.878
vertex 28.5317 39.8914 174.776
vertex 30 52.5329 161.68
endloop
endfacet
facet normal 0.452986 -0.132875 -0.88156
outer loop
vertex 9.27051 -44.1775 -193.554
vertex 9.27051 -14.8363 -197.977
vertex 17.6336 -43.2293 -189.4
endloop
endfacet
facet normal 0.70612 -0.690339 0.157565
outer loop
vertex 24.2705 -179.298 55.306
vertex 17.6336 -192.101 28.9545
vertex 24.2705 -185.538 27.9653
endloop
endfacet
facet normal 0.156009 -0.291148 -0.943872
outer loop
vertex 9.27051 -72.5318 -184.808
vertex 0 -44.5042 -194.986
vertex 9.27051 -44.1775 -193.554
endloop
endfacet
facet normal 0.45298 -0.606388 -0.653531
outer loop
vertex 17.6336 -142.41 -132.137
vertex 9.27051 -123.782 -155.218
vertex 17.6336 -121.126 -151.887
endloop
endfacet
facet normal 0.706113 0.706119 0.0529153
outer loop
vertex 17.6336 194.27 0
vertex 17.6336 192.101 28.9545
vertex 24.2705 187.634 0
endloop
endfacet
facet normal 0.452975 -0.606391 -0.653532
outer loop
vertex 9.27051 -145.534 -135.036
vertex 9.27051 -123.782 -155.218
vertex 17.6336 -142.41 -132.137
endloop
endfacet
facet normal 0.70612 0.690338 0.157566
outer loop
vertex 17.6336 192.101 28.9545
vertex 17.6336 185.64 57.2622
vertex 24.2705 185.538 27.9653
endloop
endfacet
facet normal -1 0 -0
outer loop
vertex -20 5.20944 29.5442
vertex -20 146.61 136.035
vertex -20 165.248 112.664
endloop
endfacet
facet normal -1 0 -0
outer loop
vertex -20 5.20944 29.5442
vertex -20 100 173.205
vertex -20 124.698 156.366
endloop
endfacet
facet normal 0 0.34202 -0.939693
outer loop
vertex -20 -5.20944 29.5442
vertex 5 -5.20944 29.5442
vertex -20 -15 25.9808
endloop
endfacet
facet normal 0.986501 -0.0922479 0.135303
outer loop
vertex 28.5317 -89.6352 155.253
vertex 28.5317 -111.773 140.159
vertex 30 -99.9235 137.533
endloop
endfacet
facet normal 0.706117 -0.659148 -0.258696
outer loop
vertex 24.2705 -179.298 -55.306
vertex 17.6336 -175.032 -84.2908
vertex 24.2705 -169.052 -81.4112
endloop
endfacet
facet normal 0.70612 0.553609 0.441488
outer loop
vertex 24.2705 155.03 105.698
vertex 17.6336 142.41 132.137
vertex 24.2705 137.545 127.623
endloop
endfacet
facet normal 0.89049 0.42355 -0.166231
outer loop
vertex 24.2705 169.052 -81.4112
vertex 24.2705 179.298 -55.306
vertex 28.5317 161.517 -77.7826
endloop
endfacet
facet normal -1 -0 0
outer loop
vertex -20 5.20944 -29.5442
vertex -20 146.61 -136.035
vertex -20 124.698 -156.366
endloop
endfacet
facet normal 0.98888 0.0569122 -0.137398
outer loop
vertex 28.5317 65.4949 -166.878
vertex 30 77.1784 -151.471
vertex 30 52.5329 -161.68
endloop
endfacet
facet normal 0 -0.149043 0.988831
outer loop
vertex -20 -44.5042 194.986
vertex 0 -44.5042 194.986
vertex -20 -14.946 199.441
endloop
endfacet
facet normal -1 0 0
outer loop
vertex -20 5.20944 -29.5442
vertex -20 14.946 -199.441
vertex -20 -14.946 -199.441
endloop
endfacet
facet normal 0.987873 -0.154785 0.0121819
outer loop
vertex 30 -170 6.2479e-09
vertex 30 -167.907 26.5939
vertex 28.5317 -177.268 26.7189
endloop
endfacet
facet normal 0.89049 -0.45373 -0.0340023
outer loop
vertex 28.5317 -179.27 1.7053e-13
vertex 24.2705 -185.538 -27.9653
vertex 28.5317 -177.268 -26.7189
endloop
endfacet
facet normal 0.706113 0.706119 -0.0529185
outer loop
vertex 24.2705 185.538 -27.9653
vertex 17.6336 194.27 0
vertex 24.2705 187.634 0
endloop
endfacet
facet normal 0.706117 0.690342 0.157566
outer loop
vertex 24.2705 185.538 27.9653
vertex 17.6336 185.64 57.2622
vertex 24.2705 179.298 55.306
endloop
endfacet
facet normal 0.156007 0.291148 0.943872
outer loop
vertex 0 73.0682 186.175
vertex 0 44.5042 194.986
vertex 9.27051 72.5318 184.808
endloop
endfacet
facet normal 0.890491 0.394042 0.227502
outer loop
vertex 28.5317 161.517 77.7826
vertex 24.2705 155.03 105.698
vertex 28.5317 148.12 100.987
endloop
endfacet
facet normal 0.452984 0.132875 0.881561
outer loop
vertex 17.6336 43.2293 189.4
vertex 9.27051 14.8363 197.977
vertex 17.6336 14.5178 193.727
endloop
endfacet
facet normal 0.89049 0.197418 -0.409943
outer loop
vertex 24.2705 68.5502 -174.663
vertex 24.2705 93.8168 -162.495
vertex 28.5317 65.4949 -166.878
endloop
endfacet
facet normal 0 0.974928 -0.222521
outer loop
vertex -20 191.115 -58.951
vertex 0 197.766 -29.8085
vertex 0 191.115 -58.951
endloop
endfacet
facet normal 0.988464 -0.129138 -0.0791358
outer loop
vertex 28.5317 -148.12 -100.987
vertex 30 -137.533 -99.9235
vertex 30 -151.471 -77.1784
endloop
endfacet
facet normal 1 -0 0
outer loop
vertex 30 167.907 -26.5939
vertex 30 -167.907 -26.5939
vertex 30 161.68 -52.5329
endloop
endfacet
facet normal 0.98872 -0.0972693 0.113888
outer loop
vertex 28.5317 -111.773 140.159
vertex 30 -120.208 120.208
vertex 30 -99.9235 137.533
endloop
endfacet
facet normal 0 -0.642788 -0.766044
outer loop
vertex -20 15 25.9808
vertex 5 22.9813 19.2836
vertex 5 15 25.9808
endloop
endfacet
facet normal 0.706118 0.553611 0.441489
outer loop
vertex 17.6336 160.514 109.436
vertex 17.6336 142.41 132.137
vertex 24.2705 155.03 105.698
endloop
endfacet
facet normal 0.706114 -0.208717 -0.676639
outer loop
vertex 24.2705 -68.5502 -174.663
vertex 17.6336 -43.2293 -189.4
vertex 24.2705 -41.7524 -182.929
endloop
endfacet
facet normal -0 -0.930874 -0.365341
outer loop
vertex -20 -180.194 -86.7768
vertex 0 -180.194 -86.7768
vertex -20 -191.115 -58.951
endloop
endfacet
facet normal 0.452982 -0.386815 -0.803232
outer loop
vertex 9.27051 -99.2659 -171.934
vertex 9.27051 -72.5318 -184.808
vertex 17.6336 -97.1352 -168.243
endloop
endfacet
facet normal -1 0 0
outer loop
vertex -20 197.766 -29.8085
vertex -20 5.20944 -29.5442
vertex -20 15 -25.9808
endloop
endfacet
facet normal 0.706118 -0.481626 0.51907
outer loop
vertex 17.6336 -121.126 151.887
vertex 17.6336 -142.41 132.137
vertex 24.2705 -116.988 146.698
endloop
endfacet
facet normal 0.156008 -0.855422 -0.493878
outer loop
vertex 0 -180.194 -86.7768
vertex 0 -165.248 -112.664
vertex 9.27051 -178.871 -86.1397
endloop
endfacet
facet normal 0.89049 -0.45373 0.0340038
outer loop
vertex 24.2705 -185.538 27.9653
vertex 24.2705 -187.634 1.56319e-13
vertex 28.5317 -177.268 26.7189
endloop
endfacet
facet normal 0.45298 0.386816 0.803233
outer loop
vertex 17.6336 97.1352 168.243
vertex 9.27051 72.5318 184.808
vertex 17.6336 70.975 180.841
endloop
endfacet
facet normal 0 0.149043 0.988831
outer loop
vertex -20 44.5042 194.986
vertex 0 14.946 199.441
vertex 0 44.5042 194.986
endloop
endfacet
facet normal 0.452979 0.502212 0.736609
outer loop
vertex 9.27051 123.782 155.218
vertex 9.27051 99.2659 171.934
vertex 17.6336 121.126 151.887
endloop
endfacet
facet normal 0.988464 0.129138 -0.0791358
outer loop
vertex 28.5317 148.12 -100.987
vertex 30 151.471 -77.1784
vertex 30 137.533 -99.9235
endloop
endfacet
facet normal 0.98738 0.154399 0.0352408
outer loop
vertex 28.5317 177.268 26.7189
vertex 28.5317 171.306 52.8409
vertex 30 167.907 26.5939
endloop
endfacet
facet normal 0 0.680174 0.733051
outer loop
vertex -20 124.698 156.366
vertex 0 124.698 156.366
vertex -20 146.61 136.035
endloop
endfacet
facet normal 0.890492 0.0678139 0.449917
outer loop
vertex 28.5317 39.8914 174.776
vertex 24.2705 14.0219 187.109
vertex 28.5317 13.3969 178.769
endloop
endfacet
facet normal 0.15601 0.96299 -0.219796
outer loop
vertex 0 191.115 -58.951
vertex 0 197.766 -29.8085
vertex 9.27051 189.712 -58.5183
endloop
endfacet
facet normal -0 -0.294757 -0.955572
outer loop
vertex -20 -44.5042 -194.986
vertex 0 -44.5042 -194.986
vertex -20 -73.0682 -186.175
endloop
endfacet
facet normal 0 -0.680174 -0.733051
outer loop
vertex -20 -146.61 -136.035
vertex 0 -124.698 -156.366
vertex 0 -146.61 -136.035
endloop
endfacet
facet normal 0.988605 -0.114467 0.0977634
outer loop
vertex 28.5317 -131.415 121.935
vertex 30 -137.533 99.9235
vertex 30 -120.208 120.208
endloop
endfacet
facet normal 0 -0.866026 -0.5
outer loop
vertex -20 -180.194 -86.7768
vertex 0 -165.248 -112.664
vertex 0 -180.194 -86.7768
endloop
endfacet
facet normal 0.156012 0.772257 0.615857
outer loop
vertex 9.27051 164.035 111.837
vertex 0 146.61 136.035
vertex 9.27051 145.534 135.036
endloop
endfacet
facet normal 0.706118 -0.481627 -0.519069
outer loop
vertex 24.2705 -137.545 -127.623
vertex 17.6336 -121.126 -151.887
vertex 24.2705 -116.988 -146.698
endloop
endfacet
facet normal -1 0 0
outer loop
vertex -20 -197.766 -29.8085
vertex -20 -100 -173.205
vertex -20 -124.698 -156.366
endloop
endfacet
facet normal 0.156008 -0.147218 -0.976723
outer loop
vertex 9.27051 -44.1775 -193.554
vertex 0 -14.946 -199.441
vertex 9.27051 -14.8363 -197.977
endloop
endfacet
facet normal 1 -0 0
outer loop
vertex 30 161.68 52.5329
vertex 30 -161.68 52.5329
vertex 30 167.907 26.5939
endloop
endfacet
facet normal 0.706118 0.208716 -0.676635
outer loop
vertex 24.2705 41.7524 -182.929
vertex 17.6336 70.975 -180.841
vertex 24.2705 68.5502 -174.663
endloop
endfacet
facet normal -1 0 -0
outer loop
vertex -20 5.20944 29.5442
vertex -20 73.0682 186.175
vertex -20 100 173.205
endloop
endfacet
facet normal 0.452984 -0.829891 -0.325708
outer loop
vertex 9.27051 -189.712 -58.5183
vertex 9.27051 -178.871 -86.1397
vertex 17.6336 -185.64 -57.2622
endloop
endfacet
facet normal 0.98888 -0.0569122 0.137398
outer loop
vertex 28.5317 -65.4949 166.878
vertex 30 -77.1784 151.471
vertex 30 -52.5329 161.68
endloop
endfacet
facet normal 0.988947 -0.0116334 -0.147815
outer loop
vertex 28.5317 -13.3969 -178.769
vertex 30 -2.15755e-14 -170
vertex 30 -26.5939 -167.907
endloop
endfacet
facet normal 0.9881 0.149564 0.0359072
outer loop
vertex 28.5317 171.306 52.8409
vertex 30 161.68 52.5329
vertex 30 167.907 26.5939
endloop
endfacet
facet normal -1 0 0
outer loop
vertex 5 -28.1908 -10.2606
vertex 5 30 1.69965e-14
vertex 5 28.1908 -10.2606
endloop
endfacet
facet normal 0.452986 -0.262781 0.85191
outer loop
vertex 9.27051 -44.1775 193.554
vertex 9.27051 -72.5318 184.808
vertex 17.6336 -43.2293 189.4
endloop
endfacet
facet normal 0.156009 -0.428569 -0.889938
outer loop
vertex 0 -100 -173.205
vertex 0 -73.0682 -186.175
vertex 9.27051 -99.2659 -171.934
endloop
endfacet
facet normal 0.89049 0.45373 -0.0340038
outer loop
vertex 24.2705 185.538 -27.9653
vertex 24.2705 187.634 0
vertex 28.5317 177.268 -26.7189
endloop
endfacet
facet normal 0.98627 -0 0.165139
outer loop
vertex 28.5317 13.3969 178.769
vertex 28.5317 -13.3969 178.769
vertex 30 3.12389e-09 170
endloop
endfacet
facet normal -1 0 0
outer loop
vertex -20 -197.766 -29.8085
vertex -20 -200 2.44921e-14
vertex -20 -30 0
endloop
endfacet
facet normal -1 0 -0
outer loop
vertex -20 -197.766 -29.8085
vertex -20 -30 0
vertex -20 -28.1908 -10.2606
endloop
endfacet
facet normal 0.98738 -0.154399 0.0352408
outer loop
vertex 28.5317 -171.306 52.8409
vertex 28.5317 -177.268 26.7189
vertex 30 -167.907 26.5939
endloop
endfacet
facet normal -1 -0 0
outer loop
vertex 5 -28.1908 10.2606
vertex 5 28.1908 10.2606
vertex 5 -30 0
endloop
endfacet
facet normal -1 -0 0
outer loop
vertex -20 5.20944 -29.5442
vertex -20 165.248 -112.664
vertex -20 146.61 -136.035
endloop
endfacet
facet normal 0.15601 0.919476 0.360868
outer loop
vertex 0 191.115 58.951
vertex 0 180.194 86.7768
vertex 9.27051 189.712 58.5183
endloop
endfacet
facet normal 0.89049 0.197418 0.409943
outer loop
vertex 28.5317 89.6352 155.253
vertex 24.2705 68.5502 174.663
vertex 28.5317 65.4949 166.878
endloop
endfacet
facet normal -1 0 -0
outer loop
vertex -20 -197.766 29.8085
vertex -20 -100 173.205
vertex -20 -73.0682 186.175
endloop
endfacet
facet normal 0 -0.680174 0.733051
outer loop
vertex -20 -124.698 156.366
vertex 0 -146.61 136.035
vertex 0 -124.698 156.366
endloop
endfacet
facet normal 0.706114 0.105538 0.700189
outer loop
vertex 17.6336 43.2293 189.4
vertex 17.6336 14.5178 193.727
vertex 24.2705 41.7524 182.929
endloop
endfacet
facet normal 0.98888 -0.0569122 -0.137398
outer loop
vertex 28.5317 -65.4949 -166.878
vertex 30 -52.5329 -161.68
vertex 30 -77.1784 -151.471
endloop
endfacet
facet normal 0.986328 -0.048573 0.15747
outer loop
vertex 28.5317 -39.8914 174.776
vertex 28.5317 -65.4949 166.878
vertex 30 -52.5329 161.68
endloop
endfacet
facet normal 0 0.866026 0.5
outer loop
vertex -20 180.194 86.7768
vertex 0 165.248 112.664
vertex 0 180.194 86.7768
endloop
endfacet
facet normal 0.452982 0.829892 -0.325709
outer loop
vertex 9.27051 178.871 -86.1397
vertex 9.27051 189.712 -58.5183
vertex 17.6336 175.032 -84.2908
endloop
endfacet
facet normal 0.452984 0 0.891519
outer loop
vertex 17.6336 14.5178 193.727
vertex 9.27051 -14.8363 197.977
vertex 17.6336 -14.5178 193.727
endloop
endfacet
facet normal 0 -0.984808 0.173648
outer loop
vertex -20 30 1.69965e-14
vertex 5 28.1908 -10.2606
vertex 5 30 1.69965e-14
endloop
endfacet
facet normal 0 0.866025 -0.5
outer loop
vertex -20 -22.9813 19.2836
vertex 5 -22.9813 19.2836
vertex -20 -28.1908 10.2606
endloop
endfacet
facet normal 0.156007 -0.962991 -0.219796
outer loop
vertex 0 -197.766 -29.8085
vertex 0 -191.115 -58.951
vertex 9.27051 -196.314 -29.5896
endloop
endfacet
facet normal 0.706117 0.105536 0.700187
outer loop
vertex 24.2705 41.7524 182.929
vertex 17.6336 14.5178 193.727
vertex 24.2705 14.0219 187.109
endloop
endfacet
facet normal 0.45298 0.606389 -0.65353
outer loop
vertex 9.27051 123.782 -155.218
vertex 9.27051 145.534 -135.036
vertex 17.6336 121.126 -151.887
endloop
endfacet
facet normal 0.988605 0.114467 0.0977634
outer loop
vertex 28.5317 131.415 121.935
vertex 30 120.208 120.208
vertex 30 137.533 99.9235
endloop
endfacet
facet normal 0 0.149043 -0.988831
outer loop
vertex -20 44.5042 -194.986
vertex 0 44.5042 -194.986
vertex -20 14.946 -199.441
endloop
endfacet
facet normal 0.986285 0.0245997 0.163208
outer loop
vertex 28.5317 39.8914 174.776
vertex 28.5317 13.3969 178.769
vertex 30 26.5939 167.907
endloop
endfacet
facet normal 0.45298 -0.606389 0.65353
outer loop
vertex 9.27051 -123.782 155.218
vertex 9.27051 -145.534 135.036
vertex 17.6336 -121.126 151.887
endloop
endfacet
facet normal 0.15601 -0.919476 0.360867
outer loop
vertex 9.27051 -178.871 86.1397
vertex 0 -191.115 58.951
vertex 9.27051 -189.712 58.5183
endloop
endfacet
facet normal 0.988296 -0.140935 0.0583771
outer loop
vertex 28.5317 -161.517 77.7826
vertex 30 -161.68 52.5329
vertex 30 -151.471 77.1784
endloop
endfacet
facet normal 0.988924 0.034648 0.14432
outer loop
vertex 28.5317 39.8914 174.776
vertex 30 26.5939 167.907
vertex 30 52.5329 161.68
endloop
endfacet
facet normal 0.452984 -0.132875 0.881561
outer loop
vertex 9.27051 -14.8363 197.977
vertex 9.27051 -44.1775 193.554
vertex 17.6336 -14.5178 193.727
endloop
endfacet
facet normal 0.70612 -0.690338 -0.157566
outer loop
vertex 17.6336 -192.101 -28.9545
vertex 17.6336 -185.64 -57.2622
vertex 24.2705 -185.538 -27.9653
endloop
endfacet
facet normal -1 0 -0
outer loop
vertex -20 -197.766 29.8085
vertex -20 -124.698 156.366
vertex -20 -100 173.205
endloop
endfacet
facet normal -1 0 0
outer loop
vertex -20 200 0
vertex -20 28.1908 10.2606
vertex -20 22.9813 19.2836
endloop
endfacet
facet normal 0.452975 -0.60639 0.653533
outer loop
vertex 17.6336 -121.126 151.887
vertex 9.27051 -145.534 135.036
vertex 17.6336 -142.41 132.137
endloop
endfacet
facet normal 0 -0.866026 0.5
outer loop
vertex -20 -180.194 86.7768
vertex 0 -180.194 86.7768
vertex -20 -165.248 112.664
endloop
endfacet
facet normal 0.452984 0.829892 -0.325707
outer loop
vertex 17.6336 175.032 -84.2908
vertex 9.27051 189.712 -58.5183
vertex 17.6336 185.64 -57.2622
endloop
endfacet
facet normal 0 0.294757 0.955572
outer loop
vertex -20 73.0682 186.175
vertex 0 44.5042 194.986
vertex 0 73.0682 186.175
endloop
endfacet
facet normal 0 0.56332 -0.826239
outer loop
vertex -20 124.698 -156.366
vertex 0 124.698 -156.366
vertex -20 100 -173.205
endloop
endfacet
facet normal 0.890492 0.309479 -0.333538
outer loop
vertex 24.2705 116.988 -146.698
vertex 24.2705 137.545 -127.623
vertex 28.5317 111.773 -140.159
endloop
endfacet
facet normal -1 0 -0
outer loop
vertex 5 -15 25.9808
vertex 5 5.20944 29.5442
vertex 5 15 25.9808
endloop
endfacet
facet normal 0.890492 0.134113 0.434785
outer loop
vertex 28.5317 65.4949 166.878
vertex 24.2705 41.7524 182.929
vertex 28.5317 39.8914 174.776
endloop
endfacet
facet normal 0 0.56332 0.826239
outer loop
vertex -20 100 173.205
vertex 0 100 173.205
vertex -20 124.698 156.366
endloop
endfacet
facet normal 0.890492 -0.309478 -0.333539
outer loop
vertex 28.5317 -131.415 -121.935
vertex 24.2705 -116.988 -146.698
vertex 28.5317 -111.773 -140.159
endloop
endfacet
facet normal 0.45298 -0.262782 -0.851913
outer loop
vertex 9.27051 -72.5318 -184.808
vertex 9.27051 -44.1775 -193.554
vertex 17.6336 -70.975 -180.841
endloop
endfacet
facet normal 0.452984 0.869166 -0.198382
outer loop
vertex 9.27051 189.712 -58.5183
vertex 9.27051 196.314 -29.5896
vertex 17.6336 185.64 -57.2622
endloop
endfacet
facet normal 0.156007 -0.428569 0.889938
outer loop
vertex 0 -73.0682 186.175
vertex 0 -100 173.205
vertex 9.27051 -72.5318 184.808
endloop
endfacet
facet normal 0.452986 0.132875 0.88156
outer loop
vertex 9.27051 44.1775 193.554
vertex 9.27051 14.8363 197.977
vertex 17.6336 43.2293 189.4
endloop
endfacet
facet normal 0.987621 -0.156423 -0.0117223
outer loop
vertex 28.5317 -179.27 1.7053e-13
vertex 28.5317 -177.268 -26.7189
vertex 30 -170 6.2479e-09
endloop
endfacet
facet normal 0.452986 0.262781 -0.85191
outer loop
vertex 9.27051 44.1775 -193.554
vertex 9.27051 72.5318 -184.808
vertex 17.6336 43.2293 -189.4
endloop
endfacet
facet normal 0.156012 0.671845 -0.724075
outer loop
vertex 9.27051 123.782 -155.218
vertex 0 146.61 -136.035
vertex 9.27051 145.534 -135.036
endloop
endfacet
facet normal 1 -0 0
outer loop
vertex 30 52.5329 -161.68
vertex 30 -52.5329 -161.68
vertex 30 26.5939 -167.907
endloop
endfacet
facet normal 0.70612 0.553609 -0.441488
outer loop
vertex 17.6336 142.41 -132.137
vertex 17.6336 160.514 -109.436
vertex 24.2705 137.545 -127.623
endloop
endfacet
facet normal -1 -0 0
outer loop
vertex 5 -15 -25.9808
vertex 5 15 -25.9808
vertex 5 -5.20944 -29.5442
endloop
endfacet
facet normal 0.987873 0.154785 -0.0121819
outer loop
vertex 30 170 -5.05184e-14
vertex 30 167.907 -26.5939
vertex 28.5317 177.268 -26.7189
endloop
endfacet
facet normal 0.706117 -0.659148 -0.258696
outer loop
vertex 17.6336 -185.64 -57.2622
vertex 17.6336 -175.032 -84.2908
vertex 24.2705 -179.298 -55.306
endloop
endfacet
facet normal 0.890491 -0.197418 0.409942
outer loop
vertex 28.5317 -65.4949 166.878
vertex 24.2705 -93.8168 162.495
vertex 28.5317 -89.6352 155.253
endloop
endfacet
facet normal 0.452984 0 -0.891519
outer loop
vertex 9.27051 -14.8363 -197.977
vertex 9.27051 14.8363 -197.977
vertex 17.6336 -14.5178 -193.727
endloop
endfacet
facet normal 0.986958 0.139409 -0.0804886
outer loop
vertex 28.5317 148.12 -100.987
vertex 28.5317 161.517 -77.7826
vertex 30 151.471 -77.1784
endloop
endfacet
facet normal 0.156007 0.291148 -0.943872
outer loop
vertex 9.27051 44.1775 -193.554
vertex 0 73.0682 -186.175
vertex 9.27051 72.5318 -184.808
endloop
endfacet
facet normal 0 0.997204 -0.0747289
outer loop
vertex -20 197.766 -29.8085
vertex 0 200 -4.89843e-14
vertex 0 197.766 -29.8085
endloop
endfacet
facet normal 0.890491 -0.256311 0.375939
outer loop
vertex 24.2705 -93.8168 162.495
vertex 24.2705 -116.988 146.698
vertex 28.5317 -89.6352 155.253
endloop
endfacet
facet normal 0.706118 0.55361 -0.441489
outer loop
vertex 24.2705 137.545 -127.623
vertex 17.6336 160.514 -109.436
vertex 24.2705 155.03 -105.698
endloop
endfacet
facet normal 0.156007 -0.291148 -0.943872
outer loop
vertex 0 -73.0682 -186.175
vertex 0 -44.5042 -194.986
vertex 9.27051 -72.5318 -184.808
endloop
endfacet
facet normal 0.986328 0.048573 -0.15747
outer loop
vertex 28.5317 39.8914 -174.776
vertex 28.5317 65.4949 -166.878
vertex 30 52.5329 -161.68
endloop
endfacet
facet normal 0 -0.997204 0.0747289
outer loop
vertex -20 -197.766 29.8085
vertex 0 -200 2.44921e-14
vertex 0 -197.766 29.8085
endloop
endfacet
facet normal 0.890492 0.067814 0.449917
outer loop
vertex 24.2705 41.7524 182.929
vertex 24.2705 14.0219 187.109
vertex 28.5317 39.8914 174.776
endloop
endfacet
facet normal -1 0 0
outer loop
vertex -20 -200 2.44921e-14
vertex -20 -15 25.9808
vertex -20 -22.9813 19.2836
endloop
endfacet
facet normal 0.986285 -0.0245997 0.163208
outer loop
vertex 28.5317 -13.3969 178.769
vertex 28.5317 -39.8914 174.776
vertex 30 -26.5939 167.907
endloop
endfacet
facet normal 0 -0.997204 0.0747289
outer loop
vertex -20 -200 2.44921e-14
vertex 0 -200 2.44921e-14
vertex -20 -197.766 29.8085
endloop
endfacet
facet normal -1 -0 0
outer loop
vertex -20 5.20944 -29.5442
vertex -20 44.5042 -194.986
vertex -20 14.946 -199.441
endloop
endfacet
facet normal 0.156009 -0.291148 0.943872
outer loop
vertex 0 -44.5042 194.986
vertex 0 -73.0682 186.175
vertex 9.27051 -44.1775 193.554
endloop
endfacet
facet normal -1 -0 0
outer loop
vertex -20 5.20944 -29.5442
vertex -20 191.115 -58.951
vertex -20 180.194 -86.7768
endloop
endfacet
facet normal 0.706117 -0.690342 0.157567
outer loop
vertex 17.6336 -185.64 57.2622
vertex 17.6336 -192.101 28.9545
vertex 24.2705 -179.298 55.306
endloop
endfacet
facet normal 0.890491 -0.355735 0.283689
outer loop
vertex 28.5317 -131.415 121.935
vertex 24.2705 -155.03 105.698
vertex 28.5317 -148.12 100.987
endloop
endfacet
facet normal 0.988924 -0.034648 0.14432
outer loop
vertex 28.5317 -39.8914 174.776
vertex 30 -52.5329 161.68
vertex 30 -26.5939 167.907
endloop
endfacet
facet normal 0.452982 0.502211 -0.736608
outer loop
vertex 9.27051 99.2659 -171.934
vertex 9.27051 123.782 -155.218
vertex 17.6336 97.1352 -168.243
endloop
endfacet
facet normal 0.156007 0.984994 -0.073814
outer loop
vertex 0 197.766 -29.8085
vertex 0 200 -4.89843e-14
vertex 9.27051 196.314 -29.5896
endloop
endfacet
facet normal 1 -0 0
outer loop
vertex 30 137.533 99.9235
vertex 30 -137.533 99.9235
vertex 30 151.471 77.1784
endloop
endfacet
facet normal -1 0 -0
outer loop
vertex -20 5.20944 29.5442
vertex -20 197.766 29.8085
vertex -20 200 0
endloop
endfacet
facet normal 0.98872 0.0972693 0.113888
outer loop
vertex 28.5317 111.773 140.159
vertex 30 99.9235 137.533
vertex 30 120.208 120.208
endloop
endfacet
facet normal -1 -0 0
outer loop
vertex -20 5.20944 -29.5442
vertex -20 73.0682 -186.175
vertex -20 44.5042 -194.986
endloop
endfacet
facet normal 0.890492 -0 0.454999
outer loop
vertex 24.2705 14.0219 187.109
vertex 24.2705 -14.0219 187.109
vertex 28.5317 13.3969 178.769
endloop
endfacet
facet normal 0.452979 0.502211 -0.736609
outer loop
vertex 17.6336 97.1352 -168.243
vertex 9.27051 123.782 -155.218
vertex 17.6336 121.126 -151.887
endloop
endfacet
facet normal 0 -0.781831 0.623491
outer loop
vertex -20 -165.248 112.664
vertex 0 -165.248 112.664
vertex -20 -146.61 136.035
endloop
endfacet
facet normal -1 0 0
outer loop
vertex 5 -5.20944 -29.5442
vertex 5 15 -25.9808
vertex 5 5.20944 -29.5442
endloop
endfacet
facet normal 0.15601 -0.919476 -0.360868
outer loop
vertex 0 -191.115 -58.951
vertex 0 -180.194 -86.7768
vertex 9.27051 -189.712 -58.5183
endloop
endfacet
facet normal 0.452984 -0.869166 0.198382
outer loop
vertex 9.27051 -189.712 58.5183
vertex 9.27051 -196.314 29.5896
vertex 17.6336 -185.64 57.2622
endloop
endfacet
facet normal 1 -0 0
outer loop
vertex 30 77.1784 -151.471
vertex 30 -77.1784 -151.471
vertex 30 52.5329 -161.68
endloop
endfacet
facet normal 0.987621 -0.156423 0.0117223
outer loop
vertex 28.5317 -177.268 26.7189
vertex 28.5317 -179.27 1.7053e-13
vertex 30 -170 6.2479e-09
endloop
endfacet
facet normal 0.452984 -0.697018 0.555852
outer loop
vertex 17.6336 -142.41 132.137
vertex 9.27051 -164.035 111.837
vertex 17.6336 -160.514 109.436
endloop
endfacet
facet normal 0.706117 -0.659148 0.258696
outer loop
vertex 24.2705 -169.052 81.4112
vertex 17.6336 -185.64 57.2622
vertex 24.2705 -179.298 55.306
endloop
endfacet
facet normal -1 0 -0
outer loop
vertex 5 -22.9813 19.2836
vertex 5 15 25.9808
vertex 5 22.9813 19.2836
endloop
endfacet
facet normal 0.988947 0.0116334 0.147815
outer loop
vertex 28.5317 13.3969 178.769
vertex 30 3.12389e-09 170
vertex 30 26.5939 167.907
endloop
endfacet
facet normal 0 -0.34202 0.939693
outer loop
vertex -20 5.20944 -29.5442
vertex 5 5.20944 -29.5442
vertex -20 15 -25.9808
endloop
endfacet
facet normal 0.156008 0 -0.987756
outer loop
vertex 0 -14.946 -199.441
vertex 0 14.946 -199.441
vertex 9.27051 -14.8363 -197.977
endloop
endfacet
facet normal 0.452984 -0.697016 -0.555855
outer loop
vertex 9.27051 -164.035 -111.837
vertex 9.27051 -145.534 -135.036
vertex 17.6336 -160.514 -109.436
endloop
endfacet
facet normal 0.156008 -0.772258 -0.615857
outer loop
vertex 0 -165.248 -112.664
vertex 0 -146.61 -136.035
vertex 9.27051 -164.035 -111.837
endloop
endfacet
facet normal 0.70612 -0.481626 0.519068
outer loop
vertex 24.2705 -116.988 146.698
vertex 17.6336 -142.41 132.137
vertex 24.2705 -137.545 127.623
endloop
endfacet
facet normal 0.706117 0 -0.708096
outer loop
vertex 24.2705 -14.0219 -187.109
vertex 17.6336 14.5178 -193.727
vertex 24.2705 14.0219 -187.109
endloop
endfacet
facet normal 0.156007 0.962991 0.219796
outer loop
vertex 0 197.766 29.8085
vertex 0 191.115 58.951
vertex 9.27051 196.314 29.5896
endloop
endfacet
facet normal 0.890492 -0.067814 0.449917
outer loop
vertex 28.5317 -13.3969 178.769
vertex 24.2705 -41.7524 182.929
vertex 28.5317 -39.8914 174.776
endloop
endfacet
facet normal 0.988464 0.129138 0.0791358
outer loop
vertex 28.5317 148.12 100.987
vertex 30 137.533 99.9235
vertex 30 151.471 77.1784
endloop
endfacet
facet normal 0.89049 -0.355735 0.28369
outer loop
vertex 24.2705 -137.545 127.623
vertex 24.2705 -155.03 105.698
vertex 28.5317 -131.415 121.935
endloop
endfacet
facet normal 0 0.149043 0.988831
outer loop
vertex -20 14.946 199.441
vertex 0 14.946 199.441
vertex -20 44.5042 194.986
endloop
endfacet
facet normal 0.706118 -0.208716 0.676635
outer loop
vertex 24.2705 -41.7524 182.929
vertex 17.6336 -70.975 180.841
vertex 24.2705 -68.5502 174.663
endloop
endfacet
facet normal 0.890492 0.256311 -0.375938
outer loop
vertex 28.5317 89.6352 -155.253
vertex 24.2705 116.988 -146.698
vertex 28.5317 111.773 -140.159
endloop
endfacet
facet normal 1 -0 0
outer loop
vertex 30 26.5939 167.907
vertex 30 -26.5939 167.907
vertex 30 52.5329 161.68
endloop
endfacet
facet normal 0.706117 0 0.708096
outer loop
vertex 24.2705 14.0219 187.109
vertex 17.6336 -14.5178 193.727
vertex 24.2705 -14.0219 187.109
endloop
endfacet
facet normal 0.89049 -0.443594 0.101248
outer loop
vertex 28.5317 -171.306 52.8409
vertex 24.2705 -185.538 27.9653
vertex 28.5317 -177.268 26.7189
endloop
endfacet
facet normal 0.890492 0 -0.454999
outer loop
vertex 24.2705 -14.0219 -187.109
vertex 24.2705 14.0219 -187.109
vertex 28.5317 -13.3969 -178.769
endloop
endfacet
facet normal 0.89049 -0.394043 -0.227502
outer loop
vertex 24.2705 -169.052 -81.4112
vertex 24.2705 -155.03 -105.698
vertex 28.5317 -161.517 -77.7826
endloop
endfacet
facet normal -1 0 -0
outer loop
vertex -20 5.20944 29.5442
vertex -20 165.248 112.664
vertex -20 180.194 86.7768
endloop
endfacet
facet normal 0.706114 0.208717 0.676639
outer loop
vertex 24.2705 68.5502 174.663
vertex 17.6336 43.2293 189.4
vertex 24.2705 41.7524 182.929
endloop
endfacet
facet normal 0 -0.294757 0.955572
outer loop
vertex -20 -73.0682 186.175
vertex 0 -73.0682 186.175
vertex -20 -44.5042 194.986
endloop
endfacet
facet normal 0 -0.642788 0.766044
outer loop
vertex -20 22.9813 -19.2836
vertex 5 15 -25.9808
vertex 5 22.9813 -19.2836
endloop
endfacet
facet normal 0.706118 0.30723 -0.637971
outer loop
vertex 24.2705 68.5502 -174.663
vertex 17.6336 97.1352 -168.243
vertex 24.2705 93.8168 -162.495
endloop
endfacet
facet normal 0.706117 -0.613228 0.354049
outer loop
vertex 24.2705 -155.03 105.698
vertex 17.6336 -175.032 84.2908
vertex 24.2705 -169.052 81.4112
endloop
endfacet
facet normal 0.452982 0.386815 -0.803232
outer loop
vertex 17.6336 70.975 -180.841
vertex 9.27051 99.2659 -171.934
vertex 17.6336 97.1352 -168.243
endloop
endfacet
facet normal 0.988947 0.0116334 -0.147815
outer loop
vertex 28.5317 13.3969 -178.769
vertex 30 26.5939 -167.907
vertex 30 -2.15755e-14 -170
endloop
endfacet
facet normal 0.98738 0.154399 -0.0352408
outer loop
vertex 28.5317 171.306 -52.8409
vertex 28.5317 177.268 -26.7189
vertex 30 167.907 -26.5939
endloop
endfacet
facet normal 0.156012 0.671845 -0.724075
outer loop
vertex 0 124.698 -156.366
vertex 0 146.61 -136.035
vertex 9.27051 123.782 -155.218
endloop
endfacet
facet normal 0.15601 -0.96299 -0.219797
outer loop
vertex 9.27051 -196.314 -29.5896
vertex 0 -191.115 -58.951
vertex 9.27051 -189.712 -58.5183
endloop
endfacet
facet normal 0 0.642788 -0.766044
outer loop
vertex -20 -15 25.9808
vertex 5 -15 25.9808
vertex -20 -22.9813 19.2836
endloop
endfacet
facet normal 0 0.866025 0.5
outer loop
vertex -20 -22.9813 -19.2836
vertex 5 -28.1908 -10.2606
vertex 5 -22.9813 -19.2836
endloop
endfacet
facet normal 0.89049 0.443594 -0.101248
outer loop
vertex 28.5317 171.306 -52.8409
vertex 24.2705 185.538 -27.9653
vertex 28.5317 177.268 -26.7189
endloop
endfacet
facet normal 0.706118 0.613227 0.354048
outer loop
vertex 24.2705 169.052 81.4112
vertex 17.6336 160.514 109.436
vertex 24.2705 155.03 105.698
endloop
endfacet
facet normal 0.890491 -0.423549 0.166229
outer loop
vertex 28.5317 -161.517 77.7826
vertex 24.2705 -179.298 55.306
vertex 28.5317 -171.306 52.8409
endloop
endfacet
facet normal 0.70612 0.481625 0.519069
outer loop
vertex 17.6336 142.41 132.137
vertex 17.6336 121.126 151.887
vertex 24.2705 137.545 127.623
endloop
endfacet
facet normal 0 0.433882 0.90097
outer loop
vertex -20 100 173.205
vertex 0 73.0682 186.175
vertex 0 100 173.205
endloop
endfacet
facet normal 0.986328 -0.048573 -0.15747
outer loop
vertex 28.5317 -65.4949 -166.878
vertex 28.5317 -39.8914 -174.776
vertex 30 -52.5329 -161.68
endloop
endfacet
facet normal 0 -0.56332 0.826239
outer loop
vertex -20 -100 173.205
vertex 0 -124.698 156.366
vertex 0 -100 173.205
endloop
endfacet
facet normal 0.156007 0.984994 0.0738139
outer loop
vertex 9.27051 198.532 0
vertex 0 197.766 29.8085
vertex 9.27051 196.314 29.5896
endloop
endfacet
facet normal 0.452983 -0.889026 0.066622
outer loop
vertex 17.6336 -192.101 28.9545
vertex 9.27051 -198.532 1.7053e-13
vertex 17.6336 -194.27 1.7053e-13
endloop
endfacet
facet normal -0 0 -1
outer loop
vertex -20 14.946 -199.441
vertex 0 14.946 -199.441
vertex -20 -14.946 -199.441
endloop
endfacet
facet normal 0.890491 0.423548 0.16623
outer loop
vertex 24.2705 179.298 55.306
vertex 24.2705 169.052 81.4112
vertex 28.5317 171.306 52.8409
endloop
endfacet
facet normal -1 0 0
outer loop
vertex -20 -197.766 -29.8085
vertex -20 -146.61 -136.035
vertex -20 -165.248 -112.664
endloop
endfacet
facet normal 0 -0.974928 0.222521
outer loop
vertex -20 -197.766 29.8085
vertex 0 -197.766 29.8085
vertex -20 -191.115 58.951
endloop
endfacet
facet normal -1 0 0
outer loop
vertex -20 200 0
vertex -20 197.766 -29.8085
vertex -20 28.1908 -10.2606
endloop
endfacet
facet normal -1 0 0
outer loop
vertex -20 -197.766 29.8085
vertex -20 -191.115 58.951
vertex -20 -180.194 86.7768
endloop
endfacet
facet normal 0 -0.294757 -0.955572
outer loop
vertex -20 -73.0682 -186.175
vertex 0 -44.5042 -194.986
vertex 0 -73.0682 -186.175
endloop
endfacet
facet normal 0.156008 -0.855422 0.493878
outer loop
vertex 9.27051 -164.035 111.837
vertex 0 -180.194 86.7768
vertex 9.27051 -178.871 86.1397
endloop
endfacet
facet normal 0.988924 -0.034648 -0.14432
outer loop
vertex 28.5317 -39.8914 -174.776
vertex 30 -26.5939 -167.907
vertex 30 -52.5329 -161.68
endloop
endfacet
facet normal 1 0 0
outer loop
vertex 30 77.1784 -151.471
vertex 30 -99.9235 -137.533
vertex 30 -77.1784 -151.471
endloop
endfacet
facet normal -1 0 0
outer loop
vertex 5 -15 -25.9808
vertex 5 22.9813 -19.2836
vertex 5 15 -25.9808
endloop
endfacet
facet normal 0.706118 -0.208714 -0.676636
outer loop
vertex 17.6336 -70.975 -180.841
vertex 17.6336 -43.2293 -189.4
vertex 24.2705 -68.5502 -174.663
endloop
endfacet
facet normal 0.70612 -0.706112 0.0529148
outer loop
vertex 17.6336 -192.101 28.9545
vertex 17.6336 -194.27 1.7053e-13
vertex 24.2705 -185.538 27.9653
endloop
endfacet
facet normal 1 -0 0
outer loop
vertex 30 120.208 120.208
vertex 30 -120.208 120.208
vertex 30 137.533 99.9235
endloop
endfacet
facet normal 0 0.680174 0.733051
outer loop
vertex -20 146.61 136.035
vertex 0 124.698 156.366
vertex 0 146.61 136.035
endloop
endfacet
facet normal 0 0.433882 0.90097
outer loop
vertex -20 73.0682 186.175
vertex 0 73.0682 186.175
vertex -20 100 173.205
endloop
endfacet
facet normal 0.156009 -0.855422 0.493878
outer loop
vertex 0 -165.248 112.664
vertex 0 -180.194 86.7768
vertex 9.27051 -164.035 111.837
endloop
endfacet
facet normal 0.156008 0 0.987756
outer loop
vertex 9.27051 14.8363 197.977
vertex 0 -14.946 199.441
vertex 9.27051 -14.8363 197.977
endloop
endfacet
facet normal 1 0 0
outer loop
vertex 30 120.208 120.208
vertex 30 -99.9235 137.533
vertex 30 -120.208 120.208
endloop
endfacet
facet normal -1 0 -0
outer loop
vertex -20 -197.766 -29.8085
vertex -20 -28.1908 -10.2606
vertex -20 -22.9813 -19.2836
endloop
endfacet
facet normal 0.706118 0.481626 -0.51907
outer loop
vertex 17.6336 121.126 -151.887
vertex 17.6336 142.41 -132.137
vertex 24.2705 116.988 -146.698
endloop
endfacet
facet normal 0.452982 0.869167 -0.198383
outer loop
vertex 17.6336 185.64 -57.2622
vertex 9.27051 196.314 -29.5896
vertex 17.6336 192.101 -28.9545
endloop
endfacet
facet normal -1 0 -0
outer loop
vertex -20 5.20944 29.5442
vertex -20 180.194 86.7768
vertex -20 191.115 58.951
endloop
endfacet
facet normal 0.452982 0.502211 0.736608
outer loop
vertex 17.6336 121.126 151.887
vertex 9.27051 99.2659 171.934
vertex 17.6336 97.1352 168.243
endloop
endfacet
facet normal 0.89049 0.30948 -0.333541
outer loop
vertex 28.5317 111.773 -140.159
vertex 24.2705 137.545 -127.623
vertex 28.5317 131.415 -121.935
endloop
endfacet
facet normal 1 0 0
outer loop
vertex 30 99.9235 -137.533
vertex 30 -120.208 -120.208
vertex 30 -99.9235 -137.533
endloop
endfacet
facet normal 0 0.149043 -0.988831
outer loop
vertex -20 14.946 -199.441
vertex 0 44.5042 -194.986
vertex 0 14.946 -199.441
endloop
endfacet
facet normal 0.452984 -0.772077 -0.44576
outer loop
vertex 17.6336 -175.032 -84.2908
vertex 9.27051 -164.035 -111.837
vertex 17.6336 -160.514 -109.436
endloop
endfacet
facet normal 1 -0 0
outer loop
vertex 30 99.9235 137.533
vertex 30 -99.9235 137.533
vertex 30 120.208 120.208
endloop
endfacet
facet normal 0.156009 0.42857 -0.889938
outer loop
vertex 9.27051 72.5318 -184.808
vertex 0 100 -173.205
vertex 9.27051 99.2659 -171.934
endloop
endfacet
facet normal 1 0 0
outer loop
vertex 30 151.471 77.1784
vertex 30 -137.533 99.9235
vertex 30 -151.471 77.1784
endloop
endfacet
facet normal 0.706117 0.613228 -0.354049
outer loop
vertex 24.2705 155.03 -105.698
vertex 17.6336 175.032 -84.2908
vertex 24.2705 169.052 -81.4112
endloop
endfacet
facet normal 0 0.294757 -0.955572
outer loop
vertex -20 44.5042 -194.986
vertex 0 73.0682 -186.175
vertex 0 44.5042 -194.986
endloop
endfacet
facet normal -1 0 0
outer loop
vertex -20 -197.766 -29.8085
vertex -20 -124.698 -156.366
vertex -20 -146.61 -136.035
endloop
endfacet
facet normal 0.452984 0.869166 0.198383
outer loop
vertex 17.6336 192.101 28.9545
vertex 9.27051 189.712 58.5183
vertex 17.6336 185.64 57.2622
endloop
endfacet
facet normal 0.45298 0.262782 0.851913
outer loop
vertex 9.27051 72.5318 184.808
vertex 9.27051 44.1775 193.554
vertex 17.6336 70.975 180.841
endloop
endfacet
facet normal 0.706117 0.398884 0.585055
outer loop
vertex 24.2705 116.988 146.698
vertex 17.6336 97.1352 168.243
vertex 24.2705 93.8168 162.495
endloop
endfacet
facet normal 1 0 0
outer loop
vertex 30 170 -5.05184e-14
vertex 30 -167.907 26.5939
vertex 30 -170 6.2479e-09
endloop
endfacet
facet normal 0.986628 -0.110861 0.119481
outer loop
vertex 28.5317 -111.773 140.159
vertex 28.5317 -131.415 121.935
vertex 30 -120.208 120.208
endloop
endfacet
facet normal 0.706117 0.659148 0.258696
outer loop
vertex 17.6336 185.64 57.2622
vertex 17.6336 175.032 84.2908
vertex 24.2705 179.298 55.306
endloop
endfacet
facet normal 0.706117 0.659148 -0.258696
outer loop
vertex 24.2705 169.052 -81.4112
vertex 17.6336 185.64 -57.2622
vertex 24.2705 179.298 -55.306
endloop
endfacet
facet normal 0.706118 0.30723 -0.637971
outer loop
vertex 17.6336 70.975 -180.841
vertex 17.6336 97.1352 -168.243
vertex 24.2705 68.5502 -174.663
endloop
endfacet
facet normal 1 -0 0
outer loop
vertex 30 151.471 -77.1784
vertex 30 -151.471 -77.1784
vertex 30 137.533 -99.9235
endloop
endfacet
facet normal -1 0 -0
outer loop
vertex -20 -197.766 29.8085
vertex -20 -73.0682 186.175
vertex -20 -44.5042 194.986
endloop
endfacet
facet normal 0.890491 0.197418 -0.409942
outer loop
vertex 28.5317 65.4949 -166.878
vertex 24.2705 93.8168 -162.495
vertex 28.5317 89.6352 -155.253
endloop
endfacet
facet normal 0.156008 0.147218 0.976723
outer loop
vertex 9.27051 44.1775 193.554
vertex 0 14.946 199.441
vertex 9.27051 14.8363 197.977
endloop
endfacet
facet normal 0.706117 0 -0.708096
outer loop
vertex 17.6336 -14.5178 -193.727
vertex 17.6336 14.5178 -193.727
vertex 24.2705 -14.0219 -187.109
endloop
endfacet
facet normal 0.156008 -0.919476 -0.360867
outer loop
vertex 9.27051 -189.712 -58.5183
vertex 0 -180.194 -86.7768
vertex 9.27051 -178.871 -86.1397
endloop
endfacet
facet normal 0.890492 -0.256311 0.375938
outer loop
vertex 28.5317 -89.6352 155.253
vertex 24.2705 -116.988 146.698
vertex 28.5317 -111.773 140.159
endloop
endfacet
facet normal -1 0 0
outer loop
vertex 5 -30 0
vertex 5 30 1.69965e-14
vertex 5 -28.1908 -10.2606
endloop
endfacet
facet normal 0.45298 0.386815 -0.803233
outer loop
vertex 9.27051 72.5318 -184.808
vertex 9.27051 99.2659 -171.934
vertex 17.6336 70.975 -180.841
endloop
endfacet
facet normal 0 0.642788 0.766044
outer loop
vertex -20 -22.9813 -19.2836
vertex 5 -22.9813 -19.2836
vertex -20 -15 -25.9808
endloop
endfacet
facet normal 0 0.974928 0.222521
outer loop
vertex -20 191.115 58.951
vertex 0 191.115 58.951
vertex -20 197.766 29.8085
endloop
endfacet
facet normal 0 0.866026 0.5
outer loop
vertex -20 165.248 112.664
vertex 0 165.248 112.664
vertex -20 180.194 86.7768
endloop
endfacet
facet normal 0.890492 0.067814 -0.449917
outer loop
vertex 24.2705 14.0219 -187.109
vertex 24.2705 41.7524 -182.929
vertex 28.5317 13.3969 -178.769
endloop
endfacet
facet normal 0.156007 -0.291148 0.943872
outer loop
vertex 9.27051 -44.1775 193.554
vertex 0 -73.0682 186.175
vertex 9.27051 -72.5318 184.808
endloop
endfacet
facet normal 0.452982 -0.829893 -0.325708
outer loop
vertex 17.6336 -185.64 -57.2622
vertex 9.27051 -178.871 -86.1397
vertex 17.6336 -175.032 -84.2908
endloop
endfacet
facet normal 0 -0.930874 -0.365341
outer loop
vertex -20 -191.115 -58.951
vertex 0 -180.194 -86.7768
vertex 0 -191.115 -58.951
endloop
endfacet
facet normal 0.156012 -0.671845 -0.724075
outer loop
vertex 9.27051 -145.534 -135.036
vertex 0 -124.698 -156.366
vertex 9.27051 -123.782 -155.218
endloop
endfacet
facet normal 0.986628 0.110861 0.119481
outer loop
vertex 28.5317 131.415 121.935
vertex 28.5317 111.773 140.159
vertex 30 120.208 120.208
endloop
endfacet
facet normal 1 0 0
outer loop
vertex 30 120.208 -120.208
vertex 30 -137.533 -99.9235
vertex 30 -120.208 -120.208
endloop
endfacet
facet normal 1 -0 0
outer loop
vertex 30 137.533 -99.9235
vertex 30 -137.533 -99.9235
vertex 30 120.208 -120.208
endloop
endfacet
facet normal 0.987158 -0.148702 -0.0583609
outer loop
vertex 28.5317 -171.306 -52.8409
vertex 28.5317 -161.517 -77.7826
vertex 30 -161.68 -52.5329
endloop
endfacet
facet normal 0.452982 -0.772079 -0.44576
outer loop
vertex 9.27051 -178.871 -86.1397
vertex 9.27051 -164.035 -111.837
vertex 17.6336 -175.032 -84.2908
endloop
endfacet
facet normal 0.890491 -0.355735 -0.283689
outer loop
vertex 24.2705 -155.03 -105.698
vertex 24.2705 -137.545 -127.623
vertex 28.5317 -148.12 -100.987
endloop
endfacet
facet normal 0.986958 -0.139409 0.0804886
outer loop
vertex 28.5317 -148.12 100.987
vertex 28.5317 -161.517 77.7826
vertex 30 -151.471 77.1784
endloop
endfacet
facet normal 0.988296 0.140935 0.0583771
outer loop
vertex 28.5317 161.517 77.7826
vertex 30 151.471 77.1784
vertex 30 161.68 52.5329
endloop
endfacet
facet normal -0 -0.642788 -0.766044
outer loop
vertex -20 22.9813 19.2836
vertex 5 22.9813 19.2836
vertex -20 15 25.9808
endloop
endfacet
facet normal 0.156012 -0.671845 0.724075
outer loop
vertex 0 -124.698 156.366
vertex 0 -146.61 136.035
vertex 9.27051 -123.782 155.218
endloop
endfacet
facet normal 0.156012 0.556423 -0.816121
outer loop
vertex 9.27051 99.2659 -171.934
vertex 0 124.698 -156.366
vertex 9.27051 123.782 -155.218
endloop
endfacet
facet normal -1 -0 0
outer loop
vertex 5 -15 25.9808
vertex 5 15 25.9808
vertex 5 -22.9813 19.2836
endloop
endfacet
facet normal -1 0 -0
outer loop
vertex -20 5.20944 29.5442
vertex -20 191.115 58.951
vertex -20 197.766 29.8085
endloop
endfacet
facet normal 0 -0.34202 0.939693
outer loop
vertex -20 15 -25.9808
vertex 5 5.20944 -29.5442
vertex 5 15 -25.9808
endloop
endfacet
facet normal -0 -0.34202 -0.939693
outer loop
vertex -20 15 25.9808
vertex 5 15 25.9808
vertex -20 5.20944 29.5442
endloop
endfacet
facet normal 0.452984 0.697018 -0.555852
outer loop
vertex 17.6336 142.41 -132.137
vertex 9.27051 164.035 -111.837
vertex 17.6336 160.514 -109.436
endloop
endfacet
facet normal 1 0 0
outer loop
vertex 30 161.68 52.5329
vertex 30 -151.471 77.1784
vertex 30 -161.68 52.5329
endloop
endfacet
facet normal 0.988296 0.140935 -0.0583771
outer loop
vertex 28.5317 161.517 -77.7826
vertex 30 161.68 -52.5329
vertex 30 151.471 -77.1784
endloop
endfacet
facet normal 0.986958 -0.139409 -0.0804886
outer loop
vertex 28.5317 -161.517 -77.7826
vertex 28.5317 -148.12 -100.987
vertex 30 -151.471 -77.1784
endloop
endfacet
facet normal 0.706116 0.105537 -0.700187
outer loop
vertex 17.6336 14.5178 -193.727
vertex 17.6336 43.2293 -189.4
vertex 24.2705 14.0219 -187.109
endloop
endfacet
facet normal -0 -0.56332 -0.826239
outer loop
vertex -20 -100 -173.205
vertex 0 -100 -173.205
vertex -20 -124.698 -156.366
endloop
endfacet
facet normal 0 -0 -1
outer loop
vertex -20 -5.20944 29.5442
vertex 5 5.20944 29.5442
vertex 5 -5.20944 29.5442
endloop
endfacet
facet normal 0.9881 -0.149564 -0.0359072
outer loop
vertex 28.5317 -171.306 -52.8409
vertex 30 -161.68 -52.5329
vertex 30 -167.907 -26.5939
endloop
endfacet
facet normal -1 0 -0
outer loop
vertex 5 -30 0
vertex 5 28.1908 10.2606
vertex 5 30 1.69965e-14
endloop
endfacet
facet normal 0 -0.642788 0.766044
outer loop
vertex -20 15 -25.9808
vertex 5 15 -25.9808
vertex -20 22.9813 -19.2836
endloop
endfacet
facet normal -1 0 0
outer loop
vertex 5 -22.9813 -19.2836
vertex 5 28.1908 -10.2606
vertex 5 22.9813 -19.2836
endloop
endfacet
facet normal 0 0.974928 -0.222521
outer loop
vertex -20 197.766 -29.8085
vertex 0 197.766 -29.8085
vertex -20 191.115 -58.951
endloop
endfacet
facet normal -1 0 -0
outer loop
vertex -20 5.20944 29.5442
vertex -20 44.5042 194.986
vertex -20 73.0682 186.175
endloop
endfacet
facet normal 0 0.984808 -0.173648
outer loop
vertex -20 -30 0
vertex 5 -28.1908 10.2606
vertex 5 -30 0
endloop
endfacet
facet normal 0.156009 -0.556422 0.816122
outer loop
vertex 0 -100 173.205
vertex 0 -124.698 156.366
vertex 9.27051 -99.2659 171.934
endloop
endfacet
facet normal 0.156009 0.147218 0.976723
outer loop
vertex 0 44.5042 194.986
vertex 0 14.946 199.441
vertex 9.27051 44.1775 193.554
endloop
endfacet
facet normal 0 0.34202 0.939693
outer loop
vertex -20 -5.20944 -29.5442
vertex 5 -15 -25.9808
vertex 5 -5.20944 -29.5442
endloop
endfacet
facet normal 0.890492 0 -0.454999
outer loop
vertex 28.5317 -13.3969 -178.769
vertex 24.2705 14.0219 -187.109
vertex 28.5317 13.3969 -178.769
endloop
endfacet
facet normal 0 0.294757 -0.955572
outer loop
vertex -20 73.0682 -186.175
vertex 0 73.0682 -186.175
vertex -20 44.5042 -194.986
endloop
endfacet
facet normal 1 0 0
outer loop
vertex 30 99.9235 137.533
vertex 30 -77.1784 151.471
vertex 30 -99.9235 137.533
endloop
endfacet
facet normal 0.15601 0.919476 -0.360867
outer loop
vertex 9.27051 178.871 -86.1397
vertex 0 191.115 -58.951
vertex 9.27051 189.712 -58.5183
endloop
endfacet
facet normal 0.156008 0.919476 -0.360868
outer loop
vertex 0 180.194 -86.7768
vertex 0 191.115 -58.951
vertex 9.27051 178.871 -86.1397
endloop
endfacet
facet normal 0.706118 0.481627 0.519069
outer loop
vertex 24.2705 137.545 127.623
vertex 17.6336 121.126 151.887
vertex 24.2705 116.988 146.698
endloop
endfacet
facet normal -1 -0 0
outer loop
vertex -20 5.20944 -29.5442
vertex -20 180.194 -86.7768
vertex -20 165.248 -112.664
endloop
endfacet
facet normal 0.452982 -0.772078 0.445761
outer loop
vertex 17.6336 -160.514 109.436
vertex 9.27051 -178.871 86.1397
vertex 17.6336 -175.032 84.2908
endloop
endfacet
facet normal 0.156008 0 -0.987756
outer loop
vertex 9.27051 -14.8363 -197.977
vertex 0 14.946 -199.441
vertex 9.27051 14.8363 -197.977
endloop
endfacet
facet normal 0.452983 0.889026 0.0666223
outer loop
vertex 9.27051 198.532 0
vertex 9.27051 196.314 29.5896
vertex 17.6336 194.27 0
endloop
endfacet
facet normal 0 0.866025 0.5
outer loop
vertex -20 -28.1908 -10.2606
vertex 5 -28.1908 -10.2606
vertex -20 -22.9813 -19.2836
endloop
endfacet
facet normal 0.890492 0.309478 0.333539
outer loop
vertex 28.5317 131.415 121.935
vertex 24.2705 116.988 146.698
vertex 28.5317 111.773 140.159
endloop
endfacet
facet normal 0 -0 1
outer loop
vertex -20 14.946 199.441
vertex 0 -14.946 199.441
vertex 0 14.946 199.441
endloop
endfacet
facet normal 0.156012 -0.556422 -0.816122
outer loop
vertex 0 -124.698 -156.366
vertex 0 -100 -173.205
vertex 9.27051 -123.782 -155.218
endloop
endfacet
facet normal 0.890491 -0.197417 -0.409942
outer loop
vertex 24.2705 -93.8168 -162.495
vertex 24.2705 -68.5502 -174.663
vertex 28.5317 -89.6352 -155.253
endloop
endfacet
facet normal 0.706117 -0.398884 -0.585055
outer loop
vertex 24.2705 -116.988 -146.698
vertex 17.6336 -97.1352 -168.243
vertex 24.2705 -93.8168 -162.495
endloop
endfacet
facet normal 1 0 0
outer loop
vertex 30 161.68 -52.5329
vertex 30 -167.907 -26.5939
vertex 30 -161.68 -52.5329
endloop
endfacet
facet normal 0 0.294757 0.955572
outer loop
vertex -20 44.5042 194.986
vertex 0 44.5042 194.986
vertex -20 73.0682 186.175
endloop
endfacet
facet normal 0.98872 -0.0972693 -0.113888
outer loop
vertex 28.5317 -111.773 -140.159
vertex 30 -99.9235 -137.533
vertex 30 -120.208 -120.208
endloop
endfacet
facet normal 0.89049 -0.394043 0.227502
outer loop
vertex 28.5317 -148.12 100.987
vertex 24.2705 -169.052 81.4112
vertex 28.5317 -161.517 77.7826
endloop
endfacet
facet normal 0 -0.866025 0.5
outer loop
vertex -20 22.9813 -19.2836
vertex 5 22.9813 -19.2836
vertex -20 28.1908 -10.2606
endloop
endfacet
facet normal 0.156012 -0.772257 0.615856
outer loop
vertex 0 -146.61 136.035
vertex 0 -165.248 112.664
vertex 9.27051 -145.534 135.036
endloop
endfacet
facet normal 0.452984 -0 0.891519
outer loop
vertex 9.27051 14.8363 197.977
vertex 9.27051 -14.8363 197.977
vertex 17.6336 14.5178 193.727
endloop
endfacet
facet normal 0.98627 0 -0.165139
outer loop
vertex 28.5317 -13.3969 -178.769
vertex 28.5317 13.3969 -178.769
vertex 30 -2.15755e-14 -170
endloop
endfacet
facet normal 0.156009 -0.42857 0.889938
outer loop
vertex 9.27051 -72.5318 184.808
vertex 0 -100 173.205
vertex 9.27051 -99.2659 171.934
endloop
endfacet
facet normal -0 0.984808 0.173648
outer loop
vertex -20 -30 0
vertex 5 -30 0
vertex -20 -28.1908 -10.2606
endloop
endfacet
facet normal 0.452975 0.60639 -0.653533
outer loop
vertex 17.6336 121.126 -151.887
vertex 9.27051 145.534 -135.036
vertex 17.6336 142.41 -132.137
endloop
endfacet
facet normal 1 0 0
outer loop
vertex 30 26.5939 -167.907
vertex 30 -52.5329 -161.68
vertex 30 -26.5939 -167.907
endloop
endfacet
facet normal -1 0 0
outer loop
vertex -20 -197.766 -29.8085
vertex -20 -165.248 -112.664
vertex -20 -180.194 -86.7768
endloop
endfacet
facet normal -1 0 0
outer loop
vertex -20 -200 2.44921e-14
vertex -20 -28.1908 10.2606
vertex -20 -30 0
endloop
endfacet
facet normal 0.156009 0.291148 0.943872
outer loop
vertex 9.27051 72.5318 184.808
vertex 0 44.5042 194.986
vertex 9.27051 44.1775 193.554
endloop
endfacet
facet normal 0.986285 0.0245997 -0.163208
outer loop
vertex 28.5317 13.3969 -178.769
vertex 28.5317 39.8914 -174.776
vertex 30 26.5939 -167.907
endloop
endfacet
facet normal 0 0.433882 -0.90097
outer loop
vertex -20 100 -173.205
vertex 0 100 -173.205
vertex -20 73.0682 -186.175
endloop
endfacet
facet normal 0.89049 -0.30948 0.333541
outer loop
vertex 28.5317 -111.773 140.159
vertex 24.2705 -137.545 127.623
vertex 28.5317 -131.415 121.935
endloop
endfacet
facet normal 0 -0.974928 0.222521
outer loop
vertex -20 -191.115 58.951
vertex 0 -197.766 29.8085
vertex 0 -191.115 58.951
endloop
endfacet
facet normal 0.988812 -0.0779401 0.127187
outer loop
vertex 28.5317 -89.6352 155.253
vertex 30 -99.9235 137.533
vertex 30 -77.1784 151.471
endloop
endfacet
facet normal 0.987158 0.148702 0.0583609
outer loop
vertex 28.5317 171.306 52.8409
vertex 28.5317 161.517 77.7826
vertex 30 161.68 52.5329
endloop
endfacet
facet normal 0.986401 -0.0713125 -0.148082
outer loop
vertex 28.5317 -89.6352 -155.253
vertex 28.5317 -65.4949 -166.878
vertex 30 -77.1784 -151.471
endloop
endfacet
facet normal 0.988812 0.0779401 0.127187
outer loop
vertex 28.5317 89.6352 155.253
vertex 30 77.1784 151.471
vertex 30 99.9235 137.533
endloop
endfacet
facet normal 0.452982 0.889027 -0.0666223
outer loop
vertex 9.27051 196.314 -29.5896
vertex 9.27051 198.532 0
vertex 17.6336 192.101 -28.9545
endloop
endfacet
facet normal 0 -0.866025 -0.5
outer loop
vertex -20 22.9813 19.2836
vertex 5 28.1908 10.2606
vertex 5 22.9813 19.2836
endloop
endfacet
facet normal 0.706117 0.690342 -0.157567
outer loop
vertex 17.6336 185.64 -57.2622
vertex 17.6336 192.101 -28.9545
vertex 24.2705 179.298 -55.306
endloop
endfacet
facet normal 0.89049 -0.42355 -0.16623
outer loop
vertex 28.5317 -171.306 -52.8409
vertex 24.2705 -169.052 -81.4112
vertex 28.5317 -161.517 -77.7826
endloop
endfacet
facet normal 0 -0.866026 0.5
outer loop
vertex -20 -165.248 112.664
vertex 0 -180.194 86.7768
vertex 0 -165.248 112.664
endloop
endfacet
facet normal -1 0 -0
outer loop
vertex -20 -197.766 29.8085
vertex -20 -44.5042 194.986
vertex -20 -14.946 199.441
endloop
endfacet
facet normal 0.986958 0.139409 0.0804886
outer loop
vertex 28.5317 161.517 77.7826
vertex 28.5317 148.12 100.987
vertex 30 151.471 77.1784
endloop
endfacet
facet normal 0.706118 0.613227 -0.354048
outer loop
vertex 17.6336 160.514 -109.436
vertex 17.6336 175.032 -84.2908
vertex 24.2705 155.03 -105.698
endloop
endfacet
facet normal 0.89049 -0.355736 -0.283689
outer loop
vertex 28.5317 -148.12 -100.987
vertex 24.2705 -137.545 -127.623
vertex 28.5317 -131.415 -121.935
endloop
endfacet
facet normal 0.156009 0.556422 -0.816122
outer loop
vertex 0 100 -173.205
vertex 0 124.698 -156.366
vertex 9.27051 99.2659 -171.934
endloop
endfacet
facet normal 0.452986 -0.132875 0.88156
outer loop
vertex 17.6336 -14.5178 193.727
vertex 9.27051 -44.1775 193.554
vertex 17.6336 -43.2293 189.4
endloop
endfacet
facet normal 0 -0.866025 0.5
outer loop
vertex -20 28.1908 -10.2606
vertex 5 22.9813 -19.2836
vertex 5 28.1908 -10.2606
endloop
endfacet
facet normal 0 -0.433882 0.90097
outer loop
vertex -20 -100 173.205
vertex 0 -100 173.205
vertex -20 -73.0682 186.175
endloop
endfacet
facet normal 1 0 0
outer loop
vertex 30 52.5329 -161.68
vertex 30 -77.1784 -151.471
vertex 30 -52.5329 -161.68
endloop
endfacet
facet normal 0.986781 0.126705 -0.101043
outer loop
vertex 28.5317 131.415 -121.935
vertex 28.5317 148.12 -100.987
vertex 30 137.533 -99.9235
endloop
endfacet
facet normal 0.706118 0.208714 0.676636
outer loop
vertex 17.6336 70.975 180.841
vertex 17.6336 43.2293 189.4
vertex 24.2705 68.5502 174.663
endloop
endfacet
facet normal 0.89049 -0.42355 0.166231
outer loop
vertex 24.2705 -169.052 81.4112
vertex 24.2705 -179.298 55.306
vertex 28.5317 -161.517 77.7826
endloop
endfacet
facet normal 0.156009 -0.855422 -0.493878
outer loop
vertex 9.27051 -178.871 -86.1397
vertex 0 -165.248 -112.664
vertex 9.27051 -164.035 -111.837
endloop
endfacet
facet normal 0.156012 0.671845 0.724075
outer loop
vertex 9.27051 145.534 135.036
vertex 0 124.698 156.366
vertex 9.27051 123.782 155.218
endloop
endfacet
facet normal 0 -0.930874 0.365341
outer loop
vertex -20 -191.115 58.951
vertex 0 -191.115 58.951
vertex -20 -180.194 86.7768
endloop
endfacet
facet normal 1 0 0
outer loop
vertex 30 -26.5939 167.907
vertex 30 26.5939 167.907
vertex 30 3.12389e-09 170
endloop
endfacet
facet normal 0.156009 -0.147218 -0.976723
outer loop
vertex 0 -44.5042 -194.986
vertex 0 -14.946 -199.441
vertex 9.27051 -44.1775 -193.554
endloop
endfacet
facet normal 0 -0.781831 -0.623491
outer loop
vertex -20 -165.248 -112.664
vertex 0 -146.61 -136.035
vertex 0 -165.248 -112.664
endloop
endfacet
facet normal 0 -0.781831 0.623491
outer loop
vertex -20 -146.61 136.035
vertex 0 -165.248 112.664
vertex 0 -146.61 136.035
endloop
endfacet
facet normal 0.988924 0.034648 -0.14432
outer loop
vertex 28.5317 39.8914 -174.776
vertex 30 52.5329 -161.68
vertex 30 26.5939 -167.907
endloop
endfacet
facet normal 0.890491 -0.443593 -0.101247
outer loop
vertex 28.5317 -177.268 -26.7189
vertex 24.2705 -179.298 -55.306
vertex 28.5317 -171.306 -52.8409
endloop
endfacet
facet normal 0.706113 -0.706119 -0.0529153
outer loop
vertex 17.6336 -194.27 1.7053e-13
vertex 17.6336 -192.101 -28.9545
vertex 24.2705 -187.634 1.56319e-13
endloop
endfacet
facet normal 0 -0.974928 -0.222521
outer loop
vertex -20 -197.766 -29.8085
vertex 0 -191.115 -58.951
vertex 0 -197.766 -29.8085
endloop
endfacet
facet normal 0.9881 -0.149564 0.0359072
outer loop
vertex 28.5317 -171.306 52.8409
vertex 30 -167.907 26.5939
vertex 30 -161.68 52.5329
endloop
endfacet
facet normal 1 -0 0
outer loop
vertex 30 167.907 26.5939
vertex 30 -167.907 26.5939
vertex 30 170 -5.05184e-14
endloop
endfacet
facet normal 0.706117 0.613228 0.354048
outer loop
vertex 17.6336 175.032 84.2908
vertex 17.6336 160.514 109.436
vertex 24.2705 169.052 81.4112
endloop
endfacet
facet normal 0.890491 0.197417 0.409942
outer loop
vertex 24.2705 93.8168 162.495
vertex 24.2705 68.5502 174.663
vertex 28.5317 89.6352 155.253
endloop
endfacet
facet normal -0 -0.866026 -0.5
outer loop
vertex -20 -165.248 -112.664
vertex 0 -165.248 -112.664
vertex -20 -180.194 -86.7768
endloop
endfacet
facet normal 0.156008 0.772257 -0.615858
outer loop
vertex 9.27051 145.534 -135.036
vertex 0 165.248 -112.664
vertex 9.27051 164.035 -111.837
endloop
endfacet
facet normal 0.70612 -0.553609 0.441488
outer loop
vertex 17.6336 -142.41 132.137
vertex 17.6336 -160.514 109.436
vertex 24.2705 -137.545 127.623
endloop
endfacet
facet normal 0.986628 0.110861 -0.119481
outer loop
vertex 28.5317 111.773 -140.159
vertex 28.5317 131.415 -121.935
vertex 30 120.208 -120.208
endloop
endfacet
facet normal -1 0 0
outer loop
vertex -20 5.20944 -29.5442
vertex -20 -14.946 -199.441
vertex -20 -5.20944 -29.5442
endloop
endfacet
facet normal 0.70612 -0.706112 -0.052918
outer loop
vertex 24.2705 -187.634 1.56319e-13
vertex 17.6336 -192.101 -28.9545
vertex 24.2705 -185.538 -27.9653
endloop
endfacet
facet normal 0.156007 -0.42857 -0.889938
outer loop
vertex 9.27051 -99.2659 -171.934
vertex 0 -73.0682 -186.175
vertex 9.27051 -72.5318 -184.808
endloop
endfacet
facet normal 0.156007 -0.984994 -0.073814
outer loop
vertex 0 -200 2.44921e-14
vertex 0 -197.766 -29.8085
vertex 9.27051 -198.532 1.7053e-13
endloop
endfacet
facet normal 0 0.984808 -0.173648
outer loop
vertex -20 -28.1908 10.2606
vertex 5 -28.1908 10.2606
vertex -20 -30 0
endloop
endfacet
facet normal 0.156008 0.855422 0.493878
outer loop
vertex 0 180.194 86.7768
vertex 0 165.248 112.664
vertex 9.27051 178.871 86.1397
endloop
endfacet
facet normal 0.988296 -0.140935 -0.0583771
outer loop
vertex 28.5317 -161.517 -77.7826
vertex 30 -151.471 -77.1784
vertex 30 -161.68 -52.5329
endloop
endfacet
facet normal -1.83027e-16 0.997204 -0.0747289
outer loop
vertex -20 200 0
vertex 0 200 -4.89843e-14
vertex -20 197.766 -29.8085
endloop
endfacet
facet normal 0.452986 0.262779 0.85191
outer loop
vertex 17.6336 70.975 180.841
vertex 9.27051 44.1775 193.554
vertex 17.6336 43.2293 189.4
endloop
endfacet
facet normal 0.156012 0.772257 -0.615856
outer loop
vertex 0 146.61 -136.035
vertex 0 165.248 -112.664
vertex 9.27051 145.534 -135.036
endloop
endfacet
facet normal -1 0 0
outer loop
vertex -20 200 0
vertex -20 30 1.69965e-14
vertex -20 28.1908 10.2606
endloop
endfacet
facet normal 0.89049 -0.309481 -0.33354
outer loop
vertex 24.2705 -137.545 -127.623
vertex 24.2705 -116.988 -146.698
vertex 28.5317 -131.415 -121.935
endloop
endfacet
facet normal 1 0 0
outer loop
vertex 30 170 -5.05184e-14
vertex 30 -170 6.2479e-09
vertex 30 167.907 -26.5939
endloop
endfacet
facet normal 0.452982 -0.502211 -0.736608
outer loop
vertex 17.6336 -121.126 -151.887
vertex 9.27051 -99.2659 -171.934
vertex 17.6336 -97.1352 -168.243
endloop
endfacet
facet normal 0.706118 -0.55361 0.441489
outer loop
vertex 24.2705 -137.545 127.623
vertex 17.6336 -160.514 109.436
vertex 24.2705 -155.03 105.698
endloop
endfacet
facet normal 0.89049 0.42355 0.16623
outer loop
vertex 28.5317 171.306 52.8409
vertex 24.2705 169.052 81.4112
vertex 28.5317 161.517 77.7826
endloop
endfacet
facet normal 0.452975 0.697022 0.555855
outer loop
vertex 17.6336 160.514 109.436
vertex 9.27051 145.534 135.036
vertex 17.6336 142.41 132.137
endloop
endfacet
facet normal -0 -0.974928 -0.222521
outer loop
vertex -20 -191.115 -58.951
vertex 0 -191.115 -58.951
vertex -20 -197.766 -29.8085
endloop
endfacet
facet normal 0.89049 -0.134115 -0.434787
outer loop
vertex 24.2705 -68.5502 -174.663
vertex 24.2705 -41.7524 -182.929
vertex 28.5317 -65.4949 -166.878
endloop
endfacet
facet normal 0.706118 -0.613227 0.354048
outer loop
vertex 17.6336 -160.514 109.436
vertex 17.6336 -175.032 84.2908
vertex 24.2705 -155.03 105.698
endloop
endfacet
facet normal -0 -0.866025 -0.5
outer loop
vertex -20 28.1908 10.2606
vertex 5 28.1908 10.2606
vertex -20 22.9813 19.2836
endloop
endfacet
facet normal -1 0 0
outer loop
vertex -20 200 0
vertex -20 22.9813 19.2836
vertex -20 15 25.9808
endloop
endfacet
facet normal 0.452983 -0.889026 -0.0666223
outer loop
vertex 9.27051 -198.532 1.7053e-13
vertex 9.27051 -196.314 -29.5896
vertex 17.6336 -194.27 1.7053e-13
endloop
endfacet
facet normal 0.706118 -0.398883 -0.585055
outer loop
vertex 17.6336 -121.126 -151.887
vertex 17.6336 -97.1352 -168.243
vertex 24.2705 -116.988 -146.698
endloop
endfacet
facet normal 0 0 1
outer loop
vertex -20 -5.20944 -29.5442
vertex 5 -5.20944 -29.5442
vertex -20 5.20944 -29.5442
endloop
endfacet
facet normal 0 -0.984808 -0.173648
outer loop
vertex -20 28.1908 10.2606
vertex 5 30 1.69965e-14
vertex 5 28.1908 10.2606
endloop
endfacet
facet normal 0 -0.149043 -0.988831
outer loop
vertex -20 -44.5042 -194.986
vertex 0 -14.946 -199.441
vertex 0 -44.5042 -194.986
endloop
endfacet
facet normal 0.988464 -0.129138 0.0791358
outer loop
vertex 28.5317 -148.12 100.987
vertex 30 -151.471 77.1784
vertex 30 -137.533 99.9235
endloop
endfacet
facet normal 0.986628 -0.110861 -0.119481
outer loop
vertex 28.5317 -131.415 -121.935
vertex 28.5317 -111.773 -140.159
vertex 30 -120.208 -120.208
endloop
endfacet
facet normal -1 0 0
outer loop
vertex -20 -197.766 -29.8085
vertex -20 -44.5042 -194.986
vertex -20 -73.0682 -186.175
endloop
endfacet
facet normal 0.890492 0.256311 0.375938
outer loop
vertex 24.2705 116.988 146.698
vertex 24.2705 93.8168 162.495
vertex 28.5317 111.773 140.159
endloop
endfacet
facet normal 1 -0 0
outer loop
vertex 30 120.208 -120.208
vertex 30 -120.208 -120.208
vertex 30 99.9235 -137.533
endloop
endfacet
facet normal 0.706114 0.208715 -0.67664
outer loop
vertex 17.6336 43.2293 -189.4
vertex 17.6336 70.975 -180.841
vertex 24.2705 41.7524 -182.929
endloop
endfacet
facet normal 0.452986 0.132875 -0.88156
outer loop
vertex 17.6336 14.5178 -193.727
vertex 9.27051 44.1775 -193.554
vertex 17.6336 43.2293 -189.4
endloop
endfacet
facet normal 0.452982 0.889027 0.0666221
outer loop
vertex 17.6336 194.27 0
vertex 9.27051 196.314 29.5896
vertex 17.6336 192.101 28.9545
endloop
endfacet
facet normal 0.452979 -0.502212 -0.736609
outer loop
vertex 9.27051 -123.782 -155.218
vertex 9.27051 -99.2659 -171.934
vertex 17.6336 -121.126 -151.887
endloop
endfacet
facet normal -1 0 0
outer loop
vertex -20 -200 2.44921e-14
vertex -20 -22.9813 19.2836
vertex -20 -28.1908 10.2606
endloop
endfacet
facet normal 0.890492 0.453726 -0.034002
outer loop
vertex 28.5317 177.268 -26.7189
vertex 24.2705 187.634 0
vertex 28.5317 179.27 0
endloop
endfacet
facet normal 0 0.866025 -0.5
outer loop
vertex -20 -28.1908 10.2606
vertex 5 -22.9813 19.2836
vertex 5 -28.1908 10.2606
endloop
endfacet
facet normal -1 0 -0
outer loop
vertex -20 5.20944 29.5442
vertex -20 124.698 156.366
vertex -20 146.61 136.035
endloop
endfacet
facet normal 0.452984 -0.869166 -0.198383
outer loop
vertex 17.6336 -192.101 -28.9545
vertex 9.27051 -189.712 -58.5183
vertex 17.6336 -185.64 -57.2622
endloop
endfacet
facet normal 0 -0.997204 -0.0747289
outer loop
vertex -20 -200 2.44921e-14
vertex 0 -197.766 -29.8085
vertex 0 -200 2.44921e-14
endloop
endfacet
facet normal 0 0.781831 -0.623491
outer loop
vertex -20 165.248 -112.664
vertex 0 165.248 -112.664
vertex -20 146.61 -136.035
endloop
endfacet
facet normal 0.890492 -0.067814 0.449917
outer loop
vertex 24.2705 -14.0219 187.109
vertex 24.2705 -41.7524 182.929
vertex 28.5317 -13.3969 178.769
endloop
endfacet
facet normal 1 -0 0
outer loop
vertex 30 77.1784 151.471
vertex 30 -77.1784 151.471
vertex 30 99.9235 137.533
endloop
endfacet
facet normal 1 -0 0
outer loop
vertex 30 52.5329 161.68
vertex 30 -52.5329 161.68
vertex 30 77.1784 151.471
endloop
endfacet
endsolid
