solid
facet normal 0 1 0
outer loop
vertex 0.17 0.895 0.04
vertex -0.17 0.895 -4.26326e-16
vertex -0.17 0.895 0.04
endloop
endfacet
facet normal 0 -0 1
outer loop
vertex -0.1 0.1 0.42501
vertex 0.1 -0.1 0.42501
vertex 0.1 0.1 0.42501
endloop
endfacet
facet normal 0 0 1
outer loop
vertex -0.17 -0.895 0.04
vertex 0.1 -0.1 0.04
vertex -0.1 -0.1 0.04
endloop
endfacet
facet normal 1 0 0
outer loop
vertex 0.17 0.895 0.04
vertex 0.17 -0.895 3.97904e-16
vertex 0.17 0.895 3.97904e-16
endloop
endfacet
facet normal 0 1 -0
outer loop
vertex 0.1 0.1 0.04
vertex -0.1 0.1 0.04
vertex 0.1 0.1 0.42501
endloop
endfacet
facet normal 0 0 1
outer loop
vertex 0.17 0.895 0.04
vertex -0.1 0.1 0.04
vertex 0.1 0.1 0.04
endloop
endfacet
facet normal -0 0 1
outer loop
vertex 0.17 0.895 0.04
vertex 0.1 0.1 0.04
vertex 0.17 -0.895 0.04
endloop
endfacet
facet normal 0 0 1
outer loop
vertex -0.17 -0.895 0.04
vertex -0.1 -0.1 0.04
vertex -0.17 0.895 0.04
endloop
endfacet
facet normal 0 0 1
outer loop
vertex -0.1 -0.1 0.42501
vertex 0.1 -0.1 0.42501
vertex -0.1 0.1 0.42501
endloop
endfacet
facet normal 0 -1 0
outer loop
vertex -0.1 -0.1 0.04
vertex 0.1 -0.1 0.04
vertex -0.1 -0.1 0.42501
endloop
endfacet
facet normal 0 -0 1
outer loop
vertex -0.17 0.895 0.04
vertex -0.1 0.1 0.04
vertex 0.17 0.895 0.04
endloop
endfacet
facet normal 2.4242e-15 0 -1
outer loop
vertex 0.17 0.895 3.97904e-16
vertex -0.17 -0.895 -4.26326e-16
vertex -0.17 0.895 -4.26326e-16
endloop
endfacet
facet normal 0 0 1
outer loop
vertex 0.17 -0.895 0.04
vertex 0.1 -0.1 0.04
vertex -0.17 -0.895 0.04
endloop
endfacet
facet normal 0 -1 0
outer loop
vertex -0.17 -0.895 0.04
vertex 0.17 -0.895 3.97904e-16
vertex 0.17 -0.895 0.04
endloop
endfacet
facet normal -1 0 0
outer loop
vertex -0.1 0.1 0.42501
vertex -0.1 -0.1 0.04
vertex -0.1 -0.1 0.42501
endloop
endfacet
facet normal -1 0 0
outer loop
vertex -0.17 0.895 -4.26326e-16
vertex -0.17 -0.895 0.04
vertex -0.17 0.895 0.04
endloop
endfacet
facet normal -1 0 0
outer loop
vertex -0.17 -0.895 -4.26326e-16
vertex -0.17 -0.895 0.04
vertex -0.17 0.895 -4.26326e-16
endloop
endfacet
facet normal 0 1 -0
outer loop
vertex 0.17 0.895 3.97904e-16
vertex -0.17 0.895 -4.26326e-16
vertex 0.17 0.895 0.04
endloop
endfacet
facet normal 0 -1 0
outer loop
vertex -0.17 -0.895 -4.26326e-16
vertex 0.17 -0.895 3.97904e-16
vertex -0.17 -0.895 0.04
endloop
endfacet
facet normal 2.4242e-15 0 -1
outer loop
vertex 0.17 -0.895 3.97904e-16
vertex -0.17 -0.895 -4.26326e-16
vertex 0.17 0.895 3.97904e-16
endloop
endfacet
facet normal 1 0 0
outer loop
vertex 0.17 -0.895 0.04
vertex 0.17 -0.895 3.97904e-16
vertex 0.17 0.895 0.04
endloop
endfacet
facet normal 0 -0 1
outer loop
vertex -0.17 0.895 0.04
vertex -0.1 -0.1 0.04
vertex -0.1 0.1 0.04
endloop
endfacet
facet normal 0 -1 0
outer loop
vertex -0.1 -0.1 0.42501
vertex 0.1 -0.1 0.04
vertex 0.1 -0.1 0.42501
endloop
endfacet
facet normal 0 0 1
outer loop
vertex 0.17 -0.895 0.04
vertex 0.1 0.1 0.04
vertex 0.1 -0.1 0.04
endloop
endfacet
facet normal -1 0 0
outer loop
vertex -0.1 0.1 0.04
vertex -0.1 -0.1 0.04
vertex -0.1 0.1 0.42501
endloop
endfacet
facet normal 0 1 0
outer loop
vertex 0.1 0.1 0.42501
vertex -0.1 0.1 0.04
vertex -0.1 0.1 0.42501
endloop
endfacet
facet normal 1 0 0
outer loop
vertex 0.1 0.1 0.04
vertex 0.1 -0.1 0.42501
vertex 0.1 -0.1 0.04
endloop
endfacet
facet normal 1 -0 0
outer loop
vertex 0.1 0.1 0.42501
vertex 0.1 -0.1 0.42501
vertex 0.1 0.1 0.04
endloop
endfacet
endsolid
