solid ground
   facet normal 0.000000e+00 0.000000e+00 1.000000e+00
      outer loop
         vertex -5.000000e+00 -5.000000e+00 2.515349e-17
         vertex 5.000000e+00 -5.000000e+00 -3.361027e-18
         vertex 5.000000e+00 5.000000e+00 2.688821e-17
      endloop
   endfacet
   facet normal 0.000000e+00 0.000000e+00 1.000000e+00
      outer loop
         vertex -5.000000e+00 -5.000000e+00 2.515349e-17
         vertex 5.000000e+00 5.000000e+00 2.688821e-17
         vertex -5.000000e+00 5.000000e+00 -1.680513e-18
      endloop
   endfacet
   facet normal 0.000000e+00 0.000000e+00 -1.000000e+00
      outer loop
         vertex -5.000000e+00 5.000000e+00 -5.000000e-01
         vertex 5.000000e+00 5.000000e+00 -5.000000e-01
         vertex 5.000000e+00 -5.000000e+00 -5.000000e-01
      endloop
   endfacet
   facet normal 0.000000e+00 0.000000e+00 -1.000000e+00
      outer loop
         vertex -5.000000e+00 5.000000e+00 -5.000000e-01
         vertex 5.000000e+00 -5.000000e+00 -5.000000e-01
         vertex -5.000000e+00 -5.000000e+00 -5.000000e-01
      endloop
   endfacet
   facet normal -1.000000e+00 1.224606e-16 0.000000e+00
      outer loop
         vertex -5.000000e+00 5.000000e+00 2.520770e-17
         vertex -5.000000e+00 5.000000e+00 -5.000000e-01
         vertex -5.000000e+00 -5.000000e+00 -5.000000e-01
      endloop
   endfacet
   facet normal -1.000000e+00 1.224606e-16 0.000000e+00
      outer loop
         vertex -5.000000e+00 5.000000e+00 2.520770e-17
         vertex -5.000000e+00 -5.000000e+00 -5.000000e-01
         vertex -5.000000e+00 -5.000000e+00 2.515349e-17
      endloop
   endfacet
   facet normal -1.836910e-16 -1.000000e+00 0.000000e+00
      outer loop
         vertex -5.000000e+00 -5.000000e+00 -3.361027e-18
         vertex -5.000000e+00 -5.000000e+00 -5.000000e-01
         vertex 5.000000e+00 -5.000000e+00 -5.000000e-01
      endloop
   endfacet
   facet normal -1.836910e-16 -1.000000e+00 0.000000e+00
      outer loop
         vertex -5.000000e+00 -5.000000e+00 -3.361027e-18
         vertex 5.000000e+00 -5.000000e+00 -5.000000e-01
         vertex 5.000000e+00 -5.000000e+00 -3.361027e-18
      endloop
   endfacet
   facet normal 1.000000e+00 0.000000e+00 0.000000e+00
      outer loop
         vertex 5.000000e+00 -5.000000e+00 2.694242e-17
         vertex 5.000000e+00 -5.000000e+00 -5.000000e-01
         vertex 5.000000e+00 5.000000e+00 -5.000000e-01
      endloop
   endfacet
   facet normal 1.000000e+00 0.000000e+00 0.000000e+00
      outer loop
         vertex 5.000000e+00 -5.000000e+00 2.694242e-17
         vertex 5.000000e+00 5.000000e+00 -5.000000e-01
         vertex 5.000000e+00 5.000000e+00 2.688821e-17
      endloop
   endfacet
   facet normal 6.123032e-17 1.000000e+00 0.000000e+00
      outer loop
         vertex 5.000000e+00 5.000000e+00 -1.680513e-18
         vertex 5.000000e+00 5.000000e+00 -5.000000e-01
         vertex -5.000000e+00 5.000000e+00 -5.000000e-01
      endloop
   endfacet
   facet normal 6.123032e-17 1.000000e+00 0.000000e+00
      outer loop
         vertex 5.000000e+00 5.000000e+00 -1.680513e-18
         vertex -5.000000e+00 5.000000e+00 -5.000000e-01
         vertex -5.000000e+00 5.000000e+00 -1.680513e-18
      endloop
   endfacet
endsolid
