solid plataforma_R7
   facet normal -9.801714e-02 -9.951847e-01 -6.001621e-18
      outer loop
         vertex 7.653790e-18 -7.000000e+00 -1.250000e-01
         vertex -7.653790e-18 -7.000000e+00 1.250000e-01
         vertex -1.365632e+00 -6.865497e+00 1.250000e-01
      endloop
   endfacet
   facet normal -9.801714e-02 -9.951847e-01 -6.001621e-18
      outer loop
         vertex 7.653790e-18 -7.000000e+00 -1.250000e-01
         vertex -1.365632e+00 -6.865497e+00 1.250000e-01
         vertex -1.365632e+00 -6.865497e+00 -1.250000e-01
      endloop
   endfacet
   facet normal -2.902847e-01 -9.569403e-01 -0.000000e+00
      outer loop
         vertex -1.365632e+00 -6.865497e+00 -1.250000e-01
         vertex -1.365632e+00 -6.865497e+00 1.250000e-01
         vertex -2.678784e+00 -6.467157e+00 1.250000e-01
      endloop
   endfacet
   facet normal -2.902847e-01 -9.569403e-01 -0.000000e+00
      outer loop
         vertex -1.365632e+00 -6.865497e+00 -1.250000e-01
         vertex -2.678784e+00 -6.467157e+00 1.250000e-01
         vertex -2.678784e+00 -6.467157e+00 -1.250000e-01
      endloop
   endfacet
   facet normal -4.713967e-01 -8.819213e-01 -0.000000e+00
      outer loop
         vertex -2.678784e+00 -6.467157e+00 -1.250000e-01
         vertex -2.678784e+00 -6.467157e+00 1.250000e-01
         vertex -3.888992e+00 -5.820287e+00 1.250000e-01
      endloop
   endfacet
   facet normal -4.713967e-01 -8.819213e-01 -0.000000e+00
      outer loop
         vertex -2.678784e+00 -6.467157e+00 -1.250000e-01
         vertex -3.888992e+00 -5.820287e+00 1.250000e-01
         vertex -3.888992e+00 -5.820287e+00 -1.250000e-01
      endloop
   endfacet
   facet normal -6.343933e-01 -7.730105e-01 -0.000000e+00
      outer loop
         vertex -3.888992e+00 -5.820287e+00 -1.250000e-01
         vertex -3.888992e+00 -5.820287e+00 1.250000e-01
         vertex -4.949747e+00 -4.949747e+00 1.250000e-01
      endloop
   endfacet
   facet normal -6.343933e-01 -7.730105e-01 -0.000000e+00
      outer loop
         vertex -3.888992e+00 -5.820287e+00 -1.250000e-01
         vertex -4.949747e+00 -4.949747e+00 1.250000e-01
         vertex -4.949747e+00 -4.949747e+00 -1.250000e-01
      endloop
   endfacet
   facet normal -7.730105e-01 -6.343933e-01 -0.000000e+00
      outer loop
         vertex -4.949747e+00 -4.949747e+00 -1.250000e-01
         vertex -4.949747e+00 -4.949747e+00 1.250000e-01
         vertex -5.820287e+00 -3.888992e+00 1.250000e-01
      endloop
   endfacet
   facet normal -7.730105e-01 -6.343933e-01 -0.000000e+00
      outer loop
         vertex -4.949747e+00 -4.949747e+00 -1.250000e-01
         vertex -5.820287e+00 -3.888992e+00 1.250000e-01
         vertex -5.820287e+00 -3.888992e+00 -1.250000e-01
      endloop
   endfacet
   facet normal -8.819213e-01 -4.713967e-01 -0.000000e+00
      outer loop
         vertex -5.820287e+00 -3.888992e+00 -1.250000e-01
         vertex -5.820287e+00 -3.888992e+00 1.250000e-01
         vertex -6.467157e+00 -2.678784e+00 1.250000e-01
      endloop
   endfacet
   facet normal -8.819213e-01 -4.713967e-01 -0.000000e+00
      outer loop
         vertex -5.820287e+00 -3.888992e+00 -1.250000e-01
         vertex -6.467157e+00 -2.678784e+00 1.250000e-01
         vertex -6.467157e+00 -2.678784e+00 -1.250000e-01
      endloop
   endfacet
   facet normal -9.569403e-01 -2.902847e-01 -0.000000e+00
      outer loop
         vertex -6.467157e+00 -2.678784e+00 -1.250000e-01
         vertex -6.467157e+00 -2.678784e+00 1.250000e-01
         vertex -6.865497e+00 -1.365632e+00 1.250000e-01
      endloop
   endfacet
   facet normal -9.569403e-01 -2.902847e-01 -0.000000e+00
      outer loop
         vertex -6.467157e+00 -2.678784e+00 -1.250000e-01
         vertex -6.865497e+00 -1.365632e+00 1.250000e-01
         vertex -6.865497e+00 -1.365632e+00 -1.250000e-01
      endloop
   endfacet
   facet normal -9.951847e-01 -9.801714e-02 -0.000000e+00
      outer loop
         vertex -6.865497e+00 -1.365632e+00 -1.250000e-01
         vertex -6.865497e+00 -1.365632e+00 1.250000e-01
         vertex -7.000000e+00 -1.223570e-16 1.250000e-01
      endloop
   endfacet
   facet normal -9.951847e-01 -9.801714e-02 -0.000000e+00
      outer loop
         vertex -6.865497e+00 -1.365632e+00 -1.250000e-01
         vertex -7.000000e+00 -1.223570e-16 1.250000e-01
         vertex -7.000000e+00 -1.225148e-16 -1.250000e-01
      endloop
   endfacet
   facet normal -9.951847e-01 9.801714e-02 -6.187850e-20
      outer loop
         vertex -7.000000e+00 -1.225148e-16 -1.250000e-01
         vertex -7.000000e+00 -1.223570e-16 1.250000e-01
         vertex -6.865497e+00 1.365632e+00 1.250000e-01
      endloop
   endfacet
   facet normal -9.951847e-01 9.801714e-02 -6.187850e-20
      outer loop
         vertex -7.000000e+00 -1.225148e-16 -1.250000e-01
         vertex -6.865497e+00 1.365632e+00 1.250000e-01
         vertex -6.865497e+00 1.365632e+00 -1.250000e-01
      endloop
   endfacet
   facet normal -9.569403e-01 2.902847e-01 -0.000000e+00
      outer loop
         vertex -6.865497e+00 1.365632e+00 -1.250000e-01
         vertex -6.865497e+00 1.365632e+00 1.250000e-01
         vertex -6.467157e+00 2.678784e+00 1.250000e-01
      endloop
   endfacet
   facet normal -9.569403e-01 2.902847e-01 -0.000000e+00
      outer loop
         vertex -6.865497e+00 1.365632e+00 -1.250000e-01
         vertex -6.467157e+00 2.678784e+00 1.250000e-01
         vertex -6.467157e+00 2.678784e+00 -1.250000e-01
      endloop
   endfacet
   facet normal -8.819213e-01 4.713967e-01 -0.000000e+00
      outer loop
         vertex -6.467157e+00 2.678784e+00 -1.250000e-01
         vertex -6.467157e+00 2.678784e+00 1.250000e-01
         vertex -5.820287e+00 3.888992e+00 1.250000e-01
      endloop
   endfacet
   facet normal -8.819213e-01 4.713967e-01 -0.000000e+00
      outer loop
         vertex -6.467157e+00 2.678784e+00 -1.250000e-01
         vertex -5.820287e+00 3.888992e+00 1.250000e-01
         vertex -5.820287e+00 3.888992e+00 -1.250000e-01
      endloop
   endfacet
   facet normal -7.730105e-01 6.343933e-01 -0.000000e+00
      outer loop
         vertex -5.820287e+00 3.888992e+00 -1.250000e-01
         vertex -5.820287e+00 3.888992e+00 1.250000e-01
         vertex -4.949747e+00 4.949747e+00 1.250000e-01
      endloop
   endfacet
   facet normal -7.730105e-01 6.343933e-01 -0.000000e+00
      outer loop
         vertex -5.820287e+00 3.888992e+00 -1.250000e-01
         vertex -4.949747e+00 4.949747e+00 1.250000e-01
         vertex -4.949747e+00 4.949747e+00 -1.250000e-01
      endloop
   endfacet
   facet normal -6.343933e-01 7.730105e-01 -0.000000e+00
      outer loop
         vertex -4.949747e+00 4.949747e+00 -1.250000e-01
         vertex -4.949747e+00 4.949747e+00 1.250000e-01
         vertex -3.888992e+00 5.820287e+00 1.250000e-01
      endloop
   endfacet
   facet normal -6.343933e-01 7.730105e-01 -0.000000e+00
      outer loop
         vertex -4.949747e+00 4.949747e+00 -1.250000e-01
         vertex -3.888992e+00 5.820287e+00 1.250000e-01
         vertex -3.888992e+00 5.820287e+00 -1.250000e-01
      endloop
   endfacet
   facet normal -4.713967e-01 8.819213e-01 -0.000000e+00
      outer loop
         vertex -3.888992e+00 5.820287e+00 -1.250000e-01
         vertex -3.888992e+00 5.820287e+00 1.250000e-01
         vertex -2.678784e+00 6.467157e+00 1.250000e-01
      endloop
   endfacet
   facet normal -4.713967e-01 8.819213e-01 -0.000000e+00
      outer loop
         vertex -3.888992e+00 5.820287e+00 -1.250000e-01
         vertex -2.678784e+00 6.467157e+00 1.250000e-01
         vertex -2.678784e+00 6.467157e+00 -1.250000e-01
      endloop
   endfacet
   facet normal -2.902847e-01 9.569403e-01 -0.000000e+00
      outer loop
         vertex -2.678784e+00 6.467157e+00 -1.250000e-01
         vertex -2.678784e+00 6.467157e+00 1.250000e-01
         vertex -1.365632e+00 6.865497e+00 1.250000e-01
      endloop
   endfacet
   facet normal -2.902847e-01 9.569403e-01 -0.000000e+00
      outer loop
         vertex -2.678784e+00 6.467157e+00 -1.250000e-01
         vertex -1.365632e+00 6.865497e+00 1.250000e-01
         vertex -1.365632e+00 6.865497e+00 -1.250000e-01
      endloop
   endfacet
   facet normal -9.801714e-02 9.951847e-01 -0.000000e+00
      outer loop
         vertex -1.365632e+00 6.865497e+00 -1.250000e-01
         vertex -1.365632e+00 6.865497e+00 1.250000e-01
         vertex -9.612666e-16 7.000000e+00 1.250000e-01
      endloop
   endfacet
   facet normal -9.801714e-02 9.951847e-01 -0.000000e+00
      outer loop
         vertex -1.365632e+00 6.865497e+00 -1.250000e-01
         vertex -9.612666e-16 7.000000e+00 1.250000e-01
         vertex -9.447094e-16 7.000000e+00 -1.250000e-01
      endloop
   endfacet
   facet normal -6.123032e-17 -1.224606e-16 1.000000e+00
      outer loop
         vertex 1.365632e+00 -6.865497e+00 1.250000e-01
         vertex 2.678784e+00 -6.467157e+00 1.250000e-01
         vertex 3.888992e+00 -5.820287e+00 1.250000e-01
      endloop
   endfacet
   facet normal -6.123032e-17 -1.224606e-16 1.000000e+00
      outer loop
         vertex 1.365632e+00 -6.865497e+00 1.250000e-01
         vertex 3.888992e+00 -5.820287e+00 1.250000e-01
         vertex 4.949747e+00 -4.949747e+00 1.250000e-01
      endloop
   endfacet
   facet normal -6.123032e-17 -1.224606e-16 1.000000e+00
      outer loop
         vertex 1.365632e+00 -6.865497e+00 1.250000e-01
         vertex 4.949747e+00 -4.949747e+00 1.250000e-01
         vertex 5.820287e+00 -3.888992e+00 1.250000e-01
      endloop
   endfacet
   facet normal -6.123032e-17 -1.224606e-16 1.000000e+00
      outer loop
         vertex 1.365632e+00 -6.865497e+00 1.250000e-01
         vertex 5.820287e+00 -3.888992e+00 1.250000e-01
         vertex 6.467157e+00 -2.678784e+00 1.250000e-01
      endloop
   endfacet
   facet normal -6.123032e-17 -1.224606e-16 1.000000e+00
      outer loop
         vertex 1.365632e+00 -6.865497e+00 1.250000e-01
         vertex 6.467157e+00 -2.678784e+00 1.250000e-01
         vertex 6.865497e+00 -1.365632e+00 1.250000e-01
      endloop
   endfacet
   facet normal -6.123032e-17 -1.224606e-16 1.000000e+00
      outer loop
         vertex 1.365632e+00 -6.865497e+00 1.250000e-01
         vertex 6.865497e+00 -1.365632e+00 1.250000e-01
         vertex 7.000000e+00 0.000000e+00 1.250000e-01
      endloop
   endfacet
   facet normal -6.123032e-17 -1.224606e-16 1.000000e+00
      outer loop
         vertex 1.365632e+00 -6.865497e+00 1.250000e-01
         vertex 7.000000e+00 0.000000e+00 1.250000e-01
         vertex 6.865497e+00 1.365632e+00 1.250000e-01
      endloop
   endfacet
   facet normal -6.123032e-17 -1.224606e-16 1.000000e+00
      outer loop
         vertex 1.365632e+00 -6.865497e+00 1.250000e-01
         vertex 6.865497e+00 1.365632e+00 1.250000e-01
         vertex 6.467157e+00 2.678784e+00 1.250000e-01
      endloop
   endfacet
   facet normal -6.123032e-17 -1.224606e-16 1.000000e+00
      outer loop
         vertex 1.365632e+00 -6.865497e+00 1.250000e-01
         vertex 6.467157e+00 2.678784e+00 1.250000e-01
         vertex 5.820287e+00 3.888992e+00 1.250000e-01
      endloop
   endfacet
   facet normal -6.123032e-17 -1.224606e-16 1.000000e+00
      outer loop
         vertex 1.365632e+00 -6.865497e+00 1.250000e-01
         vertex 5.820287e+00 3.888992e+00 1.250000e-01
         vertex 4.949747e+00 4.949747e+00 1.250000e-01
      endloop
   endfacet
   facet normal -6.123032e-17 -1.224606e-16 1.000000e+00
      outer loop
         vertex 1.365632e+00 -6.865497e+00 1.250000e-01
         vertex 4.949747e+00 4.949747e+00 1.250000e-01
         vertex 3.888992e+00 5.820287e+00 1.250000e-01
      endloop
   endfacet
   facet normal -6.123032e-17 -1.224606e-16 1.000000e+00
      outer loop
         vertex 1.365632e+00 -6.865497e+00 1.250000e-01
         vertex 3.888992e+00 5.820287e+00 1.250000e-01
         vertex 2.678784e+00 6.467157e+00 1.250000e-01
      endloop
   endfacet
   facet normal -6.123032e-17 -1.224606e-16 1.000000e+00
      outer loop
         vertex 1.365632e+00 -6.865497e+00 1.250000e-01
         vertex 2.678784e+00 6.467157e+00 1.250000e-01
         vertex 1.365632e+00 6.865497e+00 1.250000e-01
      endloop
   endfacet
   facet normal -6.123032e-17 -1.224606e-16 1.000000e+00
      outer loop
         vertex 1.365632e+00 -6.865497e+00 1.250000e-01
         vertex 1.365632e+00 6.865497e+00 1.250000e-01
         vertex 0.000000e+00 7.000000e+00 1.250000e-01
      endloop
   endfacet
   facet normal -6.123032e-17 -1.224606e-16 1.000000e+00
      outer loop
         vertex 1.365632e+00 -6.865497e+00 1.250000e-01
         vertex 0.000000e+00 7.000000e+00 1.250000e-01
         vertex -1.365632e+00 6.865497e+00 1.250000e-01
      endloop
   endfacet
   facet normal -6.123032e-17 -1.224606e-16 1.000000e+00
      outer loop
         vertex 1.365632e+00 -6.865497e+00 1.250000e-01
         vertex -1.365632e+00 6.865497e+00 1.250000e-01
         vertex -2.678784e+00 6.467157e+00 1.250000e-01
      endloop
   endfacet
   facet normal -6.123032e-17 -1.224606e-16 1.000000e+00
      outer loop
         vertex 1.365632e+00 -6.865497e+00 1.250000e-01
         vertex -2.678784e+00 6.467157e+00 1.250000e-01
         vertex -3.888992e+00 5.820287e+00 1.250000e-01
      endloop
   endfacet
   facet normal -6.123032e-17 -1.224606e-16 1.000000e+00
      outer loop
         vertex 1.365632e+00 -6.865497e+00 1.250000e-01
         vertex -3.888992e+00 5.820287e+00 1.250000e-01
         vertex -4.949747e+00 4.949747e+00 1.250000e-01
      endloop
   endfacet
   facet normal -6.123032e-17 -1.224606e-16 1.000000e+00
      outer loop
         vertex 1.365632e+00 -6.865497e+00 1.250000e-01
         vertex -4.949747e+00 4.949747e+00 1.250000e-01
         vertex -5.820287e+00 3.888992e+00 1.250000e-01
      endloop
   endfacet
   facet normal -6.123032e-17 -1.224606e-16 1.000000e+00
      outer loop
         vertex 1.365632e+00 -6.865497e+00 1.250000e-01
         vertex -5.820287e+00 3.888992e+00 1.250000e-01
         vertex -6.467157e+00 2.678784e+00 1.250000e-01
      endloop
   endfacet
   facet normal -6.123032e-17 -1.224606e-16 1.000000e+00
      outer loop
         vertex 1.365632e+00 -6.865497e+00 1.250000e-01
         vertex -6.467157e+00 2.678784e+00 1.250000e-01
         vertex -6.865497e+00 1.365632e+00 1.250000e-01
      endloop
   endfacet
   facet normal -6.123032e-17 -1.224606e-16 1.000000e+00
      outer loop
         vertex 1.365632e+00 -6.865497e+00 1.250000e-01
         vertex -6.865497e+00 1.365632e+00 1.250000e-01
         vertex -7.000000e+00 8.881784e-16 1.250000e-01
      endloop
   endfacet
   facet normal -6.123032e-17 -1.224606e-16 1.000000e+00
      outer loop
         vertex 1.365632e+00 -6.865497e+00 1.250000e-01
         vertex -7.000000e+00 8.881784e-16 1.250000e-01
         vertex -6.865497e+00 -1.365632e+00 1.250000e-01
      endloop
   endfacet
   facet normal -6.123032e-17 -1.224606e-16 1.000000e+00
      outer loop
         vertex 1.365632e+00 -6.865497e+00 1.250000e-01
         vertex -6.865497e+00 -1.365632e+00 1.250000e-01
         vertex -6.467157e+00 -2.678784e+00 1.250000e-01
      endloop
   endfacet
   facet normal -6.123032e-17 -1.224606e-16 1.000000e+00
      outer loop
         vertex 1.365632e+00 -6.865497e+00 1.250000e-01
         vertex -6.467157e+00 -2.678784e+00 1.250000e-01
         vertex -5.820287e+00 -3.888992e+00 1.250000e-01
      endloop
   endfacet
   facet normal -6.123032e-17 -1.224606e-16 1.000000e+00
      outer loop
         vertex 1.365632e+00 -6.865497e+00 1.250000e-01
         vertex -5.820287e+00 -3.888992e+00 1.250000e-01
         vertex -4.949747e+00 -4.949747e+00 1.250000e-01
      endloop
   endfacet
   facet normal -6.123032e-17 -1.224606e-16 1.000000e+00
      outer loop
         vertex 1.365632e+00 -6.865497e+00 1.250000e-01
         vertex -4.949747e+00 -4.949747e+00 1.250000e-01
         vertex -3.888992e+00 -5.820287e+00 1.250000e-01
      endloop
   endfacet
   facet normal -6.123032e-17 -1.224606e-16 1.000000e+00
      outer loop
         vertex 1.365632e+00 -6.865497e+00 1.250000e-01
         vertex -3.888992e+00 -5.820287e+00 1.250000e-01
         vertex -2.678784e+00 -6.467157e+00 1.250000e-01
      endloop
   endfacet
   facet normal -6.123032e-17 -1.224606e-16 1.000000e+00
      outer loop
         vertex 1.365632e+00 -6.865497e+00 1.250000e-01
         vertex -2.678784e+00 -6.467157e+00 1.250000e-01
         vertex -1.365632e+00 -6.865497e+00 1.250000e-01
      endloop
   endfacet
   facet normal -6.123032e-17 -1.224606e-16 1.000000e+00
      outer loop
         vertex 1.365632e+00 -6.865497e+00 1.250000e-01
         vertex -1.365632e+00 -6.865497e+00 1.250000e-01
         vertex -8.881784e-16 -7.000000e+00 1.250000e-01
      endloop
   endfacet
   facet normal 9.801714e-02 9.951847e-01 6.001621e-18
      outer loop
         vertex 7.653790e-18 7.000000e+00 -1.250000e-01
         vertex -7.653790e-18 7.000000e+00 1.250000e-01
         vertex 1.365632e+00 6.865497e+00 1.250000e-01
      endloop
   endfacet
   facet normal 9.801714e-02 9.951847e-01 6.001621e-18
      outer loop
         vertex 7.653790e-18 7.000000e+00 -1.250000e-01
         vertex 1.365632e+00 6.865497e+00 1.250000e-01
         vertex 1.365632e+00 6.865497e+00 -1.250000e-01
      endloop
   endfacet
   facet normal 2.902847e-01 9.569403e-01 0.000000e+00
      outer loop
         vertex 1.365632e+00 6.865497e+00 -1.250000e-01
         vertex 1.365632e+00 6.865497e+00 1.250000e-01
         vertex 2.678784e+00 6.467157e+00 1.250000e-01
      endloop
   endfacet
   facet normal 2.902847e-01 9.569403e-01 0.000000e+00
      outer loop
         vertex 1.365632e+00 6.865497e+00 -1.250000e-01
         vertex 2.678784e+00 6.467157e+00 1.250000e-01
         vertex 2.678784e+00 6.467157e+00 -1.250000e-01
      endloop
   endfacet
   facet normal 4.713967e-01 8.819213e-01 0.000000e+00
      outer loop
         vertex 2.678784e+00 6.467157e+00 -1.250000e-01
         vertex 2.678784e+00 6.467157e+00 1.250000e-01
         vertex 3.888992e+00 5.820287e+00 1.250000e-01
      endloop
   endfacet
   facet normal 4.713967e-01 8.819213e-01 0.000000e+00
      outer loop
         vertex 2.678784e+00 6.467157e+00 -1.250000e-01
         vertex 3.888992e+00 5.820287e+00 1.250000e-01
         vertex 3.888992e+00 5.820287e+00 -1.250000e-01
      endloop
   endfacet
   facet normal 6.343933e-01 7.730105e-01 0.000000e+00
      outer loop
         vertex 3.888992e+00 5.820287e+00 -1.250000e-01
         vertex 3.888992e+00 5.820287e+00 1.250000e-01
         vertex 4.949747e+00 4.949747e+00 1.250000e-01
      endloop
   endfacet
   facet normal 6.343933e-01 7.730105e-01 0.000000e+00
      outer loop
         vertex 3.888992e+00 5.820287e+00 -1.250000e-01
         vertex 4.949747e+00 4.949747e+00 1.250000e-01
         vertex 4.949747e+00 4.949747e+00 -1.250000e-01
      endloop
   endfacet
   facet normal 7.730105e-01 6.343933e-01 0.000000e+00
      outer loop
         vertex 4.949747e+00 4.949747e+00 -1.250000e-01
         vertex 4.949747e+00 4.949747e+00 1.250000e-01
         vertex 5.820287e+00 3.888992e+00 1.250000e-01
      endloop
   endfacet
   facet normal 7.730105e-01 6.343933e-01 0.000000e+00
      outer loop
         vertex 4.949747e+00 4.949747e+00 -1.250000e-01
         vertex 5.820287e+00 3.888992e+00 1.250000e-01
         vertex 5.820287e+00 3.888992e+00 -1.250000e-01
      endloop
   endfacet
   facet normal 8.819213e-01 4.713967e-01 0.000000e+00
      outer loop
         vertex 5.820287e+00 3.888992e+00 -1.250000e-01
         vertex 5.820287e+00 3.888992e+00 1.250000e-01
         vertex 6.467157e+00 2.678784e+00 1.250000e-01
      endloop
   endfacet
   facet normal 8.819213e-01 4.713967e-01 0.000000e+00
      outer loop
         vertex 5.820287e+00 3.888992e+00 -1.250000e-01
         vertex 6.467157e+00 2.678784e+00 1.250000e-01
         vertex 6.467157e+00 2.678784e+00 -1.250000e-01
      endloop
   endfacet
   facet normal 9.569403e-01 2.902847e-01 0.000000e+00
      outer loop
         vertex 6.467157e+00 2.678784e+00 -1.250000e-01
         vertex 6.467157e+00 2.678784e+00 1.250000e-01
         vertex 6.865497e+00 1.365632e+00 1.250000e-01
      endloop
   endfacet
   facet normal 9.569403e-01 2.902847e-01 0.000000e+00
      outer loop
         vertex 6.467157e+00 2.678784e+00 -1.250000e-01
         vertex 6.865497e+00 1.365632e+00 1.250000e-01
         vertex 6.865497e+00 1.365632e+00 -1.250000e-01
      endloop
   endfacet
   facet normal 9.951847e-01 9.801714e-02 0.000000e+00
      outer loop
         vertex 6.865497e+00 1.365632e+00 -1.250000e-01
         vertex 6.865497e+00 1.365632e+00 1.250000e-01
         vertex 7.000000e+00 1.225643e-16 1.250000e-01
      endloop
   endfacet
   facet normal 9.951847e-01 9.801714e-02 0.000000e+00
      outer loop
         vertex 6.865497e+00 1.365632e+00 -1.250000e-01
         vertex 7.000000e+00 1.225643e-16 1.250000e-01
         vertex 7.000000e+00 1.225148e-16 -1.250000e-01
      endloop
   endfacet
   facet normal 9.951847e-01 -9.801714e-02 1.937034e-20
      outer loop
         vertex 7.000000e+00 1.225148e-16 -1.250000e-01
         vertex 7.000000e+00 1.225643e-16 1.250000e-01
         vertex 6.865497e+00 -1.365632e+00 1.250000e-01
      endloop
   endfacet
   facet normal 9.951847e-01 -9.801714e-02 1.937034e-20
      outer loop
         vertex 7.000000e+00 1.225148e-16 -1.250000e-01
         vertex 6.865497e+00 -1.365632e+00 1.250000e-01
         vertex 6.865497e+00 -1.365632e+00 -1.250000e-01
      endloop
   endfacet
   facet normal 9.569403e-01 -2.902847e-01 -0.000000e+00
      outer loop
         vertex 6.865497e+00 -1.365632e+00 -1.250000e-01
         vertex 6.865497e+00 -1.365632e+00 1.250000e-01
         vertex 6.467157e+00 -2.678784e+00 1.250000e-01
      endloop
   endfacet
   facet normal 9.569403e-01 -2.902847e-01 -0.000000e+00
      outer loop
         vertex 6.865497e+00 -1.365632e+00 -1.250000e-01
         vertex 6.467157e+00 -2.678784e+00 1.250000e-01
         vertex 6.467157e+00 -2.678784e+00 -1.250000e-01
      endloop
   endfacet
   facet normal 8.819213e-01 -4.713967e-01 -0.000000e+00
      outer loop
         vertex 6.467157e+00 -2.678784e+00 -1.250000e-01
         vertex 6.467157e+00 -2.678784e+00 1.250000e-01
         vertex 5.820287e+00 -3.888992e+00 1.250000e-01
      endloop
   endfacet
   facet normal 8.819213e-01 -4.713967e-01 -0.000000e+00
      outer loop
         vertex 6.467157e+00 -2.678784e+00 -1.250000e-01
         vertex 5.820287e+00 -3.888992e+00 1.250000e-01
         vertex 5.820287e+00 -3.888992e+00 -1.250000e-01
      endloop
   endfacet
   facet normal 7.730105e-01 -6.343933e-01 -0.000000e+00
      outer loop
         vertex 5.820287e+00 -3.888992e+00 -1.250000e-01
         vertex 5.820287e+00 -3.888992e+00 1.250000e-01
         vertex 4.949747e+00 -4.949747e+00 1.250000e-01
      endloop
   endfacet
   facet normal 7.730105e-01 -6.343933e-01 -0.000000e+00
      outer loop
         vertex 5.820287e+00 -3.888992e+00 -1.250000e-01
         vertex 4.949747e+00 -4.949747e+00 1.250000e-01
         vertex 4.949747e+00 -4.949747e+00 -1.250000e-01
      endloop
   endfacet
   facet normal 6.343933e-01 -7.730105e-01 -0.000000e+00
      outer loop
         vertex 4.949747e+00 -4.949747e+00 -1.250000e-01
         vertex 4.949747e+00 -4.949747e+00 1.250000e-01
         vertex 3.888992e+00 -5.820287e+00 1.250000e-01
      endloop
   endfacet
   facet normal 6.343933e-01 -7.730105e-01 -0.000000e+00
      outer loop
         vertex 4.949747e+00 -4.949747e+00 -1.250000e-01
         vertex 3.888992e+00 -5.820287e+00 1.250000e-01
         vertex 3.888992e+00 -5.820287e+00 -1.250000e-01
      endloop
   endfacet
   facet normal 4.713967e-01 -8.819213e-01 -0.000000e+00
      outer loop
         vertex 3.888992e+00 -5.820287e+00 -1.250000e-01
         vertex 3.888992e+00 -5.820287e+00 1.250000e-01
         vertex 2.678784e+00 -6.467157e+00 1.250000e-01
      endloop
   endfacet
   facet normal 4.713967e-01 -8.819213e-01 -0.000000e+00
      outer loop
         vertex 3.888992e+00 -5.820287e+00 -1.250000e-01
         vertex 2.678784e+00 -6.467157e+00 1.250000e-01
         vertex 2.678784e+00 -6.467157e+00 -1.250000e-01
      endloop
   endfacet
   facet normal 2.902847e-01 -9.569403e-01 -0.000000e+00
      outer loop
         vertex 2.678784e+00 -6.467157e+00 -1.250000e-01
         vertex 2.678784e+00 -6.467157e+00 1.250000e-01
         vertex 1.365632e+00 -6.865497e+00 1.250000e-01
      endloop
   endfacet
   facet normal 2.902847e-01 -9.569403e-01 -0.000000e+00
      outer loop
         vertex 2.678784e+00 -6.467157e+00 -1.250000e-01
         vertex 1.365632e+00 -6.865497e+00 1.250000e-01
         vertex 1.365632e+00 -6.865497e+00 -1.250000e-01
      endloop
   endfacet
   facet normal 9.801714e-02 -9.951847e-01 -0.000000e+00
      outer loop
         vertex 1.365632e+00 -6.865497e+00 -1.250000e-01
         vertex 1.365632e+00 -6.865497e+00 1.250000e-01
         vertex 9.443272e-16 -7.000000e+00 1.250000e-01
      endloop
   endfacet
   facet normal 9.801714e-02 -9.951847e-01 -0.000000e+00
      outer loop
         vertex 1.365632e+00 -6.865497e+00 -1.250000e-01
         vertex 9.443272e-16 -7.000000e+00 1.250000e-01
         vertex 9.600170e-16 -7.000000e+00 -1.250000e-01
      endloop
   endfacet
   facet normal 6.123032e-17 0.000000e+00 -1.000000e+00
      outer loop
         vertex 1.365632e+00 6.865497e+00 -1.250000e-01
         vertex 2.678784e+00 6.467157e+00 -1.250000e-01
         vertex 3.888992e+00 5.820287e+00 -1.250000e-01
      endloop
   endfacet
   facet normal 6.123032e-17 0.000000e+00 -1.000000e+00
      outer loop
         vertex 1.365632e+00 6.865497e+00 -1.250000e-01
         vertex 3.888992e+00 5.820287e+00 -1.250000e-01
         vertex 4.949747e+00 4.949747e+00 -1.250000e-01
      endloop
   endfacet
   facet normal 6.123032e-17 0.000000e+00 -1.000000e+00
      outer loop
         vertex 1.365632e+00 6.865497e+00 -1.250000e-01
         vertex 4.949747e+00 4.949747e+00 -1.250000e-01
         vertex 5.820287e+00 3.888992e+00 -1.250000e-01
      endloop
   endfacet
   facet normal 6.123032e-17 0.000000e+00 -1.000000e+00
      outer loop
         vertex 1.365632e+00 6.865497e+00 -1.250000e-01
         vertex 5.820287e+00 3.888992e+00 -1.250000e-01
         vertex 6.467157e+00 2.678784e+00 -1.250000e-01
      endloop
   endfacet
   facet normal 6.123032e-17 0.000000e+00 -1.000000e+00
      outer loop
         vertex 1.365632e+00 6.865497e+00 -1.250000e-01
         vertex 6.467157e+00 2.678784e+00 -1.250000e-01
         vertex 6.865497e+00 1.365632e+00 -1.250000e-01
      endloop
   endfacet
   facet normal 6.123032e-17 0.000000e+00 -1.000000e+00
      outer loop
         vertex 1.365632e+00 6.865497e+00 -1.250000e-01
         vertex 6.865497e+00 1.365632e+00 -1.250000e-01
         vertex 7.000000e+00 4.286122e-16 -1.250000e-01
      endloop
   endfacet
   facet normal 6.123032e-17 0.000000e+00 -1.000000e+00
      outer loop
         vertex 1.365632e+00 6.865497e+00 -1.250000e-01
         vertex 7.000000e+00 4.286122e-16 -1.250000e-01
         vertex 6.865497e+00 -1.365632e+00 -1.250000e-01
      endloop
   endfacet
   facet normal 6.123032e-17 0.000000e+00 -1.000000e+00
      outer loop
         vertex 1.365632e+00 6.865497e+00 -1.250000e-01
         vertex 6.865497e+00 -1.365632e+00 -1.250000e-01
         vertex 6.467157e+00 -2.678784e+00 -1.250000e-01
      endloop
   endfacet
   facet normal 6.123032e-17 0.000000e+00 -1.000000e+00
      outer loop
         vertex 1.365632e+00 6.865497e+00 -1.250000e-01
         vertex 6.467157e+00 -2.678784e+00 -1.250000e-01
         vertex 5.820287e+00 -3.888992e+00 -1.250000e-01
      endloop
   endfacet
   facet normal 6.123032e-17 0.000000e+00 -1.000000e+00
      outer loop
         vertex 1.365632e+00 6.865497e+00 -1.250000e-01
         vertex 5.820287e+00 -3.888992e+00 -1.250000e-01
         vertex 4.949747e+00 -4.949747e+00 -1.250000e-01
      endloop
   endfacet
   facet normal 6.123032e-17 0.000000e+00 -1.000000e+00
      outer loop
         vertex 1.365632e+00 6.865497e+00 -1.250000e-01
         vertex 4.949747e+00 -4.949747e+00 -1.250000e-01
         vertex 3.888992e+00 -5.820287e+00 -1.250000e-01
      endloop
   endfacet
   facet normal 6.123032e-17 0.000000e+00 -1.000000e+00
      outer loop
         vertex 1.365632e+00 6.865497e+00 -1.250000e-01
         vertex 3.888992e+00 -5.820287e+00 -1.250000e-01
         vertex 2.678784e+00 -6.467157e+00 -1.250000e-01
      endloop
   endfacet
   facet normal 6.123032e-17 0.000000e+00 -1.000000e+00
      outer loop
         vertex 1.365632e+00 6.865497e+00 -1.250000e-01
         vertex 2.678784e+00 -6.467157e+00 -1.250000e-01
         vertex 1.365632e+00 -6.865497e+00 -1.250000e-01
      endloop
   endfacet
   facet normal 6.123032e-17 0.000000e+00 -1.000000e+00
      outer loop
         vertex 1.365632e+00 6.865497e+00 -1.250000e-01
         vertex 1.365632e+00 -6.865497e+00 -1.250000e-01
         vertex 8.648782e-16 -7.000000e+00 -1.250000e-01
      endloop
   endfacet
   facet normal 6.123032e-17 0.000000e+00 -1.000000e+00
      outer loop
         vertex 1.365632e+00 6.865497e+00 -1.250000e-01
         vertex 8.648782e-16 -7.000000e+00 -1.250000e-01
         vertex -1.365632e+00 -6.865497e+00 -1.250000e-01
      endloop
   endfacet
   facet normal 6.123032e-17 0.000000e+00 -1.000000e+00
      outer loop
         vertex 1.365632e+00 6.865497e+00 -1.250000e-01
         vertex -1.365632e+00 -6.865497e+00 -1.250000e-01
         vertex -2.678784e+00 -6.467157e+00 -1.250000e-01
      endloop
   endfacet
   facet normal 6.123032e-17 0.000000e+00 -1.000000e+00
      outer loop
         vertex 1.365632e+00 6.865497e+00 -1.250000e-01
         vertex -2.678784e+00 -6.467157e+00 -1.250000e-01
         vertex -3.888992e+00 -5.820287e+00 -1.250000e-01
      endloop
   endfacet
   facet normal 6.123032e-17 0.000000e+00 -1.000000e+00
      outer loop
         vertex 1.365632e+00 6.865497e+00 -1.250000e-01
         vertex -3.888992e+00 -5.820287e+00 -1.250000e-01
         vertex -4.949747e+00 -4.949747e+00 -1.250000e-01
      endloop
   endfacet
   facet normal 6.123032e-17 0.000000e+00 -1.000000e+00
      outer loop
         vertex 1.365632e+00 6.865497e+00 -1.250000e-01
         vertex -4.949747e+00 -4.949747e+00 -1.250000e-01
         vertex -5.820287e+00 -3.888992e+00 -1.250000e-01
      endloop
   endfacet
   facet normal 6.123032e-17 0.000000e+00 -1.000000e+00
      outer loop
         vertex 1.365632e+00 6.865497e+00 -1.250000e-01
         vertex -5.820287e+00 -3.888992e+00 -1.250000e-01
         vertex -6.467157e+00 -2.678784e+00 -1.250000e-01
      endloop
   endfacet
   facet normal 6.123032e-17 0.000000e+00 -1.000000e+00
      outer loop
         vertex 1.365632e+00 6.865497e+00 -1.250000e-01
         vertex -6.467157e+00 -2.678784e+00 -1.250000e-01
         vertex -6.865497e+00 -1.365632e+00 -1.250000e-01
      endloop
   endfacet
   facet normal 6.123032e-17 0.000000e+00 -1.000000e+00
      outer loop
         vertex 1.365632e+00 6.865497e+00 -1.250000e-01
         vertex -6.865497e+00 -1.365632e+00 -1.250000e-01
         vertex -7.000000e+00 -4.286122e-16 -1.250000e-01
      endloop
   endfacet
   facet normal 6.123032e-17 0.000000e+00 -1.000000e+00
      outer loop
         vertex 1.365632e+00 6.865497e+00 -1.250000e-01
         vertex -7.000000e+00 -4.286122e-16 -1.250000e-01
         vertex -6.865497e+00 1.365632e+00 -1.250000e-01
      endloop
   endfacet
   facet normal 6.123032e-17 0.000000e+00 -1.000000e+00
      outer loop
         vertex 1.365632e+00 6.865497e+00 -1.250000e-01
         vertex -6.865497e+00 1.365632e+00 -1.250000e-01
         vertex -6.467157e+00 2.678784e+00 -1.250000e-01
      endloop
   endfacet
   facet normal 6.123032e-17 0.000000e+00 -1.000000e+00
      outer loop
         vertex 1.365632e+00 6.865497e+00 -1.250000e-01
         vertex -6.467157e+00 2.678784e+00 -1.250000e-01
         vertex -5.820287e+00 3.888992e+00 -1.250000e-01
      endloop
   endfacet
   facet normal 6.123032e-17 0.000000e+00 -1.000000e+00
      outer loop
         vertex 1.365632e+00 6.865497e+00 -1.250000e-01
         vertex -5.820287e+00 3.888992e+00 -1.250000e-01
         vertex -4.949747e+00 4.949747e+00 -1.250000e-01
      endloop
   endfacet
   facet normal 6.123032e-17 0.000000e+00 -1.000000e+00
      outer loop
         vertex 1.365632e+00 6.865497e+00 -1.250000e-01
         vertex -4.949747e+00 4.949747e+00 -1.250000e-01
         vertex -3.888992e+00 5.820287e+00 -1.250000e-01
      endloop
   endfacet
   facet normal 6.123032e-17 0.000000e+00 -1.000000e+00
      outer loop
         vertex 1.365632e+00 6.865497e+00 -1.250000e-01
         vertex -3.888992e+00 5.820287e+00 -1.250000e-01
         vertex -2.678784e+00 6.467157e+00 -1.250000e-01
      endloop
   endfacet
   facet normal 6.123032e-17 0.000000e+00 -1.000000e+00
      outer loop
         vertex 1.365632e+00 6.865497e+00 -1.250000e-01
         vertex -2.678784e+00 6.467157e+00 -1.250000e-01
         vertex -1.365632e+00 6.865497e+00 -1.250000e-01
      endloop
   endfacet
   facet normal 6.123032e-17 0.000000e+00 -1.000000e+00
      outer loop
         vertex 1.365632e+00 6.865497e+00 -1.250000e-01
         vertex -1.365632e+00 6.865497e+00 -1.250000e-01
         vertex -8.495707e-16 7.000000e+00 -1.250000e-01
      endloop
   endfacet
endsolid
