solid CATIA STL
  facet normal  0.000000e+000  1.000000e+000  0.000000e+000
    outer loop
      vertex  7.348343e+003  3.452302e+003 -1.247046e+002
      vertex  7.360901e+003  3.452302e+003 -1.247046e+002
      vertex  7.335884e+003  3.452302e+003 -1.262785e+002
    endloop
  endfacet
  facet normal  0.000000e+000  1.000000e+000  0.000000e+000
    outer loop
      vertex  7.335884e+003  3.452302e+003 -1.262785e+002
      vertex  7.360901e+003  3.452302e+003 -1.247046e+002
      vertex  7.373360e+003  3.452302e+003 -1.262785e+002
    endloop
  endfacet
  facet normal  0.000000e+000  1.000000e+000  0.000000e+000
    outer loop
      vertex  7.335884e+003  3.452302e+003 -1.262785e+002
      vertex  7.373360e+003  3.452302e+003 -1.262785e+002
      vertex  7.323721e+003  3.452302e+003 -1.294016e+002
    endloop
  endfacet
  facet normal  0.000000e+000  9.999999e-001  0.000000e+000
    outer loop
      vertex  7.323721e+003  3.452302e+003 -1.294016e+002
      vertex  7.373360e+003  3.452302e+003 -1.262785e+002
      vertex  7.385524e+003  3.452302e+003 -1.294016e+002
    endloop
  endfacet
  facet normal  0.000000e+000  1.000000e+000  0.000000e+000
    outer loop
      vertex  7.323721e+003  3.452302e+003 -1.294016e+002
      vertex  7.385524e+003  3.452302e+003 -1.294016e+002
      vertex  7.312044e+003  3.452302e+003 -1.340246e+002
    endloop
  endfacet
  facet normal  0.000000e+000  1.000000e+000  0.000000e+000
    outer loop
      vertex  7.312044e+003  3.452302e+003 -1.340246e+002
      vertex  7.385524e+003  3.452302e+003 -1.294016e+002
      vertex  7.397200e+003  3.452302e+003 -1.340246e+002
    endloop
  endfacet
  facet normal  0.000000e+000  1.000000e+000  0.000000e+000
    outer loop
      vertex  7.312044e+003  3.452302e+003 -1.340246e+002
      vertex  7.397200e+003  3.452302e+003 -1.340246e+002
      vertex  7.301040e+003  3.452302e+003 -1.400745e+002
    endloop
  endfacet
  facet normal  0.000000e+000  1.000000e+000  0.000000e+000
    outer loop
      vertex  7.301040e+003  3.452302e+003 -1.400745e+002
      vertex  7.397200e+003  3.452302e+003 -1.340246e+002
      vertex  7.408205e+003  3.452302e+003 -1.400745e+002
    endloop
  endfacet
  facet normal  0.000000e+000  1.000000e+000  0.000000e+000
    outer loop
      vertex  7.301040e+003  3.452302e+003 -1.400745e+002
      vertex  7.408205e+003  3.452302e+003 -1.400745e+002
      vertex  7.290880e+003  3.452302e+003 -1.474559e+002
    endloop
  endfacet
  facet normal  0.000000e+000  9.999999e-001  0.000000e+000
    outer loop
      vertex  7.290880e+003  3.452302e+003 -1.474559e+002
      vertex  7.408205e+003  3.452302e+003 -1.400745e+002
      vertex  7.418365e+003  3.452302e+003 -1.474559e+002
    endloop
  endfacet
  facet normal  0.000000e+000  1.000000e+000  0.000000e+000
    outer loop
      vertex  7.290880e+003  3.452302e+003 -1.474559e+002
      vertex  7.418365e+003  3.452302e+003 -1.474559e+002
      vertex  7.281726e+003  3.452302e+003 -1.560526e+002
    endloop
  endfacet
  facet normal  0.000000e+000  1.000000e+000  0.000000e+000
    outer loop
      vertex  7.281726e+003  3.452302e+003 -1.560526e+002
      vertex  7.418365e+003  3.452302e+003 -1.474559e+002
      vertex  7.427519e+003  3.452302e+003 -1.560526e+002
    endloop
  endfacet
  facet normal  0.000000e+000  1.000000e+000  0.000000e+000
    outer loop
      vertex  7.281726e+003  3.452302e+003 -1.560526e+002
      vertex  7.427519e+003  3.452302e+003 -1.560526e+002
      vertex  7.273721e+003  3.452302e+003 -1.657287e+002
    endloop
  endfacet
  facet normal  0.000000e+000  1.000000e+000  0.000000e+000
    outer loop
      vertex  7.273721e+003  3.452302e+003 -1.657287e+002
      vertex  7.427519e+003  3.452302e+003 -1.560526e+002
      vertex  7.435524e+003  3.452302e+003 -1.657287e+002
    endloop
  endfacet
  facet normal  0.000000e+000  1.000000e+000  0.000000e+000
    outer loop
      vertex  7.273721e+003  3.452302e+003 -1.657287e+002
      vertex  7.435524e+003  3.452302e+003 -1.657287e+002
      vertex  7.266992e+003  3.452302e+003 -1.763319e+002
    endloop
  endfacet
  facet normal  0.000000e+000  9.999999e-001  0.000000e+000
    outer loop
      vertex  7.266992e+003  3.452302e+003 -1.763319e+002
      vertex  7.435524e+003  3.452302e+003 -1.657287e+002
      vertex  7.442253e+003  3.452302e+003 -1.763319e+002
    endloop
  endfacet
  facet normal  0.000000e+000  1.000000e+000  0.000000e+000
    outer loop
      vertex  7.266992e+003  3.452302e+003 -1.763319e+002
      vertex  7.442253e+003  3.452302e+003 -1.763319e+002
      vertex  7.261645e+003  3.452302e+003 -1.876948e+002
    endloop
  endfacet
  facet normal  0.000000e+000  1.000000e+000  0.000000e+000
    outer loop
      vertex  7.261645e+003  3.452302e+003 -1.876948e+002
      vertex  7.442253e+003  3.452302e+003 -1.763319e+002
      vertex  7.447600e+003  3.452302e+003 -1.876948e+002
    endloop
  endfacet
  facet normal  0.000000e+000  1.000000e+000  0.000000e+000
    outer loop
      vertex  7.261645e+003  3.452302e+003 -1.876948e+002
      vertex  7.447600e+003  3.452302e+003 -1.876948e+002
      vertex  7.257764e+003  3.452302e+003 -1.996383e+002
    endloop
  endfacet
  facet normal  0.000000e+000  1.000000e+000  0.000000e+000
    outer loop
      vertex  7.257764e+003  3.452302e+003 -1.996383e+002
      vertex  7.447600e+003  3.452302e+003 -1.876948e+002
      vertex  7.451480e+003  3.452302e+003 -1.996383e+002
    endloop
  endfacet
  facet normal  0.000000e+000  1.000000e+000  0.000000e+000
    outer loop
      vertex  7.257764e+003  3.452302e+003 -1.996383e+002
      vertex  7.451480e+003  3.452302e+003 -1.996383e+002
      vertex  7.255411e+003  3.452302e+003 -2.119739e+002
    endloop
  endfacet
  facet normal  0.000000e+000  1.000000e+000  0.000000e+000
    outer loop
      vertex  7.255411e+003  3.452302e+003 -2.119739e+002
      vertex  7.451480e+003  3.452302e+003 -1.996383e+002
      vertex  7.453834e+003  3.452302e+003 -2.119739e+002
    endloop
  endfacet
  facet normal  0.000000e+000  1.000000e+000  0.000000e+000
    outer loop
      vertex  7.255411e+003  3.452302e+003 -2.119739e+002
      vertex  7.453834e+003  3.452302e+003 -2.119739e+002
      vertex  7.254622e+003  3.452302e+003 -2.245073e+002
    endloop
  endfacet
  facet normal  0.000000e+000  1.000000e+000  0.000000e+000
    outer loop
      vertex  7.254622e+003  3.452302e+003 -2.245073e+002
      vertex  7.453834e+003  3.452302e+003 -2.119739e+002
      vertex  7.454622e+003  3.452302e+003 -2.245073e+002
    endloop
  endfacet
  facet normal  0.000000e+000  1.000000e+000  0.000000e+000
    outer loop
      vertex  7.254622e+003  3.452302e+003 -2.245073e+002
      vertex  7.454622e+003  3.452302e+003 -2.245073e+002
      vertex  7.255411e+003  3.452302e+003 -2.370406e+002
    endloop
  endfacet
  facet normal  0.000000e+000  1.000000e+000  0.000000e+000
    outer loop
      vertex  7.255411e+003  3.452302e+003 -2.370406e+002
      vertex  7.454622e+003  3.452302e+003 -2.245073e+002
      vertex  7.453834e+003  3.452302e+003 -2.370406e+002
    endloop
  endfacet
  facet normal  0.000000e+000  1.000000e+000  0.000000e+000
    outer loop
      vertex  7.255411e+003  3.452302e+003 -2.370406e+002
      vertex  7.453834e+003  3.452302e+003 -2.370406e+002
      vertex  7.257764e+003  3.452302e+003 -2.493763e+002
    endloop
  endfacet
  facet normal  0.000000e+000  1.000000e+000  0.000000e+000
    outer loop
      vertex  7.257764e+003  3.452302e+003 -2.493763e+002
      vertex  7.453834e+003  3.452302e+003 -2.370406e+002
      vertex  7.451480e+003  3.452302e+003 -2.493763e+002
    endloop
  endfacet
  facet normal  0.000000e+000  1.000000e+000  0.000000e+000
    outer loop
      vertex  7.257764e+003  3.452302e+003 -2.493763e+002
      vertex  7.451480e+003  3.452302e+003 -2.493763e+002
      vertex  7.261645e+003  3.452302e+003 -2.613197e+002
    endloop
  endfacet
  facet normal  0.000000e+000  1.000000e+000  0.000000e+000
    outer loop
      vertex  7.261645e+003  3.452302e+003 -2.613197e+002
      vertex  7.451480e+003  3.452302e+003 -2.493763e+002
      vertex  7.447600e+003  3.452302e+003 -2.613197e+002
    endloop
  endfacet
  facet normal  0.000000e+000  1.000000e+000  0.000000e+000
    outer loop
      vertex  7.261645e+003  3.452302e+003 -2.613197e+002
      vertex  7.447600e+003  3.452302e+003 -2.613197e+002
      vertex  7.266992e+003  3.452302e+003 -2.726826e+002
    endloop
  endfacet
  facet normal  0.000000e+000  1.000000e+000  0.000000e+000
    outer loop
      vertex  7.266992e+003  3.452302e+003 -2.726826e+002
      vertex  7.447600e+003  3.452302e+003 -2.613197e+002
      vertex  7.442253e+003  3.452302e+003 -2.726826e+002
    endloop
  endfacet
  facet normal  0.000000e+000  1.000000e+000  0.000000e+000
    outer loop
      vertex  7.266992e+003  3.452302e+003 -2.726826e+002
      vertex  7.442253e+003  3.452302e+003 -2.726826e+002
      vertex  7.273721e+003  3.452302e+003 -2.832858e+002
    endloop
  endfacet
  facet normal  0.000000e+000  1.000000e+000  0.000000e+000
    outer loop
      vertex  7.273721e+003  3.452302e+003 -2.832858e+002
      vertex  7.442253e+003  3.452302e+003 -2.726826e+002
      vertex  7.435524e+003  3.452302e+003 -2.832858e+002
    endloop
  endfacet
  facet normal  0.000000e+000  1.000000e+000  0.000000e+000
    outer loop
      vertex  7.273721e+003  3.452302e+003 -2.832858e+002
      vertex  7.435524e+003  3.452302e+003 -2.832858e+002
      vertex  7.281726e+003  3.452302e+003 -2.929620e+002
    endloop
  endfacet
  facet normal  0.000000e+000  1.000000e+000  0.000000e+000
    outer loop
      vertex  7.281726e+003  3.452302e+003 -2.929620e+002
      vertex  7.435524e+003  3.452302e+003 -2.832858e+002
      vertex  7.427519e+003  3.452302e+003 -2.929620e+002
    endloop
  endfacet
  facet normal  0.000000e+000  1.000000e+000  0.000000e+000
    outer loop
      vertex  7.281726e+003  3.452302e+003 -2.929620e+002
      vertex  7.427519e+003  3.452302e+003 -2.929620e+002
      vertex  7.290880e+003  3.452302e+003 -3.015586e+002
    endloop
  endfacet
  facet normal  0.000000e+000  1.000000e+000  0.000000e+000
    outer loop
      vertex  7.290880e+003  3.452302e+003 -3.015586e+002
      vertex  7.427519e+003  3.452302e+003 -2.929620e+002
      vertex  7.418365e+003  3.452302e+003 -3.015586e+002
    endloop
  endfacet
  facet normal  0.000000e+000  9.999999e-001  0.000000e+000
    outer loop
      vertex  7.290880e+003  3.452302e+003 -3.015586e+002
      vertex  7.418365e+003  3.452302e+003 -3.015586e+002
      vertex  7.301040e+003  3.452302e+003 -3.089401e+002
    endloop
  endfacet
  facet normal  0.000000e+000  1.000000e+000  0.000000e+000
    outer loop
      vertex  7.301040e+003  3.452302e+003 -3.089401e+002
      vertex  7.418365e+003  3.452302e+003 -3.015586e+002
      vertex  7.408205e+003  3.452302e+003 -3.089401e+002
    endloop
  endfacet
  facet normal  0.000000e+000  9.999999e-001  0.000000e+000
    outer loop
      vertex  7.301040e+003  3.452302e+003 -3.089401e+002
      vertex  7.408205e+003  3.452302e+003 -3.089401e+002
      vertex  7.312044e+003  3.452302e+003 -3.149900e+002
    endloop
  endfacet
  facet normal  0.000000e+000  1.000000e+000  0.000000e+000
    outer loop
      vertex  7.312044e+003  3.452302e+003 -3.149900e+002
      vertex  7.408205e+003  3.452302e+003 -3.089401e+002
      vertex  7.397200e+003  3.452302e+003 -3.149900e+002
    endloop
  endfacet
  facet normal  0.000000e+000  1.000000e+000  0.000000e+000
    outer loop
      vertex  7.312044e+003  3.452302e+003 -3.149900e+002
      vertex  7.397200e+003  3.452302e+003 -3.149900e+002
      vertex  7.323721e+003  3.452302e+003 -3.196129e+002
    endloop
  endfacet
  facet normal  0.000000e+000  1.000000e+000  0.000000e+000
    outer loop
      vertex  7.323721e+003  3.452302e+003 -3.196129e+002
      vertex  7.397200e+003  3.452302e+003 -3.149900e+002
      vertex  7.385524e+003  3.452302e+003 -3.196129e+002
    endloop
  endfacet
  facet normal  0.000000e+000  9.999999e-001  0.000000e+000
    outer loop
      vertex  7.323721e+003  3.452302e+003 -3.196129e+002
      vertex  7.385524e+003  3.452302e+003 -3.196129e+002
      vertex  7.335884e+003  3.452302e+003 -3.227360e+002
    endloop
  endfacet
  facet normal  0.000000e+000  1.000000e+000  0.000000e+000
    outer loop
      vertex  7.335884e+003  3.452302e+003 -3.227360e+002
      vertex  7.385524e+003  3.452302e+003 -3.196129e+002
      vertex  7.373360e+003  3.452302e+003 -3.227360e+002
    endloop
  endfacet
  facet normal  0.000000e+000  1.000000e+000  0.000000e+000
    outer loop
      vertex  7.335884e+003  3.452302e+003 -3.227360e+002
      vertex  7.373360e+003  3.452302e+003 -3.227360e+002
      vertex  7.348343e+003  3.452302e+003 -3.243099e+002
    endloop
  endfacet
  facet normal  0.000000e+000  1.000000e+000  0.000000e+000
    outer loop
      vertex  7.348343e+003  3.452302e+003 -3.243099e+002
      vertex  7.373360e+003  3.452302e+003 -3.227360e+002
      vertex  7.360901e+003  3.452302e+003 -3.243099e+002
    endloop
  endfacet
  facet normal -9.980265e-001  -0.000000e+000 -6.279403e-002
    outer loop
      vertex  7.254622e+003  3.422302e+003 -2.245073e+002
      vertex  7.254622e+003  3.452302e+003 -2.245073e+002
      vertex  7.255411e+003  3.422302e+003 -2.370406e+002
    endloop
  endfacet
  facet normal -9.980265e-001  0.000000e+000 -6.279403e-002
    outer loop
      vertex  7.255411e+003  3.422302e+003 -2.370406e+002
      vertex  7.254622e+003  3.452302e+003 -2.245073e+002
      vertex  7.255411e+003  3.452302e+003 -2.370406e+002
    endloop
  endfacet
  facet normal -9.822819e-001  -0.000000e+000 -1.874091e-001
    outer loop
      vertex  7.255411e+003  3.422302e+003 -2.370406e+002
      vertex  7.255411e+003  3.452302e+003 -2.370406e+002
      vertex  7.257764e+003  3.422302e+003 -2.493763e+002
    endloop
  endfacet
  facet normal -9.822819e-001  0.000000e+000 -1.874091e-001
    outer loop
      vertex  7.257764e+003  3.422302e+003 -2.493763e+002
      vertex  7.255411e+003  3.452302e+003 -2.370406e+002
      vertex  7.257764e+003  3.452302e+003 -2.493763e+002
    endloop
  endfacet
  facet normal -9.510633e-001  -0.000000e+000 -3.089960e-001
    outer loop
      vertex  7.257764e+003  3.422302e+003 -2.493763e+002
      vertex  7.257764e+003  3.452302e+003 -2.493763e+002
      vertex  7.261645e+003  3.422302e+003 -2.613197e+002
    endloop
  endfacet
  facet normal -9.510633e-001  0.000000e+000 -3.089960e-001
    outer loop
      vertex  7.261645e+003  3.422302e+003 -2.613197e+002
      vertex  7.257764e+003  3.452302e+003 -2.493763e+002
      vertex  7.261645e+003  3.452302e+003 -2.613197e+002
    endloop
  endfacet
  facet normal -9.048214e-001  -0.000000e+000 -4.257914e-001
    outer loop
      vertex  7.261645e+003  3.422302e+003 -2.613197e+002
      vertex  7.261645e+003  3.452302e+003 -2.613197e+002
      vertex  7.266992e+003  3.422302e+003 -2.726826e+002
    endloop
  endfacet
  facet normal -9.048214e-001  0.000000e+000 -4.257914e-001
    outer loop
      vertex  7.266992e+003  3.422302e+003 -2.726826e+002
      vertex  7.261645e+003  3.452302e+003 -2.613197e+002
      vertex  7.266992e+003  3.452302e+003 -2.726826e+002
    endloop
  endfacet
  facet normal -8.443272e-001  -0.000000e+000 -5.358280e-001
    outer loop
      vertex  7.266992e+003  3.422302e+003 -2.726826e+002
      vertex  7.266992e+003  3.452302e+003 -2.726826e+002
      vertex  7.273721e+003  3.422302e+003 -2.832858e+002
    endloop
  endfacet
  facet normal -8.443272e-001  0.000000e+000 -5.358280e-001
    outer loop
      vertex  7.273721e+003  3.422302e+003 -2.832858e+002
      vertex  7.266992e+003  3.452302e+003 -2.726826e+002
      vertex  7.273721e+003  3.452302e+003 -2.832858e+002
    endloop
  endfacet
  facet normal -7.705112e-001  -0.000000e+000 -6.374264e-001
    outer loop
      vertex  7.273721e+003  3.422302e+003 -2.832858e+002
      vertex  7.273721e+003  3.452302e+003 -2.832858e+002
      vertex  7.281726e+003  3.422302e+003 -2.929620e+002
    endloop
  endfacet
  facet normal -7.705112e-001  0.000000e+000 -6.374264e-001
    outer loop
      vertex  7.281726e+003  3.422302e+003 -2.929620e+002
      vertex  7.273721e+003  3.452302e+003 -2.832858e+002
      vertex  7.281726e+003  3.452302e+003 -2.929620e+002
    endloop
  endfacet
  facet normal -6.845540e-001  -0.000000e+000 -7.289622e-001
    outer loop
      vertex  7.281726e+003  3.422302e+003 -2.929620e+002
      vertex  7.281726e+003  3.452302e+003 -2.929620e+002
      vertex  7.290880e+003  3.422302e+003 -3.015586e+002
    endloop
  endfacet
  facet normal -6.845540e-001  0.000000e+000 -7.289622e-001
    outer loop
      vertex  7.290880e+003  3.422302e+003 -3.015586e+002
      vertex  7.281726e+003  3.452302e+003 -2.929620e+002
      vertex  7.290880e+003  3.452302e+003 -3.015586e+002
    endloop
  endfacet
  facet normal -5.877873e-001  -0.000000e+000 -8.090156e-001
    outer loop
      vertex  7.290880e+003  3.422302e+003 -3.015586e+002
      vertex  7.290880e+003  3.452302e+003 -3.015586e+002
      vertex  7.301040e+003  3.422302e+003 -3.089401e+002
    endloop
  endfacet
  facet normal -5.877873e-001  0.000000e+000 -8.090156e-001
    outer loop
      vertex  7.301040e+003  3.422302e+003 -3.089401e+002
      vertex  7.290880e+003  3.452302e+003 -3.015586e+002
      vertex  7.301040e+003  3.452302e+003 -3.089401e+002
    endloop
  endfacet
  facet normal -4.817482e-001  -0.000000e+000 -8.763097e-001
    outer loop
      vertex  7.301040e+003  3.422302e+003 -3.089401e+002
      vertex  7.301040e+003  3.452302e+003 -3.089401e+002
      vertex  7.312044e+003  3.422302e+003 -3.149900e+002
    endloop
  endfacet
  facet normal -4.817482e-001  0.000000e+000 -8.763097e-001
    outer loop
      vertex  7.312044e+003  3.422302e+003 -3.149900e+002
      vertex  7.301040e+003  3.452302e+003 -3.089401e+002
      vertex  7.312044e+003  3.452302e+003 -3.149900e+002
    endloop
  endfacet
  facet normal -3.681241e-001  -0.000000e+000 -9.297767e-001
    outer loop
      vertex  7.312044e+003  3.422302e+003 -3.149900e+002
      vertex  7.312044e+003  3.452302e+003 -3.149900e+002
      vertex  7.323721e+003  3.422302e+003 -3.196129e+002
    endloop
  endfacet
  facet normal -3.681241e-001  0.000000e+000 -9.297767e-001
    outer loop
      vertex  7.323721e+003  3.422302e+003 -3.196129e+002
      vertex  7.312044e+003  3.452302e+003 -3.149900e+002
      vertex  7.323721e+003  3.452302e+003 -3.196129e+002
    endloop
  endfacet
  facet normal -2.486901e-001  -0.000000e+000 -9.685831e-001
    outer loop
      vertex  7.323721e+003  3.422302e+003 -3.196129e+002
      vertex  7.323721e+003  3.452302e+003 -3.196129e+002
      vertex  7.335884e+003  3.422302e+003 -3.227360e+002
    endloop
  endfacet
  facet normal -2.486901e-001  0.000000e+000 -9.685831e-001
    outer loop
      vertex  7.335884e+003  3.422302e+003 -3.227360e+002
      vertex  7.323721e+003  3.452302e+003 -3.196129e+002
      vertex  7.335884e+003  3.452302e+003 -3.227360e+002
    endloop
  endfacet
  facet normal -1.253339e-001  -0.000000e+000 -9.921146e-001
    outer loop
      vertex  7.335884e+003  3.422302e+003 -3.227360e+002
      vertex  7.335884e+003  3.452302e+003 -3.227360e+002
      vertex  7.348343e+003  3.422302e+003 -3.243099e+002
    endloop
  endfacet
  facet normal -1.253339e-001  0.000000e+000 -9.921146e-001
    outer loop
      vertex  7.348343e+003  3.422302e+003 -3.243099e+002
      vertex  7.335884e+003  3.452302e+003 -3.227360e+002
      vertex  7.348343e+003  3.452302e+003 -3.243099e+002
    endloop
  endfacet
  facet normal  0.000000e+000  0.000000e+000 -1.000000e+000
    outer loop
      vertex  7.348343e+003  3.422302e+003 -3.243099e+002
      vertex  7.348343e+003  3.452302e+003 -3.243099e+002
      vertex  7.360901e+003  3.422302e+003 -3.243099e+002
    endloop
  endfacet
  facet normal  0.000000e+000  0.000000e+000 -1.000000e+000
    outer loop
      vertex  7.360901e+003  3.422302e+003 -3.243099e+002
      vertex  7.348343e+003  3.452302e+003 -3.243099e+002
      vertex  7.360901e+003  3.452302e+003 -3.243099e+002
    endloop
  endfacet
  facet normal  1.253339e-001  0.000000e+000 -9.921146e-001
    outer loop
      vertex  7.360901e+003  3.422302e+003 -3.243099e+002
      vertex  7.360901e+003  3.452302e+003 -3.243099e+002
      vertex  7.373360e+003  3.422302e+003 -3.227360e+002
    endloop
  endfacet
  facet normal  1.253339e-001  0.000000e+000 -9.921146e-001
    outer loop
      vertex  7.373360e+003  3.422302e+003 -3.227360e+002
      vertex  7.360901e+003  3.452302e+003 -3.243099e+002
      vertex  7.373360e+003  3.452302e+003 -3.227360e+002
    endloop
  endfacet
  facet normal  2.486901e-001  0.000000e+000 -9.685831e-001
    outer loop
      vertex  7.373360e+003  3.422302e+003 -3.227360e+002
      vertex  7.373360e+003  3.452302e+003 -3.227360e+002
      vertex  7.385524e+003  3.422302e+003 -3.196129e+002
    endloop
  endfacet
  facet normal  2.486901e-001  0.000000e+000 -9.685831e-001
    outer loop
      vertex  7.385524e+003  3.422302e+003 -3.196129e+002
      vertex  7.373360e+003  3.452302e+003 -3.227360e+002
      vertex  7.385524e+003  3.452302e+003 -3.196129e+002
    endloop
  endfacet
  facet normal  3.681241e-001  0.000000e+000 -9.297767e-001
    outer loop
      vertex  7.385524e+003  3.422302e+003 -3.196129e+002
      vertex  7.385524e+003  3.452302e+003 -3.196129e+002
      vertex  7.397200e+003  3.422302e+003 -3.149900e+002
    endloop
  endfacet
  facet normal  3.681241e-001  0.000000e+000 -9.297767e-001
    outer loop
      vertex  7.397200e+003  3.422302e+003 -3.149900e+002
      vertex  7.385524e+003  3.452302e+003 -3.196129e+002
      vertex  7.397200e+003  3.452302e+003 -3.149900e+002
    endloop
  endfacet
  facet normal  4.817482e-001  0.000000e+000 -8.763097e-001
    outer loop
      vertex  7.397200e+003  3.422302e+003 -3.149900e+002
      vertex  7.397200e+003  3.452302e+003 -3.149900e+002
      vertex  7.408205e+003  3.422302e+003 -3.089401e+002
    endloop
  endfacet
  facet normal  4.817482e-001  0.000000e+000 -8.763097e-001
    outer loop
      vertex  7.408205e+003  3.422302e+003 -3.089401e+002
      vertex  7.397200e+003  3.452302e+003 -3.149900e+002
      vertex  7.408205e+003  3.452302e+003 -3.089401e+002
    endloop
  endfacet
  facet normal  5.877873e-001  0.000000e+000 -8.090156e-001
    outer loop
      vertex  7.408205e+003  3.422302e+003 -3.089401e+002
      vertex  7.408205e+003  3.452302e+003 -3.089401e+002
      vertex  7.418365e+003  3.422302e+003 -3.015586e+002
    endloop
  endfacet
  facet normal  5.877873e-001  0.000000e+000 -8.090156e-001
    outer loop
      vertex  7.418365e+003  3.422302e+003 -3.015586e+002
      vertex  7.408205e+003  3.452302e+003 -3.089401e+002
      vertex  7.418365e+003  3.452302e+003 -3.015586e+002
    endloop
  endfacet
  facet normal  6.845540e-001  0.000000e+000 -7.289622e-001
    outer loop
      vertex  7.418365e+003  3.422302e+003 -3.015586e+002
      vertex  7.418365e+003  3.452302e+003 -3.015586e+002
      vertex  7.427519e+003  3.422302e+003 -2.929620e+002
    endloop
  endfacet
  facet normal  6.845540e-001  0.000000e+000 -7.289622e-001
    outer loop
      vertex  7.427519e+003  3.422302e+003 -2.929620e+002
      vertex  7.418365e+003  3.452302e+003 -3.015586e+002
      vertex  7.427519e+003  3.452302e+003 -2.929620e+002
    endloop
  endfacet
  facet normal  7.705112e-001  0.000000e+000 -6.374264e-001
    outer loop
      vertex  7.427519e+003  3.422302e+003 -2.929620e+002
      vertex  7.427519e+003  3.452302e+003 -2.929620e+002
      vertex  7.435524e+003  3.422302e+003 -2.832858e+002
    endloop
  endfacet
  facet normal  7.705112e-001  0.000000e+000 -6.374264e-001
    outer loop
      vertex  7.435524e+003  3.422302e+003 -2.832858e+002
      vertex  7.427519e+003  3.452302e+003 -2.929620e+002
      vertex  7.435524e+003  3.452302e+003 -2.832858e+002
    endloop
  endfacet
  facet normal  8.443272e-001  0.000000e+000 -5.358280e-001
    outer loop
      vertex  7.435524e+003  3.422302e+003 -2.832858e+002
      vertex  7.435524e+003  3.452302e+003 -2.832858e+002
      vertex  7.442253e+003  3.422302e+003 -2.726826e+002
    endloop
  endfacet
  facet normal  8.443272e-001  0.000000e+000 -5.358280e-001
    outer loop
      vertex  7.442253e+003  3.422302e+003 -2.726826e+002
      vertex  7.435524e+003  3.452302e+003 -2.832858e+002
      vertex  7.442253e+003  3.452302e+003 -2.726826e+002
    endloop
  endfacet
  facet normal  9.048214e-001  0.000000e+000 -4.257914e-001
    outer loop
      vertex  7.442253e+003  3.422302e+003 -2.726826e+002
      vertex  7.442253e+003  3.452302e+003 -2.726826e+002
      vertex  7.447600e+003  3.422302e+003 -2.613197e+002
    endloop
  endfacet
  facet normal  9.048214e-001  0.000000e+000 -4.257914e-001
    outer loop
      vertex  7.447600e+003  3.422302e+003 -2.613197e+002
      vertex  7.442253e+003  3.452302e+003 -2.726826e+002
      vertex  7.447600e+003  3.452302e+003 -2.613197e+002
    endloop
  endfacet
  facet normal  9.510633e-001  0.000000e+000 -3.089960e-001
    outer loop
      vertex  7.447600e+003  3.422302e+003 -2.613197e+002
      vertex  7.447600e+003  3.452302e+003 -2.613197e+002
      vertex  7.451480e+003  3.422302e+003 -2.493763e+002
    endloop
  endfacet
  facet normal  9.510633e-001  0.000000e+000 -3.089960e-001
    outer loop
      vertex  7.451480e+003  3.422302e+003 -2.493763e+002
      vertex  7.447600e+003  3.452302e+003 -2.613197e+002
      vertex  7.451480e+003  3.452302e+003 -2.493763e+002
    endloop
  endfacet
  facet normal  9.822819e-001  0.000000e+000 -1.874091e-001
    outer loop
      vertex  7.451480e+003  3.422302e+003 -2.493763e+002
      vertex  7.451480e+003  3.452302e+003 -2.493763e+002
      vertex  7.453834e+003  3.422302e+003 -2.370406e+002
    endloop
  endfacet
  facet normal  9.822819e-001  0.000000e+000 -1.874091e-001
    outer loop
      vertex  7.453834e+003  3.422302e+003 -2.370406e+002
      vertex  7.451480e+003  3.452302e+003 -2.493763e+002
      vertex  7.453834e+003  3.452302e+003 -2.370406e+002
    endloop
  endfacet
  facet normal  9.980289e-001  0.000000e+000 -6.275530e-002
    outer loop
      vertex  7.453834e+003  3.422302e+003 -2.370406e+002
      vertex  7.453834e+003  3.452302e+003 -2.370406e+002
      vertex  7.454622e+003  3.422302e+003 -2.245073e+002
    endloop
  endfacet
  facet normal  9.980289e-001  0.000000e+000 -6.275530e-002
    outer loop
      vertex  7.454622e+003  3.422302e+003 -2.245073e+002
      vertex  7.453834e+003  3.452302e+003 -2.370406e+002
      vertex  7.454622e+003  3.452302e+003 -2.245073e+002
    endloop
  endfacet
  facet normal  9.980289e-001  0.000000e+000  6.275530e-002
    outer loop
      vertex  7.454622e+003  3.422302e+003 -2.245073e+002
      vertex  7.454622e+003  3.452302e+003 -2.245073e+002
      vertex  7.453834e+003  3.422302e+003 -2.119739e+002
    endloop
  endfacet
  facet normal  9.980289e-001  -0.000000e+000  6.275530e-002
    outer loop
      vertex  7.453834e+003  3.422302e+003 -2.119739e+002
      vertex  7.454622e+003  3.452302e+003 -2.245073e+002
      vertex  7.453834e+003  3.452302e+003 -2.119739e+002
    endloop
  endfacet
  facet normal  9.822819e-001  0.000000e+000  1.874091e-001
    outer loop
      vertex  7.453834e+003  3.422302e+003 -2.119739e+002
      vertex  7.453834e+003  3.452302e+003 -2.119739e+002
      vertex  7.451480e+003  3.422302e+003 -1.996383e+002
    endloop
  endfacet
  facet normal  9.822819e-001  -0.000000e+000  1.874091e-001
    outer loop
      vertex  7.451480e+003  3.422302e+003 -1.996383e+002
      vertex  7.453834e+003  3.452302e+003 -2.119739e+002
      vertex  7.451480e+003  3.452302e+003 -1.996383e+002
    endloop
  endfacet
  facet normal  9.510635e-001  0.000000e+000  3.089957e-001
    outer loop
      vertex  7.451480e+003  3.422302e+003 -1.996383e+002
      vertex  7.451480e+003  3.452302e+003 -1.996383e+002
      vertex  7.447600e+003  3.422302e+003 -1.876948e+002
    endloop
  endfacet
  facet normal  9.510635e-001  -0.000000e+000  3.089957e-001
    outer loop
      vertex  7.447600e+003  3.422302e+003 -1.876948e+002
      vertex  7.451480e+003  3.452302e+003 -1.996383e+002
      vertex  7.447600e+003  3.452302e+003 -1.876948e+002
    endloop
  endfacet
  facet normal  9.048214e-001  0.000000e+000  4.257914e-001
    outer loop
      vertex  7.447600e+003  3.422302e+003 -1.876948e+002
      vertex  7.447600e+003  3.452302e+003 -1.876948e+002
      vertex  7.442253e+003  3.422302e+003 -1.763319e+002
    endloop
  endfacet
  facet normal  9.048214e-001  -0.000000e+000  4.257914e-001
    outer loop
      vertex  7.442253e+003  3.422302e+003 -1.763319e+002
      vertex  7.447600e+003  3.452302e+003 -1.876948e+002
      vertex  7.442253e+003  3.452302e+003 -1.763319e+002
    endloop
  endfacet
  facet normal  8.443269e-001  0.000000e+000  5.358286e-001
    outer loop
      vertex  7.442253e+003  3.422302e+003 -1.763319e+002
      vertex  7.442253e+003  3.452302e+003 -1.763319e+002
      vertex  7.435524e+003  3.422302e+003 -1.657287e+002
    endloop
  endfacet
  facet normal  8.443269e-001  -0.000000e+000  5.358286e-001
    outer loop
      vertex  7.435524e+003  3.422302e+003 -1.657287e+002
      vertex  7.442253e+003  3.452302e+003 -1.763319e+002
      vertex  7.435524e+003  3.452302e+003 -1.657287e+002
    endloop
  endfacet
  facet normal  7.705112e-001  0.000000e+000  6.374264e-001
    outer loop
      vertex  7.435524e+003  3.422302e+003 -1.657287e+002
      vertex  7.435524e+003  3.452302e+003 -1.657287e+002
      vertex  7.427519e+003  3.422302e+003 -1.560526e+002
    endloop
  endfacet
  facet normal  7.705112e-001  -0.000000e+000  6.374264e-001
    outer loop
      vertex  7.427519e+003  3.422302e+003 -1.560526e+002
      vertex  7.435524e+003  3.452302e+003 -1.657287e+002
      vertex  7.427519e+003  3.452302e+003 -1.560526e+002
    endloop
  endfacet
  facet normal  6.845540e-001  0.000000e+000  7.289622e-001
    outer loop
      vertex  7.427519e+003  3.422302e+003 -1.560526e+002
      vertex  7.427519e+003  3.452302e+003 -1.560526e+002
      vertex  7.418365e+003  3.422302e+003 -1.474559e+002
    endloop
  endfacet
  facet normal  6.845540e-001  -0.000000e+000  7.289622e-001
    outer loop
      vertex  7.418365e+003  3.422302e+003 -1.474559e+002
      vertex  7.427519e+003  3.452302e+003 -1.560526e+002
      vertex  7.418365e+003  3.452302e+003 -1.474559e+002
    endloop
  endfacet
  facet normal  5.877873e-001  0.000000e+000  8.090156e-001
    outer loop
      vertex  7.418365e+003  3.422302e+003 -1.474559e+002
      vertex  7.418365e+003  3.452302e+003 -1.474559e+002
      vertex  7.408205e+003  3.422302e+003 -1.400745e+002
    endloop
  endfacet
  facet normal  5.877873e-001  -0.000000e+000  8.090156e-001
    outer loop
      vertex  7.408205e+003  3.422302e+003 -1.400745e+002
      vertex  7.418365e+003  3.452302e+003 -1.474559e+002
      vertex  7.408205e+003  3.452302e+003 -1.400745e+002
    endloop
  endfacet
  facet normal  4.817491e-001  0.000000e+000  8.763092e-001
    outer loop
      vertex  7.408205e+003  3.422302e+003 -1.400745e+002
      vertex  7.408205e+003  3.452302e+003 -1.400745e+002
      vertex  7.397200e+003  3.422302e+003 -1.340246e+002
    endloop
  endfacet
  facet normal  4.817491e-001  -0.000000e+000  8.763092e-001
    outer loop
      vertex  7.397200e+003  3.422302e+003 -1.340246e+002
      vertex  7.408205e+003  3.452302e+003 -1.400745e+002
      vertex  7.397200e+003  3.452302e+003 -1.340246e+002
    endloop
  endfacet
  facet normal  3.681231e-001  0.000000e+000  9.297771e-001
    outer loop
      vertex  7.397200e+003  3.422302e+003 -1.340246e+002
      vertex  7.397200e+003  3.452302e+003 -1.340246e+002
      vertex  7.385524e+003  3.422302e+003 -1.294016e+002
    endloop
  endfacet
  facet normal  3.681231e-001  -0.000000e+000  9.297771e-001
    outer loop
      vertex  7.385524e+003  3.422302e+003 -1.294016e+002
      vertex  7.397200e+003  3.452302e+003 -1.340246e+002
      vertex  7.385524e+003  3.452302e+003 -1.294016e+002
    endloop
  endfacet
  facet normal  2.486901e-001  0.000000e+000  9.685831e-001
    outer loop
      vertex  7.385524e+003  3.422302e+003 -1.294016e+002
      vertex  7.385524e+003  3.452302e+003 -1.294016e+002
      vertex  7.373360e+003  3.422302e+003 -1.262785e+002
    endloop
  endfacet
  facet normal  2.486901e-001  -0.000000e+000  9.685831e-001
    outer loop
      vertex  7.373360e+003  3.422302e+003 -1.262785e+002
      vertex  7.385524e+003  3.452302e+003 -1.294016e+002
      vertex  7.373360e+003  3.452302e+003 -1.262785e+002
    endloop
  endfacet
  facet normal  1.253339e-001  0.000000e+000  9.921146e-001
    outer loop
      vertex  7.373360e+003  3.422302e+003 -1.262785e+002
      vertex  7.373360e+003  3.452302e+003 -1.262785e+002
      vertex  7.360901e+003  3.422302e+003 -1.247046e+002
    endloop
  endfacet
  facet normal  1.253339e-001  -0.000000e+000  9.921146e-001
    outer loop
      vertex  7.360901e+003  3.422302e+003 -1.247046e+002
      vertex  7.373360e+003  3.452302e+003 -1.262785e+002
      vertex  7.360901e+003  3.452302e+003 -1.247046e+002
    endloop
  endfacet
  facet normal  0.000000e+000  0.000000e+000  1.000000e+000
    outer loop
      vertex  7.360901e+003  3.422302e+003 -1.247046e+002
      vertex  7.360901e+003  3.452302e+003 -1.247046e+002
      vertex  7.348343e+003  3.422302e+003 -1.247046e+002
    endloop
  endfacet
  facet normal  0.000000e+000  0.000000e+000  1.000000e+000
    outer loop
      vertex  7.348343e+003  3.422302e+003 -1.247046e+002
      vertex  7.360901e+003  3.452302e+003 -1.247046e+002
      vertex  7.348343e+003  3.452302e+003 -1.247046e+002
    endloop
  endfacet
  facet normal -1.253339e-001  0.000000e+000  9.921146e-001
    outer loop
      vertex  7.348343e+003  3.422302e+003 -1.247046e+002
      vertex  7.348343e+003  3.452302e+003 -1.247046e+002
      vertex  7.335884e+003  3.422302e+003 -1.262785e+002
    endloop
  endfacet
  facet normal -1.253339e-001  0.000000e+000  9.921146e-001
    outer loop
      vertex  7.335884e+003  3.422302e+003 -1.262785e+002
      vertex  7.348343e+003  3.452302e+003 -1.247046e+002
      vertex  7.335884e+003  3.452302e+003 -1.262785e+002
    endloop
  endfacet
  facet normal -2.486901e-001  0.000000e+000  9.685831e-001
    outer loop
      vertex  7.335884e+003  3.422302e+003 -1.262785e+002
      vertex  7.335884e+003  3.452302e+003 -1.262785e+002
      vertex  7.323721e+003  3.422302e+003 -1.294016e+002
    endloop
  endfacet
  facet normal -2.486901e-001  0.000000e+000  9.685831e-001
    outer loop
      vertex  7.323721e+003  3.422302e+003 -1.294016e+002
      vertex  7.335884e+003  3.452302e+003 -1.262785e+002
      vertex  7.323721e+003  3.452302e+003 -1.294016e+002
    endloop
  endfacet
  facet normal -3.681231e-001  0.000000e+000  9.297771e-001
    outer loop
      vertex  7.323721e+003  3.422302e+003 -1.294016e+002
      vertex  7.323721e+003  3.452302e+003 -1.294016e+002
      vertex  7.312044e+003  3.422302e+003 -1.340246e+002
    endloop
  endfacet
  facet normal -3.681231e-001  0.000000e+000  9.297771e-001
    outer loop
      vertex  7.312044e+003  3.422302e+003 -1.340246e+002
      vertex  7.323721e+003  3.452302e+003 -1.294016e+002
      vertex  7.312044e+003  3.452302e+003 -1.340246e+002
    endloop
  endfacet
  facet normal -4.817491e-001  0.000000e+000  8.763092e-001
    outer loop
      vertex  7.312044e+003  3.422302e+003 -1.340246e+002
      vertex  7.312044e+003  3.452302e+003 -1.340246e+002
      vertex  7.301040e+003  3.422302e+003 -1.400745e+002
    endloop
  endfacet
  facet normal -4.817491e-001  0.000000e+000  8.763092e-001
    outer loop
      vertex  7.301040e+003  3.422302e+003 -1.400745e+002
      vertex  7.312044e+003  3.452302e+003 -1.340246e+002
      vertex  7.301040e+003  3.452302e+003 -1.400745e+002
    endloop
  endfacet
  facet normal -5.877873e-001  0.000000e+000  8.090156e-001
    outer loop
      vertex  7.301040e+003  3.422302e+003 -1.400745e+002
      vertex  7.301040e+003  3.452302e+003 -1.400745e+002
      vertex  7.290880e+003  3.422302e+003 -1.474559e+002
    endloop
  endfacet
  facet normal -5.877873e-001  0.000000e+000  8.090156e-001
    outer loop
      vertex  7.290880e+003  3.422302e+003 -1.474559e+002
      vertex  7.301040e+003  3.452302e+003 -1.400745e+002
      vertex  7.290880e+003  3.452302e+003 -1.474559e+002
    endloop
  endfacet
  facet normal -6.845540e-001  0.000000e+000  7.289622e-001
    outer loop
      vertex  7.290880e+003  3.422302e+003 -1.474559e+002
      vertex  7.290880e+003  3.452302e+003 -1.474559e+002
      vertex  7.281726e+003  3.422302e+003 -1.560526e+002
    endloop
  endfacet
  facet normal -6.845540e-001  0.000000e+000  7.289622e-001
    outer loop
      vertex  7.281726e+003  3.422302e+003 -1.560526e+002
      vertex  7.290880e+003  3.452302e+003 -1.474559e+002
      vertex  7.281726e+003  3.452302e+003 -1.560526e+002
    endloop
  endfacet
  facet normal -7.705112e-001  0.000000e+000  6.374264e-001
    outer loop
      vertex  7.281726e+003  3.422302e+003 -1.560526e+002
      vertex  7.281726e+003  3.452302e+003 -1.560526e+002
      vertex  7.273721e+003  3.422302e+003 -1.657287e+002
    endloop
  endfacet
  facet normal -7.705112e-001  0.000000e+000  6.374264e-001
    outer loop
      vertex  7.273721e+003  3.422302e+003 -1.657287e+002
      vertex  7.281726e+003  3.452302e+003 -1.560526e+002
      vertex  7.273721e+003  3.452302e+003 -1.657287e+002
    endloop
  endfacet
  facet normal -8.443269e-001  0.000000e+000  5.358286e-001
    outer loop
      vertex  7.273721e+003  3.422302e+003 -1.657287e+002
      vertex  7.273721e+003  3.452302e+003 -1.657287e+002
      vertex  7.266992e+003  3.422302e+003 -1.763319e+002
    endloop
  endfacet
  facet normal -8.443269e-001  0.000000e+000  5.358286e-001
    outer loop
      vertex  7.266992e+003  3.422302e+003 -1.763319e+002
      vertex  7.273721e+003  3.452302e+003 -1.657287e+002
      vertex  7.266992e+003  3.452302e+003 -1.763319e+002
    endloop
  endfacet
  facet normal -9.048214e-001  0.000000e+000  4.257914e-001
    outer loop
      vertex  7.266992e+003  3.422302e+003 -1.763319e+002
      vertex  7.266992e+003  3.452302e+003 -1.763319e+002
      vertex  7.261645e+003  3.422302e+003 -1.876948e+002
    endloop
  endfacet
  facet normal -9.048214e-001  0.000000e+000  4.257914e-001
    outer loop
      vertex  7.261645e+003  3.422302e+003 -1.876948e+002
      vertex  7.266992e+003  3.452302e+003 -1.763319e+002
      vertex  7.261645e+003  3.452302e+003 -1.876948e+002
    endloop
  endfacet
  facet normal -9.510635e-001  0.000000e+000  3.089957e-001
    outer loop
      vertex  7.261645e+003  3.422302e+003 -1.876948e+002
      vertex  7.261645e+003  3.452302e+003 -1.876948e+002
      vertex  7.257764e+003  3.422302e+003 -1.996383e+002
    endloop
  endfacet
  facet normal -9.510635e-001  0.000000e+000  3.089957e-001
    outer loop
      vertex  7.257764e+003  3.422302e+003 -1.996383e+002
      vertex  7.261645e+003  3.452302e+003 -1.876948e+002
      vertex  7.257764e+003  3.452302e+003 -1.996383e+002
    endloop
  endfacet
  facet normal -9.822819e-001  0.000000e+000  1.874091e-001
    outer loop
      vertex  7.257764e+003  3.422302e+003 -1.996383e+002
      vertex  7.257764e+003  3.452302e+003 -1.996383e+002
      vertex  7.255411e+003  3.422302e+003 -2.119739e+002
    endloop
  endfacet
  facet normal -9.822819e-001  0.000000e+000  1.874091e-001
    outer loop
      vertex  7.255411e+003  3.422302e+003 -2.119739e+002
      vertex  7.257764e+003  3.452302e+003 -1.996383e+002
      vertex  7.255411e+003  3.452302e+003 -2.119739e+002
    endloop
  endfacet
  facet normal -9.980265e-001  0.000000e+000  6.279403e-002
    outer loop
      vertex  7.255411e+003  3.422302e+003 -2.119739e+002
      vertex  7.255411e+003  3.452302e+003 -2.119739e+002
      vertex  7.254622e+003  3.422302e+003 -2.245073e+002
    endloop
  endfacet
  facet normal -9.980265e-001  0.000000e+000  6.279403e-002
    outer loop
      vertex  7.254622e+003  3.422302e+003 -2.245073e+002
      vertex  7.255411e+003  3.452302e+003 -2.119739e+002
      vertex  7.254622e+003  3.452302e+003 -2.245073e+002
    endloop
  endfacet
  facet normal  0.000000e+000  0.000000e+000  1.000000e+000
    outer loop
      vertex  7.479622e+003  3.422302e+003 -3.345073e+002
      vertex  7.479622e+003  3.322302e+003 -3.345073e+002
      vertex  7.604622e+003  3.422302e+003 -3.345073e+002
    endloop
  endfacet
  facet normal  0.000000e+000  0.000000e+000  1.000000e+000
    outer loop
      vertex  7.604622e+003  3.422302e+003 -3.345073e+002
      vertex  7.479622e+003  3.322302e+003 -3.345073e+002
      vertex  7.604622e+003  3.322302e+003 -3.345073e+002
    endloop
  endfacet
  facet normal  1.000000e+000  0.000000e+000  0.000000e+000
    outer loop
      vertex  7.604622e+003  3.422302e+003 -3.745073e+002
      vertex  7.604622e+003  3.422302e+003 -3.345073e+002
      vertex  7.604622e+003  3.322302e+003 -3.745073e+002
    endloop
  endfacet
  facet normal  1.000000e+000  0.000000e+000  0.000000e+000
    outer loop
      vertex  7.604622e+003  3.322302e+003 -3.745073e+002
      vertex  7.604622e+003  3.422302e+003 -3.345073e+002
      vertex  7.604622e+003  3.322302e+003 -3.345073e+002
    endloop
  endfacet
  facet normal  0.000000e+000  0.000000e+000 -1.000000e+000
    outer loop
      vertex  7.604622e+003  3.422302e+003 -3.745073e+002
      vertex  7.604622e+003  3.322302e+003 -3.745073e+002
      vertex  7.104622e+003  3.422302e+003 -3.745073e+002
    endloop
  endfacet
  facet normal  0.000000e+000  0.000000e+000 -1.000000e+000
    outer loop
      vertex  7.104622e+003  3.422302e+003 -3.745073e+002
      vertex  7.604622e+003  3.322302e+003 -3.745073e+002
      vertex  7.104622e+003  3.322302e+003 -3.745073e+002
    endloop
  endfacet
  facet normal -1.000000e+000  0.000000e+000  0.000000e+000
    outer loop
      vertex  7.104622e+003  3.422302e+003 -3.345073e+002
      vertex  7.104622e+003  3.422302e+003 -3.745073e+002
      vertex  7.104622e+003  3.322302e+003 -3.345073e+002
    endloop
  endfacet
  facet normal -1.000000e+000  0.000000e+000  0.000000e+000
    outer loop
      vertex  7.104622e+003  3.322302e+003 -3.345073e+002
      vertex  7.104622e+003  3.422302e+003 -3.745073e+002
      vertex  7.104622e+003  3.322302e+003 -3.745073e+002
    endloop
  endfacet
  facet normal  0.000000e+000  0.000000e+000  1.000000e+000
    outer loop
      vertex  7.104622e+003  3.422302e+003 -3.345073e+002
      vertex  7.104622e+003  3.322302e+003 -3.345073e+002
      vertex  7.229622e+003  3.422302e+003 -3.345073e+002
    endloop
  endfacet
  facet normal  0.000000e+000  0.000000e+000  1.000000e+000
    outer loop
      vertex  7.229622e+003  3.422302e+003 -3.345073e+002
      vertex  7.104622e+003  3.322302e+003 -3.345073e+002
      vertex  7.229622e+003  3.322302e+003 -3.345073e+002
    endloop
  endfacet
  facet normal  1.000000e+000  -0.000000e+000  0.000000e+000
    outer loop
      vertex  7.479622e+003  3.422302e+003 -1.145073e+002
      vertex  7.479622e+003  3.322302e+003 -1.145073e+002
      vertex  7.479622e+003  3.422302e+003 -3.345073e+002
    endloop
  endfacet
  facet normal  1.000000e+000  0.000000e+000  0.000000e+000
    outer loop
      vertex  7.479622e+003  3.422302e+003 -3.345073e+002
      vertex  7.479622e+003  3.322302e+003 -1.145073e+002
      vertex  7.479622e+003  3.322302e+003 -3.345073e+002
    endloop
  endfacet
  facet normal  0.000000e+000  1.000000e+000  0.000000e+000
    outer loop
      vertex  7.604622e+003  3.422302e+003 -3.745073e+002
      vertex  7.104622e+003  3.422302e+003 -3.745073e+002
      vertex  7.104622e+003  3.422302e+003 -3.345073e+002
    endloop
  endfacet
  facet normal  -0.000000e+000  1.000000e+000  0.000000e+000
    outer loop
      vertex  7.604622e+003  3.422302e+003 -3.745073e+002
      vertex  7.104622e+003  3.422302e+003 -3.345073e+002
      vertex  7.229622e+003  3.422302e+003 -3.345073e+002
    endloop
  endfacet
  facet normal  -0.000000e+000  1.000000e+000  0.000000e+000
    outer loop
      vertex  7.604622e+003  3.422302e+003 -3.745073e+002
      vertex  7.229622e+003  3.422302e+003 -3.345073e+002
      vertex  7.348343e+003  3.422302e+003 -3.243099e+002
    endloop
  endfacet
  facet normal  -0.000000e+000  1.000000e+000  0.000000e+000
    outer loop
      vertex  7.604622e+003  3.422302e+003 -3.745073e+002
      vertex  7.348343e+003  3.422302e+003 -3.243099e+002
      vertex  7.360901e+003  3.422302e+003 -3.243099e+002
    endloop
  endfacet
  facet normal  0.000000e+000  9.999999e-001  0.000000e+000
    outer loop
      vertex  7.604622e+003  3.422302e+003 -3.745073e+002
      vertex  7.360901e+003  3.422302e+003 -3.243099e+002
      vertex  7.479622e+003  3.422302e+003 -3.345073e+002
    endloop
  endfacet
  facet normal  -0.000000e+000  1.000000e+000  0.000000e+000
    outer loop
      vertex  7.604622e+003  3.422302e+003 -3.745073e+002
      vertex  7.479622e+003  3.422302e+003 -3.345073e+002
      vertex  7.604622e+003  3.422302e+003 -3.345073e+002
    endloop
  endfacet
  facet normal  0.000000e+000  1.000000e+000  -0.000000e+000
    outer loop
      vertex  7.479622e+003  3.422302e+003 -1.145073e+002
      vertex  7.479622e+003  3.422302e+003 -3.345073e+002
      vertex  7.451480e+003  3.422302e+003 -1.996383e+002
    endloop
  endfacet
  facet normal  0.000000e+000  1.000000e+000  -0.000000e+000
    outer loop
      vertex  7.479622e+003  3.422302e+003 -1.145073e+002
      vertex  7.451480e+003  3.422302e+003 -1.996383e+002
      vertex  7.447600e+003  3.422302e+003 -1.876948e+002
    endloop
  endfacet
  facet normal  0.000000e+000  9.999999e-001  -0.000000e+000
    outer loop
      vertex  7.479622e+003  3.422302e+003 -1.145073e+002
      vertex  7.447600e+003  3.422302e+003 -1.876948e+002
      vertex  7.442253e+003  3.422302e+003 -1.763319e+002
    endloop
  endfacet
  facet normal  0.000000e+000  1.000000e+000  -0.000000e+000
    outer loop
      vertex  7.479622e+003  3.422302e+003 -1.145073e+002
      vertex  7.442253e+003  3.422302e+003 -1.763319e+002
      vertex  7.435524e+003  3.422302e+003 -1.657287e+002
    endloop
  endfacet
  facet normal  0.000000e+000  1.000000e+000  -0.000000e+000
    outer loop
      vertex  7.479622e+003  3.422302e+003 -1.145073e+002
      vertex  7.435524e+003  3.422302e+003 -1.657287e+002
      vertex  7.427519e+003  3.422302e+003 -1.560526e+002
    endloop
  endfacet
  facet normal  0.000000e+000  1.000000e+000  -0.000000e+000
    outer loop
      vertex  7.479622e+003  3.422302e+003 -1.145073e+002
      vertex  7.427519e+003  3.422302e+003 -1.560526e+002
      vertex  7.418365e+003  3.422302e+003 -1.474559e+002
    endloop
  endfacet
  facet normal  0.000000e+000  1.000000e+000  -0.000000e+000
    outer loop
      vertex  7.479622e+003  3.422302e+003 -1.145073e+002
      vertex  7.418365e+003  3.422302e+003 -1.474559e+002
      vertex  7.408205e+003  3.422302e+003 -1.400745e+002
    endloop
  endfacet
  facet normal  0.000000e+000  1.000000e+000  -0.000000e+000
    outer loop
      vertex  7.479622e+003  3.422302e+003 -1.145073e+002
      vertex  7.408205e+003  3.422302e+003 -1.400745e+002
      vertex  7.397200e+003  3.422302e+003 -1.340246e+002
    endloop
  endfacet
  facet normal  0.000000e+000  1.000000e+000  -0.000000e+000
    outer loop
      vertex  7.479622e+003  3.422302e+003 -1.145073e+002
      vertex  7.397200e+003  3.422302e+003 -1.340246e+002
      vertex  7.385524e+003  3.422302e+003 -1.294016e+002
    endloop
  endfacet
  facet normal  0.000000e+000  1.000000e+000  -0.000000e+000
    outer loop
      vertex  7.479622e+003  3.422302e+003 -1.145073e+002
      vertex  7.385524e+003  3.422302e+003 -1.294016e+002
      vertex  7.373360e+003  3.422302e+003 -1.262785e+002
    endloop
  endfacet
  facet normal  0.000000e+000  1.000000e+000  -0.000000e+000
    outer loop
      vertex  7.479622e+003  3.422302e+003 -1.145073e+002
      vertex  7.373360e+003  3.422302e+003 -1.262785e+002
      vertex  7.360901e+003  3.422302e+003 -1.247046e+002
    endloop
  endfacet
  facet normal  0.000000e+000  1.000000e+000  -0.000000e+000
    outer loop
      vertex  7.479622e+003  3.422302e+003 -1.145073e+002
      vertex  7.360901e+003  3.422302e+003 -1.247046e+002
      vertex  7.348343e+003  3.422302e+003 -1.247046e+002
    endloop
  endfacet
  facet normal  0.000000e+000  1.000000e+000  -0.000000e+000
    outer loop
      vertex  7.479622e+003  3.422302e+003 -1.145073e+002
      vertex  7.348343e+003  3.422302e+003 -1.247046e+002
      vertex  7.229622e+003  3.422302e+003 -1.145073e+002
    endloop
  endfacet
  facet normal  -0.000000e+000  1.000000e+000  0.000000e+000
    outer loop
      vertex  7.479622e+003  3.422302e+003 -3.345073e+002
      vertex  7.360901e+003  3.422302e+003 -3.243099e+002
      vertex  7.373360e+003  3.422302e+003 -3.227360e+002
    endloop
  endfacet
  facet normal  -0.000000e+000  1.000000e+000  0.000000e+000
    outer loop
      vertex  7.479622e+003  3.422302e+003 -3.345073e+002
      vertex  7.373360e+003  3.422302e+003 -3.227360e+002
      vertex  7.385524e+003  3.422302e+003 -3.196129e+002
    endloop
  endfacet
  facet normal  -0.000000e+000  1.000000e+000  0.000000e+000
    outer loop
      vertex  7.479622e+003  3.422302e+003 -3.345073e+002
      vertex  7.385524e+003  3.422302e+003 -3.196129e+002
      vertex  7.397200e+003  3.422302e+003 -3.149900e+002
    endloop
  endfacet
  facet normal  -0.000000e+000  1.000000e+000  0.000000e+000
    outer loop
      vertex  7.479622e+003  3.422302e+003 -3.345073e+002
      vertex  7.397200e+003  3.422302e+003 -3.149900e+002
      vertex  7.408205e+003  3.422302e+003 -3.089401e+002
    endloop
  endfacet
  facet normal  -0.000000e+000  1.000000e+000  0.000000e+000
    outer loop
      vertex  7.479622e+003  3.422302e+003 -3.345073e+002
      vertex  7.408205e+003  3.422302e+003 -3.089401e+002
      vertex  7.418365e+003  3.422302e+003 -3.015586e+002
    endloop
  endfacet
  facet normal  -0.000000e+000  1.000000e+000  0.000000e+000
    outer loop
      vertex  7.479622e+003  3.422302e+003 -3.345073e+002
      vertex  7.418365e+003  3.422302e+003 -3.015586e+002
      vertex  7.427519e+003  3.422302e+003 -2.929620e+002
    endloop
  endfacet
  facet normal  -0.000000e+000  1.000000e+000  0.000000e+000
    outer loop
      vertex  7.479622e+003  3.422302e+003 -3.345073e+002
      vertex  7.427519e+003  3.422302e+003 -2.929620e+002
      vertex  7.435524e+003  3.422302e+003 -2.832858e+002
    endloop
  endfacet
  facet normal  -0.000000e+000  1.000000e+000  0.000000e+000
    outer loop
      vertex  7.479622e+003  3.422302e+003 -3.345073e+002
      vertex  7.435524e+003  3.422302e+003 -2.832858e+002
      vertex  7.442253e+003  3.422302e+003 -2.726826e+002
    endloop
  endfacet
  facet normal  -0.000000e+000  1.000000e+000  0.000000e+000
    outer loop
      vertex  7.479622e+003  3.422302e+003 -3.345073e+002
      vertex  7.442253e+003  3.422302e+003 -2.726826e+002
      vertex  7.447600e+003  3.422302e+003 -2.613197e+002
    endloop
  endfacet
  facet normal  -0.000000e+000  1.000000e+000  0.000000e+000
    outer loop
      vertex  7.479622e+003  3.422302e+003 -3.345073e+002
      vertex  7.447600e+003  3.422302e+003 -2.613197e+002
      vertex  7.451480e+003  3.422302e+003 -2.493763e+002
    endloop
  endfacet
  facet normal  -0.000000e+000  1.000000e+000  0.000000e+000
    outer loop
      vertex  7.479622e+003  3.422302e+003 -3.345073e+002
      vertex  7.451480e+003  3.422302e+003 -2.493763e+002
      vertex  7.453834e+003  3.422302e+003 -2.370406e+002
    endloop
  endfacet
  facet normal  -0.000000e+000  1.000000e+000  0.000000e+000
    outer loop
      vertex  7.479622e+003  3.422302e+003 -3.345073e+002
      vertex  7.453834e+003  3.422302e+003 -2.370406e+002
      vertex  7.454622e+003  3.422302e+003 -2.245073e+002
    endloop
  endfacet
  facet normal  -0.000000e+000  1.000000e+000  -0.000000e+000
    outer loop
      vertex  7.479622e+003  3.422302e+003 -3.345073e+002
      vertex  7.454622e+003  3.422302e+003 -2.245073e+002
      vertex  7.453834e+003  3.422302e+003 -2.119739e+002
    endloop
  endfacet
  facet normal  -0.000000e+000  1.000000e+000  -0.000000e+000
    outer loop
      vertex  7.479622e+003  3.422302e+003 -3.345073e+002
      vertex  7.453834e+003  3.422302e+003 -2.119739e+002
      vertex  7.451480e+003  3.422302e+003 -1.996383e+002
    endloop
  endfacet
  facet normal  0.000000e+000  1.000000e+000  0.000000e+000
    outer loop
      vertex  7.229622e+003  3.422302e+003 -3.345073e+002
      vertex  7.257764e+003  3.422302e+003 -1.996383e+002
      vertex  7.255411e+003  3.422302e+003 -2.119739e+002
    endloop
  endfacet
  facet normal  0.000000e+000  1.000000e+000  0.000000e+000
    outer loop
      vertex  7.229622e+003  3.422302e+003 -3.345073e+002
      vertex  7.255411e+003  3.422302e+003 -2.119739e+002
      vertex  7.254622e+003  3.422302e+003 -2.245073e+002
    endloop
  endfacet
  facet normal  0.000000e+000  1.000000e+000  0.000000e+000
    outer loop
      vertex  7.229622e+003  3.422302e+003 -3.345073e+002
      vertex  7.254622e+003  3.422302e+003 -2.245073e+002
      vertex  7.255411e+003  3.422302e+003 -2.370406e+002
    endloop
  endfacet
  facet normal  0.000000e+000  1.000000e+000  0.000000e+000
    outer loop
      vertex  7.229622e+003  3.422302e+003 -3.345073e+002
      vertex  7.255411e+003  3.422302e+003 -2.370406e+002
      vertex  7.257764e+003  3.422302e+003 -2.493763e+002
    endloop
  endfacet
  facet normal  0.000000e+000  1.000000e+000  0.000000e+000
    outer loop
      vertex  7.229622e+003  3.422302e+003 -3.345073e+002
      vertex  7.257764e+003  3.422302e+003 -2.493763e+002
      vertex  7.261645e+003  3.422302e+003 -2.613197e+002
    endloop
  endfacet
  facet normal  0.000000e+000  1.000000e+000  0.000000e+000
    outer loop
      vertex  7.229622e+003  3.422302e+003 -3.345073e+002
      vertex  7.261645e+003  3.422302e+003 -2.613197e+002
      vertex  7.266992e+003  3.422302e+003 -2.726826e+002
    endloop
  endfacet
  facet normal  0.000000e+000  1.000000e+000  0.000000e+000
    outer loop
      vertex  7.229622e+003  3.422302e+003 -3.345073e+002
      vertex  7.266992e+003  3.422302e+003 -2.726826e+002
      vertex  7.273721e+003  3.422302e+003 -2.832858e+002
    endloop
  endfacet
  facet normal  0.000000e+000  1.000000e+000  0.000000e+000
    outer loop
      vertex  7.229622e+003  3.422302e+003 -3.345073e+002
      vertex  7.273721e+003  3.422302e+003 -2.832858e+002
      vertex  7.281726e+003  3.422302e+003 -2.929620e+002
    endloop
  endfacet
  facet normal  0.000000e+000  1.000000e+000  0.000000e+000
    outer loop
      vertex  7.229622e+003  3.422302e+003 -3.345073e+002
      vertex  7.281726e+003  3.422302e+003 -2.929620e+002
      vertex  7.290880e+003  3.422302e+003 -3.015586e+002
    endloop
  endfacet
  facet normal  0.000000e+000  1.000000e+000  0.000000e+000
    outer loop
      vertex  7.229622e+003  3.422302e+003 -3.345073e+002
      vertex  7.290880e+003  3.422302e+003 -3.015586e+002
      vertex  7.301040e+003  3.422302e+003 -3.089401e+002
    endloop
  endfacet
  facet normal  0.000000e+000  1.000000e+000  0.000000e+000
    outer loop
      vertex  7.229622e+003  3.422302e+003 -3.345073e+002
      vertex  7.301040e+003  3.422302e+003 -3.089401e+002
      vertex  7.312044e+003  3.422302e+003 -3.149900e+002
    endloop
  endfacet
  facet normal  0.000000e+000  1.000000e+000  0.000000e+000
    outer loop
      vertex  7.229622e+003  3.422302e+003 -3.345073e+002
      vertex  7.312044e+003  3.422302e+003 -3.149900e+002
      vertex  7.323721e+003  3.422302e+003 -3.196129e+002
    endloop
  endfacet
  facet normal  0.000000e+000  1.000000e+000  0.000000e+000
    outer loop
      vertex  7.229622e+003  3.422302e+003 -3.345073e+002
      vertex  7.323721e+003  3.422302e+003 -3.196129e+002
      vertex  7.335884e+003  3.422302e+003 -3.227360e+002
    endloop
  endfacet
  facet normal  0.000000e+000  1.000000e+000  0.000000e+000
    outer loop
      vertex  7.229622e+003  3.422302e+003 -3.345073e+002
      vertex  7.335884e+003  3.422302e+003 -3.227360e+002
      vertex  7.348343e+003  3.422302e+003 -3.243099e+002
    endloop
  endfacet
  facet normal  0.000000e+000  1.000000e+000  0.000000e+000
    outer loop
      vertex  7.229622e+003  3.422302e+003 -1.145073e+002
      vertex  7.348343e+003  3.422302e+003 -1.247046e+002
      vertex  7.335884e+003  3.422302e+003 -1.262785e+002
    endloop
  endfacet
  facet normal  0.000000e+000  1.000000e+000  0.000000e+000
    outer loop
      vertex  7.229622e+003  3.422302e+003 -1.145073e+002
      vertex  7.335884e+003  3.422302e+003 -1.262785e+002
      vertex  7.323721e+003  3.422302e+003 -1.294016e+002
    endloop
  endfacet
  facet normal  0.000000e+000  1.000000e+000  0.000000e+000
    outer loop
      vertex  7.229622e+003  3.422302e+003 -1.145073e+002
      vertex  7.323721e+003  3.422302e+003 -1.294016e+002
      vertex  7.312044e+003  3.422302e+003 -1.340246e+002
    endloop
  endfacet
  facet normal  0.000000e+000  1.000000e+000  0.000000e+000
    outer loop
      vertex  7.229622e+003  3.422302e+003 -1.145073e+002
      vertex  7.312044e+003  3.422302e+003 -1.340246e+002
      vertex  7.301040e+003  3.422302e+003 -1.400745e+002
    endloop
  endfacet
  facet normal  0.000000e+000  1.000000e+000  0.000000e+000
    outer loop
      vertex  7.229622e+003  3.422302e+003 -1.145073e+002
      vertex  7.301040e+003  3.422302e+003 -1.400745e+002
      vertex  7.290880e+003  3.422302e+003 -1.474559e+002
    endloop
  endfacet
  facet normal  0.000000e+000  1.000000e+000  0.000000e+000
    outer loop
      vertex  7.229622e+003  3.422302e+003 -1.145073e+002
      vertex  7.290880e+003  3.422302e+003 -1.474559e+002
      vertex  7.281726e+003  3.422302e+003 -1.560526e+002
    endloop
  endfacet
  facet normal  0.000000e+000  1.000000e+000  0.000000e+000
    outer loop
      vertex  7.229622e+003  3.422302e+003 -1.145073e+002
      vertex  7.281726e+003  3.422302e+003 -1.560526e+002
      vertex  7.273721e+003  3.422302e+003 -1.657287e+002
    endloop
  endfacet
  facet normal  0.000000e+000  9.999999e-001  0.000000e+000
    outer loop
      vertex  7.229622e+003  3.422302e+003 -1.145073e+002
      vertex  7.273721e+003  3.422302e+003 -1.657287e+002
      vertex  7.266992e+003  3.422302e+003 -1.763319e+002
    endloop
  endfacet
  facet normal  0.000000e+000  1.000000e+000  0.000000e+000
    outer loop
      vertex  7.229622e+003  3.422302e+003 -1.145073e+002
      vertex  7.266992e+003  3.422302e+003 -1.763319e+002
      vertex  7.261645e+003  3.422302e+003 -1.876948e+002
    endloop
  endfacet
  facet normal  0.000000e+000  1.000000e+000  0.000000e+000
    outer loop
      vertex  7.229622e+003  3.422302e+003 -1.145073e+002
      vertex  7.261645e+003  3.422302e+003 -1.876948e+002
      vertex  7.257764e+003  3.422302e+003 -1.996383e+002
    endloop
  endfacet
  facet normal  0.000000e+000  1.000000e+000  0.000000e+000
    outer loop
      vertex  7.229622e+003  3.422302e+003 -1.145073e+002
      vertex  7.257764e+003  3.422302e+003 -1.996383e+002
      vertex  7.229622e+003  3.422302e+003 -3.345073e+002
    endloop
  endfacet
  facet normal -1.000000e+000  0.000000e+000  0.000000e+000
    outer loop
      vertex  7.229622e+003  3.422302e+003 -3.345073e+002
      vertex  7.229622e+003  3.322302e+003 -3.345073e+002
      vertex  7.229622e+003  3.422302e+003 -1.145073e+002
    endloop
  endfacet
  facet normal -1.000000e+000  -0.000000e+000  0.000000e+000
    outer loop
      vertex  7.229622e+003  3.422302e+003 -1.145073e+002
      vertex  7.229622e+003  3.322302e+003 -3.345073e+002
      vertex  7.229622e+003  3.322302e+003 -1.145073e+002
    endloop
  endfacet
  facet normal  0.000000e+000 -1.000000e+000  0.000000e+000
    outer loop
      vertex  7.104622e+003  3.322302e+003 -3.745073e+002
      vertex  7.604622e+003  3.322302e+003 -3.745073e+002
      vertex  7.604622e+003  3.322302e+003 -3.345073e+002
    endloop
  endfacet
  facet normal  -0.000000e+000 -1.000000e+000  0.000000e+000
    outer loop
      vertex  7.104622e+003  3.322302e+003 -3.745073e+002
      vertex  7.604622e+003  3.322302e+003 -3.345073e+002
      vertex  7.479622e+003  3.322302e+003 -3.345073e+002
    endloop
  endfacet
  facet normal  -0.000000e+000 -1.000000e+000  0.000000e+000
    outer loop
      vertex  7.104622e+003  3.322302e+003 -3.745073e+002
      vertex  7.479622e+003  3.322302e+003 -3.345073e+002
      vertex  7.229622e+003  3.322302e+003 -3.345073e+002
    endloop
  endfacet
  facet normal  -0.000000e+000 -1.000000e+000  0.000000e+000
    outer loop
      vertex  7.104622e+003  3.322302e+003 -3.745073e+002
      vertex  7.229622e+003  3.322302e+003 -3.345073e+002
      vertex  7.104622e+003  3.322302e+003 -3.345073e+002
    endloop
  endfacet
  facet normal  0.000000e+000 -1.000000e+000  0.000000e+000
    outer loop
      vertex  7.229622e+003  3.322302e+003 -3.345073e+002
      vertex  7.479622e+003  3.322302e+003 -3.345073e+002
      vertex  7.229622e+003  3.322302e+003 -1.145073e+002
    endloop
  endfacet
  facet normal  0.000000e+000 -1.000000e+000  0.000000e+000
    outer loop
      vertex  7.229622e+003  3.322302e+003 -1.145073e+002
      vertex  7.479622e+003  3.322302e+003 -3.345073e+002
      vertex  7.479622e+003  3.322302e+003 -1.145073e+002
    endloop
  endfacet
  facet normal  0.000000e+000  0.000000e+000  1.000000e+000
    outer loop
      vertex  7.229622e+003  3.422302e+003 -1.145073e+002
      vertex  7.229622e+003  3.322302e+003 -1.145073e+002
      vertex  7.479622e+003  3.422302e+003 -1.145073e+002
    endloop
  endfacet
  facet normal  0.000000e+000  0.000000e+000  1.000000e+000
    outer loop
      vertex  7.479622e+003  3.422302e+003 -1.145073e+002
      vertex  7.229622e+003  3.322302e+003 -1.145073e+002
      vertex  7.479622e+003  3.322302e+003 -1.145073e+002
    endloop
  endfacet
endsolid CATIA STL
