solid solPla1
   facet normal -0.000000e+00 8.128467e-01 5.824777e-01
      outer loop
         vertex 1.000000e-01 1.498873e-01 8.653750e-02
         vertex -1.000000e-01 1.498873e-01 8.653750e-02
         vertex -1.000000e-01 1.301247e-01 1.141163e-01
      endloop
   endfacet
   facet normal -0.000000e+00 8.128467e-01 5.824777e-01
      outer loop
         vertex 1.000000e-01 1.498873e-01 8.653750e-02
         vertex -1.000000e-01 1.301247e-01 1.141163e-01
         vertex 1.000000e-01 1.301247e-01 1.141163e-01
      endloop
   endfacet
   facet normal -0.000000e+00 6.835923e-01 7.298641e-01
      outer loop
         vertex 1.000000e-01 1.301247e-01 1.141163e-01
         vertex -1.000000e-01 1.301247e-01 1.141163e-01
         vertex -1.000000e-01 1.053614e-01 1.373096e-01
      endloop
   endfacet
   facet normal -0.000000e+00 6.835923e-01 7.298641e-01
      outer loop
         vertex 1.000000e-01 1.301247e-01 1.141163e-01
         vertex -1.000000e-01 1.053614e-01 1.373096e-01
         vertex 1.000000e-01 1.053614e-01 1.373096e-01
      endloop
   endfacet
   facet normal -0.000000e+00 5.280679e-01 8.492022e-01
      outer loop
         vertex 1.000000e-01 1.053614e-01 1.373096e-01
         vertex -1.000000e-01 1.053614e-01 1.373096e-01
         vertex -1.000000e-01 7.654912e-02 1.552262e-01
      endloop
   endfacet
   facet normal -0.000000e+00 5.280679e-01 8.492022e-01
      outer loop
         vertex 1.000000e-01 1.053614e-01 1.373096e-01
         vertex -1.000000e-01 7.654912e-02 1.552262e-01
         vertex 1.000000e-01 7.654912e-02 1.552262e-01
      endloop
   endfacet
   facet normal -0.000000e+00 3.522500e-01 9.359059e-01
      outer loop
         vertex 1.000000e-01 7.654912e-02 1.552262e-01
         vertex -1.000000e-01 7.654912e-02 1.552262e-01
         vertex -1.000000e-01 4.479511e-02 1.671776e-01
      endloop
   endfacet
   facet normal -0.000000e+00 3.522500e-01 9.359059e-01
      outer loop
         vertex 1.000000e-01 7.654912e-02 1.552262e-01
         vertex -1.000000e-01 4.479511e-02 1.671776e-01
         vertex 1.000000e-01 4.479511e-02 1.671776e-01
      endloop
   endfacet
   facet normal -0.000000e+00 1.628955e-01 9.866433e-01
      outer loop
         vertex 1.000000e-01 4.479511e-02 1.671776e-01
         vertex -1.000000e-01 4.479511e-02 1.671776e-01
         vertex -1.000000e-01 1.131965e-02 1.727044e-01
      endloop
   endfacet
   facet normal -0.000000e+00 1.628955e-01 9.866433e-01
      outer loop
         vertex 1.000000e-01 4.479511e-02 1.671776e-01
         vertex -1.000000e-01 1.131965e-02 1.727044e-01
         vertex 1.000000e-01 1.131965e-02 1.727044e-01
      endloop
   endfacet
   facet normal -0.000000e+00 -3.271908e-02 9.994646e-01
      outer loop
         vertex 1.000000e-01 1.131965e-02 1.727044e-01
         vertex -1.000000e-01 1.131965e-02 1.727044e-01
         vertex -1.000000e-01 -2.259082e-02 1.715943e-01
      endloop
   endfacet
   facet normal -0.000000e+00 -3.271908e-02 9.994646e-01
      outer loop
         vertex 1.000000e-01 1.131965e-02 1.727044e-01
         vertex -1.000000e-01 -2.259082e-02 1.715943e-01
         vertex 1.000000e-01 -2.259082e-02 1.715943e-01
      endloop
   endfacet
   facet normal -0.000000e+00 -2.270763e-01 9.738770e-01
      outer loop
         vertex 1.000000e-01 -2.259082e-02 1.715943e-01
         vertex -1.000000e-01 -2.259082e-02 1.715943e-01
         vertex -1.000000e-01 -5.563314e-02 1.638899e-01
      endloop
   endfacet
   facet normal -0.000000e+00 -2.270763e-01 9.738770e-01
      outer loop
         vertex 1.000000e-01 -2.259082e-02 1.715943e-01
         vertex -1.000000e-01 -5.563314e-02 1.638899e-01
         vertex 1.000000e-01 -5.563314e-02 1.638899e-01
      endloop
   endfacet
   facet normal -0.000000e+00 -4.127070e-01 9.108638e-01
      outer loop
         vertex 1.000000e-01 -5.563314e-02 1.638899e-01
         vertex -1.000000e-01 -5.563314e-02 1.638899e-01
         vertex -1.000000e-01 -8.653750e-02 1.498873e-01
      endloop
   endfacet
   facet normal -0.000000e+00 -4.127070e-01 9.108638e-01
      outer loop
         vertex 1.000000e-01 -5.563314e-02 1.638899e-01
         vertex -1.000000e-01 -8.653750e-02 1.498873e-01
         vertex 1.000000e-01 -8.653750e-02 1.498873e-01
      endloop
   endfacet
   facet normal -0.000000e+00 -5.824777e-01 8.128467e-01
      outer loop
         vertex 1.000000e-01 -8.653750e-02 1.498873e-01
         vertex -1.000000e-01 -8.653750e-02 1.498873e-01
         vertex -1.000000e-01 -1.141163e-01 1.301247e-01
      endloop
   endfacet
   facet normal -0.000000e+00 -5.824777e-01 8.128467e-01
      outer loop
         vertex 1.000000e-01 -8.653750e-02 1.498873e-01
         vertex -1.000000e-01 -1.141163e-01 1.301247e-01
         vertex 1.000000e-01 -1.141163e-01 1.301247e-01
      endloop
   endfacet
   facet normal -0.000000e+00 -7.298641e-01 6.835923e-01
      outer loop
         vertex 1.000000e-01 -1.141163e-01 1.301247e-01
         vertex -1.000000e-01 -1.141163e-01 1.301247e-01
         vertex -1.000000e-01 -1.373096e-01 1.053614e-01
      endloop
   endfacet
   facet normal -0.000000e+00 -7.298641e-01 6.835923e-01
      outer loop
         vertex 1.000000e-01 -1.141163e-01 1.301247e-01
         vertex -1.000000e-01 -1.373096e-01 1.053614e-01
         vertex 1.000000e-01 -1.373096e-01 1.053614e-01
      endloop
   endfacet
   facet normal -0.000000e+00 -8.492022e-01 5.280679e-01
      outer loop
         vertex 1.000000e-01 -1.373096e-01 1.053614e-01
         vertex -1.000000e-01 -1.373096e-01 1.053614e-01
         vertex -1.000000e-01 -1.552262e-01 7.654912e-02
      endloop
   endfacet
   facet normal -0.000000e+00 -8.492022e-01 5.280679e-01
      outer loop
         vertex 1.000000e-01 -1.373096e-01 1.053614e-01
         vertex -1.000000e-01 -1.552262e-01 7.654912e-02
         vertex 1.000000e-01 -1.552262e-01 7.654912e-02
      endloop
   endfacet
   facet normal -0.000000e+00 -9.359059e-01 3.522500e-01
      outer loop
         vertex 1.000000e-01 -1.552262e-01 7.654912e-02
         vertex -1.000000e-01 -1.552262e-01 7.654912e-02
         vertex -1.000000e-01 -1.671776e-01 4.479511e-02
      endloop
   endfacet
   facet normal -0.000000e+00 -9.359059e-01 3.522500e-01
      outer loop
         vertex 1.000000e-01 -1.552262e-01 7.654912e-02
         vertex -1.000000e-01 -1.671776e-01 4.479511e-02
         vertex 1.000000e-01 -1.671776e-01 4.479511e-02
      endloop
   endfacet
   facet normal -0.000000e+00 -9.866433e-01 1.628955e-01
      outer loop
         vertex 1.000000e-01 -1.671776e-01 4.479511e-02
         vertex -1.000000e-01 -1.671776e-01 4.479511e-02
         vertex -1.000000e-01 -1.727044e-01 1.131965e-02
      endloop
   endfacet
   facet normal -0.000000e+00 -9.866433e-01 1.628955e-01
      outer loop
         vertex 1.000000e-01 -1.671776e-01 4.479511e-02
         vertex -1.000000e-01 -1.727044e-01 1.131965e-02
         vertex 1.000000e-01 -1.727044e-01 1.131965e-02
      endloop
   endfacet
   facet normal 0.000000e+00 -9.994646e-01 -3.271908e-02
      outer loop
         vertex 1.000000e-01 -1.727044e-01 1.131965e-02
         vertex -1.000000e-01 -1.727044e-01 1.131965e-02
         vertex -1.000000e-01 -1.715943e-01 -2.259082e-02
      endloop
   endfacet
   facet normal 0.000000e+00 -9.994646e-01 -3.271908e-02
      outer loop
         vertex 1.000000e-01 -1.727044e-01 1.131965e-02
         vertex -1.000000e-01 -1.715943e-01 -2.259082e-02
         vertex 1.000000e-01 -1.715943e-01 -2.259082e-02
      endloop
   endfacet
   facet normal 0.000000e+00 -9.738770e-01 -2.270763e-01
      outer loop
         vertex 1.000000e-01 -1.715943e-01 -2.259082e-02
         vertex -1.000000e-01 -1.715943e-01 -2.259082e-02
         vertex -1.000000e-01 -1.638899e-01 -5.563314e-02
      endloop
   endfacet
   facet normal 0.000000e+00 -9.738770e-01 -2.270763e-01
      outer loop
         vertex 1.000000e-01 -1.715943e-01 -2.259082e-02
         vertex -1.000000e-01 -1.638899e-01 -5.563314e-02
         vertex 1.000000e-01 -1.638899e-01 -5.563314e-02
      endloop
   endfacet
   facet normal 0.000000e+00 -9.108638e-01 -4.127070e-01
      outer loop
         vertex 1.000000e-01 -1.638899e-01 -5.563314e-02
         vertex -1.000000e-01 -1.638899e-01 -5.563314e-02
         vertex -1.000000e-01 -1.498873e-01 -8.653750e-02
      endloop
   endfacet
   facet normal 0.000000e+00 -9.108638e-01 -4.127070e-01
      outer loop
         vertex 1.000000e-01 -1.638899e-01 -5.563314e-02
         vertex -1.000000e-01 -1.498873e-01 -8.653750e-02
         vertex 1.000000e-01 -1.498873e-01 -8.653750e-02
      endloop
   endfacet
   facet normal -1.000000e+00 1.060540e-16 6.123032e-17
      outer loop
         vertex -1.000000e-01 1.638899e-01 5.563314e-02
         vertex -1.000000e-01 1.715943e-01 2.259082e-02
         vertex -1.000000e-01 1.727044e-01 -1.131965e-02
      endloop
   endfacet
   facet normal -1.000000e+00 1.060540e-16 6.123032e-17
      outer loop
         vertex -1.000000e-01 1.638899e-01 5.563314e-02
         vertex -1.000000e-01 1.727044e-01 -1.131965e-02
         vertex -1.000000e-01 1.671776e-01 -4.479511e-02
      endloop
   endfacet
   facet normal -1.000000e+00 1.060540e-16 6.123032e-17
      outer loop
         vertex -1.000000e-01 1.638899e-01 5.563314e-02
         vertex -1.000000e-01 1.671776e-01 -4.479511e-02
         vertex -1.000000e-01 1.552262e-01 -7.654912e-02
      endloop
   endfacet
   facet normal -1.000000e+00 1.060540e-16 6.123032e-17
      outer loop
         vertex -1.000000e-01 1.638899e-01 5.563314e-02
         vertex -1.000000e-01 1.552262e-01 -7.654912e-02
         vertex -1.000000e-01 1.373096e-01 -1.053614e-01
      endloop
   endfacet
   facet normal -1.000000e+00 1.060540e-16 6.123032e-17
      outer loop
         vertex -1.000000e-01 1.638899e-01 5.563314e-02
         vertex -1.000000e-01 1.373096e-01 -1.053614e-01
         vertex -1.000000e-01 1.141163e-01 -1.301247e-01
      endloop
   endfacet
   facet normal -1.000000e+00 1.060540e-16 6.123032e-17
      outer loop
         vertex -1.000000e-01 1.638899e-01 5.563314e-02
         vertex -1.000000e-01 1.141163e-01 -1.301247e-01
         vertex -1.000000e-01 8.653750e-02 -1.498873e-01
      endloop
   endfacet
   facet normal -1.000000e+00 1.060540e-16 6.123032e-17
      outer loop
         vertex -1.000000e-01 1.638899e-01 5.563314e-02
         vertex -1.000000e-01 8.653750e-02 -1.498873e-01
         vertex -1.000000e-01 5.563314e-02 -1.638899e-01
      endloop
   endfacet
   facet normal -1.000000e+00 1.060540e-16 6.123032e-17
      outer loop
         vertex -1.000000e-01 1.638899e-01 5.563314e-02
         vertex -1.000000e-01 5.563314e-02 -1.638899e-01
         vertex -1.000000e-01 2.259082e-02 -1.715943e-01
      endloop
   endfacet
   facet normal -1.000000e+00 1.060540e-16 6.123032e-17
      outer loop
         vertex -1.000000e-01 1.638899e-01 5.563314e-02
         vertex -1.000000e-01 2.259082e-02 -1.715943e-01
         vertex -1.000000e-01 -1.131965e-02 -1.727044e-01
      endloop
   endfacet
   facet normal -1.000000e+00 1.060540e-16 6.123032e-17
      outer loop
         vertex -1.000000e-01 1.638899e-01 5.563314e-02
         vertex -1.000000e-01 -1.131965e-02 -1.727044e-01
         vertex -1.000000e-01 -4.479511e-02 -1.671776e-01
      endloop
   endfacet
   facet normal -1.000000e+00 1.060540e-16 6.123032e-17
      outer loop
         vertex -1.000000e-01 1.638899e-01 5.563314e-02
         vertex -1.000000e-01 -4.479511e-02 -1.671776e-01
         vertex -1.000000e-01 -7.654912e-02 -1.552262e-01
      endloop
   endfacet
   facet normal -1.000000e+00 1.060540e-16 6.123032e-17
      outer loop
         vertex -1.000000e-01 1.638899e-01 5.563314e-02
         vertex -1.000000e-01 -7.654912e-02 -1.552262e-01
         vertex -1.000000e-01 -1.053614e-01 -1.373096e-01
      endloop
   endfacet
   facet normal -1.000000e+00 1.060540e-16 6.123032e-17
      outer loop
         vertex -1.000000e-01 1.638899e-01 5.563314e-02
         vertex -1.000000e-01 -1.053614e-01 -1.373096e-01
         vertex -1.000000e-01 -1.301247e-01 -1.141163e-01
      endloop
   endfacet
   facet normal -1.000000e+00 1.060540e-16 6.123032e-17
      outer loop
         vertex -1.000000e-01 1.638899e-01 5.563314e-02
         vertex -1.000000e-01 -1.301247e-01 -1.141163e-01
         vertex -1.000000e-01 -1.498873e-01 -8.653750e-02
      endloop
   endfacet
   facet normal -1.000000e+00 1.060540e-16 6.123032e-17
      outer loop
         vertex -1.000000e-01 1.638899e-01 5.563314e-02
         vertex -1.000000e-01 -1.498873e-01 -8.653750e-02
         vertex -1.000000e-01 -1.638899e-01 -5.563314e-02
      endloop
   endfacet
   facet normal -1.000000e+00 1.060540e-16 6.123032e-17
      outer loop
         vertex -1.000000e-01 1.638899e-01 5.563314e-02
         vertex -1.000000e-01 -1.638899e-01 -5.563314e-02
         vertex -1.000000e-01 -1.715943e-01 -2.259082e-02
      endloop
   endfacet
   facet normal -1.000000e+00 1.060540e-16 6.123032e-17
      outer loop
         vertex -1.000000e-01 1.638899e-01 5.563314e-02
         vertex -1.000000e-01 -1.715943e-01 -2.259082e-02
         vertex -1.000000e-01 -1.727044e-01 1.131965e-02
      endloop
   endfacet
   facet normal -1.000000e+00 1.060540e-16 6.123032e-17
      outer loop
         vertex -1.000000e-01 1.638899e-01 5.563314e-02
         vertex -1.000000e-01 -1.727044e-01 1.131965e-02
         vertex -1.000000e-01 -1.671776e-01 4.479511e-02
      endloop
   endfacet
   facet normal -1.000000e+00 1.060540e-16 6.123032e-17
      outer loop
         vertex -1.000000e-01 1.638899e-01 5.563314e-02
         vertex -1.000000e-01 -1.671776e-01 4.479511e-02
         vertex -1.000000e-01 -1.552262e-01 7.654912e-02
      endloop
   endfacet
   facet normal -1.000000e+00 1.060540e-16 6.123032e-17
      outer loop
         vertex -1.000000e-01 1.638899e-01 5.563314e-02
         vertex -1.000000e-01 -1.552262e-01 7.654912e-02
         vertex -1.000000e-01 -1.373096e-01 1.053614e-01
      endloop
   endfacet
   facet normal -1.000000e+00 1.060540e-16 6.123032e-17
      outer loop
         vertex -1.000000e-01 1.638899e-01 5.563314e-02
         vertex -1.000000e-01 -1.373096e-01 1.053614e-01
         vertex -1.000000e-01 -1.141163e-01 1.301247e-01
      endloop
   endfacet
   facet normal -1.000000e+00 1.060540e-16 6.123032e-17
      outer loop
         vertex -1.000000e-01 1.638899e-01 5.563314e-02
         vertex -1.000000e-01 -1.141163e-01 1.301247e-01
         vertex -1.000000e-01 -8.653750e-02 1.498873e-01
      endloop
   endfacet
   facet normal -1.000000e+00 1.060540e-16 6.123032e-17
      outer loop
         vertex -1.000000e-01 1.638899e-01 5.563314e-02
         vertex -1.000000e-01 -8.653750e-02 1.498873e-01
         vertex -1.000000e-01 -5.563314e-02 1.638899e-01
      endloop
   endfacet
   facet normal -1.000000e+00 1.060540e-16 6.123032e-17
      outer loop
         vertex -1.000000e-01 1.638899e-01 5.563314e-02
         vertex -1.000000e-01 -5.563314e-02 1.638899e-01
         vertex -1.000000e-01 -2.259082e-02 1.715943e-01
      endloop
   endfacet
   facet normal -1.000000e+00 1.060540e-16 6.123032e-17
      outer loop
         vertex -1.000000e-01 1.638899e-01 5.563314e-02
         vertex -1.000000e-01 -2.259082e-02 1.715943e-01
         vertex -1.000000e-01 1.131965e-02 1.727044e-01
      endloop
   endfacet
   facet normal -1.000000e+00 1.060540e-16 6.123032e-17
      outer loop
         vertex -1.000000e-01 1.638899e-01 5.563314e-02
         vertex -1.000000e-01 1.131965e-02 1.727044e-01
         vertex -1.000000e-01 4.479511e-02 1.671776e-01
      endloop
   endfacet
   facet normal -1.000000e+00 1.060540e-16 6.123032e-17
      outer loop
         vertex -1.000000e-01 1.638899e-01 5.563314e-02
         vertex -1.000000e-01 4.479511e-02 1.671776e-01
         vertex -1.000000e-01 7.654912e-02 1.552262e-01
      endloop
   endfacet
   facet normal -1.000000e+00 1.060540e-16 6.123032e-17
      outer loop
         vertex -1.000000e-01 1.638899e-01 5.563314e-02
         vertex -1.000000e-01 7.654912e-02 1.552262e-01
         vertex -1.000000e-01 1.053614e-01 1.373096e-01
      endloop
   endfacet
   facet normal -1.000000e+00 1.060540e-16 6.123032e-17
      outer loop
         vertex -1.000000e-01 1.638899e-01 5.563314e-02
         vertex -1.000000e-01 1.053614e-01 1.373096e-01
         vertex -1.000000e-01 1.301247e-01 1.141163e-01
      endloop
   endfacet
   facet normal -1.000000e+00 1.060540e-16 6.123032e-17
      outer loop
         vertex -1.000000e-01 1.638899e-01 5.563314e-02
         vertex -1.000000e-01 1.301247e-01 1.141163e-01
         vertex -1.000000e-01 1.498873e-01 8.653750e-02
      endloop
   endfacet
   facet normal 0.000000e+00 -8.128467e-01 -5.824777e-01
      outer loop
         vertex 1.000000e-01 -1.498873e-01 -8.653750e-02
         vertex -1.000000e-01 -1.498873e-01 -8.653750e-02
         vertex -1.000000e-01 -1.301247e-01 -1.141163e-01
      endloop
   endfacet
   facet normal 0.000000e+00 -8.128467e-01 -5.824777e-01
      outer loop
         vertex 1.000000e-01 -1.498873e-01 -8.653750e-02
         vertex -1.000000e-01 -1.301247e-01 -1.141163e-01
         vertex 1.000000e-01 -1.301247e-01 -1.141163e-01
      endloop
   endfacet
   facet normal 0.000000e+00 -6.835923e-01 -7.298641e-01
      outer loop
         vertex 1.000000e-01 -1.301247e-01 -1.141163e-01
         vertex -1.000000e-01 -1.301247e-01 -1.141163e-01
         vertex -1.000000e-01 -1.053614e-01 -1.373096e-01
      endloop
   endfacet
   facet normal 0.000000e+00 -6.835923e-01 -7.298641e-01
      outer loop
         vertex 1.000000e-01 -1.301247e-01 -1.141163e-01
         vertex -1.000000e-01 -1.053614e-01 -1.373096e-01
         vertex 1.000000e-01 -1.053614e-01 -1.373096e-01
      endloop
   endfacet
   facet normal 0.000000e+00 -5.280679e-01 -8.492022e-01
      outer loop
         vertex 1.000000e-01 -1.053614e-01 -1.373096e-01
         vertex -1.000000e-01 -1.053614e-01 -1.373096e-01
         vertex -1.000000e-01 -7.654912e-02 -1.552262e-01
      endloop
   endfacet
   facet normal 0.000000e+00 -5.280679e-01 -8.492022e-01
      outer loop
         vertex 1.000000e-01 -1.053614e-01 -1.373096e-01
         vertex -1.000000e-01 -7.654912e-02 -1.552262e-01
         vertex 1.000000e-01 -7.654912e-02 -1.552262e-01
      endloop
   endfacet
   facet normal 0.000000e+00 -3.522500e-01 -9.359059e-01
      outer loop
         vertex 1.000000e-01 -7.654912e-02 -1.552262e-01
         vertex -1.000000e-01 -7.654912e-02 -1.552262e-01
         vertex -1.000000e-01 -4.479511e-02 -1.671776e-01
      endloop
   endfacet
   facet normal 0.000000e+00 -3.522500e-01 -9.359059e-01
      outer loop
         vertex 1.000000e-01 -7.654912e-02 -1.552262e-01
         vertex -1.000000e-01 -4.479511e-02 -1.671776e-01
         vertex 1.000000e-01 -4.479511e-02 -1.671776e-01
      endloop
   endfacet
   facet normal 0.000000e+00 -1.628955e-01 -9.866433e-01
      outer loop
         vertex 1.000000e-01 -4.479511e-02 -1.671776e-01
         vertex -1.000000e-01 -4.479511e-02 -1.671776e-01
         vertex -1.000000e-01 -1.131965e-02 -1.727044e-01
      endloop
   endfacet
   facet normal 0.000000e+00 -1.628955e-01 -9.866433e-01
      outer loop
         vertex 1.000000e-01 -4.479511e-02 -1.671776e-01
         vertex -1.000000e-01 -1.131965e-02 -1.727044e-01
         vertex 1.000000e-01 -1.131965e-02 -1.727044e-01
      endloop
   endfacet
   facet normal -0.000000e+00 3.271908e-02 -9.994646e-01
      outer loop
         vertex 1.000000e-01 -1.131965e-02 -1.727044e-01
         vertex -1.000000e-01 -1.131965e-02 -1.727044e-01
         vertex -1.000000e-01 2.259082e-02 -1.715943e-01
      endloop
   endfacet
   facet normal -0.000000e+00 3.271908e-02 -9.994646e-01
      outer loop
         vertex 1.000000e-01 -1.131965e-02 -1.727044e-01
         vertex -1.000000e-01 2.259082e-02 -1.715943e-01
         vertex 1.000000e-01 2.259082e-02 -1.715943e-01
      endloop
   endfacet
   facet normal -0.000000e+00 2.270763e-01 -9.738770e-01
      outer loop
         vertex 1.000000e-01 2.259082e-02 -1.715943e-01
         vertex -1.000000e-01 2.259082e-02 -1.715943e-01
         vertex -1.000000e-01 5.563314e-02 -1.638899e-01
      endloop
   endfacet
   facet normal -0.000000e+00 2.270763e-01 -9.738770e-01
      outer loop
         vertex 1.000000e-01 2.259082e-02 -1.715943e-01
         vertex -1.000000e-01 5.563314e-02 -1.638899e-01
         vertex 1.000000e-01 5.563314e-02 -1.638899e-01
      endloop
   endfacet
   facet normal -0.000000e+00 4.127070e-01 -9.108638e-01
      outer loop
         vertex 1.000000e-01 5.563314e-02 -1.638899e-01
         vertex -1.000000e-01 5.563314e-02 -1.638899e-01
         vertex -1.000000e-01 8.653750e-02 -1.498873e-01
      endloop
   endfacet
   facet normal -0.000000e+00 4.127070e-01 -9.108638e-01
      outer loop
         vertex 1.000000e-01 5.563314e-02 -1.638899e-01
         vertex -1.000000e-01 8.653750e-02 -1.498873e-01
         vertex 1.000000e-01 8.653750e-02 -1.498873e-01
      endloop
   endfacet
   facet normal -0.000000e+00 5.824777e-01 -8.128467e-01
      outer loop
         vertex 1.000000e-01 8.653750e-02 -1.498873e-01
         vertex -1.000000e-01 8.653750e-02 -1.498873e-01
         vertex -1.000000e-01 1.141163e-01 -1.301247e-01
      endloop
   endfacet
   facet normal -0.000000e+00 5.824777e-01 -8.128467e-01
      outer loop
         vertex 1.000000e-01 8.653750e-02 -1.498873e-01
         vertex -1.000000e-01 1.141163e-01 -1.301247e-01
         vertex 1.000000e-01 1.141163e-01 -1.301247e-01
      endloop
   endfacet
   facet normal -0.000000e+00 7.298641e-01 -6.835923e-01
      outer loop
         vertex 1.000000e-01 1.141163e-01 -1.301247e-01
         vertex -1.000000e-01 1.141163e-01 -1.301247e-01
         vertex -1.000000e-01 1.373096e-01 -1.053614e-01
      endloop
   endfacet
   facet normal -0.000000e+00 7.298641e-01 -6.835923e-01
      outer loop
         vertex 1.000000e-01 1.141163e-01 -1.301247e-01
         vertex -1.000000e-01 1.373096e-01 -1.053614e-01
         vertex 1.000000e-01 1.373096e-01 -1.053614e-01
      endloop
   endfacet
   facet normal -0.000000e+00 8.492022e-01 -5.280679e-01
      outer loop
         vertex 1.000000e-01 1.373096e-01 -1.053614e-01
         vertex -1.000000e-01 1.373096e-01 -1.053614e-01
         vertex -1.000000e-01 1.552262e-01 -7.654912e-02
      endloop
   endfacet
   facet normal -0.000000e+00 8.492022e-01 -5.280679e-01
      outer loop
         vertex 1.000000e-01 1.373096e-01 -1.053614e-01
         vertex -1.000000e-01 1.552262e-01 -7.654912e-02
         vertex 1.000000e-01 1.552262e-01 -7.654912e-02
      endloop
   endfacet
   facet normal -0.000000e+00 9.359059e-01 -3.522500e-01
      outer loop
         vertex 1.000000e-01 1.552262e-01 -7.654912e-02
         vertex -1.000000e-01 1.552262e-01 -7.654912e-02
         vertex -1.000000e-01 1.671776e-01 -4.479511e-02
      endloop
   endfacet
   facet normal -0.000000e+00 9.359059e-01 -3.522500e-01
      outer loop
         vertex 1.000000e-01 1.552262e-01 -7.654912e-02
         vertex -1.000000e-01 1.671776e-01 -4.479511e-02
         vertex 1.000000e-01 1.671776e-01 -4.479511e-02
      endloop
   endfacet
   facet normal -0.000000e+00 9.866433e-01 -1.628955e-01
      outer loop
         vertex 1.000000e-01 1.671776e-01 -4.479511e-02
         vertex -1.000000e-01 1.671776e-01 -4.479511e-02
         vertex -1.000000e-01 1.727044e-01 -1.131965e-02
      endloop
   endfacet
   facet normal -0.000000e+00 9.866433e-01 -1.628955e-01
      outer loop
         vertex 1.000000e-01 1.671776e-01 -4.479511e-02
         vertex -1.000000e-01 1.727044e-01 -1.131965e-02
         vertex 1.000000e-01 1.727044e-01 -1.131965e-02
      endloop
   endfacet
   facet normal -0.000000e+00 9.994646e-01 3.271908e-02
      outer loop
         vertex 1.000000e-01 1.727044e-01 -1.131965e-02
         vertex -1.000000e-01 1.727044e-01 -1.131965e-02
         vertex -1.000000e-01 1.715943e-01 2.259082e-02
      endloop
   endfacet
   facet normal -0.000000e+00 9.994646e-01 3.271908e-02
      outer loop
         vertex 1.000000e-01 1.727044e-01 -1.131965e-02
         vertex -1.000000e-01 1.715943e-01 2.259082e-02
         vertex 1.000000e-01 1.715943e-01 2.259082e-02
      endloop
   endfacet
   facet normal -0.000000e+00 9.738770e-01 2.270763e-01
      outer loop
         vertex 1.000000e-01 1.715943e-01 2.259082e-02
         vertex -1.000000e-01 1.715943e-01 2.259082e-02
         vertex -1.000000e-01 1.638899e-01 5.563314e-02
      endloop
   endfacet
   facet normal -0.000000e+00 9.738770e-01 2.270763e-01
      outer loop
         vertex 1.000000e-01 1.715943e-01 2.259082e-02
         vertex -1.000000e-01 1.638899e-01 5.563314e-02
         vertex 1.000000e-01 1.638899e-01 5.563314e-02
      endloop
   endfacet
   facet normal -0.000000e+00 9.108638e-01 4.127070e-01
      outer loop
         vertex 1.000000e-01 1.638899e-01 5.563314e-02
         vertex -1.000000e-01 1.638899e-01 5.563314e-02
         vertex -1.000000e-01 1.498873e-01 8.653750e-02
      endloop
   endfacet
   facet normal -0.000000e+00 9.108638e-01 4.127070e-01
      outer loop
         vertex 1.000000e-01 1.638899e-01 5.563314e-02
         vertex -1.000000e-01 1.498873e-01 8.653750e-02
         vertex 1.000000e-01 1.498873e-01 8.653750e-02
      endloop
   endfacet
   facet normal 1.000000e+00 0.000000e+00 0.000000e+00
      outer loop
         vertex 1.000000e-01 -1.301247e-01 -1.141163e-01
         vertex 1.000000e-01 -1.053614e-01 -1.373096e-01
         vertex 1.000000e-01 -7.654912e-02 -1.552262e-01
      endloop
   endfacet
   facet normal 1.000000e+00 0.000000e+00 0.000000e+00
      outer loop
         vertex 1.000000e-01 -1.301247e-01 -1.141163e-01
         vertex 1.000000e-01 -7.654912e-02 -1.552262e-01
         vertex 1.000000e-01 -4.479511e-02 -1.671776e-01
      endloop
   endfacet
   facet normal 1.000000e+00 0.000000e+00 0.000000e+00
      outer loop
         vertex 1.000000e-01 -1.301247e-01 -1.141163e-01
         vertex 1.000000e-01 -4.479511e-02 -1.671776e-01
         vertex 1.000000e-01 -1.131965e-02 -1.727044e-01
      endloop
   endfacet
   facet normal 1.000000e+00 0.000000e+00 0.000000e+00
      outer loop
         vertex 1.000000e-01 -1.301247e-01 -1.141163e-01
         vertex 1.000000e-01 -1.131965e-02 -1.727044e-01
         vertex 1.000000e-01 2.259082e-02 -1.715943e-01
      endloop
   endfacet
   facet normal 1.000000e+00 0.000000e+00 0.000000e+00
      outer loop
         vertex 1.000000e-01 -1.301247e-01 -1.141163e-01
         vertex 1.000000e-01 2.259082e-02 -1.715943e-01
         vertex 1.000000e-01 5.563314e-02 -1.638899e-01
      endloop
   endfacet
   facet normal 1.000000e+00 0.000000e+00 0.000000e+00
      outer loop
         vertex 1.000000e-01 -1.301247e-01 -1.141163e-01
         vertex 1.000000e-01 5.563314e-02 -1.638899e-01
         vertex 1.000000e-01 8.653750e-02 -1.498873e-01
      endloop
   endfacet
   facet normal 1.000000e+00 0.000000e+00 0.000000e+00
      outer loop
         vertex 1.000000e-01 -1.301247e-01 -1.141163e-01
         vertex 1.000000e-01 8.653750e-02 -1.498873e-01
         vertex 1.000000e-01 1.141163e-01 -1.301247e-01
      endloop
   endfacet
   facet normal 1.000000e+00 0.000000e+00 0.000000e+00
      outer loop
         vertex 1.000000e-01 -1.301247e-01 -1.141163e-01
         vertex 1.000000e-01 1.141163e-01 -1.301247e-01
         vertex 1.000000e-01 1.373096e-01 -1.053614e-01
      endloop
   endfacet
   facet normal 1.000000e+00 0.000000e+00 0.000000e+00
      outer loop
         vertex 1.000000e-01 -1.301247e-01 -1.141163e-01
         vertex 1.000000e-01 1.373096e-01 -1.053614e-01
         vertex 1.000000e-01 1.552262e-01 -7.654912e-02
      endloop
   endfacet
   facet normal 1.000000e+00 0.000000e+00 0.000000e+00
      outer loop
         vertex 1.000000e-01 -1.301247e-01 -1.141163e-01
         vertex 1.000000e-01 1.552262e-01 -7.654912e-02
         vertex 1.000000e-01 1.671776e-01 -4.479511e-02
      endloop
   endfacet
   facet normal 1.000000e+00 0.000000e+00 0.000000e+00
      outer loop
         vertex 1.000000e-01 -1.301247e-01 -1.141163e-01
         vertex 1.000000e-01 1.671776e-01 -4.479511e-02
         vertex 1.000000e-01 1.727044e-01 -1.131965e-02
      endloop
   endfacet
   facet normal 1.000000e+00 0.000000e+00 0.000000e+00
      outer loop
         vertex 1.000000e-01 -1.301247e-01 -1.141163e-01
         vertex 1.000000e-01 1.727044e-01 -1.131965e-02
         vertex 1.000000e-01 1.715943e-01 2.259082e-02
      endloop
   endfacet
   facet normal 1.000000e+00 0.000000e+00 0.000000e+00
      outer loop
         vertex 1.000000e-01 -1.301247e-01 -1.141163e-01
         vertex 1.000000e-01 1.715943e-01 2.259082e-02
         vertex 1.000000e-01 1.638899e-01 5.563314e-02
      endloop
   endfacet
   facet normal 1.000000e+00 0.000000e+00 0.000000e+00
      outer loop
         vertex 1.000000e-01 -1.301247e-01 -1.141163e-01
         vertex 1.000000e-01 1.638899e-01 5.563314e-02
         vertex 1.000000e-01 1.498873e-01 8.653750e-02
      endloop
   endfacet
   facet normal 1.000000e+00 0.000000e+00 0.000000e+00
      outer loop
         vertex 1.000000e-01 -1.301247e-01 -1.141163e-01
         vertex 1.000000e-01 1.498873e-01 8.653750e-02
         vertex 1.000000e-01 1.301247e-01 1.141163e-01
      endloop
   endfacet
   facet normal 1.000000e+00 0.000000e+00 0.000000e+00
      outer loop
         vertex 1.000000e-01 -1.301247e-01 -1.141163e-01
         vertex 1.000000e-01 1.301247e-01 1.141163e-01
         vertex 1.000000e-01 1.053614e-01 1.373096e-01
      endloop
   endfacet
   facet normal 1.000000e+00 0.000000e+00 0.000000e+00
      outer loop
         vertex 1.000000e-01 -1.301247e-01 -1.141163e-01
         vertex 1.000000e-01 1.053614e-01 1.373096e-01
         vertex 1.000000e-01 7.654912e-02 1.552262e-01
      endloop
   endfacet
   facet normal 1.000000e+00 0.000000e+00 0.000000e+00
      outer loop
         vertex 1.000000e-01 -1.301247e-01 -1.141163e-01
         vertex 1.000000e-01 7.654912e-02 1.552262e-01
         vertex 1.000000e-01 4.479511e-02 1.671776e-01
      endloop
   endfacet
   facet normal 1.000000e+00 0.000000e+00 0.000000e+00
      outer loop
         vertex 1.000000e-01 -1.301247e-01 -1.141163e-01
         vertex 1.000000e-01 4.479511e-02 1.671776e-01
         vertex 1.000000e-01 1.131965e-02 1.727044e-01
      endloop
   endfacet
   facet normal 1.000000e+00 0.000000e+00 0.000000e+00
      outer loop
         vertex 1.000000e-01 -1.301247e-01 -1.141163e-01
         vertex 1.000000e-01 1.131965e-02 1.727044e-01
         vertex 1.000000e-01 -2.259082e-02 1.715943e-01
      endloop
   endfacet
   facet normal 1.000000e+00 0.000000e+00 0.000000e+00
      outer loop
         vertex 1.000000e-01 -1.301247e-01 -1.141163e-01
         vertex 1.000000e-01 -2.259082e-02 1.715943e-01
         vertex 1.000000e-01 -5.563314e-02 1.638899e-01
      endloop
   endfacet
   facet normal 1.000000e+00 0.000000e+00 0.000000e+00
      outer loop
         vertex 1.000000e-01 -1.301247e-01 -1.141163e-01
         vertex 1.000000e-01 -5.563314e-02 1.638899e-01
         vertex 1.000000e-01 -8.653750e-02 1.498873e-01
      endloop
   endfacet
   facet normal 1.000000e+00 0.000000e+00 0.000000e+00
      outer loop
         vertex 1.000000e-01 -1.301247e-01 -1.141163e-01
         vertex 1.000000e-01 -8.653750e-02 1.498873e-01
         vertex 1.000000e-01 -1.141163e-01 1.301247e-01
      endloop
   endfacet
   facet normal 1.000000e+00 0.000000e+00 0.000000e+00
      outer loop
         vertex 1.000000e-01 -1.301247e-01 -1.141163e-01
         vertex 1.000000e-01 -1.141163e-01 1.301247e-01
         vertex 1.000000e-01 -1.373096e-01 1.053614e-01
      endloop
   endfacet
   facet normal 1.000000e+00 0.000000e+00 0.000000e+00
      outer loop
         vertex 1.000000e-01 -1.301247e-01 -1.141163e-01
         vertex 1.000000e-01 -1.373096e-01 1.053614e-01
         vertex 1.000000e-01 -1.552262e-01 7.654912e-02
      endloop
   endfacet
   facet normal 1.000000e+00 0.000000e+00 0.000000e+00
      outer loop
         vertex 1.000000e-01 -1.301247e-01 -1.141163e-01
         vertex 1.000000e-01 -1.552262e-01 7.654912e-02
         vertex 1.000000e-01 -1.671776e-01 4.479511e-02
      endloop
   endfacet
   facet normal 1.000000e+00 0.000000e+00 0.000000e+00
      outer loop
         vertex 1.000000e-01 -1.301247e-01 -1.141163e-01
         vertex 1.000000e-01 -1.671776e-01 4.479511e-02
         vertex 1.000000e-01 -1.727044e-01 1.131965e-02
      endloop
   endfacet
   facet normal 1.000000e+00 0.000000e+00 0.000000e+00
      outer loop
         vertex 1.000000e-01 -1.301247e-01 -1.141163e-01
         vertex 1.000000e-01 -1.727044e-01 1.131965e-02
         vertex 1.000000e-01 -1.715943e-01 -2.259082e-02
      endloop
   endfacet
   facet normal 1.000000e+00 0.000000e+00 0.000000e+00
      outer loop
         vertex 1.000000e-01 -1.301247e-01 -1.141163e-01
         vertex 1.000000e-01 -1.715943e-01 -2.259082e-02
         vertex 1.000000e-01 -1.638899e-01 -5.563314e-02
      endloop
   endfacet
   facet normal 1.000000e+00 0.000000e+00 0.000000e+00
      outer loop
         vertex 1.000000e-01 -1.301247e-01 -1.141163e-01
         vertex 1.000000e-01 -1.638899e-01 -5.563314e-02
         vertex 1.000000e-01 -1.498873e-01 -8.653750e-02
      endloop
   endfacet
endsolid
