solid sol6
   facet normal 0.000000e+00 -9.951847e-01 -9.801714e-02
      outer loop
         vertex 2.000000e+00 -7.500000e-01 0.000000e+00
         vertex 1.000000e+00 -7.500000e-01 0.000000e+00
         vertex 1.000000e+00 -7.355890e-01 -1.463177e-01
      endloop
   endfacet
   facet normal 0.000000e+00 -9.951847e-01 -9.801714e-02
      outer loop
         vertex 2.000000e+00 -7.500000e-01 0.000000e+00
         vertex 1.000000e+00 -7.355890e-01 -1.463177e-01
         vertex 2.000000e+00 -7.355890e-01 -1.463177e-01
      endloop
   endfacet
   facet normal 0.000000e+00 -9.569403e-01 -2.902847e-01
      outer loop
         vertex 2.000000e+00 -7.355890e-01 -1.463177e-01
         vertex 1.000000e+00 -7.355890e-01 -1.463177e-01
         vertex 1.000000e+00 -6.929096e-01 -2.870126e-01
      endloop
   endfacet
   facet normal 0.000000e+00 -9.569403e-01 -2.902847e-01
      outer loop
         vertex 2.000000e+00 -7.355890e-01 -1.463177e-01
         vertex 1.000000e+00 -6.929096e-01 -2.870126e-01
         vertex 2.000000e+00 -6.929096e-01 -2.870126e-01
      endloop
   endfacet
   facet normal 0.000000e+00 -8.819213e-01 -4.713967e-01
      outer loop
         vertex 2.000000e+00 -6.929096e-01 -2.870126e-01
         vertex 1.000000e+00 -6.929096e-01 -2.870126e-01
         vertex 1.000000e+00 -6.236022e-01 -4.166777e-01
      endloop
   endfacet
   facet normal 0.000000e+00 -8.819213e-01 -4.713967e-01
      outer loop
         vertex 2.000000e+00 -6.929096e-01 -2.870126e-01
         vertex 1.000000e+00 -6.236022e-01 -4.166777e-01
         vertex 2.000000e+00 -6.236022e-01 -4.166777e-01
      endloop
   endfacet
   facet normal 0.000000e+00 -7.730105e-01 -6.343933e-01
      outer loop
         vertex 2.000000e+00 -6.236022e-01 -4.166777e-01
         vertex 1.000000e+00 -6.236022e-01 -4.166777e-01
         vertex 1.000000e+00 -5.303301e-01 -5.303301e-01
      endloop
   endfacet
   facet normal 0.000000e+00 -7.730105e-01 -6.343933e-01
      outer loop
         vertex 2.000000e+00 -6.236022e-01 -4.166777e-01
         vertex 1.000000e+00 -5.303301e-01 -5.303301e-01
         vertex 2.000000e+00 -5.303301e-01 -5.303301e-01
      endloop
   endfacet
   facet normal 0.000000e+00 -6.343933e-01 -7.730105e-01
      outer loop
         vertex 2.000000e+00 -5.303301e-01 -5.303301e-01
         vertex 1.000000e+00 -5.303301e-01 -5.303301e-01
         vertex 1.000000e+00 -4.166777e-01 -6.236022e-01
      endloop
   endfacet
   facet normal 0.000000e+00 -6.343933e-01 -7.730105e-01
      outer loop
         vertex 2.000000e+00 -5.303301e-01 -5.303301e-01
         vertex 1.000000e+00 -4.166777e-01 -6.236022e-01
         vertex 2.000000e+00 -4.166777e-01 -6.236022e-01
      endloop
   endfacet
   facet normal 0.000000e+00 -4.713967e-01 -8.819213e-01
      outer loop
         vertex 2.000000e+00 -4.166777e-01 -6.236022e-01
         vertex 1.000000e+00 -4.166777e-01 -6.236022e-01
         vertex 1.000000e+00 -2.870126e-01 -6.929096e-01
      endloop
   endfacet
   facet normal 0.000000e+00 -4.713967e-01 -8.819213e-01
      outer loop
         vertex 2.000000e+00 -4.166777e-01 -6.236022e-01
         vertex 1.000000e+00 -2.870126e-01 -6.929096e-01
         vertex 2.000000e+00 -2.870126e-01 -6.929096e-01
      endloop
   endfacet
   facet normal 0.000000e+00 -2.902847e-01 -9.569403e-01
      outer loop
         vertex 2.000000e+00 -2.870126e-01 -6.929096e-01
         vertex 1.000000e+00 -2.870126e-01 -6.929096e-01
         vertex 1.000000e+00 -1.463177e-01 -7.355890e-01
      endloop
   endfacet
   facet normal 0.000000e+00 -2.902847e-01 -9.569403e-01
      outer loop
         vertex 2.000000e+00 -2.870126e-01 -6.929096e-01
         vertex 1.000000e+00 -1.463177e-01 -7.355890e-01
         vertex 2.000000e+00 -1.463177e-01 -7.355890e-01
      endloop
   endfacet
   facet normal 0.000000e+00 -9.801714e-02 -9.951847e-01
      outer loop
         vertex 2.000000e+00 -1.463177e-01 -7.355890e-01
         vertex 1.000000e+00 -1.463177e-01 -7.355890e-01
         vertex 1.000000e+00 -6.249070e-17 -7.500000e-01
      endloop
   endfacet
   facet normal 0.000000e+00 -9.801714e-02 -9.951847e-01
      outer loop
         vertex 2.000000e+00 -1.463177e-01 -7.355890e-01
         vertex 1.000000e+00 -6.249070e-17 -7.500000e-01
         vertex 2.000000e+00 -6.249070e-17 -7.500000e-01
      endloop
   endfacet
   facet normal -0.000000e+00 9.801714e-02 -9.951847e-01
      outer loop
         vertex 2.000000e+00 -6.249070e-17 -7.500000e-01
         vertex 1.000000e+00 -6.249070e-17 -7.500000e-01
         vertex 1.000000e+00 1.463177e-01 -7.355890e-01
      endloop
   endfacet
   facet normal -0.000000e+00 9.801714e-02 -9.951847e-01
      outer loop
         vertex 2.000000e+00 -6.249070e-17 -7.500000e-01
         vertex 1.000000e+00 1.463177e-01 -7.355890e-01
         vertex 2.000000e+00 1.463177e-01 -7.355890e-01
      endloop
   endfacet
   facet normal -0.000000e+00 2.902847e-01 -9.569403e-01
      outer loop
         vertex 2.000000e+00 1.463177e-01 -7.355890e-01
         vertex 1.000000e+00 1.463177e-01 -7.355890e-01
         vertex 1.000000e+00 2.870126e-01 -6.929096e-01
      endloop
   endfacet
   facet normal -0.000000e+00 2.902847e-01 -9.569403e-01
      outer loop
         vertex 2.000000e+00 1.463177e-01 -7.355890e-01
         vertex 1.000000e+00 2.870126e-01 -6.929096e-01
         vertex 2.000000e+00 2.870126e-01 -6.929096e-01
      endloop
   endfacet
   facet normal -0.000000e+00 4.713967e-01 -8.819213e-01
      outer loop
         vertex 2.000000e+00 2.870126e-01 -6.929096e-01
         vertex 1.000000e+00 2.870126e-01 -6.929096e-01
         vertex 1.000000e+00 4.166777e-01 -6.236022e-01
      endloop
   endfacet
   facet normal -0.000000e+00 4.713967e-01 -8.819213e-01
      outer loop
         vertex 2.000000e+00 2.870126e-01 -6.929096e-01
         vertex 1.000000e+00 4.166777e-01 -6.236022e-01
         vertex 2.000000e+00 4.166777e-01 -6.236022e-01
      endloop
   endfacet
   facet normal -0.000000e+00 6.343933e-01 -7.730105e-01
      outer loop
         vertex 2.000000e+00 4.166777e-01 -6.236022e-01
         vertex 1.000000e+00 4.166777e-01 -6.236022e-01
         vertex 1.000000e+00 5.303301e-01 -5.303301e-01
      endloop
   endfacet
   facet normal -0.000000e+00 6.343933e-01 -7.730105e-01
      outer loop
         vertex 2.000000e+00 4.166777e-01 -6.236022e-01
         vertex 1.000000e+00 5.303301e-01 -5.303301e-01
         vertex 2.000000e+00 5.303301e-01 -5.303301e-01
      endloop
   endfacet
   facet normal -0.000000e+00 7.730105e-01 -6.343933e-01
      outer loop
         vertex 2.000000e+00 5.303301e-01 -5.303301e-01
         vertex 1.000000e+00 5.303301e-01 -5.303301e-01
         vertex 1.000000e+00 6.236022e-01 -4.166777e-01
      endloop
   endfacet
   facet normal -0.000000e+00 7.730105e-01 -6.343933e-01
      outer loop
         vertex 2.000000e+00 5.303301e-01 -5.303301e-01
         vertex 1.000000e+00 6.236022e-01 -4.166777e-01
         vertex 2.000000e+00 6.236022e-01 -4.166777e-01
      endloop
   endfacet
   facet normal -0.000000e+00 8.819213e-01 -4.713967e-01
      outer loop
         vertex 2.000000e+00 6.236022e-01 -4.166777e-01
         vertex 1.000000e+00 6.236022e-01 -4.166777e-01
         vertex 1.000000e+00 6.929096e-01 -2.870126e-01
      endloop
   endfacet
   facet normal -0.000000e+00 8.819213e-01 -4.713967e-01
      outer loop
         vertex 2.000000e+00 6.236022e-01 -4.166777e-01
         vertex 1.000000e+00 6.929096e-01 -2.870126e-01
         vertex 2.000000e+00 6.929096e-01 -2.870126e-01
      endloop
   endfacet
   facet normal -0.000000e+00 9.569403e-01 -2.902847e-01
      outer loop
         vertex 2.000000e+00 6.929096e-01 -2.870126e-01
         vertex 1.000000e+00 6.929096e-01 -2.870126e-01
         vertex 1.000000e+00 7.355890e-01 -1.463177e-01
      endloop
   endfacet
   facet normal -0.000000e+00 9.569403e-01 -2.902847e-01
      outer loop
         vertex 2.000000e+00 6.929096e-01 -2.870126e-01
         vertex 1.000000e+00 7.355890e-01 -1.463177e-01
         vertex 2.000000e+00 7.355890e-01 -1.463177e-01
      endloop
   endfacet
   facet normal -0.000000e+00 9.951847e-01 -9.801714e-02
      outer loop
         vertex 2.000000e+00 7.355890e-01 -1.463177e-01
         vertex 1.000000e+00 7.355890e-01 -1.463177e-01
         vertex 1.000000e+00 7.500000e-01 -8.414764e-17
      endloop
   endfacet
   facet normal -0.000000e+00 9.951847e-01 -9.801714e-02
      outer loop
         vertex 2.000000e+00 7.355890e-01 -1.463177e-01
         vertex 1.000000e+00 7.500000e-01 -8.414764e-17
         vertex 2.000000e+00 7.500000e-01 -8.414764e-17
      endloop
   endfacet
   facet normal -1.000000e+00 -1.224606e-16 0.000000e+00
      outer loop
         vertex 1.000000e+00 -7.765598e-18 7.500000e-01
         vertex 1.000000e+00 1.463177e-01 7.355890e-01
         vertex 1.000000e+00 -1.463177e-01 7.355890e-01
      endloop
   endfacet
   facet normal -1.000000e+00 -1.224606e-16 0.000000e+00
      outer loop
         vertex 1.000000e+00 1.463177e-01 7.355890e-01
         vertex 1.000000e+00 2.870126e-01 6.929096e-01
         vertex 1.000000e+00 -1.463177e-01 7.355890e-01
      endloop
   endfacet
   facet normal -1.000000e+00 -1.224606e-16 0.000000e+00
      outer loop
         vertex 1.000000e+00 -1.463177e-01 7.355890e-01
         vertex 1.000000e+00 2.870126e-01 6.929096e-01
         vertex 1.000000e+00 -2.870126e-01 6.929096e-01
      endloop
   endfacet
   facet normal -1.000000e+00 -1.224606e-16 0.000000e+00
      outer loop
         vertex 1.000000e+00 2.870126e-01 6.929096e-01
         vertex 1.000000e+00 4.166777e-01 6.236022e-01
         vertex 1.000000e+00 -2.870126e-01 6.929096e-01
      endloop
   endfacet
   facet normal -1.000000e+00 -1.224606e-16 0.000000e+00
      outer loop
         vertex 1.000000e+00 -2.870126e-01 6.929096e-01
         vertex 1.000000e+00 4.166777e-01 6.236022e-01
         vertex 1.000000e+00 -4.166777e-01 6.236022e-01
      endloop
   endfacet
   facet normal -1.000000e+00 -1.224606e-16 0.000000e+00
      outer loop
         vertex 1.000000e+00 4.166777e-01 6.236022e-01
         vertex 1.000000e+00 5.303301e-01 5.303301e-01
         vertex 1.000000e+00 -4.166777e-01 6.236022e-01
      endloop
   endfacet
   facet normal -1.000000e+00 -1.224606e-16 0.000000e+00
      outer loop
         vertex 1.000000e+00 -4.166777e-01 6.236022e-01
         vertex 1.000000e+00 5.303301e-01 5.303301e-01
         vertex 1.000000e+00 -5.303301e-01 5.303301e-01
      endloop
   endfacet
   facet normal -1.000000e+00 -1.224606e-16 0.000000e+00
      outer loop
         vertex 1.000000e+00 5.303301e-01 5.303301e-01
         vertex 1.000000e+00 6.236022e-01 4.166777e-01
         vertex 1.000000e+00 -5.303301e-01 5.303301e-01
      endloop
   endfacet
   facet normal -1.000000e+00 -1.224606e-16 0.000000e+00
      outer loop
         vertex 1.000000e+00 -5.303301e-01 5.303301e-01
         vertex 1.000000e+00 6.236022e-01 4.166777e-01
         vertex 1.000000e+00 -6.236022e-01 4.166777e-01
      endloop
   endfacet
   facet normal -1.000000e+00 -1.224606e-16 0.000000e+00
      outer loop
         vertex 1.000000e+00 6.236022e-01 4.166777e-01
         vertex 1.000000e+00 6.929096e-01 2.870126e-01
         vertex 1.000000e+00 -6.236022e-01 4.166777e-01
      endloop
   endfacet
   facet normal -1.000000e+00 -1.224606e-16 0.000000e+00
      outer loop
         vertex 1.000000e+00 -6.236022e-01 4.166777e-01
         vertex 1.000000e+00 6.929096e-01 2.870126e-01
         vertex 1.000000e+00 -6.929096e-01 2.870126e-01
      endloop
   endfacet
   facet normal -1.000000e+00 -1.224606e-16 0.000000e+00
      outer loop
         vertex 1.000000e+00 6.929096e-01 2.870126e-01
         vertex 1.000000e+00 7.355890e-01 1.463177e-01
         vertex 1.000000e+00 -6.929096e-01 2.870126e-01
      endloop
   endfacet
   facet normal -1.000000e+00 -1.224606e-16 0.000000e+00
      outer loop
         vertex 1.000000e+00 -6.929096e-01 2.870126e-01
         vertex 1.000000e+00 7.355890e-01 1.463177e-01
         vertex 1.000000e+00 -7.355890e-01 1.463177e-01
      endloop
   endfacet
   facet normal -1.000000e+00 -1.224606e-16 0.000000e+00
      outer loop
         vertex 1.000000e+00 7.355890e-01 1.463177e-01
         vertex 1.000000e+00 6.123032e-18 1.000000e-01
         vertex 1.000000e+00 -7.355890e-01 1.463177e-01
      endloop
   endfacet
   facet normal -1.000000e+00 -1.224606e-16 0.000000e+00
      outer loop
         vertex 1.000000e+00 -7.355890e-01 1.463177e-01
         vertex 1.000000e+00 6.123032e-18 1.000000e-01
         vertex 1.000000e+00 -1.950903e-02 9.807853e-02
      endloop
   endfacet
   facet normal -1.000000e+00 -1.224606e-16 0.000000e+00
      outer loop
         vertex 1.000000e+00 7.355890e-01 1.463177e-01
         vertex 1.000000e+00 7.500000e-01 -4.202639e-17
         vertex 1.000000e+00 9.807853e-02 1.950903e-02
      endloop
   endfacet
   facet normal -1.000000e+00 -1.224606e-16 0.000000e+00
      outer loop
         vertex 1.000000e+00 7.355890e-01 1.463177e-01
         vertex 1.000000e+00 9.807853e-02 1.950903e-02
         vertex 1.000000e+00 9.238795e-02 3.826834e-02
      endloop
   endfacet
   facet normal -1.000000e+00 -1.224606e-16 0.000000e+00
      outer loop
         vertex 1.000000e+00 7.355890e-01 1.463177e-01
         vertex 1.000000e+00 9.238795e-02 3.826834e-02
         vertex 1.000000e+00 8.314696e-02 5.555702e-02
      endloop
   endfacet
   facet normal -1.000000e+00 -1.224606e-16 0.000000e+00
      outer loop
         vertex 1.000000e+00 7.355890e-01 1.463177e-01
         vertex 1.000000e+00 8.314696e-02 5.555702e-02
         vertex 1.000000e+00 7.071068e-02 7.071068e-02
      endloop
   endfacet
   facet normal -1.000000e+00 -1.224606e-16 0.000000e+00
      outer loop
         vertex 1.000000e+00 7.355890e-01 1.463177e-01
         vertex 1.000000e+00 7.071068e-02 7.071068e-02
         vertex 1.000000e+00 5.555702e-02 8.314696e-02
      endloop
   endfacet
   facet normal -1.000000e+00 -1.224606e-16 0.000000e+00
      outer loop
         vertex 1.000000e+00 7.355890e-01 1.463177e-01
         vertex 1.000000e+00 5.555702e-02 8.314696e-02
         vertex 1.000000e+00 3.826834e-02 9.238795e-02
      endloop
   endfacet
   facet normal -1.000000e+00 -1.224606e-16 0.000000e+00
      outer loop
         vertex 1.000000e+00 7.355890e-01 1.463177e-01
         vertex 1.000000e+00 3.826834e-02 9.238795e-02
         vertex 1.000000e+00 1.950903e-02 9.807853e-02
      endloop
   endfacet
   facet normal -1.000000e+00 -1.224606e-16 0.000000e+00
      outer loop
         vertex 1.000000e+00 7.355890e-01 1.463177e-01
         vertex 1.000000e+00 1.950903e-02 9.807853e-02
         vertex 1.000000e+00 6.123032e-18 1.000000e-01
      endloop
   endfacet
   facet normal -1.000000e+00 -1.224606e-16 0.000000e+00
      outer loop
         vertex 1.000000e+00 7.500000e-01 -4.202639e-17
         vertex 1.000000e+00 7.355890e-01 -1.463177e-01
         vertex 1.000000e+00 1.950903e-02 -9.807853e-02
      endloop
   endfacet
   facet normal -1.000000e+00 -1.224606e-16 0.000000e+00
      outer loop
         vertex 1.000000e+00 7.500000e-01 -4.202639e-17
         vertex 1.000000e+00 1.950903e-02 -9.807853e-02
         vertex 1.000000e+00 3.826834e-02 -9.238795e-02
      endloop
   endfacet
   facet normal -1.000000e+00 -1.224606e-16 0.000000e+00
      outer loop
         vertex 1.000000e+00 7.500000e-01 -4.202639e-17
         vertex 1.000000e+00 3.826834e-02 -9.238795e-02
         vertex 1.000000e+00 5.555702e-02 -8.314696e-02
      endloop
   endfacet
   facet normal -1.000000e+00 -1.224606e-16 0.000000e+00
      outer loop
         vertex 1.000000e+00 7.500000e-01 -4.202639e-17
         vertex 1.000000e+00 5.555702e-02 -8.314696e-02
         vertex 1.000000e+00 7.071068e-02 -7.071068e-02
      endloop
   endfacet
   facet normal -1.000000e+00 -1.224606e-16 0.000000e+00
      outer loop
         vertex 1.000000e+00 7.500000e-01 -4.202639e-17
         vertex 1.000000e+00 7.071068e-02 -7.071068e-02
         vertex 1.000000e+00 8.314696e-02 -5.555702e-02
      endloop
   endfacet
   facet normal -1.000000e+00 -1.224606e-16 0.000000e+00
      outer loop
         vertex 1.000000e+00 7.500000e-01 -4.202639e-17
         vertex 1.000000e+00 8.314696e-02 -5.555702e-02
         vertex 1.000000e+00 9.238795e-02 -3.826834e-02
      endloop
   endfacet
   facet normal -1.000000e+00 -1.224606e-16 0.000000e+00
      outer loop
         vertex 1.000000e+00 7.500000e-01 -4.202639e-17
         vertex 1.000000e+00 9.238795e-02 -3.826834e-02
         vertex 1.000000e+00 9.807853e-02 -1.950903e-02
      endloop
   endfacet
   facet normal -1.000000e+00 -1.224606e-16 0.000000e+00
      outer loop
         vertex 1.000000e+00 7.500000e-01 -4.202639e-17
         vertex 1.000000e+00 9.807853e-02 -1.950903e-02
         vertex 1.000000e+00 1.000000e-01 -1.224606e-17
      endloop
   endfacet
   facet normal -1.000000e+00 -1.224606e-16 0.000000e+00
      outer loop
         vertex 1.000000e+00 7.500000e-01 -4.202639e-17
         vertex 1.000000e+00 1.000000e-01 -1.224606e-17
         vertex 1.000000e+00 9.807853e-02 1.950903e-02
      endloop
   endfacet
   facet normal -1.000000e+00 -1.224606e-16 0.000000e+00
      outer loop
         vertex 1.000000e+00 1.032838e-16 -7.500000e-01
         vertex 1.000000e+00 -1.463177e-01 -7.355890e-01
         vertex 1.000000e+00 1.463177e-01 -7.355890e-01
      endloop
   endfacet
   facet normal -1.000000e+00 -1.224606e-16 0.000000e+00
      outer loop
         vertex 1.000000e+00 -1.463177e-01 -7.355890e-01
         vertex 1.000000e+00 -2.870126e-01 -6.929096e-01
         vertex 1.000000e+00 1.463177e-01 -7.355890e-01
      endloop
   endfacet
   facet normal -1.000000e+00 -1.224606e-16 0.000000e+00
      outer loop
         vertex 1.000000e+00 1.463177e-01 -7.355890e-01
         vertex 1.000000e+00 -2.870126e-01 -6.929096e-01
         vertex 1.000000e+00 2.870126e-01 -6.929096e-01
      endloop
   endfacet
   facet normal -1.000000e+00 -1.224606e-16 0.000000e+00
      outer loop
         vertex 1.000000e+00 -2.870126e-01 -6.929096e-01
         vertex 1.000000e+00 -4.166777e-01 -6.236022e-01
         vertex 1.000000e+00 2.870126e-01 -6.929096e-01
      endloop
   endfacet
   facet normal -1.000000e+00 -1.224606e-16 0.000000e+00
      outer loop
         vertex 1.000000e+00 2.870126e-01 -6.929096e-01
         vertex 1.000000e+00 -4.166777e-01 -6.236022e-01
         vertex 1.000000e+00 4.166777e-01 -6.236022e-01
      endloop
   endfacet
   facet normal -1.000000e+00 -1.224606e-16 0.000000e+00
      outer loop
         vertex 1.000000e+00 -4.166777e-01 -6.236022e-01
         vertex 1.000000e+00 -5.303301e-01 -5.303301e-01
         vertex 1.000000e+00 4.166777e-01 -6.236022e-01
      endloop
   endfacet
   facet normal -1.000000e+00 -1.224606e-16 0.000000e+00
      outer loop
         vertex 1.000000e+00 4.166777e-01 -6.236022e-01
         vertex 1.000000e+00 -5.303301e-01 -5.303301e-01
         vertex 1.000000e+00 5.303301e-01 -5.303301e-01
      endloop
   endfacet
   facet normal -1.000000e+00 -1.224606e-16 0.000000e+00
      outer loop
         vertex 1.000000e+00 -5.303301e-01 -5.303301e-01
         vertex 1.000000e+00 -6.236022e-01 -4.166777e-01
         vertex 1.000000e+00 5.303301e-01 -5.303301e-01
      endloop
   endfacet
   facet normal -1.000000e+00 -1.224606e-16 0.000000e+00
      outer loop
         vertex 1.000000e+00 5.303301e-01 -5.303301e-01
         vertex 1.000000e+00 -6.236022e-01 -4.166777e-01
         vertex 1.000000e+00 6.236022e-01 -4.166777e-01
      endloop
   endfacet
   facet normal -1.000000e+00 -1.224606e-16 0.000000e+00
      outer loop
         vertex 1.000000e+00 -6.236022e-01 -4.166777e-01
         vertex 1.000000e+00 -6.929096e-01 -2.870126e-01
         vertex 1.000000e+00 6.236022e-01 -4.166777e-01
      endloop
   endfacet
   facet normal -1.000000e+00 -1.224606e-16 0.000000e+00
      outer loop
         vertex 1.000000e+00 6.236022e-01 -4.166777e-01
         vertex 1.000000e+00 -6.929096e-01 -2.870126e-01
         vertex 1.000000e+00 6.929096e-01 -2.870126e-01
      endloop
   endfacet
   facet normal -1.000000e+00 -1.224606e-16 0.000000e+00
      outer loop
         vertex 1.000000e+00 -6.929096e-01 -2.870126e-01
         vertex 1.000000e+00 -7.355890e-01 -1.463177e-01
         vertex 1.000000e+00 6.929096e-01 -2.870126e-01
      endloop
   endfacet
   facet normal -1.000000e+00 -1.224606e-16 0.000000e+00
      outer loop
         vertex 1.000000e+00 6.929096e-01 -2.870126e-01
         vertex 1.000000e+00 -7.355890e-01 -1.463177e-01
         vertex 1.000000e+00 7.355890e-01 -1.463177e-01
      endloop
   endfacet
   facet normal -1.000000e+00 -1.224606e-16 0.000000e+00
      outer loop
         vertex 1.000000e+00 -7.355890e-01 -1.463177e-01
         vertex 1.000000e+00 -6.123032e-18 -1.000000e-01
         vertex 1.000000e+00 7.355890e-01 -1.463177e-01
      endloop
   endfacet
   facet normal -1.000000e+00 -1.224606e-16 0.000000e+00
      outer loop
         vertex 1.000000e+00 7.355890e-01 -1.463177e-01
         vertex 1.000000e+00 -6.123032e-18 -1.000000e-01
         vertex 1.000000e+00 1.950903e-02 -9.807853e-02
      endloop
   endfacet
   facet normal -1.000000e+00 -1.224606e-16 0.000000e+00
      outer loop
         vertex 1.000000e+00 -7.355890e-01 1.463177e-01
         vertex 1.000000e+00 -1.950903e-02 9.807853e-02
         vertex 1.000000e+00 -3.826834e-02 9.238795e-02
      endloop
   endfacet
   facet normal -1.000000e+00 -1.224606e-16 0.000000e+00
      outer loop
         vertex 1.000000e+00 -7.355890e-01 1.463177e-01
         vertex 1.000000e+00 -3.826834e-02 9.238795e-02
         vertex 1.000000e+00 -5.555702e-02 8.314696e-02
      endloop
   endfacet
   facet normal -1.000000e+00 -1.224606e-16 0.000000e+00
      outer loop
         vertex 1.000000e+00 -7.355890e-01 1.463177e-01
         vertex 1.000000e+00 -5.555702e-02 8.314696e-02
         vertex 1.000000e+00 -7.071068e-02 7.071068e-02
      endloop
   endfacet
   facet normal -1.000000e+00 -1.224606e-16 0.000000e+00
      outer loop
         vertex 1.000000e+00 -7.355890e-01 1.463177e-01
         vertex 1.000000e+00 -7.071068e-02 7.071068e-02
         vertex 1.000000e+00 -8.314696e-02 5.555702e-02
      endloop
   endfacet
   facet normal -1.000000e+00 -1.224606e-16 0.000000e+00
      outer loop
         vertex 1.000000e+00 -7.355890e-01 1.463177e-01
         vertex 1.000000e+00 -8.314696e-02 5.555702e-02
         vertex 1.000000e+00 -9.238795e-02 3.826834e-02
      endloop
   endfacet
   facet normal -1.000000e+00 -1.224606e-16 0.000000e+00
      outer loop
         vertex 1.000000e+00 -7.355890e-01 1.463177e-01
         vertex 1.000000e+00 -9.238795e-02 3.826834e-02
         vertex 1.000000e+00 -9.807853e-02 1.950903e-02
      endloop
   endfacet
   facet normal -1.000000e+00 -1.224606e-16 0.000000e+00
      outer loop
         vertex 1.000000e+00 -7.355890e-01 1.463177e-01
         vertex 1.000000e+00 -9.807853e-02 1.950903e-02
         vertex 1.000000e+00 -1.000000e-01 1.224606e-17
      endloop
   endfacet
   facet normal -1.000000e+00 -1.224606e-16 0.000000e+00
      outer loop
         vertex 1.000000e+00 -7.355890e-01 1.463177e-01
         vertex 1.000000e+00 -1.000000e-01 1.224606e-17
         vertex 1.000000e+00 -7.500000e-01 -1.530758e-16
      endloop
   endfacet
   facet normal -1.000000e+00 -1.224606e-16 0.000000e+00
      outer loop
         vertex 1.000000e+00 -7.500000e-01 -1.530758e-16
         vertex 1.000000e+00 -1.000000e-01 1.224606e-17
         vertex 1.000000e+00 -9.807853e-02 -1.950903e-02
      endloop
   endfacet
   facet normal -1.000000e+00 -1.224606e-16 0.000000e+00
      outer loop
         vertex 1.000000e+00 -7.500000e-01 -1.530758e-16
         vertex 1.000000e+00 -9.807853e-02 -1.950903e-02
         vertex 1.000000e+00 -9.238795e-02 -3.826834e-02
      endloop
   endfacet
   facet normal -1.000000e+00 -1.224606e-16 0.000000e+00
      outer loop
         vertex 1.000000e+00 -7.500000e-01 -1.530758e-16
         vertex 1.000000e+00 -9.238795e-02 -3.826834e-02
         vertex 1.000000e+00 -8.314696e-02 -5.555702e-02
      endloop
   endfacet
   facet normal -1.000000e+00 -1.224606e-16 0.000000e+00
      outer loop
         vertex 1.000000e+00 -7.500000e-01 -1.530758e-16
         vertex 1.000000e+00 -8.314696e-02 -5.555702e-02
         vertex 1.000000e+00 -7.071068e-02 -7.071068e-02
      endloop
   endfacet
   facet normal -1.000000e+00 -1.224606e-16 0.000000e+00
      outer loop
         vertex 1.000000e+00 -7.500000e-01 -1.530758e-16
         vertex 1.000000e+00 -7.071068e-02 -7.071068e-02
         vertex 1.000000e+00 -5.555702e-02 -8.314696e-02
      endloop
   endfacet
   facet normal -1.000000e+00 -1.224606e-16 0.000000e+00
      outer loop
         vertex 1.000000e+00 -7.500000e-01 -1.530758e-16
         vertex 1.000000e+00 -5.555702e-02 -8.314696e-02
         vertex 1.000000e+00 -3.826834e-02 -9.238795e-02
      endloop
   endfacet
   facet normal -1.000000e+00 -1.224606e-16 0.000000e+00
      outer loop
         vertex 1.000000e+00 -7.500000e-01 -1.530758e-16
         vertex 1.000000e+00 -3.826834e-02 -9.238795e-02
         vertex 1.000000e+00 -1.950903e-02 -9.807853e-02
      endloop
   endfacet
   facet normal -1.000000e+00 -1.224606e-16 0.000000e+00
      outer loop
         vertex 1.000000e+00 -7.500000e-01 -1.530758e-16
         vertex 1.000000e+00 -1.950903e-02 -9.807853e-02
         vertex 1.000000e+00 -7.355890e-01 -1.463177e-01
      endloop
   endfacet
   facet normal -1.000000e+00 -1.224606e-16 0.000000e+00
      outer loop
         vertex 1.000000e+00 -6.123032e-18 -1.000000e-01
         vertex 1.000000e+00 -7.355890e-01 -1.463177e-01
         vertex 1.000000e+00 -1.950903e-02 -9.807853e-02
      endloop
   endfacet
   facet normal -0.000000e+00 9.951847e-01 9.801714e-02
      outer loop
         vertex 2.000000e+00 7.500000e-01 0.000000e+00
         vertex 1.000000e+00 7.500000e-01 0.000000e+00
         vertex 1.000000e+00 7.355890e-01 1.463177e-01
      endloop
   endfacet
   facet normal -0.000000e+00 9.951847e-01 9.801714e-02
      outer loop
         vertex 2.000000e+00 7.500000e-01 0.000000e+00
         vertex 1.000000e+00 7.355890e-01 1.463177e-01
         vertex 2.000000e+00 7.355890e-01 1.463177e-01
      endloop
   endfacet
   facet normal -0.000000e+00 9.569403e-01 2.902847e-01
      outer loop
         vertex 2.000000e+00 7.355890e-01 1.463177e-01
         vertex 1.000000e+00 7.355890e-01 1.463177e-01
         vertex 1.000000e+00 6.929096e-01 2.870126e-01
      endloop
   endfacet
   facet normal -0.000000e+00 9.569403e-01 2.902847e-01
      outer loop
         vertex 2.000000e+00 7.355890e-01 1.463177e-01
         vertex 1.000000e+00 6.929096e-01 2.870126e-01
         vertex 2.000000e+00 6.929096e-01 2.870126e-01
      endloop
   endfacet
   facet normal -0.000000e+00 8.819213e-01 4.713967e-01
      outer loop
         vertex 2.000000e+00 6.929096e-01 2.870126e-01
         vertex 1.000000e+00 6.929096e-01 2.870126e-01
         vertex 1.000000e+00 6.236022e-01 4.166777e-01
      endloop
   endfacet
   facet normal -0.000000e+00 8.819213e-01 4.713967e-01
      outer loop
         vertex 2.000000e+00 6.929096e-01 2.870126e-01
         vertex 1.000000e+00 6.236022e-01 4.166777e-01
         vertex 2.000000e+00 6.236022e-01 4.166777e-01
      endloop
   endfacet
   facet normal -0.000000e+00 7.730105e-01 6.343933e-01
      outer loop
         vertex 2.000000e+00 6.236022e-01 4.166777e-01
         vertex 1.000000e+00 6.236022e-01 4.166777e-01
         vertex 1.000000e+00 5.303301e-01 5.303301e-01
      endloop
   endfacet
   facet normal -0.000000e+00 7.730105e-01 6.343933e-01
      outer loop
         vertex 2.000000e+00 6.236022e-01 4.166777e-01
         vertex 1.000000e+00 5.303301e-01 5.303301e-01
         vertex 2.000000e+00 5.303301e-01 5.303301e-01
      endloop
   endfacet
   facet normal -0.000000e+00 6.343933e-01 7.730105e-01
      outer loop
         vertex 2.000000e+00 5.303301e-01 5.303301e-01
         vertex 1.000000e+00 5.303301e-01 5.303301e-01
         vertex 1.000000e+00 4.166777e-01 6.236022e-01
      endloop
   endfacet
   facet normal -0.000000e+00 6.343933e-01 7.730105e-01
      outer loop
         vertex 2.000000e+00 5.303301e-01 5.303301e-01
         vertex 1.000000e+00 4.166777e-01 6.236022e-01
         vertex 2.000000e+00 4.166777e-01 6.236022e-01
      endloop
   endfacet
   facet normal -0.000000e+00 4.713967e-01 8.819213e-01
      outer loop
         vertex 2.000000e+00 4.166777e-01 6.236022e-01
         vertex 1.000000e+00 4.166777e-01 6.236022e-01
         vertex 1.000000e+00 2.870126e-01 6.929096e-01
      endloop
   endfacet
   facet normal -0.000000e+00 4.713967e-01 8.819213e-01
      outer loop
         vertex 2.000000e+00 4.166777e-01 6.236022e-01
         vertex 1.000000e+00 2.870126e-01 6.929096e-01
         vertex 2.000000e+00 2.870126e-01 6.929096e-01
      endloop
   endfacet
   facet normal -0.000000e+00 2.902847e-01 9.569403e-01
      outer loop
         vertex 2.000000e+00 2.870126e-01 6.929096e-01
         vertex 1.000000e+00 2.870126e-01 6.929096e-01
         vertex 1.000000e+00 1.463177e-01 7.355890e-01
      endloop
   endfacet
   facet normal -0.000000e+00 2.902847e-01 9.569403e-01
      outer loop
         vertex 2.000000e+00 2.870126e-01 6.929096e-01
         vertex 1.000000e+00 1.463177e-01 7.355890e-01
         vertex 2.000000e+00 1.463177e-01 7.355890e-01
      endloop
   endfacet
   facet normal -0.000000e+00 9.801714e-02 9.951847e-01
      outer loop
         vertex 2.000000e+00 1.463177e-01 7.355890e-01
         vertex 1.000000e+00 1.463177e-01 7.355890e-01
         vertex 1.000000e+00 6.249070e-17 7.500000e-01
      endloop
   endfacet
   facet normal -0.000000e+00 9.801714e-02 9.951847e-01
      outer loop
         vertex 2.000000e+00 1.463177e-01 7.355890e-01
         vertex 1.000000e+00 6.249070e-17 7.500000e-01
         vertex 2.000000e+00 6.249070e-17 7.500000e-01
      endloop
   endfacet
   facet normal -0.000000e+00 -9.801714e-02 9.951847e-01
      outer loop
         vertex 2.000000e+00 6.249070e-17 7.500000e-01
         vertex 1.000000e+00 6.249070e-17 7.500000e-01
         vertex 1.000000e+00 -1.463177e-01 7.355890e-01
      endloop
   endfacet
   facet normal -0.000000e+00 -9.801714e-02 9.951847e-01
      outer loop
         vertex 2.000000e+00 6.249070e-17 7.500000e-01
         vertex 1.000000e+00 -1.463177e-01 7.355890e-01
         vertex 2.000000e+00 -1.463177e-01 7.355890e-01
      endloop
   endfacet
   facet normal -0.000000e+00 -2.902847e-01 9.569403e-01
      outer loop
         vertex 2.000000e+00 -1.463177e-01 7.355890e-01
         vertex 1.000000e+00 -1.463177e-01 7.355890e-01
         vertex 1.000000e+00 -2.870126e-01 6.929096e-01
      endloop
   endfacet
   facet normal -0.000000e+00 -2.902847e-01 9.569403e-01
      outer loop
         vertex 2.000000e+00 -1.463177e-01 7.355890e-01
         vertex 1.000000e+00 -2.870126e-01 6.929096e-01
         vertex 2.000000e+00 -2.870126e-01 6.929096e-01
      endloop
   endfacet
   facet normal -0.000000e+00 -4.713967e-01 8.819213e-01
      outer loop
         vertex 2.000000e+00 -2.870126e-01 6.929096e-01
         vertex 1.000000e+00 -2.870126e-01 6.929096e-01
         vertex 1.000000e+00 -4.166777e-01 6.236022e-01
      endloop
   endfacet
   facet normal -0.000000e+00 -4.713967e-01 8.819213e-01
      outer loop
         vertex 2.000000e+00 -2.870126e-01 6.929096e-01
         vertex 1.000000e+00 -4.166777e-01 6.236022e-01
         vertex 2.000000e+00 -4.166777e-01 6.236022e-01
      endloop
   endfacet
   facet normal -0.000000e+00 -6.343933e-01 7.730105e-01
      outer loop
         vertex 2.000000e+00 -4.166777e-01 6.236022e-01
         vertex 1.000000e+00 -4.166777e-01 6.236022e-01
         vertex 1.000000e+00 -5.303301e-01 5.303301e-01
      endloop
   endfacet
   facet normal -0.000000e+00 -6.343933e-01 7.730105e-01
      outer loop
         vertex 2.000000e+00 -4.166777e-01 6.236022e-01
         vertex 1.000000e+00 -5.303301e-01 5.303301e-01
         vertex 2.000000e+00 -5.303301e-01 5.303301e-01
      endloop
   endfacet
   facet normal -0.000000e+00 -7.730105e-01 6.343933e-01
      outer loop
         vertex 2.000000e+00 -5.303301e-01 5.303301e-01
         vertex 1.000000e+00 -5.303301e-01 5.303301e-01
         vertex 1.000000e+00 -6.236022e-01 4.166777e-01
      endloop
   endfacet
   facet normal -0.000000e+00 -7.730105e-01 6.343933e-01
      outer loop
         vertex 2.000000e+00 -5.303301e-01 5.303301e-01
         vertex 1.000000e+00 -6.236022e-01 4.166777e-01
         vertex 2.000000e+00 -6.236022e-01 4.166777e-01
      endloop
   endfacet
   facet normal -0.000000e+00 -8.819213e-01 4.713967e-01
      outer loop
         vertex 2.000000e+00 -6.236022e-01 4.166777e-01
         vertex 1.000000e+00 -6.236022e-01 4.166777e-01
         vertex 1.000000e+00 -6.929096e-01 2.870126e-01
      endloop
   endfacet
   facet normal -0.000000e+00 -8.819213e-01 4.713967e-01
      outer loop
         vertex 2.000000e+00 -6.236022e-01 4.166777e-01
         vertex 1.000000e+00 -6.929096e-01 2.870126e-01
         vertex 2.000000e+00 -6.929096e-01 2.870126e-01
      endloop
   endfacet
   facet normal -0.000000e+00 -9.569403e-01 2.902847e-01
      outer loop
         vertex 2.000000e+00 -6.929096e-01 2.870126e-01
         vertex 1.000000e+00 -6.929096e-01 2.870126e-01
         vertex 1.000000e+00 -7.355890e-01 1.463177e-01
      endloop
   endfacet
   facet normal -0.000000e+00 -9.569403e-01 2.902847e-01
      outer loop
         vertex 2.000000e+00 -6.929096e-01 2.870126e-01
         vertex 1.000000e+00 -7.355890e-01 1.463177e-01
         vertex 2.000000e+00 -7.355890e-01 1.463177e-01
      endloop
   endfacet
   facet normal -0.000000e+00 -9.951847e-01 9.801714e-02
      outer loop
         vertex 2.000000e+00 -7.355890e-01 1.463177e-01
         vertex 1.000000e+00 -7.355890e-01 1.463177e-01
         vertex 1.000000e+00 -7.500000e-01 8.414764e-17
      endloop
   endfacet
   facet normal -0.000000e+00 -9.951847e-01 9.801714e-02
      outer loop
         vertex 2.000000e+00 -7.355890e-01 1.463177e-01
         vertex 1.000000e+00 -7.500000e-01 8.414764e-17
         vertex 2.000000e+00 -7.500000e-01 8.414764e-17
      endloop
   endfacet
   facet normal 1.000000e+00 0.000000e+00 0.000000e+00
      outer loop
         vertex 2.000000e+00 7.355890e-01 1.463177e-01
         vertex 2.000000e+00 6.929096e-01 2.870126e-01
         vertex 2.000000e+00 6.236022e-01 4.166777e-01
      endloop
   endfacet
   facet normal 1.000000e+00 0.000000e+00 0.000000e+00
      outer loop
         vertex 2.000000e+00 7.355890e-01 1.463177e-01
         vertex 2.000000e+00 6.236022e-01 4.166777e-01
         vertex 2.000000e+00 5.303301e-01 5.303301e-01
      endloop
   endfacet
   facet normal 1.000000e+00 0.000000e+00 0.000000e+00
      outer loop
         vertex 2.000000e+00 7.355890e-01 1.463177e-01
         vertex 2.000000e+00 5.303301e-01 5.303301e-01
         vertex 2.000000e+00 4.166777e-01 6.236022e-01
      endloop
   endfacet
   facet normal 1.000000e+00 0.000000e+00 0.000000e+00
      outer loop
         vertex 2.000000e+00 7.355890e-01 1.463177e-01
         vertex 2.000000e+00 4.166777e-01 6.236022e-01
         vertex 2.000000e+00 2.870126e-01 6.929096e-01
      endloop
   endfacet
   facet normal 1.000000e+00 0.000000e+00 0.000000e+00
      outer loop
         vertex 2.000000e+00 7.355890e-01 1.463177e-01
         vertex 2.000000e+00 2.870126e-01 6.929096e-01
         vertex 2.000000e+00 1.463177e-01 7.355890e-01
      endloop
   endfacet
   facet normal 1.000000e+00 0.000000e+00 0.000000e+00
      outer loop
         vertex 2.000000e+00 7.355890e-01 1.463177e-01
         vertex 2.000000e+00 1.463177e-01 7.355890e-01
         vertex 2.000000e+00 4.592274e-17 7.500000e-01
      endloop
   endfacet
   facet normal 1.000000e+00 0.000000e+00 0.000000e+00
      outer loop
         vertex 2.000000e+00 7.355890e-01 1.463177e-01
         vertex 2.000000e+00 4.592274e-17 7.500000e-01
         vertex 2.000000e+00 -1.463177e-01 7.355890e-01
      endloop
   endfacet
   facet normal 1.000000e+00 0.000000e+00 0.000000e+00
      outer loop
         vertex 2.000000e+00 7.355890e-01 1.463177e-01
         vertex 2.000000e+00 -1.463177e-01 7.355890e-01
         vertex 2.000000e+00 -2.870126e-01 6.929096e-01
      endloop
   endfacet
   facet normal 1.000000e+00 0.000000e+00 0.000000e+00
      outer loop
         vertex 2.000000e+00 7.355890e-01 1.463177e-01
         vertex 2.000000e+00 -2.870126e-01 6.929096e-01
         vertex 2.000000e+00 -4.166777e-01 6.236022e-01
      endloop
   endfacet
   facet normal 1.000000e+00 0.000000e+00 0.000000e+00
      outer loop
         vertex 2.000000e+00 7.355890e-01 1.463177e-01
         vertex 2.000000e+00 -4.166777e-01 6.236022e-01
         vertex 2.000000e+00 -5.303301e-01 5.303301e-01
      endloop
   endfacet
   facet normal 1.000000e+00 0.000000e+00 0.000000e+00
      outer loop
         vertex 2.000000e+00 7.355890e-01 1.463177e-01
         vertex 2.000000e+00 -5.303301e-01 5.303301e-01
         vertex 2.000000e+00 -6.236022e-01 4.166777e-01
      endloop
   endfacet
   facet normal 1.000000e+00 0.000000e+00 0.000000e+00
      outer loop
         vertex 2.000000e+00 7.355890e-01 1.463177e-01
         vertex 2.000000e+00 -6.236022e-01 4.166777e-01
         vertex 2.000000e+00 -6.929096e-01 2.870126e-01
      endloop
   endfacet
   facet normal 1.000000e+00 0.000000e+00 0.000000e+00
      outer loop
         vertex 2.000000e+00 7.355890e-01 1.463177e-01
         vertex 2.000000e+00 -6.929096e-01 2.870126e-01
         vertex 2.000000e+00 -7.355890e-01 1.463177e-01
      endloop
   endfacet
   facet normal 1.000000e+00 0.000000e+00 0.000000e+00
      outer loop
         vertex 2.000000e+00 7.355890e-01 1.463177e-01
         vertex 2.000000e+00 -7.355890e-01 1.463177e-01
         vertex 2.000000e+00 -7.500000e-01 9.184548e-17
      endloop
   endfacet
   facet normal 1.000000e+00 0.000000e+00 0.000000e+00
      outer loop
         vertex 2.000000e+00 7.355890e-01 1.463177e-01
         vertex 2.000000e+00 -7.500000e-01 9.184548e-17
         vertex 2.000000e+00 -7.355890e-01 -1.463177e-01
      endloop
   endfacet
   facet normal 1.000000e+00 0.000000e+00 0.000000e+00
      outer loop
         vertex 2.000000e+00 7.355890e-01 1.463177e-01
         vertex 2.000000e+00 -7.355890e-01 -1.463177e-01
         vertex 2.000000e+00 -6.929096e-01 -2.870126e-01
      endloop
   endfacet
   facet normal 1.000000e+00 0.000000e+00 0.000000e+00
      outer loop
         vertex 2.000000e+00 7.355890e-01 1.463177e-01
         vertex 2.000000e+00 -6.929096e-01 -2.870126e-01
         vertex 2.000000e+00 -6.236022e-01 -4.166777e-01
      endloop
   endfacet
   facet normal 1.000000e+00 0.000000e+00 0.000000e+00
      outer loop
         vertex 2.000000e+00 7.355890e-01 1.463177e-01
         vertex 2.000000e+00 -6.236022e-01 -4.166777e-01
         vertex 2.000000e+00 -5.303301e-01 -5.303301e-01
      endloop
   endfacet
   facet normal 1.000000e+00 0.000000e+00 0.000000e+00
      outer loop
         vertex 2.000000e+00 7.355890e-01 1.463177e-01
         vertex 2.000000e+00 -5.303301e-01 -5.303301e-01
         vertex 2.000000e+00 -4.166777e-01 -6.236022e-01
      endloop
   endfacet
   facet normal 1.000000e+00 0.000000e+00 0.000000e+00
      outer loop
         vertex 2.000000e+00 7.355890e-01 1.463177e-01
         vertex 2.000000e+00 -4.166777e-01 -6.236022e-01
         vertex 2.000000e+00 -2.870126e-01 -6.929096e-01
      endloop
   endfacet
   facet normal 1.000000e+00 0.000000e+00 0.000000e+00
      outer loop
         vertex 2.000000e+00 7.355890e-01 1.463177e-01
         vertex 2.000000e+00 -2.870126e-01 -6.929096e-01
         vertex 2.000000e+00 -1.463177e-01 -7.355890e-01
      endloop
   endfacet
   facet normal 1.000000e+00 0.000000e+00 0.000000e+00
      outer loop
         vertex 2.000000e+00 7.355890e-01 1.463177e-01
         vertex 2.000000e+00 -1.463177e-01 -7.355890e-01
         vertex 2.000000e+00 -4.592274e-17 -7.500000e-01
      endloop
   endfacet
   facet normal 1.000000e+00 0.000000e+00 0.000000e+00
      outer loop
         vertex 2.000000e+00 7.355890e-01 1.463177e-01
         vertex 2.000000e+00 -4.592274e-17 -7.500000e-01
         vertex 2.000000e+00 1.463177e-01 -7.355890e-01
      endloop
   endfacet
   facet normal 1.000000e+00 0.000000e+00 0.000000e+00
      outer loop
         vertex 2.000000e+00 7.355890e-01 1.463177e-01
         vertex 2.000000e+00 1.463177e-01 -7.355890e-01
         vertex 2.000000e+00 2.870126e-01 -6.929096e-01
      endloop
   endfacet
   facet normal 1.000000e+00 0.000000e+00 0.000000e+00
      outer loop
         vertex 2.000000e+00 7.355890e-01 1.463177e-01
         vertex 2.000000e+00 2.870126e-01 -6.929096e-01
         vertex 2.000000e+00 4.166777e-01 -6.236022e-01
      endloop
   endfacet
   facet normal 1.000000e+00 0.000000e+00 0.000000e+00
      outer loop
         vertex 2.000000e+00 7.355890e-01 1.463177e-01
         vertex 2.000000e+00 4.166777e-01 -6.236022e-01
         vertex 2.000000e+00 5.303301e-01 -5.303301e-01
      endloop
   endfacet
   facet normal 1.000000e+00 0.000000e+00 0.000000e+00
      outer loop
         vertex 2.000000e+00 7.355890e-01 1.463177e-01
         vertex 2.000000e+00 5.303301e-01 -5.303301e-01
         vertex 2.000000e+00 6.236022e-01 -4.166777e-01
      endloop
   endfacet
   facet normal 1.000000e+00 0.000000e+00 0.000000e+00
      outer loop
         vertex 2.000000e+00 7.355890e-01 1.463177e-01
         vertex 2.000000e+00 6.236022e-01 -4.166777e-01
         vertex 2.000000e+00 6.929096e-01 -2.870126e-01
      endloop
   endfacet
   facet normal 1.000000e+00 0.000000e+00 0.000000e+00
      outer loop
         vertex 2.000000e+00 7.355890e-01 1.463177e-01
         vertex 2.000000e+00 6.929096e-01 -2.870126e-01
         vertex 2.000000e+00 7.355890e-01 -1.463177e-01
      endloop
   endfacet
   facet normal 1.000000e+00 0.000000e+00 0.000000e+00
      outer loop
         vertex 2.000000e+00 7.355890e-01 1.463177e-01
         vertex 2.000000e+00 7.355890e-01 -1.463177e-01
         vertex 2.000000e+00 7.500000e-01 -9.184548e-17
      endloop
   endfacet
   facet normal 0.000000e+00 -9.951847e-01 -9.801714e-02
      outer loop
         vertex 1.000000e+00 -1.000000e-01 0.000000e+00
         vertex 0.000000e+00 -1.000000e-01 0.000000e+00
         vertex 0.000000e+00 -9.807853e-02 -1.950903e-02
      endloop
   endfacet
   facet normal 0.000000e+00 -9.951847e-01 -9.801714e-02
      outer loop
         vertex 1.000000e+00 -1.000000e-01 0.000000e+00
         vertex 0.000000e+00 -9.807853e-02 -1.950903e-02
         vertex 1.000000e+00 -9.807853e-02 -1.950903e-02
      endloop
   endfacet
   facet normal 0.000000e+00 -9.569403e-01 -2.902847e-01
      outer loop
         vertex 1.000000e+00 -9.807853e-02 -1.950903e-02
         vertex 0.000000e+00 -9.807853e-02 -1.950903e-02
         vertex 0.000000e+00 -9.238795e-02 -3.826834e-02
      endloop
   endfacet
   facet normal 0.000000e+00 -9.569403e-01 -2.902847e-01
      outer loop
         vertex 1.000000e+00 -9.807853e-02 -1.950903e-02
         vertex 0.000000e+00 -9.238795e-02 -3.826834e-02
         vertex 1.000000e+00 -9.238795e-02 -3.826834e-02
      endloop
   endfacet
   facet normal 0.000000e+00 -8.819213e-01 -4.713967e-01
      outer loop
         vertex 1.000000e+00 -9.238795e-02 -3.826834e-02
         vertex 0.000000e+00 -9.238795e-02 -3.826834e-02
         vertex 0.000000e+00 -8.314696e-02 -5.555702e-02
      endloop
   endfacet
   facet normal 0.000000e+00 -8.819213e-01 -4.713967e-01
      outer loop
         vertex 1.000000e+00 -9.238795e-02 -3.826834e-02
         vertex 0.000000e+00 -8.314696e-02 -5.555702e-02
         vertex 1.000000e+00 -8.314696e-02 -5.555702e-02
      endloop
   endfacet
   facet normal 0.000000e+00 -7.730105e-01 -6.343933e-01
      outer loop
         vertex 1.000000e+00 -8.314696e-02 -5.555702e-02
         vertex 0.000000e+00 -8.314696e-02 -5.555702e-02
         vertex 0.000000e+00 -7.071068e-02 -7.071068e-02
      endloop
   endfacet
   facet normal 0.000000e+00 -7.730105e-01 -6.343933e-01
      outer loop
         vertex 1.000000e+00 -8.314696e-02 -5.555702e-02
         vertex 0.000000e+00 -7.071068e-02 -7.071068e-02
         vertex 1.000000e+00 -7.071068e-02 -7.071068e-02
      endloop
   endfacet
   facet normal 0.000000e+00 -6.343933e-01 -7.730105e-01
      outer loop
         vertex 1.000000e+00 -7.071068e-02 -7.071068e-02
         vertex 0.000000e+00 -7.071068e-02 -7.071068e-02
         vertex 0.000000e+00 -5.555702e-02 -8.314696e-02
      endloop
   endfacet
   facet normal 0.000000e+00 -6.343933e-01 -7.730105e-01
      outer loop
         vertex 1.000000e+00 -7.071068e-02 -7.071068e-02
         vertex 0.000000e+00 -5.555702e-02 -8.314696e-02
         vertex 1.000000e+00 -5.555702e-02 -8.314696e-02
      endloop
   endfacet
   facet normal 0.000000e+00 -4.713967e-01 -8.819213e-01
      outer loop
         vertex 1.000000e+00 -5.555702e-02 -8.314696e-02
         vertex 0.000000e+00 -5.555702e-02 -8.314696e-02
         vertex 0.000000e+00 -3.826834e-02 -9.238795e-02
      endloop
   endfacet
   facet normal 0.000000e+00 -4.713967e-01 -8.819213e-01
      outer loop
         vertex 1.000000e+00 -5.555702e-02 -8.314696e-02
         vertex 0.000000e+00 -3.826834e-02 -9.238795e-02
         vertex 1.000000e+00 -3.826834e-02 -9.238795e-02
      endloop
   endfacet
   facet normal 0.000000e+00 -2.902847e-01 -9.569403e-01
      outer loop
         vertex 1.000000e+00 -3.826834e-02 -9.238795e-02
         vertex 0.000000e+00 -3.826834e-02 -9.238795e-02
         vertex 0.000000e+00 -1.950903e-02 -9.807853e-02
      endloop
   endfacet
   facet normal 0.000000e+00 -2.902847e-01 -9.569403e-01
      outer loop
         vertex 1.000000e+00 -3.826834e-02 -9.238795e-02
         vertex 0.000000e+00 -1.950903e-02 -9.807853e-02
         vertex 1.000000e+00 -1.950903e-02 -9.807853e-02
      endloop
   endfacet
   facet normal 0.000000e+00 -9.801714e-02 -9.951847e-01
      outer loop
         vertex 1.000000e+00 -1.950903e-02 -9.807853e-02
         vertex 0.000000e+00 -1.950903e-02 -9.807853e-02
         vertex 0.000000e+00 -9.790007e-18 -1.000000e-01
      endloop
   endfacet
   facet normal 0.000000e+00 -9.801714e-02 -9.951847e-01
      outer loop
         vertex 1.000000e+00 -1.950903e-02 -9.807853e-02
         vertex 0.000000e+00 -9.790007e-18 -1.000000e-01
         vertex 1.000000e+00 -9.790007e-18 -1.000000e-01
      endloop
   endfacet
   facet normal -0.000000e+00 9.801714e-02 -9.951847e-01
      outer loop
         vertex 1.000000e+00 -9.790007e-18 -1.000000e-01
         vertex 0.000000e+00 -9.790007e-18 -1.000000e-01
         vertex 0.000000e+00 1.950903e-02 -9.807853e-02
      endloop
   endfacet
   facet normal -0.000000e+00 9.801714e-02 -9.951847e-01
      outer loop
         vertex 1.000000e+00 -9.790007e-18 -1.000000e-01
         vertex 0.000000e+00 1.950903e-02 -9.807853e-02
         vertex 1.000000e+00 1.950903e-02 -9.807853e-02
      endloop
   endfacet
   facet normal -0.000000e+00 2.902847e-01 -9.569403e-01
      outer loop
         vertex 1.000000e+00 1.950903e-02 -9.807853e-02
         vertex 0.000000e+00 1.950903e-02 -9.807853e-02
         vertex 0.000000e+00 3.826834e-02 -9.238795e-02
      endloop
   endfacet
   facet normal -0.000000e+00 2.902847e-01 -9.569403e-01
      outer loop
         vertex 1.000000e+00 1.950903e-02 -9.807853e-02
         vertex 0.000000e+00 3.826834e-02 -9.238795e-02
         vertex 1.000000e+00 3.826834e-02 -9.238795e-02
      endloop
   endfacet
   facet normal -0.000000e+00 4.713967e-01 -8.819213e-01
      outer loop
         vertex 1.000000e+00 3.826834e-02 -9.238795e-02
         vertex 0.000000e+00 3.826834e-02 -9.238795e-02
         vertex 0.000000e+00 5.555702e-02 -8.314696e-02
      endloop
   endfacet
   facet normal -0.000000e+00 4.713967e-01 -8.819213e-01
      outer loop
         vertex 1.000000e+00 3.826834e-02 -9.238795e-02
         vertex 0.000000e+00 5.555702e-02 -8.314696e-02
         vertex 1.000000e+00 5.555702e-02 -8.314696e-02
      endloop
   endfacet
   facet normal -0.000000e+00 6.343933e-01 -7.730105e-01
      outer loop
         vertex 1.000000e+00 5.555702e-02 -8.314696e-02
         vertex 0.000000e+00 5.555702e-02 -8.314696e-02
         vertex 0.000000e+00 7.071068e-02 -7.071068e-02
      endloop
   endfacet
   facet normal -0.000000e+00 6.343933e-01 -7.730105e-01
      outer loop
         vertex 1.000000e+00 5.555702e-02 -8.314696e-02
         vertex 0.000000e+00 7.071068e-02 -7.071068e-02
         vertex 1.000000e+00 7.071068e-02 -7.071068e-02
      endloop
   endfacet
   facet normal -0.000000e+00 7.730105e-01 -6.343933e-01
      outer loop
         vertex 1.000000e+00 7.071068e-02 -7.071068e-02
         vertex 0.000000e+00 7.071068e-02 -7.071068e-02
         vertex 0.000000e+00 8.314696e-02 -5.555702e-02
      endloop
   endfacet
   facet normal -0.000000e+00 7.730105e-01 -6.343933e-01
      outer loop
         vertex 1.000000e+00 7.071068e-02 -7.071068e-02
         vertex 0.000000e+00 8.314696e-02 -5.555702e-02
         vertex 1.000000e+00 8.314696e-02 -5.555702e-02
      endloop
   endfacet
   facet normal -0.000000e+00 8.819213e-01 -4.713967e-01
      outer loop
         vertex 1.000000e+00 8.314696e-02 -5.555702e-02
         vertex 0.000000e+00 8.314696e-02 -5.555702e-02
         vertex 0.000000e+00 9.238795e-02 -3.826834e-02
      endloop
   endfacet
   facet normal -0.000000e+00 8.819213e-01 -4.713967e-01
      outer loop
         vertex 1.000000e+00 8.314696e-02 -5.555702e-02
         vertex 0.000000e+00 9.238795e-02 -3.826834e-02
         vertex 1.000000e+00 9.238795e-02 -3.826834e-02
      endloop
   endfacet
   facet normal -0.000000e+00 9.569403e-01 -2.902847e-01
      outer loop
         vertex 1.000000e+00 9.238795e-02 -3.826834e-02
         vertex 0.000000e+00 9.238795e-02 -3.826834e-02
         vertex 0.000000e+00 9.807853e-02 -1.950903e-02
      endloop
   endfacet
   facet normal -0.000000e+00 9.569403e-01 -2.902847e-01
      outer loop
         vertex 1.000000e+00 9.238795e-02 -3.826834e-02
         vertex 0.000000e+00 9.807853e-02 -1.950903e-02
         vertex 1.000000e+00 9.807853e-02 -1.950903e-02
      endloop
   endfacet
   facet normal -0.000000e+00 9.951847e-01 -9.801714e-02
      outer loop
         vertex 1.000000e+00 9.807853e-02 -1.950903e-02
         vertex 0.000000e+00 9.807853e-02 -1.950903e-02
         vertex 0.000000e+00 1.000000e-01 -2.881775e-17
      endloop
   endfacet
   facet normal -0.000000e+00 9.951847e-01 -9.801714e-02
      outer loop
         vertex 1.000000e+00 9.807853e-02 -1.950903e-02
         vertex 0.000000e+00 1.000000e-01 -2.881775e-17
         vertex 1.000000e+00 1.000000e-01 -2.881775e-17
      endloop
   endfacet
   facet normal -1.000000e+00 -1.224606e-16 0.000000e+00
      outer loop
         vertex 1.320530e-17 -9.807853e-02 1.950903e-02
         vertex 1.365707e-17 -9.238795e-02 3.826834e-02
         vertex 1.358400e-17 -8.314696e-02 5.555702e-02
      endloop
   endfacet
   facet normal -1.000000e+00 -1.224606e-16 0.000000e+00
      outer loop
         vertex 1.320530e-17 -9.807853e-02 1.950903e-02
         vertex 1.358400e-17 -8.314696e-02 5.555702e-02
         vertex 1.298891e-17 -7.071068e-02 7.071068e-02
      endloop
   endfacet
   facet normal -1.000000e+00 -1.224606e-16 0.000000e+00
      outer loop
         vertex 1.320530e-17 -9.807853e-02 1.950903e-02
         vertex 1.298891e-17 -7.071068e-02 7.071068e-02
         vertex 1.189466e-17 -5.555702e-02 8.314696e-02
      endloop
   endfacet
   facet normal -1.000000e+00 -1.224606e-16 0.000000e+00
      outer loop
         vertex 1.320530e-17 -9.807853e-02 1.950903e-02
         vertex 1.189466e-17 -5.555702e-02 8.314696e-02
         vertex 1.034331e-17 -3.826834e-02 9.238795e-02
      endloop
   endfacet
   facet normal -1.000000e+00 -1.224606e-16 0.000000e+00
      outer loop
         vertex 1.320530e-17 -9.807853e-02 1.950903e-02
         vertex 1.034331e-17 -3.826834e-02 9.238795e-02
         vertex 8.394468e-18 -1.950903e-02 9.807853e-02
      endloop
   endfacet
   facet normal -1.000000e+00 -1.224606e-16 0.000000e+00
      outer loop
         vertex 1.320530e-17 -9.807853e-02 1.950903e-02
         vertex 8.394468e-18 -1.950903e-02 9.807853e-02
         vertex 6.123032e-18 -1.634435e-18 1.000000e-01
      endloop
   endfacet
   facet normal -1.000000e+00 -1.224606e-16 0.000000e+00
      outer loop
         vertex 1.320530e-17 -9.807853e-02 1.950903e-02
         vertex 6.123032e-18 -1.634435e-18 1.000000e-01
         vertex 3.616291e-18 1.950903e-02 9.807853e-02
      endloop
   endfacet
   facet normal -1.000000e+00 -1.224606e-16 0.000000e+00
      outer loop
         vertex 1.320530e-17 -9.807853e-02 1.950903e-02
         vertex 3.616291e-18 1.950903e-02 9.807853e-02
         vertex 9.705781e-19 3.826834e-02 9.238795e-02
      endloop
   endfacet
   facet normal -1.000000e+00 -1.224606e-16 0.000000e+00
      outer loop
         vertex 1.320530e-17 -9.807853e-02 1.950903e-02
         vertex 9.705781e-19 3.826834e-02 9.238795e-02
         vertex -1.712434e-18 5.555702e-02 8.314696e-02
      endloop
   endfacet
   facet normal -1.000000e+00 -1.224606e-16 0.000000e+00
      outer loop
         vertex 1.320530e-17 -9.807853e-02 1.950903e-02
         vertex -1.712434e-18 5.555702e-02 8.314696e-02
         vertex -4.329637e-18 7.071068e-02 7.071068e-02
      endloop
   endfacet
   facet normal -1.000000e+00 -1.224606e-16 0.000000e+00
      outer loop
         vertex 1.320530e-17 -9.807853e-02 1.950903e-02
         vertex -4.329637e-18 7.071068e-02 7.071068e-02
         vertex -6.780456e-18 8.314696e-02 5.555702e-02
      endloop
   endfacet
   facet normal -1.000000e+00 -1.224606e-16 0.000000e+00
      outer loop
         vertex 1.320530e-17 -9.807853e-02 1.950903e-02
         vertex -6.780456e-18 8.314696e-02 5.555702e-02
         vertex -8.970705e-18 9.238795e-02 3.826834e-02
      endloop
   endfacet
   facet normal -1.000000e+00 -1.224606e-16 0.000000e+00
      outer loop
         vertex 1.320530e-17 -9.807853e-02 1.950903e-02
         vertex -8.970705e-18 9.238795e-02 3.826834e-02
         vertex -1.081621e-17 9.807853e-02 1.950903e-02
      endloop
   endfacet
   facet normal -1.000000e+00 -1.224606e-16 0.000000e+00
      outer loop
         vertex 1.320530e-17 -9.807853e-02 1.950903e-02
         vertex -1.081621e-17 9.807853e-02 1.950903e-02
         vertex -1.224606e-17 1.000000e-01 1.634435e-18
      endloop
   endfacet
   facet normal -1.000000e+00 -1.224606e-16 0.000000e+00
      outer loop
         vertex 1.320530e-17 -9.807853e-02 1.950903e-02
         vertex -1.224606e-17 1.000000e-01 1.634435e-18
         vertex -1.320530e-17 9.807853e-02 -1.950903e-02
      endloop
   endfacet
   facet normal -1.000000e+00 -1.224606e-16 0.000000e+00
      outer loop
         vertex 1.320530e-17 -9.807853e-02 1.950903e-02
         vertex -1.320530e-17 9.807853e-02 -1.950903e-02
         vertex -1.365707e-17 9.238795e-02 -3.826834e-02
      endloop
   endfacet
   facet normal -1.000000e+00 -1.224606e-16 0.000000e+00
      outer loop
         vertex 1.320530e-17 -9.807853e-02 1.950903e-02
         vertex -1.365707e-17 9.238795e-02 -3.826834e-02
         vertex -1.358400e-17 8.314696e-02 -5.555702e-02
      endloop
   endfacet
   facet normal -1.000000e+00 -1.224606e-16 0.000000e+00
      outer loop
         vertex 1.320530e-17 -9.807853e-02 1.950903e-02
         vertex -1.358400e-17 8.314696e-02 -5.555702e-02
         vertex -1.298891e-17 7.071068e-02 -7.071068e-02
      endloop
   endfacet
   facet normal -1.000000e+00 -1.224606e-16 0.000000e+00
      outer loop
         vertex 1.320530e-17 -9.807853e-02 1.950903e-02
         vertex -1.298891e-17 7.071068e-02 -7.071068e-02
         vertex -1.189466e-17 5.555702e-02 -8.314696e-02
      endloop
   endfacet
   facet normal -1.000000e+00 -1.224606e-16 0.000000e+00
      outer loop
         vertex 1.320530e-17 -9.807853e-02 1.950903e-02
         vertex -1.189466e-17 5.555702e-02 -8.314696e-02
         vertex -1.034331e-17 3.826834e-02 -9.238795e-02
      endloop
   endfacet
   facet normal -1.000000e+00 -1.224606e-16 0.000000e+00
      outer loop
         vertex 1.320530e-17 -9.807853e-02 1.950903e-02
         vertex -1.034331e-17 3.826834e-02 -9.238795e-02
         vertex -8.394468e-18 1.950903e-02 -9.807853e-02
      endloop
   endfacet
   facet normal -1.000000e+00 -1.224606e-16 0.000000e+00
      outer loop
         vertex 1.320530e-17 -9.807853e-02 1.950903e-02
         vertex -8.394468e-18 1.950903e-02 -9.807853e-02
         vertex -6.123032e-18 1.224606e-17 -1.000000e-01
      endloop
   endfacet
   facet normal -1.000000e+00 -1.224606e-16 0.000000e+00
      outer loop
         vertex 1.320530e-17 -9.807853e-02 1.950903e-02
         vertex -6.123032e-18 1.224606e-17 -1.000000e-01
         vertex -3.616291e-18 -1.950903e-02 -9.807853e-02
      endloop
   endfacet
   facet normal -1.000000e+00 -1.224606e-16 0.000000e+00
      outer loop
         vertex 1.320530e-17 -9.807853e-02 1.950903e-02
         vertex -3.616291e-18 -1.950903e-02 -9.807853e-02
         vertex -9.705781e-19 -3.826834e-02 -9.238795e-02
      endloop
   endfacet
   facet normal -1.000000e+00 -1.224606e-16 0.000000e+00
      outer loop
         vertex 1.320530e-17 -9.807853e-02 1.950903e-02
         vertex -9.705781e-19 -3.826834e-02 -9.238795e-02
         vertex 1.712434e-18 -5.555702e-02 -8.314696e-02
      endloop
   endfacet
   facet normal -1.000000e+00 -1.224606e-16 0.000000e+00
      outer loop
         vertex 1.320530e-17 -9.807853e-02 1.950903e-02
         vertex 1.712434e-18 -5.555702e-02 -8.314696e-02
         vertex 4.329637e-18 -7.071068e-02 -7.071068e-02
      endloop
   endfacet
   facet normal -1.000000e+00 -1.224606e-16 0.000000e+00
      outer loop
         vertex 1.320530e-17 -9.807853e-02 1.950903e-02
         vertex 4.329637e-18 -7.071068e-02 -7.071068e-02
         vertex 6.780456e-18 -8.314696e-02 -5.555702e-02
      endloop
   endfacet
   facet normal -1.000000e+00 -1.224606e-16 0.000000e+00
      outer loop
         vertex 1.320530e-17 -9.807853e-02 1.950903e-02
         vertex 6.780456e-18 -8.314696e-02 -5.555702e-02
         vertex 8.970705e-18 -9.238795e-02 -3.826834e-02
      endloop
   endfacet
   facet normal -1.000000e+00 -1.224606e-16 0.000000e+00
      outer loop
         vertex 1.320530e-17 -9.807853e-02 1.950903e-02
         vertex 8.970705e-18 -9.238795e-02 -3.826834e-02
         vertex 1.081621e-17 -9.807853e-02 -1.950903e-02
      endloop
   endfacet
   facet normal -1.000000e+00 -1.224606e-16 0.000000e+00
      outer loop
         vertex 1.320530e-17 -9.807853e-02 1.950903e-02
         vertex 1.081621e-17 -9.807853e-02 -1.950903e-02
         vertex 1.224606e-17 -1.000000e-01 -1.224606e-17
      endloop
   endfacet
   facet normal -0.000000e+00 9.951847e-01 9.801714e-02
      outer loop
         vertex 1.000000e+00 1.000000e-01 0.000000e+00
         vertex 0.000000e+00 1.000000e-01 0.000000e+00
         vertex 0.000000e+00 9.807853e-02 1.950903e-02
      endloop
   endfacet
   facet normal -0.000000e+00 9.951847e-01 9.801714e-02
      outer loop
         vertex 1.000000e+00 1.000000e-01 0.000000e+00
         vertex 0.000000e+00 9.807853e-02 1.950903e-02
         vertex 1.000000e+00 9.807853e-02 1.950903e-02
      endloop
   endfacet
   facet normal -0.000000e+00 9.569403e-01 2.902847e-01
      outer loop
         vertex 1.000000e+00 9.807853e-02 1.950903e-02
         vertex 0.000000e+00 9.807853e-02 1.950903e-02
         vertex 0.000000e+00 9.238795e-02 3.826834e-02
      endloop
   endfacet
   facet normal -0.000000e+00 9.569403e-01 2.902847e-01
      outer loop
         vertex 1.000000e+00 9.807853e-02 1.950903e-02
         vertex 0.000000e+00 9.238795e-02 3.826834e-02
         vertex 1.000000e+00 9.238795e-02 3.826834e-02
      endloop
   endfacet
   facet normal -0.000000e+00 8.819213e-01 4.713967e-01
      outer loop
         vertex 1.000000e+00 9.238795e-02 3.826834e-02
         vertex 0.000000e+00 9.238795e-02 3.826834e-02
         vertex 0.000000e+00 8.314696e-02 5.555702e-02
      endloop
   endfacet
   facet normal -0.000000e+00 8.819213e-01 4.713967e-01
      outer loop
         vertex 1.000000e+00 9.238795e-02 3.826834e-02
         vertex 0.000000e+00 8.314696e-02 5.555702e-02
         vertex 1.000000e+00 8.314696e-02 5.555702e-02
      endloop
   endfacet
   facet normal -0.000000e+00 7.730105e-01 6.343933e-01
      outer loop
         vertex 1.000000e+00 8.314696e-02 5.555702e-02
         vertex 0.000000e+00 8.314696e-02 5.555702e-02
         vertex 0.000000e+00 7.071068e-02 7.071068e-02
      endloop
   endfacet
   facet normal -0.000000e+00 7.730105e-01 6.343933e-01
      outer loop
         vertex 1.000000e+00 8.314696e-02 5.555702e-02
         vertex 0.000000e+00 7.071068e-02 7.071068e-02
         vertex 1.000000e+00 7.071068e-02 7.071068e-02
      endloop
   endfacet
   facet normal -0.000000e+00 6.343933e-01 7.730105e-01
      outer loop
         vertex 1.000000e+00 7.071068e-02 7.071068e-02
         vertex 0.000000e+00 7.071068e-02 7.071068e-02
         vertex 0.000000e+00 5.555702e-02 8.314696e-02
      endloop
   endfacet
   facet normal -0.000000e+00 6.343933e-01 7.730105e-01
      outer loop
         vertex 1.000000e+00 7.071068e-02 7.071068e-02
         vertex 0.000000e+00 5.555702e-02 8.314696e-02
         vertex 1.000000e+00 5.555702e-02 8.314696e-02
      endloop
   endfacet
   facet normal -0.000000e+00 4.713967e-01 8.819213e-01
      outer loop
         vertex 1.000000e+00 5.555702e-02 8.314696e-02
         vertex 0.000000e+00 5.555702e-02 8.314696e-02
         vertex 0.000000e+00 3.826834e-02 9.238795e-02
      endloop
   endfacet
   facet normal -0.000000e+00 4.713967e-01 8.819213e-01
      outer loop
         vertex 1.000000e+00 5.555702e-02 8.314696e-02
         vertex 0.000000e+00 3.826834e-02 9.238795e-02
         vertex 1.000000e+00 3.826834e-02 9.238795e-02
      endloop
   endfacet
   facet normal -0.000000e+00 2.902847e-01 9.569403e-01
      outer loop
         vertex 1.000000e+00 3.826834e-02 9.238795e-02
         vertex 0.000000e+00 3.826834e-02 9.238795e-02
         vertex 0.000000e+00 1.950903e-02 9.807853e-02
      endloop
   endfacet
   facet normal -0.000000e+00 2.902847e-01 9.569403e-01
      outer loop
         vertex 1.000000e+00 3.826834e-02 9.238795e-02
         vertex 0.000000e+00 1.950903e-02 9.807853e-02
         vertex 1.000000e+00 1.950903e-02 9.807853e-02
      endloop
   endfacet
   facet normal -0.000000e+00 9.801714e-02 9.951847e-01
      outer loop
         vertex 1.000000e+00 1.950903e-02 9.807853e-02
         vertex 0.000000e+00 1.950903e-02 9.807853e-02
         vertex 0.000000e+00 9.790007e-18 1.000000e-01
      endloop
   endfacet
   facet normal -0.000000e+00 9.801714e-02 9.951847e-01
      outer loop
         vertex 1.000000e+00 1.950903e-02 9.807853e-02
         vertex 0.000000e+00 9.790007e-18 1.000000e-01
         vertex 1.000000e+00 9.790007e-18 1.000000e-01
      endloop
   endfacet
   facet normal -0.000000e+00 -9.801714e-02 9.951847e-01
      outer loop
         vertex 1.000000e+00 9.790007e-18 1.000000e-01
         vertex 0.000000e+00 9.790007e-18 1.000000e-01
         vertex 0.000000e+00 -1.950903e-02 9.807853e-02
      endloop
   endfacet
   facet normal -0.000000e+00 -9.801714e-02 9.951847e-01
      outer loop
         vertex 1.000000e+00 9.790007e-18 1.000000e-01
         vertex 0.000000e+00 -1.950903e-02 9.807853e-02
         vertex 1.000000e+00 -1.950903e-02 9.807853e-02
      endloop
   endfacet
   facet normal -0.000000e+00 -2.902847e-01 9.569403e-01
      outer loop
         vertex 1.000000e+00 -1.950903e-02 9.807853e-02
         vertex 0.000000e+00 -1.950903e-02 9.807853e-02
         vertex 0.000000e+00 -3.826834e-02 9.238795e-02
      endloop
   endfacet
   facet normal -0.000000e+00 -2.902847e-01 9.569403e-01
      outer loop
         vertex 1.000000e+00 -1.950903e-02 9.807853e-02
         vertex 0.000000e+00 -3.826834e-02 9.238795e-02
         vertex 1.000000e+00 -3.826834e-02 9.238795e-02
      endloop
   endfacet
   facet normal -0.000000e+00 -4.713967e-01 8.819213e-01
      outer loop
         vertex 1.000000e+00 -3.826834e-02 9.238795e-02
         vertex 0.000000e+00 -3.826834e-02 9.238795e-02
         vertex 0.000000e+00 -5.555702e-02 8.314696e-02
      endloop
   endfacet
   facet normal -0.000000e+00 -4.713967e-01 8.819213e-01
      outer loop
         vertex 1.000000e+00 -3.826834e-02 9.238795e-02
         vertex 0.000000e+00 -5.555702e-02 8.314696e-02
         vertex 1.000000e+00 -5.555702e-02 8.314696e-02
      endloop
   endfacet
   facet normal -0.000000e+00 -6.343933e-01 7.730105e-01
      outer loop
         vertex 1.000000e+00 -5.555702e-02 8.314696e-02
         vertex 0.000000e+00 -5.555702e-02 8.314696e-02
         vertex 0.000000e+00 -7.071068e-02 7.071068e-02
      endloop
   endfacet
   facet normal -0.000000e+00 -6.343933e-01 7.730105e-01
      outer loop
         vertex 1.000000e+00 -5.555702e-02 8.314696e-02
         vertex 0.000000e+00 -7.071068e-02 7.071068e-02
         vertex 1.000000e+00 -7.071068e-02 7.071068e-02
      endloop
   endfacet
   facet normal -0.000000e+00 -7.730105e-01 6.343933e-01
      outer loop
         vertex 1.000000e+00 -7.071068e-02 7.071068e-02
         vertex 0.000000e+00 -7.071068e-02 7.071068e-02
         vertex 0.000000e+00 -8.314696e-02 5.555702e-02
      endloop
   endfacet
   facet normal -0.000000e+00 -7.730105e-01 6.343933e-01
      outer loop
         vertex 1.000000e+00 -7.071068e-02 7.071068e-02
         vertex 0.000000e+00 -8.314696e-02 5.555702e-02
         vertex 1.000000e+00 -8.314696e-02 5.555702e-02
      endloop
   endfacet
   facet normal -0.000000e+00 -8.819213e-01 4.713967e-01
      outer loop
         vertex 1.000000e+00 -8.314696e-02 5.555702e-02
         vertex 0.000000e+00 -8.314696e-02 5.555702e-02
         vertex 0.000000e+00 -9.238795e-02 3.826834e-02
      endloop
   endfacet
   facet normal -0.000000e+00 -8.819213e-01 4.713967e-01
      outer loop
         vertex 1.000000e+00 -8.314696e-02 5.555702e-02
         vertex 0.000000e+00 -9.238795e-02 3.826834e-02
         vertex 1.000000e+00 -9.238795e-02 3.826834e-02
      endloop
   endfacet
   facet normal -0.000000e+00 -9.569403e-01 2.902847e-01
      outer loop
         vertex 1.000000e+00 -9.238795e-02 3.826834e-02
         vertex 0.000000e+00 -9.238795e-02 3.826834e-02
         vertex 0.000000e+00 -9.807853e-02 1.950903e-02
      endloop
   endfacet
   facet normal -0.000000e+00 -9.569403e-01 2.902847e-01
      outer loop
         vertex 1.000000e+00 -9.238795e-02 3.826834e-02
         vertex 0.000000e+00 -9.807853e-02 1.950903e-02
         vertex 1.000000e+00 -9.807853e-02 1.950903e-02
      endloop
   endfacet
   facet normal -0.000000e+00 -9.951847e-01 9.801714e-02
      outer loop
         vertex 1.000000e+00 -9.807853e-02 1.950903e-02
         vertex 0.000000e+00 -9.807853e-02 1.950903e-02
         vertex 0.000000e+00 -1.000000e-01 2.881775e-17
      endloop
   endfacet
   facet normal -0.000000e+00 -9.951847e-01 9.801714e-02
      outer loop
         vertex 1.000000e+00 -9.807853e-02 1.950903e-02
         vertex 0.000000e+00 -1.000000e-01 2.881775e-17
         vertex 1.000000e+00 -1.000000e-01 2.881775e-17
      endloop
   endfacet
endsolid
