solid sol7
   facet normal 0.000000e+00 -9.951847e-01 -9.801714e-02
      outer loop
         vertex 2.000000e+00 -1.000000e+00 0.000000e+00
         vertex 1.000000e+00 -1.000000e+00 0.000000e+00
         vertex 1.000000e+00 -9.807853e-01 -1.950903e-01
      endloop
   endfacet
   facet normal 0.000000e+00 -9.951847e-01 -9.801714e-02
      outer loop
         vertex 2.000000e+00 -1.000000e+00 0.000000e+00
         vertex 1.000000e+00 -9.807853e-01 -1.950903e-01
         vertex 2.000000e+00 -9.807853e-01 -1.950903e-01
      endloop
   endfacet
   facet normal 0.000000e+00 -9.569403e-01 -2.902847e-01
      outer loop
         vertex 2.000000e+00 -9.807853e-01 -1.950903e-01
         vertex 1.000000e+00 -9.807853e-01 -1.950903e-01
         vertex 1.000000e+00 -9.238795e-01 -3.826834e-01
      endloop
   endfacet
   facet normal 0.000000e+00 -9.569403e-01 -2.902847e-01
      outer loop
         vertex 2.000000e+00 -9.807853e-01 -1.950903e-01
         vertex 1.000000e+00 -9.238795e-01 -3.826834e-01
         vertex 2.000000e+00 -9.238795e-01 -3.826834e-01
      endloop
   endfacet
   facet normal 0.000000e+00 -8.819213e-01 -4.713967e-01
      outer loop
         vertex 2.000000e+00 -9.238795e-01 -3.826834e-01
         vertex 1.000000e+00 -9.238795e-01 -3.826834e-01
         vertex 1.000000e+00 -8.314696e-01 -5.555702e-01
      endloop
   endfacet
   facet normal 0.000000e+00 -8.819213e-01 -4.713967e-01
      outer loop
         vertex 2.000000e+00 -9.238795e-01 -3.826834e-01
         vertex 1.000000e+00 -8.314696e-01 -5.555702e-01
         vertex 2.000000e+00 -8.314696e-01 -5.555702e-01
      endloop
   endfacet
   facet normal 0.000000e+00 -7.730105e-01 -6.343933e-01
      outer loop
         vertex 2.000000e+00 -8.314696e-01 -5.555702e-01
         vertex 1.000000e+00 -8.314696e-01 -5.555702e-01
         vertex 1.000000e+00 -7.071068e-01 -7.071068e-01
      endloop
   endfacet
   facet normal 0.000000e+00 -7.730105e-01 -6.343933e-01
      outer loop
         vertex 2.000000e+00 -8.314696e-01 -5.555702e-01
         vertex 1.000000e+00 -7.071068e-01 -7.071068e-01
         vertex 2.000000e+00 -7.071068e-01 -7.071068e-01
      endloop
   endfacet
   facet normal 0.000000e+00 -6.343933e-01 -7.730105e-01
      outer loop
         vertex 2.000000e+00 -7.071068e-01 -7.071068e-01
         vertex 1.000000e+00 -7.071068e-01 -7.071068e-01
         vertex 1.000000e+00 -5.555702e-01 -8.314696e-01
      endloop
   endfacet
   facet normal 0.000000e+00 -6.343933e-01 -7.730105e-01
      outer loop
         vertex 2.000000e+00 -7.071068e-01 -7.071068e-01
         vertex 1.000000e+00 -5.555702e-01 -8.314696e-01
         vertex 2.000000e+00 -5.555702e-01 -8.314696e-01
      endloop
   endfacet
   facet normal 0.000000e+00 -4.713967e-01 -8.819213e-01
      outer loop
         vertex 2.000000e+00 -5.555702e-01 -8.314696e-01
         vertex 1.000000e+00 -5.555702e-01 -8.314696e-01
         vertex 1.000000e+00 -3.826834e-01 -9.238795e-01
      endloop
   endfacet
   facet normal 0.000000e+00 -4.713967e-01 -8.819213e-01
      outer loop
         vertex 2.000000e+00 -5.555702e-01 -8.314696e-01
         vertex 1.000000e+00 -3.826834e-01 -9.238795e-01
         vertex 2.000000e+00 -3.826834e-01 -9.238795e-01
      endloop
   endfacet
   facet normal 0.000000e+00 -2.902847e-01 -9.569403e-01
      outer loop
         vertex 2.000000e+00 -3.826834e-01 -9.238795e-01
         vertex 1.000000e+00 -3.826834e-01 -9.238795e-01
         vertex 1.000000e+00 -1.950903e-01 -9.807853e-01
      endloop
   endfacet
   facet normal 0.000000e+00 -2.902847e-01 -9.569403e-01
      outer loop
         vertex 2.000000e+00 -3.826834e-01 -9.238795e-01
         vertex 1.000000e+00 -1.950903e-01 -9.807853e-01
         vertex 2.000000e+00 -1.950903e-01 -9.807853e-01
      endloop
   endfacet
   facet normal 0.000000e+00 -9.801714e-02 -9.951847e-01
      outer loop
         vertex 2.000000e+00 -1.950903e-01 -9.807853e-01
         vertex 1.000000e+00 -1.950903e-01 -9.807853e-01
         vertex 1.000000e+00 -1.305379e-16 -1.000000e+00
      endloop
   endfacet
   facet normal 0.000000e+00 -9.801714e-02 -9.951847e-01
      outer loop
         vertex 2.000000e+00 -1.950903e-01 -9.807853e-01
         vertex 1.000000e+00 -1.305379e-16 -1.000000e+00
         vertex 2.000000e+00 -1.305379e-16 -1.000000e+00
      endloop
   endfacet
   facet normal -0.000000e+00 9.801714e-02 -9.951847e-01
      outer loop
         vertex 2.000000e+00 -1.305379e-16 -1.000000e+00
         vertex 1.000000e+00 -1.305379e-16 -1.000000e+00
         vertex 1.000000e+00 1.950903e-01 -9.807853e-01
      endloop
   endfacet
   facet normal -0.000000e+00 9.801714e-02 -9.951847e-01
      outer loop
         vertex 2.000000e+00 -1.305379e-16 -1.000000e+00
         vertex 1.000000e+00 1.950903e-01 -9.807853e-01
         vertex 2.000000e+00 1.950903e-01 -9.807853e-01
      endloop
   endfacet
   facet normal -0.000000e+00 2.902847e-01 -9.569403e-01
      outer loop
         vertex 2.000000e+00 1.950903e-01 -9.807853e-01
         vertex 1.000000e+00 1.950903e-01 -9.807853e-01
         vertex 1.000000e+00 3.826834e-01 -9.238795e-01
      endloop
   endfacet
   facet normal -0.000000e+00 2.902847e-01 -9.569403e-01
      outer loop
         vertex 2.000000e+00 1.950903e-01 -9.807853e-01
         vertex 1.000000e+00 3.826834e-01 -9.238795e-01
         vertex 2.000000e+00 3.826834e-01 -9.238795e-01
      endloop
   endfacet
   facet normal -0.000000e+00 4.713967e-01 -8.819213e-01
      outer loop
         vertex 2.000000e+00 3.826834e-01 -9.238795e-01
         vertex 1.000000e+00 3.826834e-01 -9.238795e-01
         vertex 1.000000e+00 5.555702e-01 -8.314696e-01
      endloop
   endfacet
   facet normal -0.000000e+00 4.713967e-01 -8.819213e-01
      outer loop
         vertex 2.000000e+00 3.826834e-01 -9.238795e-01
         vertex 1.000000e+00 5.555702e-01 -8.314696e-01
         vertex 2.000000e+00 5.555702e-01 -8.314696e-01
      endloop
   endfacet
   facet normal -0.000000e+00 6.343933e-01 -7.730105e-01
      outer loop
         vertex 2.000000e+00 5.555702e-01 -8.314696e-01
         vertex 1.000000e+00 5.555702e-01 -8.314696e-01
         vertex 1.000000e+00 7.071068e-01 -7.071068e-01
      endloop
   endfacet
   facet normal -0.000000e+00 6.343933e-01 -7.730105e-01
      outer loop
         vertex 2.000000e+00 5.555702e-01 -8.314696e-01
         vertex 1.000000e+00 7.071068e-01 -7.071068e-01
         vertex 2.000000e+00 7.071068e-01 -7.071068e-01
      endloop
   endfacet
   facet normal -0.000000e+00 7.730105e-01 -6.343933e-01
      outer loop
         vertex 2.000000e+00 7.071068e-01 -7.071068e-01
         vertex 1.000000e+00 7.071068e-01 -7.071068e-01
         vertex 1.000000e+00 8.314696e-01 -5.555702e-01
      endloop
   endfacet
   facet normal -0.000000e+00 7.730105e-01 -6.343933e-01
      outer loop
         vertex 2.000000e+00 7.071068e-01 -7.071068e-01
         vertex 1.000000e+00 8.314696e-01 -5.555702e-01
         vertex 2.000000e+00 8.314696e-01 -5.555702e-01
      endloop
   endfacet
   facet normal -0.000000e+00 8.819213e-01 -4.713967e-01
      outer loop
         vertex 2.000000e+00 8.314696e-01 -5.555702e-01
         vertex 1.000000e+00 8.314696e-01 -5.555702e-01
         vertex 1.000000e+00 9.238795e-01 -3.826834e-01
      endloop
   endfacet
   facet normal -0.000000e+00 8.819213e-01 -4.713967e-01
      outer loop
         vertex 2.000000e+00 8.314696e-01 -5.555702e-01
         vertex 1.000000e+00 9.238795e-01 -3.826834e-01
         vertex 2.000000e+00 9.238795e-01 -3.826834e-01
      endloop
   endfacet
   facet normal -0.000000e+00 9.569403e-01 -2.902847e-01
      outer loop
         vertex 2.000000e+00 9.238795e-01 -3.826834e-01
         vertex 1.000000e+00 9.238795e-01 -3.826834e-01
         vertex 1.000000e+00 9.807853e-01 -1.950903e-01
      endloop
   endfacet
   facet normal -0.000000e+00 9.569403e-01 -2.902847e-01
      outer loop
         vertex 2.000000e+00 9.238795e-01 -3.826834e-01
         vertex 1.000000e+00 9.807853e-01 -1.950903e-01
         vertex 2.000000e+00 9.807853e-01 -1.950903e-01
      endloop
   endfacet
   facet normal -0.000000e+00 9.951847e-01 -9.801714e-02
      outer loop
         vertex 2.000000e+00 9.807853e-01 -1.950903e-01
         vertex 1.000000e+00 9.807853e-01 -1.950903e-01
         vertex 1.000000e+00 1.000000e+00 -1.738654e-16
      endloop
   endfacet
   facet normal -0.000000e+00 9.951847e-01 -9.801714e-02
      outer loop
         vertex 2.000000e+00 9.807853e-01 -1.950903e-01
         vertex 1.000000e+00 1.000000e+00 -1.738654e-16
         vertex 2.000000e+00 1.000000e+00 -1.738654e-16
      endloop
   endfacet
   facet normal -1.000000e+00 -1.224606e-16 0.000000e+00
      outer loop
         vertex 1.000000e+00 2.450297e-16 1.000000e+00
         vertex 1.000000e+00 1.950903e-01 9.807853e-01
         vertex 1.000000e+00 -1.950903e-01 9.807853e-01
      endloop
   endfacet
   facet normal -1.000000e+00 -1.224606e-16 0.000000e+00
      outer loop
         vertex 1.000000e+00 1.950903e-01 9.807853e-01
         vertex 1.000000e+00 3.826834e-01 9.238795e-01
         vertex 1.000000e+00 -1.950903e-01 9.807853e-01
      endloop
   endfacet
   facet normal -1.000000e+00 -1.224606e-16 0.000000e+00
      outer loop
         vertex 1.000000e+00 -1.950903e-01 9.807853e-01
         vertex 1.000000e+00 3.826834e-01 9.238795e-01
         vertex 1.000000e+00 -3.826834e-01 9.238795e-01
      endloop
   endfacet
   facet normal -1.000000e+00 -1.224606e-16 0.000000e+00
      outer loop
         vertex 1.000000e+00 3.826834e-01 9.238795e-01
         vertex 1.000000e+00 5.555702e-01 8.314696e-01
         vertex 1.000000e+00 -3.826834e-01 9.238795e-01
      endloop
   endfacet
   facet normal -1.000000e+00 -1.224606e-16 0.000000e+00
      outer loop
         vertex 1.000000e+00 -3.826834e-01 9.238795e-01
         vertex 1.000000e+00 5.555702e-01 8.314696e-01
         vertex 1.000000e+00 -5.555702e-01 8.314696e-01
      endloop
   endfacet
   facet normal -1.000000e+00 -1.224606e-16 0.000000e+00
      outer loop
         vertex 1.000000e+00 5.555702e-01 8.314696e-01
         vertex 1.000000e+00 4.898425e-17 8.000000e-01
         vertex 1.000000e+00 -5.555702e-01 8.314696e-01
      endloop
   endfacet
   facet normal -1.000000e+00 -1.224606e-16 0.000000e+00
      outer loop
         vertex 1.000000e+00 -5.555702e-01 8.314696e-01
         vertex 1.000000e+00 4.898425e-17 8.000000e-01
         vertex 1.000000e+00 -1.560723e-01 7.846282e-01
      endloop
   endfacet
   facet normal -1.000000e+00 -1.224606e-16 0.000000e+00
      outer loop
         vertex 1.000000e+00 5.656854e-01 5.656854e-01
         vertex 1.000000e+00 4.444562e-01 6.651757e-01
         vertex 1.000000e+00 7.071068e-01 7.071068e-01
      endloop
   endfacet
   facet normal -1.000000e+00 -1.224606e-16 0.000000e+00
      outer loop
         vertex 1.000000e+00 4.444562e-01 6.651757e-01
         vertex 1.000000e+00 3.061467e-01 7.391036e-01
         vertex 1.000000e+00 7.071068e-01 7.071068e-01
      endloop
   endfacet
   facet normal -1.000000e+00 -1.224606e-16 0.000000e+00
      outer loop
         vertex 1.000000e+00 7.071068e-01 7.071068e-01
         vertex 1.000000e+00 3.061467e-01 7.391036e-01
         vertex 1.000000e+00 5.555702e-01 8.314696e-01
      endloop
   endfacet
   facet normal -1.000000e+00 -1.224606e-16 0.000000e+00
      outer loop
         vertex 1.000000e+00 3.061467e-01 7.391036e-01
         vertex 1.000000e+00 1.560723e-01 7.846282e-01
         vertex 1.000000e+00 5.555702e-01 8.314696e-01
      endloop
   endfacet
   facet normal -1.000000e+00 -1.224606e-16 0.000000e+00
      outer loop
         vertex 1.000000e+00 5.555702e-01 8.314696e-01
         vertex 1.000000e+00 1.560723e-01 7.846282e-01
         vertex 1.000000e+00 4.898425e-17 8.000000e-01
      endloop
   endfacet
   facet normal -1.000000e+00 -1.224606e-16 0.000000e+00
      outer loop
         vertex 1.000000e+00 7.846282e-01 -1.560723e-01
         vertex 1.000000e+00 8.000000e-01 -9.796851e-17
         vertex 1.000000e+00 1.000000e+00 -7.277707e-17
      endloop
   endfacet
   facet normal -1.000000e+00 -1.224606e-16 0.000000e+00
      outer loop
         vertex 1.000000e+00 8.000000e-01 -9.796851e-17
         vertex 1.000000e+00 7.846282e-01 1.560723e-01
         vertex 1.000000e+00 1.000000e+00 -7.277707e-17
      endloop
   endfacet
   facet normal -1.000000e+00 -1.224606e-16 0.000000e+00
      outer loop
         vertex 1.000000e+00 1.000000e+00 -7.277707e-17
         vertex 1.000000e+00 7.846282e-01 1.560723e-01
         vertex 1.000000e+00 9.807853e-01 1.950903e-01
      endloop
   endfacet
   facet normal -1.000000e+00 -1.224606e-16 0.000000e+00
      outer loop
         vertex 1.000000e+00 7.846282e-01 1.560723e-01
         vertex 1.000000e+00 7.391036e-01 3.061467e-01
         vertex 1.000000e+00 9.807853e-01 1.950903e-01
      endloop
   endfacet
   facet normal -1.000000e+00 -1.224606e-16 0.000000e+00
      outer loop
         vertex 1.000000e+00 9.807853e-01 1.950903e-01
         vertex 1.000000e+00 7.391036e-01 3.061467e-01
         vertex 1.000000e+00 9.238795e-01 3.826834e-01
      endloop
   endfacet
   facet normal -1.000000e+00 -1.224606e-16 0.000000e+00
      outer loop
         vertex 1.000000e+00 7.391036e-01 3.061467e-01
         vertex 1.000000e+00 6.651757e-01 4.444562e-01
         vertex 1.000000e+00 9.238795e-01 3.826834e-01
      endloop
   endfacet
   facet normal -1.000000e+00 -1.224606e-16 0.000000e+00
      outer loop
         vertex 1.000000e+00 9.238795e-01 3.826834e-01
         vertex 1.000000e+00 6.651757e-01 4.444562e-01
         vertex 1.000000e+00 8.314696e-01 5.555702e-01
      endloop
   endfacet
   facet normal -1.000000e+00 -1.224606e-16 0.000000e+00
      outer loop
         vertex 1.000000e+00 6.651757e-01 4.444562e-01
         vertex 1.000000e+00 5.656854e-01 5.656854e-01
         vertex 1.000000e+00 8.314696e-01 5.555702e-01
      endloop
   endfacet
   facet normal -1.000000e+00 -1.224606e-16 0.000000e+00
      outer loop
         vertex 1.000000e+00 8.314696e-01 5.555702e-01
         vertex 1.000000e+00 5.656854e-01 5.656854e-01
         vertex 1.000000e+00 7.071068e-01 7.071068e-01
      endloop
   endfacet
   facet normal -1.000000e+00 -1.224606e-16 0.000000e+00
      outer loop
         vertex 1.000000e+00 4.444562e-01 -6.651757e-01
         vertex 1.000000e+00 5.656854e-01 -5.656854e-01
         vertex 1.000000e+00 8.314696e-01 -5.555702e-01
      endloop
   endfacet
   facet normal -1.000000e+00 -1.224606e-16 0.000000e+00
      outer loop
         vertex 1.000000e+00 5.656854e-01 -5.656854e-01
         vertex 1.000000e+00 6.651757e-01 -4.444562e-01
         vertex 1.000000e+00 8.314696e-01 -5.555702e-01
      endloop
   endfacet
   facet normal -1.000000e+00 -1.224606e-16 0.000000e+00
      outer loop
         vertex 1.000000e+00 8.314696e-01 -5.555702e-01
         vertex 1.000000e+00 6.651757e-01 -4.444562e-01
         vertex 1.000000e+00 9.238795e-01 -3.826834e-01
      endloop
   endfacet
   facet normal -1.000000e+00 -1.224606e-16 0.000000e+00
      outer loop
         vertex 1.000000e+00 6.651757e-01 -4.444562e-01
         vertex 1.000000e+00 7.391036e-01 -3.061467e-01
         vertex 1.000000e+00 9.238795e-01 -3.826834e-01
      endloop
   endfacet
   facet normal -1.000000e+00 -1.224606e-16 0.000000e+00
      outer loop
         vertex 1.000000e+00 9.238795e-01 -3.826834e-01
         vertex 1.000000e+00 7.391036e-01 -3.061467e-01
         vertex 1.000000e+00 9.807853e-01 -1.950903e-01
      endloop
   endfacet
   facet normal -1.000000e+00 -1.224606e-16 0.000000e+00
      outer loop
         vertex 1.000000e+00 7.391036e-01 -3.061467e-01
         vertex 1.000000e+00 7.846282e-01 -1.560723e-01
         vertex 1.000000e+00 9.807853e-01 -1.950903e-01
      endloop
   endfacet
   facet normal -1.000000e+00 -1.224606e-16 0.000000e+00
      outer loop
         vertex 1.000000e+00 9.807853e-01 -1.950903e-01
         vertex 1.000000e+00 7.846282e-01 -1.560723e-01
         vertex 1.000000e+00 1.000000e+00 -7.277707e-17
      endloop
   endfacet
   facet normal -1.000000e+00 -1.224606e-16 0.000000e+00
      outer loop
         vertex 1.000000e+00 7.071068e-01 -7.071068e-01
         vertex 1.000000e+00 5.555702e-01 -8.314696e-01
         vertex 1.000000e+00 1.560723e-01 -7.846282e-01
      endloop
   endfacet
   facet normal -1.000000e+00 -1.224606e-16 0.000000e+00
      outer loop
         vertex 1.000000e+00 7.071068e-01 -7.071068e-01
         vertex 1.000000e+00 1.560723e-01 -7.846282e-01
         vertex 1.000000e+00 3.061467e-01 -7.391036e-01
      endloop
   endfacet
   facet normal -1.000000e+00 -1.224606e-16 0.000000e+00
      outer loop
         vertex 1.000000e+00 7.071068e-01 -7.071068e-01
         vertex 1.000000e+00 3.061467e-01 -7.391036e-01
         vertex 1.000000e+00 4.444562e-01 -6.651757e-01
      endloop
   endfacet
   facet normal -1.000000e+00 -1.224606e-16 0.000000e+00
      outer loop
         vertex 1.000000e+00 7.071068e-01 -7.071068e-01
         vertex 1.000000e+00 4.444562e-01 -6.651757e-01
         vertex 1.000000e+00 8.314696e-01 -5.555702e-01
      endloop
   endfacet
   facet normal -1.000000e+00 -1.224606e-16 0.000000e+00
      outer loop
         vertex 1.000000e+00 2.449213e-16 -1.000000e+00
         vertex 1.000000e+00 -1.950903e-01 -9.807853e-01
         vertex 1.000000e+00 1.950903e-01 -9.807853e-01
      endloop
   endfacet
   facet normal -1.000000e+00 -1.224606e-16 0.000000e+00
      outer loop
         vertex 1.000000e+00 -1.950903e-01 -9.807853e-01
         vertex 1.000000e+00 -3.826834e-01 -9.238795e-01
         vertex 1.000000e+00 1.950903e-01 -9.807853e-01
      endloop
   endfacet
   facet normal -1.000000e+00 -1.224606e-16 0.000000e+00
      outer loop
         vertex 1.000000e+00 1.950903e-01 -9.807853e-01
         vertex 1.000000e+00 -3.826834e-01 -9.238795e-01
         vertex 1.000000e+00 3.826834e-01 -9.238795e-01
      endloop
   endfacet
   facet normal -1.000000e+00 -1.224606e-16 0.000000e+00
      outer loop
         vertex 1.000000e+00 -3.826834e-01 -9.238795e-01
         vertex 1.000000e+00 -5.555702e-01 -8.314696e-01
         vertex 1.000000e+00 3.826834e-01 -9.238795e-01
      endloop
   endfacet
   facet normal -1.000000e+00 -1.224606e-16 0.000000e+00
      outer loop
         vertex 1.000000e+00 3.826834e-01 -9.238795e-01
         vertex 1.000000e+00 -5.555702e-01 -8.314696e-01
         vertex 1.000000e+00 5.555702e-01 -8.314696e-01
      endloop
   endfacet
   facet normal -1.000000e+00 -1.224606e-16 0.000000e+00
      outer loop
         vertex 1.000000e+00 -5.555702e-01 -8.314696e-01
         vertex 1.000000e+00 -4.898425e-17 -8.000000e-01
         vertex 1.000000e+00 5.555702e-01 -8.314696e-01
      endloop
   endfacet
   facet normal -1.000000e+00 -1.224606e-16 0.000000e+00
      outer loop
         vertex 1.000000e+00 5.555702e-01 -8.314696e-01
         vertex 1.000000e+00 -4.898425e-17 -8.000000e-01
         vertex 1.000000e+00 1.560723e-01 -7.846282e-01
      endloop
   endfacet
   facet normal -1.000000e+00 -1.224606e-16 0.000000e+00
      outer loop
         vertex 1.000000e+00 -3.061467e-01 7.391036e-01
         vertex 1.000000e+00 -4.444562e-01 6.651757e-01
         vertex 1.000000e+00 -7.071068e-01 7.071068e-01
      endloop
   endfacet
   facet normal -1.000000e+00 -1.224606e-16 0.000000e+00
      outer loop
         vertex 1.000000e+00 -3.061467e-01 7.391036e-01
         vertex 1.000000e+00 -7.071068e-01 7.071068e-01
         vertex 1.000000e+00 -5.555702e-01 8.314696e-01
      endloop
   endfacet
   facet normal -1.000000e+00 -1.224606e-16 0.000000e+00
      outer loop
         vertex 1.000000e+00 -3.061467e-01 7.391036e-01
         vertex 1.000000e+00 -5.555702e-01 8.314696e-01
         vertex 1.000000e+00 -1.560723e-01 7.846282e-01
      endloop
   endfacet
   facet normal -1.000000e+00 -1.224606e-16 0.000000e+00
      outer loop
         vertex 1.000000e+00 -7.846282e-01 1.560723e-01
         vertex 1.000000e+00 -9.807853e-01 1.950903e-01
         vertex 1.000000e+00 -7.391036e-01 3.061467e-01
      endloop
   endfacet
   facet normal -1.000000e+00 -1.224606e-16 0.000000e+00
      outer loop
         vertex 1.000000e+00 -9.807853e-01 1.950903e-01
         vertex 1.000000e+00 -9.238795e-01 3.826834e-01
         vertex 1.000000e+00 -7.391036e-01 3.061467e-01
      endloop
   endfacet
   facet normal -1.000000e+00 -1.224606e-16 0.000000e+00
      outer loop
         vertex 1.000000e+00 -7.391036e-01 3.061467e-01
         vertex 1.000000e+00 -9.238795e-01 3.826834e-01
         vertex 1.000000e+00 -6.651757e-01 4.444562e-01
      endloop
   endfacet
   facet normal -1.000000e+00 -1.224606e-16 0.000000e+00
      outer loop
         vertex 1.000000e+00 -9.238795e-01 3.826834e-01
         vertex 1.000000e+00 -8.314696e-01 5.555702e-01
         vertex 1.000000e+00 -6.651757e-01 4.444562e-01
      endloop
   endfacet
   facet normal -1.000000e+00 -1.224606e-16 0.000000e+00
      outer loop
         vertex 1.000000e+00 -6.651757e-01 4.444562e-01
         vertex 1.000000e+00 -8.314696e-01 5.555702e-01
         vertex 1.000000e+00 -5.656854e-01 5.656854e-01
      endloop
   endfacet
   facet normal -1.000000e+00 -1.224606e-16 0.000000e+00
      outer loop
         vertex 1.000000e+00 -8.314696e-01 5.555702e-01
         vertex 1.000000e+00 -7.071068e-01 7.071068e-01
         vertex 1.000000e+00 -5.656854e-01 5.656854e-01
      endloop
   endfacet
   facet normal -1.000000e+00 -1.224606e-16 0.000000e+00
      outer loop
         vertex 1.000000e+00 -5.656854e-01 5.656854e-01
         vertex 1.000000e+00 -7.071068e-01 7.071068e-01
         vertex 1.000000e+00 -4.444562e-01 6.651757e-01
      endloop
   endfacet
   facet normal -1.000000e+00 -1.224606e-16 0.000000e+00
      outer loop
         vertex 1.000000e+00 -5.656854e-01 -5.656854e-01
         vertex 1.000000e+00 -8.314696e-01 -5.555702e-01
         vertex 1.000000e+00 -6.651757e-01 -4.444562e-01
      endloop
   endfacet
   facet normal -1.000000e+00 -1.224606e-16 0.000000e+00
      outer loop
         vertex 1.000000e+00 -8.314696e-01 -5.555702e-01
         vertex 1.000000e+00 -9.238795e-01 -3.826834e-01
         vertex 1.000000e+00 -6.651757e-01 -4.444562e-01
      endloop
   endfacet
   facet normal -1.000000e+00 -1.224606e-16 0.000000e+00
      outer loop
         vertex 1.000000e+00 -6.651757e-01 -4.444562e-01
         vertex 1.000000e+00 -9.238795e-01 -3.826834e-01
         vertex 1.000000e+00 -7.391036e-01 -3.061467e-01
      endloop
   endfacet
   facet normal -1.000000e+00 -1.224606e-16 0.000000e+00
      outer loop
         vertex 1.000000e+00 -9.238795e-01 -3.826834e-01
         vertex 1.000000e+00 -9.807853e-01 -1.950903e-01
         vertex 1.000000e+00 -7.391036e-01 -3.061467e-01
      endloop
   endfacet
   facet normal -1.000000e+00 -1.224606e-16 0.000000e+00
      outer loop
         vertex 1.000000e+00 -7.391036e-01 -3.061467e-01
         vertex 1.000000e+00 -9.807853e-01 -1.950903e-01
         vertex 1.000000e+00 -7.846282e-01 -1.560723e-01
      endloop
   endfacet
   facet normal -1.000000e+00 -1.224606e-16 0.000000e+00
      outer loop
         vertex 1.000000e+00 -9.807853e-01 -1.950903e-01
         vertex 1.000000e+00 -1.000000e+00 -1.836910e-16
         vertex 1.000000e+00 -7.846282e-01 -1.560723e-01
      endloop
   endfacet
   facet normal -1.000000e+00 -1.224606e-16 0.000000e+00
      outer loop
         vertex 1.000000e+00 -7.846282e-01 -1.560723e-01
         vertex 1.000000e+00 -1.000000e+00 -1.836910e-16
         vertex 1.000000e+00 -8.000000e-01 9.796851e-17
      endloop
   endfacet
   facet normal -1.000000e+00 -1.224606e-16 0.000000e+00
      outer loop
         vertex 1.000000e+00 -1.000000e+00 -1.836910e-16
         vertex 1.000000e+00 -9.807853e-01 1.950903e-01
         vertex 1.000000e+00 -8.000000e-01 9.796851e-17
      endloop
   endfacet
   facet normal -1.000000e+00 -1.224606e-16 0.000000e+00
      outer loop
         vertex 1.000000e+00 -8.000000e-01 9.796851e-17
         vertex 1.000000e+00 -9.807853e-01 1.950903e-01
         vertex 1.000000e+00 -7.846282e-01 1.560723e-01
      endloop
   endfacet
   facet normal -1.000000e+00 -1.224606e-16 0.000000e+00
      outer loop
         vertex 1.000000e+00 -4.444562e-01 -6.651757e-01
         vertex 1.000000e+00 -3.061467e-01 -7.391036e-01
         vertex 1.000000e+00 -7.071068e-01 -7.071068e-01
      endloop
   endfacet
   facet normal -1.000000e+00 -1.224606e-16 0.000000e+00
      outer loop
         vertex 1.000000e+00 -4.444562e-01 -6.651757e-01
         vertex 1.000000e+00 -7.071068e-01 -7.071068e-01
         vertex 1.000000e+00 -8.314696e-01 -5.555702e-01
      endloop
   endfacet
   facet normal -1.000000e+00 -1.224606e-16 0.000000e+00
      outer loop
         vertex 1.000000e+00 -4.444562e-01 -6.651757e-01
         vertex 1.000000e+00 -8.314696e-01 -5.555702e-01
         vertex 1.000000e+00 -5.656854e-01 -5.656854e-01
      endloop
   endfacet
   facet normal -1.000000e+00 -1.224606e-16 0.000000e+00
      outer loop
         vertex 1.000000e+00 -1.560723e-01 -7.846282e-01
         vertex 1.000000e+00 -4.898425e-17 -8.000000e-01
         vertex 1.000000e+00 -5.555702e-01 -8.314696e-01
      endloop
   endfacet
   facet normal -1.000000e+00 -1.224606e-16 0.000000e+00
      outer loop
         vertex 1.000000e+00 -1.560723e-01 -7.846282e-01
         vertex 1.000000e+00 -5.555702e-01 -8.314696e-01
         vertex 1.000000e+00 -7.071068e-01 -7.071068e-01
      endloop
   endfacet
   facet normal -1.000000e+00 -1.224606e-16 0.000000e+00
      outer loop
         vertex 1.000000e+00 -1.560723e-01 -7.846282e-01
         vertex 1.000000e+00 -7.071068e-01 -7.071068e-01
         vertex 1.000000e+00 -3.061467e-01 -7.391036e-01
      endloop
   endfacet
   facet normal -0.000000e+00 9.951847e-01 9.801714e-02
      outer loop
         vertex 2.000000e+00 1.000000e+00 0.000000e+00
         vertex 1.000000e+00 1.000000e+00 0.000000e+00
         vertex 1.000000e+00 9.807853e-01 1.950903e-01
      endloop
   endfacet
   facet normal -0.000000e+00 9.951847e-01 9.801714e-02
      outer loop
         vertex 2.000000e+00 1.000000e+00 0.000000e+00
         vertex 1.000000e+00 9.807853e-01 1.950903e-01
         vertex 2.000000e+00 9.807853e-01 1.950903e-01
      endloop
   endfacet
   facet normal -0.000000e+00 9.569403e-01 2.902847e-01
      outer loop
         vertex 2.000000e+00 9.807853e-01 1.950903e-01
         vertex 1.000000e+00 9.807853e-01 1.950903e-01
         vertex 1.000000e+00 9.238795e-01 3.826834e-01
      endloop
   endfacet
   facet normal -0.000000e+00 9.569403e-01 2.902847e-01
      outer loop
         vertex 2.000000e+00 9.807853e-01 1.950903e-01
         vertex 1.000000e+00 9.238795e-01 3.826834e-01
         vertex 2.000000e+00 9.238795e-01 3.826834e-01
      endloop
   endfacet
   facet normal -0.000000e+00 8.819213e-01 4.713967e-01
      outer loop
         vertex 2.000000e+00 9.238795e-01 3.826834e-01
         vertex 1.000000e+00 9.238795e-01 3.826834e-01
         vertex 1.000000e+00 8.314696e-01 5.555702e-01
      endloop
   endfacet
   facet normal -0.000000e+00 8.819213e-01 4.713967e-01
      outer loop
         vertex 2.000000e+00 9.238795e-01 3.826834e-01
         vertex 1.000000e+00 8.314696e-01 5.555702e-01
         vertex 2.000000e+00 8.314696e-01 5.555702e-01
      endloop
   endfacet
   facet normal -0.000000e+00 7.730105e-01 6.343933e-01
      outer loop
         vertex 2.000000e+00 8.314696e-01 5.555702e-01
         vertex 1.000000e+00 8.314696e-01 5.555702e-01
         vertex 1.000000e+00 7.071068e-01 7.071068e-01
      endloop
   endfacet
   facet normal -0.000000e+00 7.730105e-01 6.343933e-01
      outer loop
         vertex 2.000000e+00 8.314696e-01 5.555702e-01
         vertex 1.000000e+00 7.071068e-01 7.071068e-01
         vertex 2.000000e+00 7.071068e-01 7.071068e-01
      endloop
   endfacet
   facet normal -0.000000e+00 6.343933e-01 7.730105e-01
      outer loop
         vertex 2.000000e+00 7.071068e-01 7.071068e-01
         vertex 1.000000e+00 7.071068e-01 7.071068e-01
         vertex 1.000000e+00 5.555702e-01 8.314696e-01
      endloop
   endfacet
   facet normal -0.000000e+00 6.343933e-01 7.730105e-01
      outer loop
         vertex 2.000000e+00 7.071068e-01 7.071068e-01
         vertex 1.000000e+00 5.555702e-01 8.314696e-01
         vertex 2.000000e+00 5.555702e-01 8.314696e-01
      endloop
   endfacet
   facet normal -0.000000e+00 4.713967e-01 8.819213e-01
      outer loop
         vertex 2.000000e+00 5.555702e-01 8.314696e-01
         vertex 1.000000e+00 5.555702e-01 8.314696e-01
         vertex 1.000000e+00 3.826834e-01 9.238795e-01
      endloop
   endfacet
   facet normal -0.000000e+00 4.713967e-01 8.819213e-01
      outer loop
         vertex 2.000000e+00 5.555702e-01 8.314696e-01
         vertex 1.000000e+00 3.826834e-01 9.238795e-01
         vertex 2.000000e+00 3.826834e-01 9.238795e-01
      endloop
   endfacet
   facet normal -0.000000e+00 2.902847e-01 9.569403e-01
      outer loop
         vertex 2.000000e+00 3.826834e-01 9.238795e-01
         vertex 1.000000e+00 3.826834e-01 9.238795e-01
         vertex 1.000000e+00 1.950903e-01 9.807853e-01
      endloop
   endfacet
   facet normal -0.000000e+00 2.902847e-01 9.569403e-01
      outer loop
         vertex 2.000000e+00 3.826834e-01 9.238795e-01
         vertex 1.000000e+00 1.950903e-01 9.807853e-01
         vertex 2.000000e+00 1.950903e-01 9.807853e-01
      endloop
   endfacet
   facet normal -0.000000e+00 9.801714e-02 9.951847e-01
      outer loop
         vertex 2.000000e+00 1.950903e-01 9.807853e-01
         vertex 1.000000e+00 1.950903e-01 9.807853e-01
         vertex 1.000000e+00 1.305379e-16 1.000000e+00
      endloop
   endfacet
   facet normal -0.000000e+00 9.801714e-02 9.951847e-01
      outer loop
         vertex 2.000000e+00 1.950903e-01 9.807853e-01
         vertex 1.000000e+00 1.305379e-16 1.000000e+00
         vertex 2.000000e+00 1.305379e-16 1.000000e+00
      endloop
   endfacet
   facet normal -0.000000e+00 -9.801714e-02 9.951847e-01
      outer loop
         vertex 2.000000e+00 1.305379e-16 1.000000e+00
         vertex 1.000000e+00 1.305379e-16 1.000000e+00
         vertex 1.000000e+00 -1.950903e-01 9.807853e-01
      endloop
   endfacet
   facet normal -0.000000e+00 -9.801714e-02 9.951847e-01
      outer loop
         vertex 2.000000e+00 1.305379e-16 1.000000e+00
         vertex 1.000000e+00 -1.950903e-01 9.807853e-01
         vertex 2.000000e+00 -1.950903e-01 9.807853e-01
      endloop
   endfacet
   facet normal -0.000000e+00 -2.902847e-01 9.569403e-01
      outer loop
         vertex 2.000000e+00 -1.950903e-01 9.807853e-01
         vertex 1.000000e+00 -1.950903e-01 9.807853e-01
         vertex 1.000000e+00 -3.826834e-01 9.238795e-01
      endloop
   endfacet
   facet normal -0.000000e+00 -2.902847e-01 9.569403e-01
      outer loop
         vertex 2.000000e+00 -1.950903e-01 9.807853e-01
         vertex 1.000000e+00 -3.826834e-01 9.238795e-01
         vertex 2.000000e+00 -3.826834e-01 9.238795e-01
      endloop
   endfacet
   facet normal -0.000000e+00 -4.713967e-01 8.819213e-01
      outer loop
         vertex 2.000000e+00 -3.826834e-01 9.238795e-01
         vertex 1.000000e+00 -3.826834e-01 9.238795e-01
         vertex 1.000000e+00 -5.555702e-01 8.314696e-01
      endloop
   endfacet
   facet normal -0.000000e+00 -4.713967e-01 8.819213e-01
      outer loop
         vertex 2.000000e+00 -3.826834e-01 9.238795e-01
         vertex 1.000000e+00 -5.555702e-01 8.314696e-01
         vertex 2.000000e+00 -5.555702e-01 8.314696e-01
      endloop
   endfacet
   facet normal -0.000000e+00 -6.343933e-01 7.730105e-01
      outer loop
         vertex 2.000000e+00 -5.555702e-01 8.314696e-01
         vertex 1.000000e+00 -5.555702e-01 8.314696e-01
         vertex 1.000000e+00 -7.071068e-01 7.071068e-01
      endloop
   endfacet
   facet normal -0.000000e+00 -6.343933e-01 7.730105e-01
      outer loop
         vertex 2.000000e+00 -5.555702e-01 8.314696e-01
         vertex 1.000000e+00 -7.071068e-01 7.071068e-01
         vertex 2.000000e+00 -7.071068e-01 7.071068e-01
      endloop
   endfacet
   facet normal -0.000000e+00 -7.730105e-01 6.343933e-01
      outer loop
         vertex 2.000000e+00 -7.071068e-01 7.071068e-01
         vertex 1.000000e+00 -7.071068e-01 7.071068e-01
         vertex 1.000000e+00 -8.314696e-01 5.555702e-01
      endloop
   endfacet
   facet normal -0.000000e+00 -7.730105e-01 6.343933e-01
      outer loop
         vertex 2.000000e+00 -7.071068e-01 7.071068e-01
         vertex 1.000000e+00 -8.314696e-01 5.555702e-01
         vertex 2.000000e+00 -8.314696e-01 5.555702e-01
      endloop
   endfacet
   facet normal -0.000000e+00 -8.819213e-01 4.713967e-01
      outer loop
         vertex 2.000000e+00 -8.314696e-01 5.555702e-01
         vertex 1.000000e+00 -8.314696e-01 5.555702e-01
         vertex 1.000000e+00 -9.238795e-01 3.826834e-01
      endloop
   endfacet
   facet normal -0.000000e+00 -8.819213e-01 4.713967e-01
      outer loop
         vertex 2.000000e+00 -8.314696e-01 5.555702e-01
         vertex 1.000000e+00 -9.238795e-01 3.826834e-01
         vertex 2.000000e+00 -9.238795e-01 3.826834e-01
      endloop
   endfacet
   facet normal -0.000000e+00 -9.569403e-01 2.902847e-01
      outer loop
         vertex 2.000000e+00 -9.238795e-01 3.826834e-01
         vertex 1.000000e+00 -9.238795e-01 3.826834e-01
         vertex 1.000000e+00 -9.807853e-01 1.950903e-01
      endloop
   endfacet
   facet normal -0.000000e+00 -9.569403e-01 2.902847e-01
      outer loop
         vertex 2.000000e+00 -9.238795e-01 3.826834e-01
         vertex 1.000000e+00 -9.807853e-01 1.950903e-01
         vertex 2.000000e+00 -9.807853e-01 1.950903e-01
      endloop
   endfacet
   facet normal -0.000000e+00 -9.951847e-01 9.801714e-02
      outer loop
         vertex 2.000000e+00 -9.807853e-01 1.950903e-01
         vertex 1.000000e+00 -9.807853e-01 1.950903e-01
         vertex 1.000000e+00 -1.000000e+00 1.738654e-16
      endloop
   endfacet
   facet normal -0.000000e+00 -9.951847e-01 9.801714e-02
      outer loop
         vertex 2.000000e+00 -9.807853e-01 1.950903e-01
         vertex 1.000000e+00 -1.000000e+00 1.738654e-16
         vertex 2.000000e+00 -1.000000e+00 1.738654e-16
      endloop
   endfacet
   facet normal 1.000000e+00 0.000000e+00 0.000000e+00
      outer loop
         vertex 2.000000e+00 -6.123032e-17 -1.000000e+00
         vertex 2.000000e+00 1.950903e-01 -9.807853e-01
         vertex 2.000000e+00 -1.950903e-01 -9.807853e-01
      endloop
   endfacet
   facet normal 1.000000e+00 0.000000e+00 0.000000e+00
      outer loop
         vertex 2.000000e+00 1.950903e-01 -9.807853e-01
         vertex 2.000000e+00 3.826834e-01 -9.238795e-01
         vertex 2.000000e+00 -1.950903e-01 -9.807853e-01
      endloop
   endfacet
   facet normal 1.000000e+00 0.000000e+00 0.000000e+00
      outer loop
         vertex 2.000000e+00 -1.950903e-01 -9.807853e-01
         vertex 2.000000e+00 3.826834e-01 -9.238795e-01
         vertex 2.000000e+00 -3.826834e-01 -9.238795e-01
      endloop
   endfacet
   facet normal 1.000000e+00 0.000000e+00 0.000000e+00
      outer loop
         vertex 2.000000e+00 3.826834e-01 -9.238795e-01
         vertex 2.000000e+00 5.555702e-01 -8.314696e-01
         vertex 2.000000e+00 -3.826834e-01 -9.238795e-01
      endloop
   endfacet
   facet normal 1.000000e+00 0.000000e+00 0.000000e+00
      outer loop
         vertex 2.000000e+00 -3.826834e-01 -9.238795e-01
         vertex 2.000000e+00 5.555702e-01 -8.314696e-01
         vertex 2.000000e+00 -5.555702e-01 -8.314696e-01
      endloop
   endfacet
   facet normal 1.000000e+00 0.000000e+00 0.000000e+00
      outer loop
         vertex 2.000000e+00 5.555702e-01 -8.314696e-01
         vertex 2.000000e+00 -4.898425e-17 -8.000000e-01
         vertex 2.000000e+00 -5.555702e-01 -8.314696e-01
      endloop
   endfacet
   facet normal 1.000000e+00 0.000000e+00 0.000000e+00
      outer loop
         vertex 2.000000e+00 -5.555702e-01 -8.314696e-01
         vertex 2.000000e+00 -4.898425e-17 -8.000000e-01
         vertex 2.000000e+00 -1.560723e-01 -7.846282e-01
      endloop
   endfacet
   facet normal 1.000000e+00 0.000000e+00 0.000000e+00
      outer loop
         vertex 2.000000e+00 5.656854e-01 -5.656854e-01
         vertex 2.000000e+00 4.444562e-01 -6.651757e-01
         vertex 2.000000e+00 7.071068e-01 -7.071068e-01
      endloop
   endfacet
   facet normal 1.000000e+00 0.000000e+00 0.000000e+00
      outer loop
         vertex 2.000000e+00 4.444562e-01 -6.651757e-01
         vertex 2.000000e+00 3.061467e-01 -7.391036e-01
         vertex 2.000000e+00 7.071068e-01 -7.071068e-01
      endloop
   endfacet
   facet normal 1.000000e+00 0.000000e+00 0.000000e+00
      outer loop
         vertex 2.000000e+00 7.071068e-01 -7.071068e-01
         vertex 2.000000e+00 3.061467e-01 -7.391036e-01
         vertex 2.000000e+00 5.555702e-01 -8.314696e-01
      endloop
   endfacet
   facet normal 1.000000e+00 0.000000e+00 0.000000e+00
      outer loop
         vertex 2.000000e+00 3.061467e-01 -7.391036e-01
         vertex 2.000000e+00 1.560723e-01 -7.846282e-01
         vertex 2.000000e+00 5.555702e-01 -8.314696e-01
      endloop
   endfacet
   facet normal 1.000000e+00 0.000000e+00 0.000000e+00
      outer loop
         vertex 2.000000e+00 5.555702e-01 -8.314696e-01
         vertex 2.000000e+00 1.560723e-01 -7.846282e-01
         vertex 2.000000e+00 -4.898425e-17 -8.000000e-01
      endloop
   endfacet
   facet normal 1.000000e+00 0.000000e+00 0.000000e+00
      outer loop
         vertex 2.000000e+00 7.846282e-01 1.560723e-01
         vertex 2.000000e+00 8.000000e-01 0.000000e+00
         vertex 2.000000e+00 1.000000e+00 -1.224606e-16
      endloop
   endfacet
   facet normal 1.000000e+00 0.000000e+00 0.000000e+00
      outer loop
         vertex 2.000000e+00 8.000000e-01 0.000000e+00
         vertex 2.000000e+00 7.846282e-01 -1.560723e-01
         vertex 2.000000e+00 1.000000e+00 -1.224606e-16
      endloop
   endfacet
   facet normal 1.000000e+00 0.000000e+00 0.000000e+00
      outer loop
         vertex 2.000000e+00 1.000000e+00 -1.224606e-16
         vertex 2.000000e+00 7.846282e-01 -1.560723e-01
         vertex 2.000000e+00 9.807853e-01 -1.950903e-01
      endloop
   endfacet
   facet normal 1.000000e+00 0.000000e+00 0.000000e+00
      outer loop
         vertex 2.000000e+00 7.846282e-01 -1.560723e-01
         vertex 2.000000e+00 7.391036e-01 -3.061467e-01
         vertex 2.000000e+00 9.807853e-01 -1.950903e-01
      endloop
   endfacet
   facet normal 1.000000e+00 0.000000e+00 0.000000e+00
      outer loop
         vertex 2.000000e+00 9.807853e-01 -1.950903e-01
         vertex 2.000000e+00 7.391036e-01 -3.061467e-01
         vertex 2.000000e+00 9.238795e-01 -3.826834e-01
      endloop
   endfacet
   facet normal 1.000000e+00 0.000000e+00 0.000000e+00
      outer loop
         vertex 2.000000e+00 7.391036e-01 -3.061467e-01
         vertex 2.000000e+00 6.651757e-01 -4.444562e-01
         vertex 2.000000e+00 9.238795e-01 -3.826834e-01
      endloop
   endfacet
   facet normal 1.000000e+00 0.000000e+00 0.000000e+00
      outer loop
         vertex 2.000000e+00 9.238795e-01 -3.826834e-01
         vertex 2.000000e+00 6.651757e-01 -4.444562e-01
         vertex 2.000000e+00 8.314696e-01 -5.555702e-01
      endloop
   endfacet
   facet normal 1.000000e+00 0.000000e+00 0.000000e+00
      outer loop
         vertex 2.000000e+00 6.651757e-01 -4.444562e-01
         vertex 2.000000e+00 5.656854e-01 -5.656854e-01
         vertex 2.000000e+00 8.314696e-01 -5.555702e-01
      endloop
   endfacet
   facet normal 1.000000e+00 0.000000e+00 0.000000e+00
      outer loop
         vertex 2.000000e+00 8.314696e-01 -5.555702e-01
         vertex 2.000000e+00 5.656854e-01 -5.656854e-01
         vertex 2.000000e+00 7.071068e-01 -7.071068e-01
      endloop
   endfacet
   facet normal 1.000000e+00 0.000000e+00 0.000000e+00
      outer loop
         vertex 2.000000e+00 4.444562e-01 6.651757e-01
         vertex 2.000000e+00 5.656854e-01 5.656854e-01
         vertex 2.000000e+00 8.314696e-01 5.555702e-01
      endloop
   endfacet
   facet normal 1.000000e+00 0.000000e+00 0.000000e+00
      outer loop
         vertex 2.000000e+00 5.656854e-01 5.656854e-01
         vertex 2.000000e+00 6.651757e-01 4.444562e-01
         vertex 2.000000e+00 8.314696e-01 5.555702e-01
      endloop
   endfacet
   facet normal 1.000000e+00 0.000000e+00 0.000000e+00
      outer loop
         vertex 2.000000e+00 8.314696e-01 5.555702e-01
         vertex 2.000000e+00 6.651757e-01 4.444562e-01
         vertex 2.000000e+00 9.238795e-01 3.826834e-01
      endloop
   endfacet
   facet normal 1.000000e+00 0.000000e+00 0.000000e+00
      outer loop
         vertex 2.000000e+00 6.651757e-01 4.444562e-01
         vertex 2.000000e+00 7.391036e-01 3.061467e-01
         vertex 2.000000e+00 9.238795e-01 3.826834e-01
      endloop
   endfacet
   facet normal 1.000000e+00 0.000000e+00 0.000000e+00
      outer loop
         vertex 2.000000e+00 9.238795e-01 3.826834e-01
         vertex 2.000000e+00 7.391036e-01 3.061467e-01
         vertex 2.000000e+00 9.807853e-01 1.950903e-01
      endloop
   endfacet
   facet normal 1.000000e+00 0.000000e+00 0.000000e+00
      outer loop
         vertex 2.000000e+00 7.391036e-01 3.061467e-01
         vertex 2.000000e+00 7.846282e-01 1.560723e-01
         vertex 2.000000e+00 9.807853e-01 1.950903e-01
      endloop
   endfacet
   facet normal 1.000000e+00 0.000000e+00 0.000000e+00
      outer loop
         vertex 2.000000e+00 9.807853e-01 1.950903e-01
         vertex 2.000000e+00 7.846282e-01 1.560723e-01
         vertex 2.000000e+00 1.000000e+00 -1.224606e-16
      endloop
   endfacet
   facet normal 1.000000e+00 0.000000e+00 0.000000e+00
      outer loop
         vertex 2.000000e+00 7.071068e-01 7.071068e-01
         vertex 2.000000e+00 5.555702e-01 8.314696e-01
         vertex 2.000000e+00 1.560723e-01 7.846282e-01
      endloop
   endfacet
   facet normal 1.000000e+00 0.000000e+00 0.000000e+00
      outer loop
         vertex 2.000000e+00 7.071068e-01 7.071068e-01
         vertex 2.000000e+00 1.560723e-01 7.846282e-01
         vertex 2.000000e+00 3.061467e-01 7.391036e-01
      endloop
   endfacet
   facet normal 1.000000e+00 0.000000e+00 0.000000e+00
      outer loop
         vertex 2.000000e+00 7.071068e-01 7.071068e-01
         vertex 2.000000e+00 3.061467e-01 7.391036e-01
         vertex 2.000000e+00 4.444562e-01 6.651757e-01
      endloop
   endfacet
   facet normal 1.000000e+00 0.000000e+00 0.000000e+00
      outer loop
         vertex 2.000000e+00 7.071068e-01 7.071068e-01
         vertex 2.000000e+00 4.444562e-01 6.651757e-01
         vertex 2.000000e+00 8.314696e-01 5.555702e-01
      endloop
   endfacet
   facet normal 1.000000e+00 0.000000e+00 0.000000e+00
      outer loop
         vertex 2.000000e+00 6.123032e-17 1.000000e+00
         vertex 2.000000e+00 -1.950903e-01 9.807853e-01
         vertex 2.000000e+00 1.950903e-01 9.807853e-01
      endloop
   endfacet
   facet normal 1.000000e+00 0.000000e+00 0.000000e+00
      outer loop
         vertex 2.000000e+00 -1.950903e-01 9.807853e-01
         vertex 2.000000e+00 -3.826834e-01 9.238795e-01
         vertex 2.000000e+00 1.950903e-01 9.807853e-01
      endloop
   endfacet
   facet normal 1.000000e+00 0.000000e+00 0.000000e+00
      outer loop
         vertex 2.000000e+00 1.950903e-01 9.807853e-01
         vertex 2.000000e+00 -3.826834e-01 9.238795e-01
         vertex 2.000000e+00 3.826834e-01 9.238795e-01
      endloop
   endfacet
   facet normal 1.000000e+00 0.000000e+00 0.000000e+00
      outer loop
         vertex 2.000000e+00 -3.826834e-01 9.238795e-01
         vertex 2.000000e+00 -5.555702e-01 8.314696e-01
         vertex 2.000000e+00 3.826834e-01 9.238795e-01
      endloop
   endfacet
   facet normal 1.000000e+00 0.000000e+00 0.000000e+00
      outer loop
         vertex 2.000000e+00 3.826834e-01 9.238795e-01
         vertex 2.000000e+00 -5.555702e-01 8.314696e-01
         vertex 2.000000e+00 5.555702e-01 8.314696e-01
      endloop
   endfacet
   facet normal 1.000000e+00 0.000000e+00 0.000000e+00
      outer loop
         vertex 2.000000e+00 -5.555702e-01 8.314696e-01
         vertex 2.000000e+00 4.898425e-17 8.000000e-01
         vertex 2.000000e+00 5.555702e-01 8.314696e-01
      endloop
   endfacet
   facet normal 1.000000e+00 0.000000e+00 0.000000e+00
      outer loop
         vertex 2.000000e+00 5.555702e-01 8.314696e-01
         vertex 2.000000e+00 4.898425e-17 8.000000e-01
         vertex 2.000000e+00 1.560723e-01 7.846282e-01
      endloop
   endfacet
   facet normal 1.000000e+00 0.000000e+00 0.000000e+00
      outer loop
         vertex 2.000000e+00 -3.061467e-01 -7.391036e-01
         vertex 2.000000e+00 -4.444562e-01 -6.651757e-01
         vertex 2.000000e+00 -7.071068e-01 -7.071068e-01
      endloop
   endfacet
   facet normal 1.000000e+00 0.000000e+00 0.000000e+00
      outer loop
         vertex 2.000000e+00 -3.061467e-01 -7.391036e-01
         vertex 2.000000e+00 -7.071068e-01 -7.071068e-01
         vertex 2.000000e+00 -5.555702e-01 -8.314696e-01
      endloop
   endfacet
   facet normal 1.000000e+00 0.000000e+00 0.000000e+00
      outer loop
         vertex 2.000000e+00 -3.061467e-01 -7.391036e-01
         vertex 2.000000e+00 -5.555702e-01 -8.314696e-01
         vertex 2.000000e+00 -1.560723e-01 -7.846282e-01
      endloop
   endfacet
   facet normal 1.000000e+00 0.000000e+00 0.000000e+00
      outer loop
         vertex 2.000000e+00 -7.846282e-01 -1.560723e-01
         vertex 2.000000e+00 -9.807853e-01 -1.950903e-01
         vertex 2.000000e+00 -7.391036e-01 -3.061467e-01
      endloop
   endfacet
   facet normal 1.000000e+00 0.000000e+00 0.000000e+00
      outer loop
         vertex 2.000000e+00 -9.807853e-01 -1.950903e-01
         vertex 2.000000e+00 -9.238795e-01 -3.826834e-01
         vertex 2.000000e+00 -7.391036e-01 -3.061467e-01
      endloop
   endfacet
   facet normal 1.000000e+00 0.000000e+00 0.000000e+00
      outer loop
         vertex 2.000000e+00 -7.391036e-01 -3.061467e-01
         vertex 2.000000e+00 -9.238795e-01 -3.826834e-01
         vertex 2.000000e+00 -6.651757e-01 -4.444562e-01
      endloop
   endfacet
   facet normal 1.000000e+00 0.000000e+00 0.000000e+00
      outer loop
         vertex 2.000000e+00 -9.238795e-01 -3.826834e-01
         vertex 2.000000e+00 -8.314696e-01 -5.555702e-01
         vertex 2.000000e+00 -6.651757e-01 -4.444562e-01
      endloop
   endfacet
   facet normal 1.000000e+00 0.000000e+00 0.000000e+00
      outer loop
         vertex 2.000000e+00 -6.651757e-01 -4.444562e-01
         vertex 2.000000e+00 -8.314696e-01 -5.555702e-01
         vertex 2.000000e+00 -5.656854e-01 -5.656854e-01
      endloop
   endfacet
   facet normal 1.000000e+00 0.000000e+00 0.000000e+00
      outer loop
         vertex 2.000000e+00 -8.314696e-01 -5.555702e-01
         vertex 2.000000e+00 -7.071068e-01 -7.071068e-01
         vertex 2.000000e+00 -5.656854e-01 -5.656854e-01
      endloop
   endfacet
   facet normal 1.000000e+00 0.000000e+00 0.000000e+00
      outer loop
         vertex 2.000000e+00 -5.656854e-01 -5.656854e-01
         vertex 2.000000e+00 -7.071068e-01 -7.071068e-01
         vertex 2.000000e+00 -4.444562e-01 -6.651757e-01
      endloop
   endfacet
   facet normal 1.000000e+00 0.000000e+00 0.000000e+00
      outer loop
         vertex 2.000000e+00 -5.656854e-01 5.656854e-01
         vertex 2.000000e+00 -8.314696e-01 5.555702e-01
         vertex 2.000000e+00 -6.651757e-01 4.444562e-01
      endloop
   endfacet
   facet normal 1.000000e+00 0.000000e+00 0.000000e+00
      outer loop
         vertex 2.000000e+00 -8.314696e-01 5.555702e-01
         vertex 2.000000e+00 -9.238795e-01 3.826834e-01
         vertex 2.000000e+00 -6.651757e-01 4.444562e-01
      endloop
   endfacet
   facet normal 1.000000e+00 0.000000e+00 0.000000e+00
      outer loop
         vertex 2.000000e+00 -6.651757e-01 4.444562e-01
         vertex 2.000000e+00 -9.238795e-01 3.826834e-01
         vertex 2.000000e+00 -7.391036e-01 3.061467e-01
      endloop
   endfacet
   facet normal 1.000000e+00 0.000000e+00 0.000000e+00
      outer loop
         vertex 2.000000e+00 -9.238795e-01 3.826834e-01
         vertex 2.000000e+00 -9.807853e-01 1.950903e-01
         vertex 2.000000e+00 -7.391036e-01 3.061467e-01
      endloop
   endfacet
   facet normal 1.000000e+00 0.000000e+00 0.000000e+00
      outer loop
         vertex 2.000000e+00 -7.391036e-01 3.061467e-01
         vertex 2.000000e+00 -9.807853e-01 1.950903e-01
         vertex 2.000000e+00 -7.846282e-01 1.560723e-01
      endloop
   endfacet
   facet normal 1.000000e+00 0.000000e+00 0.000000e+00
      outer loop
         vertex 2.000000e+00 -9.807853e-01 1.950903e-01
         vertex 2.000000e+00 -1.000000e+00 1.224606e-16
         vertex 2.000000e+00 -7.846282e-01 1.560723e-01
      endloop
   endfacet
   facet normal 1.000000e+00 0.000000e+00 0.000000e+00
      outer loop
         vertex 2.000000e+00 -7.846282e-01 1.560723e-01
         vertex 2.000000e+00 -1.000000e+00 1.224606e-16
         vertex 2.000000e+00 -8.000000e-01 0.000000e+00
      endloop
   endfacet
   facet normal 1.000000e+00 0.000000e+00 0.000000e+00
      outer loop
         vertex 2.000000e+00 -1.000000e+00 1.224606e-16
         vertex 2.000000e+00 -9.807853e-01 -1.950903e-01
         vertex 2.000000e+00 -8.000000e-01 0.000000e+00
      endloop
   endfacet
   facet normal 1.000000e+00 0.000000e+00 0.000000e+00
      outer loop
         vertex 2.000000e+00 -8.000000e-01 0.000000e+00
         vertex 2.000000e+00 -9.807853e-01 -1.950903e-01
         vertex 2.000000e+00 -7.846282e-01 -1.560723e-01
      endloop
   endfacet
   facet normal 1.000000e+00 0.000000e+00 0.000000e+00
      outer loop
         vertex 2.000000e+00 -4.444562e-01 6.651757e-01
         vertex 2.000000e+00 -3.061467e-01 7.391036e-01
         vertex 2.000000e+00 -7.071068e-01 7.071068e-01
      endloop
   endfacet
   facet normal 1.000000e+00 0.000000e+00 0.000000e+00
      outer loop
         vertex 2.000000e+00 -4.444562e-01 6.651757e-01
         vertex 2.000000e+00 -7.071068e-01 7.071068e-01
         vertex 2.000000e+00 -8.314696e-01 5.555702e-01
      endloop
   endfacet
   facet normal 1.000000e+00 0.000000e+00 0.000000e+00
      outer loop
         vertex 2.000000e+00 -4.444562e-01 6.651757e-01
         vertex 2.000000e+00 -8.314696e-01 5.555702e-01
         vertex 2.000000e+00 -5.656854e-01 5.656854e-01
      endloop
   endfacet
   facet normal 1.000000e+00 0.000000e+00 0.000000e+00
      outer loop
         vertex 2.000000e+00 -1.560723e-01 7.846282e-01
         vertex 2.000000e+00 4.898425e-17 8.000000e-01
         vertex 2.000000e+00 -5.555702e-01 8.314696e-01
      endloop
   endfacet
   facet normal 1.000000e+00 0.000000e+00 0.000000e+00
      outer loop
         vertex 2.000000e+00 -1.560723e-01 7.846282e-01
         vertex 2.000000e+00 -5.555702e-01 8.314696e-01
         vertex 2.000000e+00 -7.071068e-01 7.071068e-01
      endloop
   endfacet
   facet normal 1.000000e+00 0.000000e+00 0.000000e+00
      outer loop
         vertex 2.000000e+00 -1.560723e-01 7.846282e-01
         vertex 2.000000e+00 -7.071068e-01 7.071068e-01
         vertex 2.000000e+00 -3.061467e-01 7.391036e-01
      endloop
   endfacet
   facet normal -0.000000e+00 9.951847e-01 9.801714e-02
      outer loop
         vertex 2.000000e+00 -7.846282e-01 -1.560723e-01
         vertex 1.000000e+00 -8.000000e-01 0.000000e+00
         vertex 2.000000e+00 -8.000000e-01 0.000000e+00
      endloop
   endfacet
   facet normal -0.000000e+00 9.951847e-01 9.801714e-02
      outer loop
         vertex 2.000000e+00 -7.846282e-01 -1.560723e-01
         vertex 1.000000e+00 -7.846282e-01 -1.560723e-01
         vertex 1.000000e+00 -8.000000e-01 0.000000e+00
      endloop
   endfacet
   facet normal -0.000000e+00 9.569403e-01 2.902847e-01
      outer loop
         vertex 2.000000e+00 -7.391036e-01 -3.061467e-01
         vertex 1.000000e+00 -7.846282e-01 -1.560723e-01
         vertex 2.000000e+00 -7.846282e-01 -1.560723e-01
      endloop
   endfacet
   facet normal -0.000000e+00 9.569403e-01 2.902847e-01
      outer loop
         vertex 2.000000e+00 -7.391036e-01 -3.061467e-01
         vertex 1.000000e+00 -7.391036e-01 -3.061467e-01
         vertex 1.000000e+00 -7.846282e-01 -1.560723e-01
      endloop
   endfacet
   facet normal -0.000000e+00 8.819213e-01 4.713967e-01
      outer loop
         vertex 2.000000e+00 -6.651757e-01 -4.444562e-01
         vertex 1.000000e+00 -7.391036e-01 -3.061467e-01
         vertex 2.000000e+00 -7.391036e-01 -3.061467e-01
      endloop
   endfacet
   facet normal -0.000000e+00 8.819213e-01 4.713967e-01
      outer loop
         vertex 2.000000e+00 -6.651757e-01 -4.444562e-01
         vertex 1.000000e+00 -6.651757e-01 -4.444562e-01
         vertex 1.000000e+00 -7.391036e-01 -3.061467e-01
      endloop
   endfacet
   facet normal -0.000000e+00 7.730105e-01 6.343933e-01
      outer loop
         vertex 2.000000e+00 -5.656854e-01 -5.656854e-01
         vertex 1.000000e+00 -6.651757e-01 -4.444562e-01
         vertex 2.000000e+00 -6.651757e-01 -4.444562e-01
      endloop
   endfacet
   facet normal -0.000000e+00 7.730105e-01 6.343933e-01
      outer loop
         vertex 2.000000e+00 -5.656854e-01 -5.656854e-01
         vertex 1.000000e+00 -5.656854e-01 -5.656854e-01
         vertex 1.000000e+00 -6.651757e-01 -4.444562e-01
      endloop
   endfacet
   facet normal -0.000000e+00 6.343933e-01 7.730105e-01
      outer loop
         vertex 2.000000e+00 -4.444562e-01 -6.651757e-01
         vertex 1.000000e+00 -5.656854e-01 -5.656854e-01
         vertex 2.000000e+00 -5.656854e-01 -5.656854e-01
      endloop
   endfacet
   facet normal -0.000000e+00 6.343933e-01 7.730105e-01
      outer loop
         vertex 2.000000e+00 -4.444562e-01 -6.651757e-01
         vertex 1.000000e+00 -4.444562e-01 -6.651757e-01
         vertex 1.000000e+00 -5.656854e-01 -5.656854e-01
      endloop
   endfacet
   facet normal -0.000000e+00 4.713967e-01 8.819213e-01
      outer loop
         vertex 2.000000e+00 -3.061467e-01 -7.391036e-01
         vertex 1.000000e+00 -4.444562e-01 -6.651757e-01
         vertex 2.000000e+00 -4.444562e-01 -6.651757e-01
      endloop
   endfacet
   facet normal -0.000000e+00 4.713967e-01 8.819213e-01
      outer loop
         vertex 2.000000e+00 -3.061467e-01 -7.391036e-01
         vertex 1.000000e+00 -3.061467e-01 -7.391036e-01
         vertex 1.000000e+00 -4.444562e-01 -6.651757e-01
      endloop
   endfacet
   facet normal -0.000000e+00 2.902847e-01 9.569403e-01
      outer loop
         vertex 2.000000e+00 -1.560723e-01 -7.846282e-01
         vertex 1.000000e+00 -3.061467e-01 -7.391036e-01
         vertex 2.000000e+00 -3.061467e-01 -7.391036e-01
      endloop
   endfacet
   facet normal -0.000000e+00 2.902847e-01 9.569403e-01
      outer loop
         vertex 2.000000e+00 -1.560723e-01 -7.846282e-01
         vertex 1.000000e+00 -1.560723e-01 -7.846282e-01
         vertex 1.000000e+00 -3.061467e-01 -7.391036e-01
      endloop
   endfacet
   facet normal -0.000000e+00 9.801714e-02 9.951847e-01
      outer loop
         vertex 2.000000e+00 -7.832005e-17 -8.000000e-01
         vertex 1.000000e+00 -1.560723e-01 -7.846282e-01
         vertex 2.000000e+00 -1.560723e-01 -7.846282e-01
      endloop
   endfacet
   facet normal -0.000000e+00 9.801714e-02 9.951847e-01
      outer loop
         vertex 2.000000e+00 -7.832005e-17 -8.000000e-01
         vertex 1.000000e+00 -4.898425e-17 -8.000000e-01
         vertex 1.000000e+00 -1.560723e-01 -7.846282e-01
      endloop
   endfacet
   facet normal 0.000000e+00 -9.801714e-02 9.951847e-01
      outer loop
         vertex 2.000000e+00 1.560723e-01 -7.846282e-01
         vertex 1.000000e+00 -4.898425e-17 -8.000000e-01
         vertex 2.000000e+00 -7.832005e-17 -8.000000e-01
      endloop
   endfacet
   facet normal 0.000000e+00 -9.801714e-02 9.951847e-01
      outer loop
         vertex 2.000000e+00 1.560723e-01 -7.846282e-01
         vertex 1.000000e+00 1.560723e-01 -7.846282e-01
         vertex 1.000000e+00 -4.898425e-17 -8.000000e-01
      endloop
   endfacet
   facet normal 0.000000e+00 -2.902847e-01 9.569403e-01
      outer loop
         vertex 2.000000e+00 3.061467e-01 -7.391036e-01
         vertex 1.000000e+00 1.560723e-01 -7.846282e-01
         vertex 2.000000e+00 1.560723e-01 -7.846282e-01
      endloop
   endfacet
   facet normal 0.000000e+00 -2.902847e-01 9.569403e-01
      outer loop
         vertex 2.000000e+00 3.061467e-01 -7.391036e-01
         vertex 1.000000e+00 3.061467e-01 -7.391036e-01
         vertex 1.000000e+00 1.560723e-01 -7.846282e-01
      endloop
   endfacet
   facet normal 0.000000e+00 -4.713967e-01 8.819213e-01
      outer loop
         vertex 2.000000e+00 4.444562e-01 -6.651757e-01
         vertex 1.000000e+00 3.061467e-01 -7.391036e-01
         vertex 2.000000e+00 3.061467e-01 -7.391036e-01
      endloop
   endfacet
   facet normal 0.000000e+00 -4.713967e-01 8.819213e-01
      outer loop
         vertex 2.000000e+00 4.444562e-01 -6.651757e-01
         vertex 1.000000e+00 4.444562e-01 -6.651757e-01
         vertex 1.000000e+00 3.061467e-01 -7.391036e-01
      endloop
   endfacet
   facet normal 0.000000e+00 -6.343933e-01 7.730105e-01
      outer loop
         vertex 2.000000e+00 5.656854e-01 -5.656854e-01
         vertex 1.000000e+00 4.444562e-01 -6.651757e-01
         vertex 2.000000e+00 4.444562e-01 -6.651757e-01
      endloop
   endfacet
   facet normal 0.000000e+00 -6.343933e-01 7.730105e-01
      outer loop
         vertex 2.000000e+00 5.656854e-01 -5.656854e-01
         vertex 1.000000e+00 5.656854e-01 -5.656854e-01
         vertex 1.000000e+00 4.444562e-01 -6.651757e-01
      endloop
   endfacet
   facet normal 0.000000e+00 -7.730105e-01 6.343933e-01
      outer loop
         vertex 2.000000e+00 6.651757e-01 -4.444562e-01
         vertex 1.000000e+00 5.656854e-01 -5.656854e-01
         vertex 2.000000e+00 5.656854e-01 -5.656854e-01
      endloop
   endfacet
   facet normal 0.000000e+00 -7.730105e-01 6.343933e-01
      outer loop
         vertex 2.000000e+00 6.651757e-01 -4.444562e-01
         vertex 1.000000e+00 6.651757e-01 -4.444562e-01
         vertex 1.000000e+00 5.656854e-01 -5.656854e-01
      endloop
   endfacet
   facet normal 0.000000e+00 -8.819213e-01 4.713967e-01
      outer loop
         vertex 2.000000e+00 7.391036e-01 -3.061467e-01
         vertex 1.000000e+00 6.651757e-01 -4.444562e-01
         vertex 2.000000e+00 6.651757e-01 -4.444562e-01
      endloop
   endfacet
   facet normal 0.000000e+00 -8.819213e-01 4.713967e-01
      outer loop
         vertex 2.000000e+00 7.391036e-01 -3.061467e-01
         vertex 1.000000e+00 7.391036e-01 -3.061467e-01
         vertex 1.000000e+00 6.651757e-01 -4.444562e-01
      endloop
   endfacet
   facet normal 0.000000e+00 -9.569403e-01 2.902847e-01
      outer loop
         vertex 2.000000e+00 7.846282e-01 -1.560723e-01
         vertex 1.000000e+00 7.391036e-01 -3.061467e-01
         vertex 2.000000e+00 7.391036e-01 -3.061467e-01
      endloop
   endfacet
   facet normal 0.000000e+00 -9.569403e-01 2.902847e-01
      outer loop
         vertex 2.000000e+00 7.846282e-01 -1.560723e-01
         vertex 1.000000e+00 7.846282e-01 -1.560723e-01
         vertex 1.000000e+00 7.391036e-01 -3.061467e-01
      endloop
   endfacet
   facet normal 0.000000e+00 -9.951847e-01 9.801714e-02
      outer loop
         vertex 2.000000e+00 8.000000e-01 -2.305420e-16
         vertex 1.000000e+00 7.846282e-01 -1.560723e-01
         vertex 2.000000e+00 7.846282e-01 -1.560723e-01
      endloop
   endfacet
   facet normal 0.000000e+00 -9.951847e-01 9.801714e-02
      outer loop
         vertex 2.000000e+00 8.000000e-01 -2.305420e-16
         vertex 1.000000e+00 8.000000e-01 0.000000e+00
         vertex 1.000000e+00 7.846282e-01 -1.560723e-01
      endloop
   endfacet
   facet normal 0.000000e+00 -9.951847e-01 -9.801714e-02
      outer loop
         vertex 2.000000e+00 7.846282e-01 1.560723e-01
         vertex 1.000000e+00 8.000000e-01 0.000000e+00
         vertex 2.000000e+00 8.000000e-01 0.000000e+00
      endloop
   endfacet
   facet normal 0.000000e+00 -9.951847e-01 -9.801714e-02
      outer loop
         vertex 2.000000e+00 7.846282e-01 1.560723e-01
         vertex 1.000000e+00 7.846282e-01 1.560723e-01
         vertex 1.000000e+00 8.000000e-01 0.000000e+00
      endloop
   endfacet
   facet normal 0.000000e+00 -9.569403e-01 -2.902847e-01
      outer loop
         vertex 2.000000e+00 7.391036e-01 3.061467e-01
         vertex 1.000000e+00 7.846282e-01 1.560723e-01
         vertex 2.000000e+00 7.846282e-01 1.560723e-01
      endloop
   endfacet
   facet normal 0.000000e+00 -9.569403e-01 -2.902847e-01
      outer loop
         vertex 2.000000e+00 7.391036e-01 3.061467e-01
         vertex 1.000000e+00 7.391036e-01 3.061467e-01
         vertex 1.000000e+00 7.846282e-01 1.560723e-01
      endloop
   endfacet
   facet normal 0.000000e+00 -8.819213e-01 -4.713967e-01
      outer loop
         vertex 2.000000e+00 6.651757e-01 4.444562e-01
         vertex 1.000000e+00 7.391036e-01 3.061467e-01
         vertex 2.000000e+00 7.391036e-01 3.061467e-01
      endloop
   endfacet
   facet normal 0.000000e+00 -8.819213e-01 -4.713967e-01
      outer loop
         vertex 2.000000e+00 6.651757e-01 4.444562e-01
         vertex 1.000000e+00 6.651757e-01 4.444562e-01
         vertex 1.000000e+00 7.391036e-01 3.061467e-01
      endloop
   endfacet
   facet normal 0.000000e+00 -7.730105e-01 -6.343933e-01
      outer loop
         vertex 2.000000e+00 5.656854e-01 5.656854e-01
         vertex 1.000000e+00 6.651757e-01 4.444562e-01
         vertex 2.000000e+00 6.651757e-01 4.444562e-01
      endloop
   endfacet
   facet normal 0.000000e+00 -7.730105e-01 -6.343933e-01
      outer loop
         vertex 2.000000e+00 5.656854e-01 5.656854e-01
         vertex 1.000000e+00 5.656854e-01 5.656854e-01
         vertex 1.000000e+00 6.651757e-01 4.444562e-01
      endloop
   endfacet
   facet normal 0.000000e+00 -6.343933e-01 -7.730105e-01
      outer loop
         vertex 2.000000e+00 4.444562e-01 6.651757e-01
         vertex 1.000000e+00 5.656854e-01 5.656854e-01
         vertex 2.000000e+00 5.656854e-01 5.656854e-01
      endloop
   endfacet
   facet normal 0.000000e+00 -6.343933e-01 -7.730105e-01
      outer loop
         vertex 2.000000e+00 4.444562e-01 6.651757e-01
         vertex 1.000000e+00 4.444562e-01 6.651757e-01
         vertex 1.000000e+00 5.656854e-01 5.656854e-01
      endloop
   endfacet
   facet normal 0.000000e+00 -4.713967e-01 -8.819213e-01
      outer loop
         vertex 2.000000e+00 3.061467e-01 7.391036e-01
         vertex 1.000000e+00 4.444562e-01 6.651757e-01
         vertex 2.000000e+00 4.444562e-01 6.651757e-01
      endloop
   endfacet
   facet normal 0.000000e+00 -4.713967e-01 -8.819213e-01
      outer loop
         vertex 2.000000e+00 3.061467e-01 7.391036e-01
         vertex 1.000000e+00 3.061467e-01 7.391036e-01
         vertex 1.000000e+00 4.444562e-01 6.651757e-01
      endloop
   endfacet
   facet normal 0.000000e+00 -2.902847e-01 -9.569403e-01
      outer loop
         vertex 2.000000e+00 1.560723e-01 7.846282e-01
         vertex 1.000000e+00 3.061467e-01 7.391036e-01
         vertex 2.000000e+00 3.061467e-01 7.391036e-01
      endloop
   endfacet
   facet normal 0.000000e+00 -2.902847e-01 -9.569403e-01
      outer loop
         vertex 2.000000e+00 1.560723e-01 7.846282e-01
         vertex 1.000000e+00 1.560723e-01 7.846282e-01
         vertex 1.000000e+00 3.061467e-01 7.391036e-01
      endloop
   endfacet
   facet normal 0.000000e+00 -9.801714e-02 -9.951847e-01
      outer loop
         vertex 2.000000e+00 7.832005e-17 8.000000e-01
         vertex 1.000000e+00 1.560723e-01 7.846282e-01
         vertex 2.000000e+00 1.560723e-01 7.846282e-01
      endloop
   endfacet
   facet normal 0.000000e+00 -9.801714e-02 -9.951847e-01
      outer loop
         vertex 2.000000e+00 7.832005e-17 8.000000e-01
         vertex 1.000000e+00 4.898425e-17 8.000000e-01
         vertex 1.000000e+00 1.560723e-01 7.846282e-01
      endloop
   endfacet
   facet normal 0.000000e+00 9.801714e-02 -9.951847e-01
      outer loop
         vertex 2.000000e+00 -1.560723e-01 7.846282e-01
         vertex 1.000000e+00 4.898425e-17 8.000000e-01
         vertex 2.000000e+00 7.832005e-17 8.000000e-01
      endloop
   endfacet
   facet normal 0.000000e+00 9.801714e-02 -9.951847e-01
      outer loop
         vertex 2.000000e+00 -1.560723e-01 7.846282e-01
         vertex 1.000000e+00 -1.560723e-01 7.846282e-01
         vertex 1.000000e+00 4.898425e-17 8.000000e-01
      endloop
   endfacet
   facet normal 0.000000e+00 2.902847e-01 -9.569403e-01
      outer loop
         vertex 2.000000e+00 -3.061467e-01 7.391036e-01
         vertex 1.000000e+00 -1.560723e-01 7.846282e-01
         vertex 2.000000e+00 -1.560723e-01 7.846282e-01
      endloop
   endfacet
   facet normal 0.000000e+00 2.902847e-01 -9.569403e-01
      outer loop
         vertex 2.000000e+00 -3.061467e-01 7.391036e-01
         vertex 1.000000e+00 -3.061467e-01 7.391036e-01
         vertex 1.000000e+00 -1.560723e-01 7.846282e-01
      endloop
   endfacet
   facet normal 0.000000e+00 4.713967e-01 -8.819213e-01
      outer loop
         vertex 2.000000e+00 -4.444562e-01 6.651757e-01
         vertex 1.000000e+00 -3.061467e-01 7.391036e-01
         vertex 2.000000e+00 -3.061467e-01 7.391036e-01
      endloop
   endfacet
   facet normal 0.000000e+00 4.713967e-01 -8.819213e-01
      outer loop
         vertex 2.000000e+00 -4.444562e-01 6.651757e-01
         vertex 1.000000e+00 -4.444562e-01 6.651757e-01
         vertex 1.000000e+00 -3.061467e-01 7.391036e-01
      endloop
   endfacet
   facet normal 0.000000e+00 6.343933e-01 -7.730105e-01
      outer loop
         vertex 2.000000e+00 -5.656854e-01 5.656854e-01
         vertex 1.000000e+00 -4.444562e-01 6.651757e-01
         vertex 2.000000e+00 -4.444562e-01 6.651757e-01
      endloop
   endfacet
   facet normal 0.000000e+00 6.343933e-01 -7.730105e-01
      outer loop
         vertex 2.000000e+00 -5.656854e-01 5.656854e-01
         vertex 1.000000e+00 -5.656854e-01 5.656854e-01
         vertex 1.000000e+00 -4.444562e-01 6.651757e-01
      endloop
   endfacet
   facet normal 0.000000e+00 7.730105e-01 -6.343933e-01
      outer loop
         vertex 2.000000e+00 -6.651757e-01 4.444562e-01
         vertex 1.000000e+00 -5.656854e-01 5.656854e-01
         vertex 2.000000e+00 -5.656854e-01 5.656854e-01
      endloop
   endfacet
   facet normal 0.000000e+00 7.730105e-01 -6.343933e-01
      outer loop
         vertex 2.000000e+00 -6.651757e-01 4.444562e-01
         vertex 1.000000e+00 -6.651757e-01 4.444562e-01
         vertex 1.000000e+00 -5.656854e-01 5.656854e-01
      endloop
   endfacet
   facet normal 0.000000e+00 8.819213e-01 -4.713967e-01
      outer loop
         vertex 2.000000e+00 -7.391036e-01 3.061467e-01
         vertex 1.000000e+00 -6.651757e-01 4.444562e-01
         vertex 2.000000e+00 -6.651757e-01 4.444562e-01
      endloop
   endfacet
   facet normal 0.000000e+00 8.819213e-01 -4.713967e-01
      outer loop
         vertex 2.000000e+00 -7.391036e-01 3.061467e-01
         vertex 1.000000e+00 -7.391036e-01 3.061467e-01
         vertex 1.000000e+00 -6.651757e-01 4.444562e-01
      endloop
   endfacet
   facet normal 0.000000e+00 9.569403e-01 -2.902847e-01
      outer loop
         vertex 2.000000e+00 -7.846282e-01 1.560723e-01
         vertex 1.000000e+00 -7.391036e-01 3.061467e-01
         vertex 2.000000e+00 -7.391036e-01 3.061467e-01
      endloop
   endfacet
   facet normal 0.000000e+00 9.569403e-01 -2.902847e-01
      outer loop
         vertex 2.000000e+00 -7.846282e-01 1.560723e-01
         vertex 1.000000e+00 -7.846282e-01 1.560723e-01
         vertex 1.000000e+00 -7.391036e-01 3.061467e-01
      endloop
   endfacet
   facet normal 0.000000e+00 9.951847e-01 -9.801714e-02
      outer loop
         vertex 2.000000e+00 -8.000000e-01 2.305420e-16
         vertex 1.000000e+00 -7.846282e-01 1.560723e-01
         vertex 2.000000e+00 -7.846282e-01 1.560723e-01
      endloop
   endfacet
   facet normal 0.000000e+00 9.951847e-01 -9.801714e-02
      outer loop
         vertex 2.000000e+00 -8.000000e-01 2.305420e-16
         vertex 1.000000e+00 -8.000000e-01 0.000000e+00
         vertex 1.000000e+00 -7.846282e-01 1.560723e-01
      endloop
   endfacet
endsolid
