solid sol1
   facet normal 0.000000e+00 0.000000e+00 1.000000e+00
      outer loop
         vertex -3.000000e+00 -2.000000e+00 5.000000e-01
         vertex 7.000000e+00 -2.000000e+00 5.000000e-01
         vertex 7.000000e+00 2.000000e+00 5.000000e-01
      endloop
   endfacet
   facet normal 0.000000e+00 0.000000e+00 1.000000e+00
      outer loop
         vertex -3.000000e+00 -2.000000e+00 5.000000e-01
         vertex 7.000000e+00 2.000000e+00 5.000000e-01
         vertex -3.000000e+00 2.000000e+00 5.000000e-01
      endloop
   endfacet
   facet normal 0.000000e+00 0.000000e+00 -1.000000e+00
      outer loop
         vertex -3.000000e+00 2.000000e+00 -3.835365e-17
         vertex 7.000000e+00 2.000000e+00 -2.688821e-17
         vertex 7.000000e+00 -2.000000e+00 1.715750e-17
      endloop
   endfacet
   facet normal 0.000000e+00 0.000000e+00 -1.000000e+00
      outer loop
         vertex -3.000000e+00 2.000000e+00 -3.835365e-17
         vertex 7.000000e+00 -2.000000e+00 1.715750e-17
         vertex -3.000000e+00 -2.000000e+00 7.434916e-17
      endloop
   endfacet
   facet normal -1.000000e+00 1.224606e-16 0.000000e+00
      outer loop
         vertex -3.000000e+00 2.000000e+00 5.000000e-01
         vertex -3.000000e+00 2.000000e+00 -2.691532e-17
         vertex -3.000000e+00 -2.000000e+00 -1.547699e-17
      endloop
   endfacet
   facet normal -1.000000e+00 1.224606e-16 0.000000e+00
      outer loop
         vertex -3.000000e+00 2.000000e+00 5.000000e-01
         vertex -3.000000e+00 -2.000000e+00 -1.547699e-17
         vertex -3.000000e+00 -2.000000e+00 5.000000e-01
      endloop
   endfacet
   facet normal -1.836910e-16 -1.000000e+00 0.000000e+00
      outer loop
         vertex -3.000000e+00 -2.000000e+00 5.000000e-01
         vertex -3.000000e+00 -2.000000e+00 -1.547699e-17
         vertex 7.000000e+00 -2.000000e+00 2.051853e-17
      endloop
   endfacet
   facet normal -1.836910e-16 -1.000000e+00 0.000000e+00
      outer loop
         vertex -3.000000e+00 -2.000000e+00 5.000000e-01
         vertex 7.000000e+00 -2.000000e+00 2.051853e-17
         vertex 7.000000e+00 -2.000000e+00 5.000000e-01
      endloop
   endfacet
   facet normal 1.000000e+00 0.000000e+00 0.000000e+00
      outer loop
         vertex 7.000000e+00 -2.000000e+00 5.000000e-01
         vertex 7.000000e+00 -2.000000e+00 2.051853e-17
         vertex 7.000000e+00 2.000000e+00 -1.547699e-17
      endloop
   endfacet
   facet normal 1.000000e+00 0.000000e+00 0.000000e+00
      outer loop
         vertex 7.000000e+00 -2.000000e+00 5.000000e-01
         vertex 7.000000e+00 2.000000e+00 -1.547699e-17
         vertex 7.000000e+00 2.000000e+00 5.000000e-01
      endloop
   endfacet
   facet normal 6.123032e-17 1.000000e+00 0.000000e+00
      outer loop
         vertex 7.000000e+00 2.000000e+00 5.000000e-01
         vertex 7.000000e+00 2.000000e+00 -1.547699e-17
         vertex -3.000000e+00 2.000000e+00 -2.691532e-17
      endloop
   endfacet
   facet normal 6.123032e-17 1.000000e+00 0.000000e+00
      outer loop
         vertex 7.000000e+00 2.000000e+00 5.000000e-01
         vertex -3.000000e+00 2.000000e+00 -2.691532e-17
         vertex -3.000000e+00 2.000000e+00 5.000000e-01
      endloop
   endfacet
endsolid
